<svg width="68" height="68" viewBox="0 0 68 68" fill="none" xmlns="http://www.w3.org/2000/svg">
<g clip-path="url(#clip0_597_1648)">
<path d="M3.83679 2.77584C4.01787 2.58387 4.19895 2.58387 4.38004 2.58387C4.38004 2.58387 4.56112 2.58387 4.56112 2.39189H4.7422C5.46652 2.00793 6.19085 2.00793 6.37193 2.00793C8.72598 2.39189 10.899 4.50364 10.899 6.80736C10.899 7.38329 10.899 8.34318 10.899 8.34318V24.2773V65.1684H52.5476V43.8589" stroke="#005CA9" stroke-width="2" stroke-miterlimit="10"/>
<path d="M52.3666 36.9478V6.61538C52.3666 4.11968 50.3747 2.00793 48.0206 2.00793H6.19092C5.64767 2.00793 5.10443 2.00793 4.74227 2.19991H4.56119C4.56119 2.19991 4.38011 2.19991 4.38011 2.39189C3.29362 2.96782 2.5693 3.73573 2.20713 4.88759C2.02605 5.27154 1.84497 5.84748 1.84497 6.61538" stroke="#005CA9" stroke-width="2" stroke-miterlimit="10"/>
<path d="M1.84497 5.84753V24.2773" stroke="#005CA9" stroke-width="2" stroke-miterlimit="10"/>
<path d="M10.899 24.2772H1.48279" stroke="#005CA9" stroke-width="2" stroke-miterlimit="10"/>
<path d="M14.5206 10.6469H24.8423" stroke="#005CA9" stroke-width="2" stroke-miterlimit="10"/>
<path d="M31.5422 62.0968H46.9341" stroke="#005CA9" stroke-width="2" stroke-miterlimit="10"/>
<path d="M14.5206 15.2544H48.5639" stroke="#005CA9" stroke-width="2" stroke-miterlimit="10"/>
<path d="M14.5206 19.6698H48.5639" stroke="#005CA9" stroke-width="2" stroke-miterlimit="10"/>
<path d="M14.5206 24.2772H48.5639" stroke="#005CA9" stroke-width="2" stroke-miterlimit="10"/>
<path d="M14.5206 28.8848H48.5639" stroke="#005CA9" stroke-width="2" stroke-miterlimit="10"/>
<path d="M14.5206 33.3002H48.5639" stroke="#005CA9" stroke-width="2" stroke-miterlimit="10"/>
<path d="M14.5206 37.9076H48.5639" stroke="#005CA9" stroke-width="2" stroke-miterlimit="10"/>
<path d="M14.5206 42.5151H47.2963" stroke="#005CA9" stroke-width="2" stroke-miterlimit="10"/>
<path d="M14.5206 46.9305H42.9504" stroke="#005CA9" stroke-width="2" stroke-miterlimit="10"/>
<path d="M62.3261 33.3002L41.5017 55.3776L35.7072 57.8733L38.2423 52.1139L40.2342 49.8102L42.9504 46.9306L59.0666 29.8446L62.3261 33.3002Z" stroke="#005CA9" stroke-width="2" stroke-miterlimit="10"/>
<path d="M40.2341 49.8102L43.4936 53.2658" stroke="#005CA9" stroke-width="2" stroke-miterlimit="10"/>
<path d="M61.2395 31.5725L60.5152 30.8045C59.7908 30.0366 59.7908 28.8848 60.5152 28.1169L61.4206 27.157C62.1449 26.3891 63.2314 26.3891 63.9557 27.157L64.68 27.9249C65.4044 28.6928 65.4044 29.8447 64.68 30.6126L63.7746 31.5725C63.0503 32.3404 61.9638 32.3404 61.2395 31.5725Z" stroke="#005CA9" stroke-width="2" stroke-miterlimit="10"/>
</g>
<defs>
<clipPath id="clip0_597_1648">
<rect width="67" height="67" fill="white" transform="translate(0.0341797 0.0881348)"/>
</clipPath>
</defs>
</svg>
