<svg width="68" height="68" viewBox="0 0 68 68" fill="none" xmlns="http://www.w3.org/2000/svg">
<g clip-path="url(#clip0_597_1793)">
<path d="M66.4044 34.1405H1.49817" stroke="#005CA9" stroke-width="2" stroke-miterlimit="10" stroke-linejoin="round"/>
<path d="M33.9513 66.5936C51.8747 66.5936 66.4044 52.0639 66.4044 34.1405C66.4044 16.2171 51.8747 1.68738 33.9513 1.68738C16.0279 1.68738 1.49817 16.2171 1.49817 34.1405C1.49817 52.0639 16.0279 66.5936 33.9513 66.5936Z" stroke="#005CA9" stroke-width="2" stroke-miterlimit="10"/>
<path d="M20.076 44.6197C19.5704 41.3315 19.295 37.8077 19.295 34.1405C19.295 16.217 25.8569 1.68738 33.9513 1.68738C39.2799 1.68738 43.9437 7.98224 46.5086 17.3968" stroke="#005CA9" stroke-width="2" stroke-miterlimit="10" stroke-linejoin="round"/>
<path d="M47.8265 23.6613C48.3332 26.9484 48.6075 30.4733 48.6075 34.1405C48.6075 52.064 42.0457 66.5936 33.9512 66.5936C28.6237 66.5936 23.9609 60.3008 21.395 50.8905" stroke="#005CA9" stroke-width="2" stroke-miterlimit="10" stroke-linejoin="round"/>
<path d="M17.2076 46.6978C7.79303 44.1329 1.49817 39.4691 1.49817 34.1405C1.49817 26.0461 16.0277 19.4843 33.9513 19.4843C37.6195 19.4843 41.1465 19.7596 44.4358 20.2652" stroke="#005CA9" stroke-width="2" stroke-miterlimit="10" stroke-linejoin="round"/>
<path d="M50.695 21.5833C60.1095 24.1481 66.4044 28.8119 66.4044 34.1405C66.4044 42.235 51.8748 48.7968 33.9513 48.7968C30.2841 48.7968 26.7582 48.5214 23.47 48.0158" stroke="#005CA9" stroke-width="2" stroke-miterlimit="10" stroke-linejoin="round"/>
<path d="M47.5607 23.6718C49.2952 23.6718 50.7013 22.2656 50.7013 20.5311C50.7013 18.7966 49.2952 17.3905 47.5607 17.3905C45.8261 17.3905 44.42 18.7966 44.42 20.5311C44.42 22.2656 45.8261 23.6718 47.5607 23.6718Z" stroke="#005CA9" stroke-width="2" stroke-miterlimit="10" stroke-linejoin="round"/>
<path d="M20.3419 50.8905C22.0764 50.8905 23.4825 49.4844 23.4825 47.7499C23.4825 46.0154 22.0764 44.6093 20.3419 44.6093C18.6074 44.6093 17.2013 46.0154 17.2013 47.7499C17.2013 49.4844 18.6074 50.8905 20.3419 50.8905Z" stroke="#005CA9" stroke-width="2" stroke-miterlimit="10" stroke-linejoin="round"/>
<path d="M28.7169 27.8593H30.8107" stroke="#005CA9" stroke-width="2" stroke-miterlimit="10" stroke-linejoin="round"/>
<path d="M32.9044 27.8593H34.9982" stroke="#005CA9" stroke-width="2" stroke-miterlimit="10" stroke-linejoin="round"/>
<path d="M37.0919 27.8593H39.1857" stroke="#005CA9" stroke-width="2" stroke-miterlimit="10" stroke-linejoin="round"/>
<path d="M28.7169 40.4218H30.8107" stroke="#005CA9" stroke-width="2" stroke-miterlimit="10" stroke-linejoin="round"/>
<path d="M32.9044 40.4218H34.9982" stroke="#005CA9" stroke-width="2" stroke-miterlimit="10" stroke-linejoin="round"/>
<path d="M37.0919 40.4218H39.1857" stroke="#005CA9" stroke-width="2" stroke-miterlimit="10" stroke-linejoin="round"/>
</g>
<defs>
<clipPath id="clip0_597_1793">
<rect width="67" height="67" fill="white" transform="translate(0.451294 0.640503)"/>
</clipPath>
</defs>
</svg>
