<svg width="70" height="70" viewBox="0 0 70 70" fill="none" xmlns="http://www.w3.org/2000/svg">
<path d="M44.6155 58.6473H8.94007C5.11148 58.6473 1.979 55.8812 1.979 52.5005V38.6702C1.979 35.2895 5.11148 32.5234 8.94007 32.5234H44.6155C48.4441 32.5234 51.5766 35.2895 51.5766 38.6702V52.5005C51.5766 55.8812 48.4441 58.6473 44.6155 58.6473Z" stroke="#005CA9" stroke-width="2" stroke-miterlimit="10"/>
<path d="M1.979 53.4224H51.5766" stroke="#005CA9" stroke-width="2" stroke-miterlimit="10"/>
<path d="M24.2544 56.0349H29.3012" stroke="#005CA9" stroke-width="2" stroke-miterlimit="10"/>
<path d="M22.3401 58.8008C22.3401 62.9499 18.5115 66.1769 13.9868 66.1769" stroke="#005CA9" stroke-width="2" stroke-miterlimit="10"/>
<path d="M31.2153 58.8008C31.2153 62.9499 35.0439 66.1769 39.5686 66.1769" stroke="#005CA9" stroke-width="2" stroke-miterlimit="10"/>
<path d="M40.2649 68.021H13.2907C12.7687 68.021 12.2466 67.56 12.2466 67.099C12.2466 66.638 12.7687 66.177 13.2907 66.177H40.2649C40.787 66.177 41.309 66.638 41.309 67.099C41.309 67.7137 40.787 68.021 40.2649 68.021Z" stroke="#005CA9" stroke-width="2" stroke-miterlimit="10"/>
<path d="M26.5166 15.927C19.7295 15.927 14.3347 22.3811 14.3347 30.372" stroke="#005CA9" stroke-width="2" stroke-miterlimit="10"/>
<path d="M26.5169 15.9271L24.0806 13.6221" stroke="#005CA9" stroke-width="2" stroke-miterlimit="10"/>
<path d="M26.5169 15.9271L24.0806 18.0785" stroke="#005CA9" stroke-width="2" stroke-miterlimit="10"/>
<path d="M55.0569 43.1266C61.8439 43.1266 67.2388 36.6725 67.2388 28.6816" stroke="#005CA9" stroke-width="2" stroke-miterlimit="10"/>
<path d="M55.0569 43.1266L57.4933 45.4316" stroke="#005CA9" stroke-width="2" stroke-miterlimit="10"/>
<path d="M55.0569 43.1266L57.4933 40.9752" stroke="#005CA9" stroke-width="2" stroke-miterlimit="10"/>
<path d="M62.0179 21.152H37.6542C33.8256 21.152 30.6931 18.3859 30.6931 15.0052V7.16803C30.6931 3.78729 33.8256 1.02124 37.6542 1.02124H62.0179C65.8465 1.02124 68.979 3.78729 68.979 7.16803V15.0052C68.979 18.3859 65.8465 21.152 62.0179 21.152Z" stroke="#005CA9" stroke-width="2" stroke-miterlimit="10"/>
<path d="M30.6931 17.1565H68.979" stroke="#005CA9" stroke-width="2" stroke-miterlimit="10"/>
<path d="M47.9219 19.3077H51.7505" stroke="#005CA9" stroke-width="2" stroke-miterlimit="10"/>
<path d="M46.3555 21.3055C46.3555 24.5326 43.397 26.9913 39.9165 26.9913" stroke="#005CA9" stroke-width="2" stroke-miterlimit="10"/>
<path d="M53.3164 21.3055C53.3164 24.5326 56.2749 26.9913 59.7554 26.9913" stroke="#005CA9" stroke-width="2" stroke-miterlimit="10"/>
<path d="M60.2777 28.528H39.3945C38.8725 28.528 38.5244 28.2207 38.5244 27.7597C38.5244 27.2987 38.8725 26.9913 39.3945 26.9913H60.2777C60.7998 26.9913 61.1479 27.2987 61.1479 27.7597C60.9739 28.2207 60.6258 28.528 60.2777 28.528Z" stroke="#005CA9" stroke-width="2" stroke-miterlimit="10"/>
</svg>
