<svg width="68" height="68" viewBox="0 0 68 68" fill="none" xmlns="http://www.w3.org/2000/svg">
<g clip-path="url(#clip0_597_1811)">
<path d="M34.0927 45.7338V50.9681" stroke="#005CA9" stroke-width="2" stroke-miterlimit="10"/>
<path d="M5.82703 60.39H7.92078" stroke="#005CA9" stroke-width="2" stroke-miterlimit="10"/>
<path d="M10.0145 60.39H12.1083" stroke="#005CA9" stroke-width="2" stroke-miterlimit="10"/>
<path d="M14.202 60.39H16.2958" stroke="#005CA9" stroke-width="2" stroke-miterlimit="10"/>
<path d="M28.8583 60.39H30.952" stroke="#005CA9" stroke-width="2" stroke-miterlimit="10"/>
<path d="M33.0458 60.39H35.1395" stroke="#005CA9" stroke-width="2" stroke-miterlimit="10"/>
<path d="M37.2333 60.39H39.327" stroke="#005CA9" stroke-width="2" stroke-miterlimit="10"/>
<path d="M51.8895 60.39H53.9833" stroke="#005CA9" stroke-width="2" stroke-miterlimit="10"/>
<path d="M56.077 60.39H58.1708" stroke="#005CA9" stroke-width="2" stroke-miterlimit="10"/>
<path d="M60.2645 60.39H62.3583" stroke="#005CA9" stroke-width="2" stroke-miterlimit="10"/>
<path d="M56.077 9.09314V4.90564H26.7645L23.6239 1.76501H7.92078V36.3119C7.92078 38.0466 9.32673 39.4525 11.0614 39.4525C12.7961 39.4525 14.202 38.0466 14.202 36.3119V9.09314H60.2645V39.4525H11.0614" stroke="#005CA9" stroke-width="2" stroke-miterlimit="10"/>
<path d="M20.4833 66.6713H1.63953V52.015H6.8739L8.96765 54.1088H20.4833V66.6713Z" stroke="#005CA9" stroke-width="2" stroke-miterlimit="10" stroke-linejoin="round"/>
<path d="M43.5145 66.6713H24.6708V52.015H29.9052L31.9989 54.1088H43.5145V66.6713Z" stroke="#005CA9" stroke-width="2" stroke-miterlimit="10" stroke-linejoin="round"/>
<path d="M66.5458 66.6713H47.702V52.015H52.9364L55.0302 54.1088H66.5458V66.6713Z" stroke="#005CA9" stroke-width="2" stroke-miterlimit="10" stroke-linejoin="round"/>
<path d="M11.0614 50.9681V45.7338H57.1239V50.9681" stroke="#005CA9" stroke-width="2" stroke-miterlimit="10"/>
<path d="M29.9052 33.1713V27.9369C31.354 30.4389 34.1345 32.1244 37.2333 32.1244C41.8584 32.1244 45.6083 28.3745 45.6083 23.7494" stroke="#005CA9" stroke-width="2" stroke-miterlimit="10" stroke-linejoin="round"/>
<path d="M44.5614 14.3275V19.5619C43.1125 17.0599 40.332 15.3744 37.2333 15.3744C32.6082 15.3744 28.8583 19.1243 28.8583 23.7494" stroke="#005CA9" stroke-width="2" stroke-miterlimit="10" stroke-linejoin="round"/>
<path d="M29.9052 27.9369H34.0927" stroke="#005CA9" stroke-width="2" stroke-miterlimit="10" stroke-linejoin="round"/>
<path d="M44.5614 19.5619H40.3739" stroke="#005CA9" stroke-width="2" stroke-miterlimit="10" stroke-linejoin="round"/>
<path d="M22.577 39.4525V45.7338" stroke="#005CA9" stroke-width="2" stroke-miterlimit="10"/>
<path d="M45.6083 39.4525V45.7338" stroke="#005CA9" stroke-width="2" stroke-miterlimit="10"/>
</g>
<defs>
<clipPath id="clip0_597_1811">
<rect width="67" height="67" fill="white" transform="translate(0.592651 0.71814)"/>
</clipPath>
</defs>
</svg>
