<svg width="68" height="68" viewBox="0 0 68 68" fill="none" xmlns="http://www.w3.org/2000/svg">
<g clip-path="url(#clip0_597_1839)">
<path d="M11.9559 58.2963H1.90588V1.76501H66.6726V58.2963H56.6226" stroke="#005CA9" stroke-width="2" stroke-miterlimit="10"/>
<path d="M1.90588 10.14H66.6726" stroke="#005CA9" stroke-width="2" stroke-miterlimit="10"/>
<path d="M5.25586 5.95251H7.48919" stroke="#005CA9" stroke-width="2" stroke-miterlimit="10"/>
<path d="M9.72253 5.95251H11.9559" stroke="#005CA9" stroke-width="2" stroke-miterlimit="10"/>
<path d="M14.1892 5.95251H16.4225" stroke="#005CA9" stroke-width="2" stroke-miterlimit="10"/>
<path d="M19.7726 1.76501V10.14" stroke="#005CA9" stroke-width="2" stroke-miterlimit="10"/>
<path d="M23.1226 5.95251H63.3226" stroke="#005CA9" stroke-width="2" stroke-miterlimit="10"/>
<path d="M11.9559 54.1088H6.37256V14.3275H62.2059V54.1088H56.6226" stroke="#005CA9" stroke-width="2" stroke-miterlimit="10"/>
<path d="M9.72253 18.515H20.8892" stroke="#005CA9" stroke-width="2" stroke-miterlimit="10"/>
<path d="M9.72253 22.7025H25.3559" stroke="#005CA9" stroke-width="2" stroke-miterlimit="10"/>
<path d="M9.72253 26.89H18.6559" stroke="#005CA9" stroke-width="2" stroke-miterlimit="10"/>
<path d="M27.5892 22.7025H34.2892" stroke="#005CA9" stroke-width="2" stroke-miterlimit="10"/>
<path d="M36.5226 22.7025H47.6892" stroke="#005CA9" stroke-width="2" stroke-miterlimit="10"/>
<path d="M20.8892 26.89H27.5892" stroke="#005CA9" stroke-width="2" stroke-miterlimit="10"/>
<path d="M9.72253 31.0775H16.4225" stroke="#005CA9" stroke-width="2" stroke-miterlimit="10"/>
<path d="M23.1226 18.515H32.0559" stroke="#005CA9" stroke-width="2" stroke-miterlimit="10"/>
<path d="M52.3234 39.5467L46.2141 39.7048L48.2643 34.3019C46.9109 33.0708 45.3777 32.0166 43.6994 31.1822L38.843 34.685L37.1166 29.1931C36.1909 29.0696 35.2518 28.9838 34.2892 28.9838C33.3266 28.9838 32.3875 29.0696 31.4607 29.1921L29.7343 34.684L24.8779 31.1822C23.1996 32.0176 21.6664 33.0718 20.313 34.3019L22.3632 39.7048L16.255 39.5467C15.4332 41.1181 14.8369 42.8077 14.5075 44.5885L19.5492 47.8275L14.5063 51.0665C14.8369 52.8473 15.4321 54.5369 16.2539 56.1083L22.3632 55.9502L20.313 61.3531C21.6664 62.5843 23.1996 63.6385 24.8779 64.4728L29.7343 60.97L31.4607 66.4619C32.3875 66.5854 33.3266 66.6713 34.2892 66.6713C35.2518 66.6713 36.1909 66.5854 37.1177 66.4629L38.8441 60.971L43.7005 64.4739C45.3788 63.6385 46.912 62.5843 48.2654 61.3542L46.2152 55.9513L52.3245 56.1093C53.1464 54.538 53.7427 52.8483 54.0721 51.0676L49.0292 47.8275L54.0721 44.5885C53.7415 42.8077 53.1464 41.1181 52.3234 39.5467Z" stroke="#005CA9" stroke-width="2" stroke-miterlimit="10" stroke-linejoin="round"/>
<path d="M34.2893 57.2494C39.8397 57.2494 44.3393 53.0311 44.3393 47.8275C44.3393 42.624 39.8397 38.4056 34.2893 38.4056C28.7388 38.4056 24.2393 42.624 24.2393 47.8275C24.2393 53.0311 28.7388 57.2494 34.2893 57.2494Z" stroke="#005CA9" stroke-width="2" stroke-miterlimit="10"/>
<path d="M34.2893 53.0619C37.3729 53.0619 39.8726 50.7184 39.8726 47.8275C39.8726 44.9366 37.3729 42.5931 34.2893 42.5931C31.2057 42.5931 28.7059 44.9366 28.7059 47.8275C28.7059 50.7184 31.2057 53.0619 34.2893 53.0619Z" stroke="#005CA9" stroke-width="2" stroke-miterlimit="10"/>
</g>
<defs>
<clipPath id="clip0_597_1839">
<rect width="67" height="67" fill="white" transform="translate(0.789185 0.71814)"/>
</clipPath>
</defs>
</svg>
