<svg width="68" height="62" viewBox="0 0 68 62" fill="none" xmlns="http://www.w3.org/2000/svg">
<g clip-path="url(#clip0_597_1783)">
<path d="M9.37499 61.7183C8.70331 61.5548 7.86372 61.3912 7.19204 61.0641C3.4978 59.9194 0.979004 56.3215 0.979004 52.5601C0.979004 38.4958 0.979004 24.4314 0.979004 10.3671C0.979004 6.11507 4.3374 1.86306 9.03916 1.04537C12.0617 0.391212 12.2296 0.71829 12.2296 3.49845C12.2296 6.11507 12.2296 8.89523 12.2296 11.6754C12.7334 11.6754 13.0692 11.6754 13.4051 11.6754C25.8311 11.6754 38.0893 11.6754 50.5153 11.6754C52.0266 11.6754 52.3625 11.8389 52.3625 13.4743C52.3625 29.0105 52.3625 44.5467 52.3625 60.0829C52.3625 60.9006 52.3625 61.5548 51.5229 61.8818C37.4176 61.7183 23.4803 61.7183 9.37499 61.7183ZM12.2296 13.9649C12.2296 14.9462 12.2296 15.7639 12.2296 16.7451C12.2296 25.5762 12.2296 34.4073 12.2296 43.0749C12.2296 45.5279 12.0617 45.2009 10.0467 45.5279C7.35996 45.855 5.177 47.3269 4.00156 49.7799C1.8186 54.1955 5.34492 59.4287 10.7184 59.4287C23.4803 59.4287 36.2422 59.4287 49.0041 59.4287C49.3399 59.4287 49.6757 59.4287 50.0116 59.4287C50.0116 44.2196 50.0116 29.1741 50.0116 13.9649C37.4176 13.9649 24.8236 13.9649 12.2296 13.9649ZM3.32988 46.6727C5.00908 44.8738 6.68828 43.8926 8.87123 43.4019C9.71083 43.2384 9.87875 42.9113 9.87875 42.2572C9.87875 29.6647 9.87875 17.0722 9.87875 4.47968C9.87875 4.15261 9.87875 3.82553 9.87875 3.49845C6.35244 3.82553 3.32988 6.76923 3.32988 10.2035C3.32988 21.9783 3.32988 33.9167 3.32988 45.6915C3.32988 46.0186 3.32988 46.1821 3.32988 46.6727Z" fill="#005CA9"/>
<path d="M55.2171 61.7181C55.0492 61.064 54.5454 60.5734 54.5454 59.9192C54.5454 40.7852 54.5454 21.6511 54.5454 2.68061C54.5454 1.04522 54.8813 0.71814 56.3925 0.71814C59.583 0.71814 62.9414 0.71814 66.1319 0.71814C66.8036 0.71814 67.3073 1.04522 67.979 1.20876C67.979 21.324 67.979 41.4393 67.979 61.5546C63.781 61.7181 59.4151 61.7181 55.2171 61.7181ZM65.6281 29.0104C63.4452 29.0104 61.2622 29.0104 59.0792 29.0104C59.0792 28.1927 59.0792 27.5385 59.0792 26.7208C61.2622 26.7208 63.4452 26.7208 65.6281 26.7208C65.6281 25.249 65.6281 23.9407 65.6281 22.4688C64.1168 22.4688 62.7735 22.4688 61.4301 22.4688C61.4301 21.6511 61.4301 20.997 61.4301 20.3428C62.9414 20.3428 64.2848 20.3428 65.796 20.3428C65.796 18.871 65.796 17.3991 65.796 15.9273C63.6131 15.9273 61.4301 15.9273 59.2472 15.9273C59.2472 15.1096 59.2472 14.4554 59.2472 13.8012C61.4301 13.8012 63.6131 13.8012 65.796 13.8012C65.796 12.3294 65.796 11.0211 65.796 9.54924C64.2848 9.54924 62.9414 9.54924 61.598 9.54924C61.598 8.73154 61.598 8.07739 61.598 7.25969C63.1093 7.25969 64.4527 7.25969 65.796 7.25969C65.796 5.78784 65.796 4.47953 65.796 3.00768C62.7735 3.00768 59.9188 3.00768 57.0642 3.00768C57.0642 21.8147 57.0642 40.6216 57.0642 59.2651C60.0868 59.2651 62.9414 59.2651 65.796 59.2651C65.796 57.7932 65.796 56.4849 65.796 55.013C63.6131 55.013 61.4301 55.013 59.2472 55.013C59.2472 54.1954 59.2472 53.5412 59.2472 52.7235C61.4301 52.7235 63.6131 52.7235 65.796 52.7235C65.796 51.2517 65.796 49.9433 65.796 48.4715C64.2848 48.4715 62.9414 48.4715 61.598 48.4715C61.598 47.6538 61.598 46.9996 61.598 46.1819C63.1093 46.1819 64.4527 46.1819 65.796 46.1819C65.796 44.7101 65.796 43.4018 65.796 41.7664C63.6131 41.7664 61.4301 41.7664 59.2472 41.7664C59.2472 40.9487 59.2472 40.2945 59.2472 39.6404C61.4301 39.6404 63.6131 39.6404 65.796 39.6404C65.796 38.1685 65.796 36.8602 65.796 35.3884C64.2848 35.3884 62.9414 35.3884 61.4301 35.3884C61.4301 34.5707 61.4301 33.9165 61.4301 33.0988C62.9414 33.0988 64.2848 33.0988 65.796 33.0988C65.6281 31.7905 65.6281 30.4822 65.6281 29.0104Z" fill="#005CA9"/>
<path d="M30.029 42.0935C28.5178 42.0935 27.1744 42.0935 25.6631 42.0935C25.6631 42.4205 25.6631 42.7476 25.6631 43.0747C25.6631 45.2007 25.6631 47.1632 25.6631 49.2892C25.6631 50.434 25.3273 50.761 24.1518 50.761C22.1368 50.761 20.1218 50.761 18.1067 50.761C16.9313 50.761 16.5955 50.434 16.5955 49.2892C16.5955 44.383 16.5955 39.6404 16.5955 34.7342C16.5955 34.2436 16.9313 33.5894 17.2671 33.2624C20.2897 29.8281 23.4802 26.5573 26.6706 23.123C27.0065 22.7959 27.8461 22.4688 28.3498 22.4688C30.197 22.3053 32.212 22.4688 34.0591 22.4688C34.5629 22.4688 35.2346 22.7959 35.5704 23.123C38.7609 26.5573 41.9513 29.9916 45.1418 33.5894C45.4777 33.9165 45.6456 34.4071 45.6456 34.8978C45.6456 39.6404 45.6456 44.5466 45.6456 49.2892C45.6456 50.5975 45.3097 50.9246 43.9664 50.9246C39.9363 50.9246 35.7383 50.9246 31.7082 50.9246C30.3649 50.9246 30.029 50.5975 30.029 49.2892C30.029 46.8361 30.029 44.5465 30.029 42.0935ZM36.5779 35.7155C30.7007 35.7155 24.8235 35.7155 18.9463 35.7155C18.9463 39.9675 18.9463 44.383 18.9463 48.635C20.4576 48.635 21.801 48.635 23.3123 48.635C23.3123 46.1819 23.3123 43.7289 23.3123 41.2758C23.3123 40.4581 23.6481 39.9675 24.4877 39.9675C26.6706 39.9675 28.8536 39.9675 30.8686 39.9675C31.7082 39.9675 32.212 40.4581 32.212 41.2758C32.212 42.7476 32.212 44.2195 32.212 45.6913C32.212 46.6726 32.212 47.6538 32.212 48.635C33.7233 48.635 35.0666 48.635 36.5779 48.635C36.5779 44.2195 36.5779 39.9675 36.5779 35.7155ZM20.4576 33.2624C25.4952 33.2624 30.197 33.2624 35.0666 33.2624C32.5478 30.4822 30.197 28.0291 27.6782 25.249C25.3273 28.0291 22.9764 30.4822 20.4576 33.2624ZM39.0967 35.5519C39.0967 39.9675 39.0967 44.2195 39.0967 48.4715C40.608 48.4715 41.9513 48.4715 43.2947 48.4715C43.2947 44.2195 43.2947 39.9675 43.2947 35.5519C41.7834 35.5519 40.4401 35.5519 39.0967 35.5519ZM41.9513 33.2624C39.2646 30.3187 36.7458 27.702 34.227 24.9219C34.0591 24.7583 33.8912 24.5948 33.7233 24.5948C32.7158 24.5948 31.7082 24.5948 30.3649 24.5948C33.0516 27.5385 35.5704 30.1551 38.0892 32.9353C38.2571 33.0988 38.593 33.2624 38.7609 33.2624C39.7684 33.2624 40.608 33.2624 41.9513 33.2624Z" fill="#005CA9"/>
</g>
<defs>
<clipPath id="clip0_597_1783">
<rect width="67" height="61" fill="white" transform="translate(0.979004 0.71814)"/>
</clipPath>
</defs>
</svg>
