<svg width="85" height="80" viewBox="0 0 85 80" fill="none" xmlns="http://www.w3.org/2000/svg">
<path d="M4.82446 3.20914C5.05419 2.97992 5.28392 2.97992 5.51365 2.97992C5.51365 2.97992 5.74338 2.97992 5.74338 2.75069H5.97311C6.89203 2.29224 7.81095 2.29224 8.04068 2.29224C11.0272 2.75069 13.7839 5.27218 13.7839 8.0229C13.7839 8.71057 13.7839 9.85671 13.7839 9.85671V28.8825V77.7077H66.6218V52.2636" stroke="#005CA9" stroke-width="2" stroke-miterlimit="10"/>
<path d="M66.392 44.0114V7.79367C66.392 4.81373 63.8649 2.29224 60.8784 2.29224H7.81088C7.12169 2.29224 6.4325 2.29224 5.97304 2.52146H5.74331C5.74331 2.52146 5.51358 2.52146 5.51358 2.75069C4.1352 3.43837 3.21628 4.35527 2.75682 5.73063C2.52709 6.18908 2.29736 6.87676 2.29736 7.79367" stroke="#005CA9" stroke-width="2" stroke-miterlimit="10"/>
<path d="M2.29736 6.87677V28.8825" stroke="#005CA9" stroke-width="2" stroke-miterlimit="10"/>
<path d="M13.7838 28.8825H1.83789" stroke="#005CA9" stroke-width="2" stroke-miterlimit="10"/>
<path d="M18.3784 12.6074H31.473" stroke="#005CA9" stroke-width="2" stroke-miterlimit="10"/>
<path d="M39.9731 74.0401H59.5002" stroke="#005CA9" stroke-width="2" stroke-miterlimit="10"/>
<path d="M18.3784 18.1088H61.5676" stroke="#005CA9" stroke-width="2" stroke-miterlimit="10"/>
<path d="M18.3784 23.381H61.5676" stroke="#005CA9" stroke-width="2" stroke-miterlimit="10"/>
<path d="M18.3784 28.8825H61.5676" stroke="#005CA9" stroke-width="2" stroke-miterlimit="10"/>
<path d="M18.3784 34.3839H61.5676" stroke="#005CA9" stroke-width="2" stroke-miterlimit="10"/>
<path d="M18.3784 39.6561H61.5676" stroke="#005CA9" stroke-width="2" stroke-miterlimit="10"/>
<path d="M18.3784 45.1576H61.5676" stroke="#005CA9" stroke-width="2" stroke-miterlimit="10"/>
<path d="M18.3784 50.659H59.9595" stroke="#005CA9" stroke-width="2" stroke-miterlimit="10"/>
<path d="M18.3784 55.9312H54.446" stroke="#005CA9" stroke-width="2" stroke-miterlimit="10"/>
<path d="M79.0271 39.6561L52.6082 66.0171L45.2568 68.9971L48.4731 62.1203L51.0001 59.3696L54.446 55.9312L74.892 35.53L79.0271 39.6561Z" stroke="#005CA9" stroke-width="2" stroke-miterlimit="10"/>
<path d="M51 59.3696L55.1351 63.4957" stroke="#005CA9" stroke-width="2" stroke-miterlimit="10"/>
<path d="M77.6486 37.5931L76.7297 36.6762C75.8108 35.7593 75.8108 34.3839 76.7297 33.467L77.8784 32.3209C78.7973 31.404 80.1757 31.404 81.0946 32.3209L82.0135 33.2378C82.9324 34.1547 82.9324 35.53 82.0135 36.4469L80.8649 37.5931C79.9459 38.51 78.5675 38.51 77.6486 37.5931Z" stroke="#005CA9" stroke-width="2" stroke-miterlimit="10"/>
</svg>
