<svg width="86" height="87" viewBox="0 0 86 87" fill="none" xmlns="http://www.w3.org/2000/svg">
<path d="M62.9553 14.6107V80.6909" stroke="#005CA9" stroke-miterlimit="10"/>
<path d="M86 80.5249H1.83691" stroke="#005CA9" stroke-miterlimit="10"/>
<path d="M57.7785 86.1699H12.0232" stroke="#005CA9" stroke-miterlimit="10"/>
<path d="M57.7787 72.8874L50.9321 59.771L44.0854 72.8874H57.7787Z" stroke="#005CA9" stroke-miterlimit="10"/>
<path d="M50.9321 72.8875V80.6909" stroke="#005CA9" stroke-miterlimit="10"/>
<path d="M63.4564 14.6107H29.0564" stroke="#005CA9" stroke-miterlimit="10"/>
<path d="M29.7244 80.6909V14.6107" stroke="#005CA9" stroke-miterlimit="10"/>
<path d="M29.7244 38.353H7.34766" stroke="#005CA9" stroke-miterlimit="10"/>
<path d="M7.84863 38.353V66.4122" stroke="#005CA9" stroke-miterlimit="10"/>
<path d="M77.8175 51.6355H66.7961" stroke="#005CA9" stroke-miterlimit="10"/>
<path d="M77.8175 55.1222H66.7961" stroke="#005CA9" stroke-miterlimit="10"/>
<path d="M77.8175 58.6088H66.7961" stroke="#005CA9" stroke-miterlimit="10"/>
<path d="M77.8175 62.2615H66.7961" stroke="#005CA9" stroke-miterlimit="10"/>
<path d="M77.8175 65.748H66.7961" stroke="#005CA9" stroke-miterlimit="10"/>
<path d="M77.8175 69.2347H66.7961" stroke="#005CA9" stroke-miterlimit="10"/>
<path d="M77.8175 72.7213H67.4641" stroke="#005CA9" stroke-miterlimit="10"/>
<path d="M77.8175 76.374H67.4641" stroke="#005CA9" stroke-miterlimit="10"/>
<path d="M5.3437 77.2042C7.83381 77.2042 9.85244 75.1971 9.85244 72.7214C9.85244 70.2456 7.83381 68.2385 5.3437 68.2385C2.85359 68.2385 0.834961 70.2456 0.834961 72.7214C0.834961 75.1971 2.85359 77.2042 5.3437 77.2042Z" stroke="#005CA9" stroke-miterlimit="10"/>
<path d="M5.34375 72.2233V80.6908" stroke="#005CA9" stroke-miterlimit="10"/>
<path d="M39.9106 20.4218H34.9009V25.4027H39.9106V20.4218Z" stroke="#005CA9" stroke-miterlimit="10"/>
<path d="M48.7612 20.4218H43.7515V25.4027H48.7612V20.4218Z" stroke="#005CA9" stroke-miterlimit="10"/>
<path d="M57.7785 20.4218H52.7688V25.4027H57.7785V20.4218Z" stroke="#005CA9" stroke-miterlimit="10"/>
<path d="M39.9106 30.0515H34.9009V35.0324H39.9106V30.0515Z" stroke="#005CA9" stroke-miterlimit="10"/>
<path d="M48.7612 30.0515H43.7515V35.0324H48.7612V30.0515Z" stroke="#005CA9" stroke-miterlimit="10"/>
<path d="M57.7785 30.0515H52.7688V35.0324H57.7785V30.0515Z" stroke="#005CA9" stroke-miterlimit="10"/>
<path d="M39.9106 39.6813H34.9009V44.6622H39.9106V39.6813Z" stroke="#005CA9" stroke-miterlimit="10"/>
<path d="M48.7612 39.6813H43.7515V44.6622H48.7612V39.6813Z" stroke="#005CA9" stroke-miterlimit="10"/>
<path d="M57.7785 39.6813H52.7688V44.6622H57.7785V39.6813Z" stroke="#005CA9" stroke-miterlimit="10"/>
<path d="M39.9106 49.311H34.9009V54.292H39.9106V49.311Z" stroke="#005CA9" stroke-miterlimit="10"/>
<path d="M48.7612 49.311H43.7515V54.292H48.7612V49.311Z" stroke="#005CA9" stroke-miterlimit="10"/>
<path d="M57.7785 49.311H52.7688V54.292H57.7785V49.311Z" stroke="#005CA9" stroke-miterlimit="10"/>
<path d="M39.9106 58.9408H34.9009V63.9217H39.9106V58.9408Z" stroke="#005CA9" stroke-miterlimit="10"/>
<path d="M39.9106 68.4045H34.9009V73.3855H39.9106V68.4045Z" stroke="#005CA9" stroke-miterlimit="10"/>
<path d="M63.4563 32.542L81.9922 50.8054" stroke="#005CA9" stroke-miterlimit="10"/>
<path d="M81.9922 79.8608V50.8054" stroke="#005CA9" stroke-miterlimit="10"/>
<path d="M14.3613 42.5038H10.8545V45.9904H14.3613V42.5038Z" fill="#005CA9"/>
<path d="M20.3728 42.5038H16.866V45.9904H20.3728V42.5038Z" fill="#005CA9"/>
<path d="M26.5515 42.5038H23.0447V45.9904H26.5515V42.5038Z" fill="#005CA9"/>
<path d="M14.3613 48.3149H10.8545V51.8016H14.3613V48.3149Z" fill="#005CA9"/>
<path d="M20.3728 48.3149H16.866V51.8016H20.3728V48.3149Z" fill="#005CA9"/>
<path d="M26.5515 48.3149H23.0447V51.8016H26.5515V48.3149Z" fill="#005CA9"/>
<path d="M14.3613 54.458H10.8545V57.9447H14.3613V54.458Z" fill="#005CA9"/>
<path d="M20.3728 54.458H16.866V57.9447H20.3728V54.458Z" fill="#005CA9"/>
<path d="M26.5515 54.458H23.0447V57.9447H26.5515V54.458Z" fill="#005CA9"/>
<path d="M14.3613 60.2692H10.8545V63.7558H14.3613V60.2692Z" fill="#005CA9"/>
<path d="M20.3728 60.2692H16.866V63.7558H20.3728V60.2692Z" fill="#005CA9"/>
<path d="M26.5515 60.2692H23.0447V63.7558H26.5515V60.2692Z" fill="#005CA9"/>
<path d="M14.3613 66.0802H10.8545V69.5668H14.3613V66.0802Z" fill="#005CA9"/>
<path d="M20.3728 66.0802H16.866V69.5668H20.3728V66.0802Z" fill="#005CA9"/>
<path d="M26.5515 66.0802H23.0447V69.5668H26.5515V66.0802Z" fill="#005CA9"/>
<path d="M6.51266 33.8703C8.26496 33.8703 9.68547 32.458 9.68547 30.7157C9.68547 28.9735 8.26496 27.5612 6.51266 27.5612C4.76036 27.5612 3.33984 28.9735 3.33984 30.7157C3.33984 32.458 4.76036 33.8703 6.51266 33.8703Z" stroke="#005CA9" stroke-miterlimit="10"/>
<path d="M21.7087 31.7119C24.5677 31.7119 26.8854 29.4075 26.8854 26.5649C26.8854 23.7223 24.5677 21.418 21.7087 21.418C18.8497 21.418 16.532 23.7223 16.532 26.5649C16.532 29.4075 18.8497 31.7119 21.7087 31.7119Z" stroke="#005CA9" stroke-miterlimit="10"/>
<path d="M8.85059 29.8856L17.3671 27.7272" stroke="#005CA9" stroke-miterlimit="10"/>
<path d="M31.3943 11.4561C32.7777 11.4561 33.8991 10.3411 33.8991 8.96568C33.8991 7.59024 32.7777 6.47522 31.3943 6.47522C30.0109 6.47522 28.8894 7.59024 28.8894 8.96568C28.8894 10.3411 30.0109 11.4561 31.3943 11.4561Z" stroke="#005CA9" stroke-miterlimit="10"/>
<path d="M28.8894 8.63362L24.7146 7.80347" stroke="#005CA9" stroke-miterlimit="10"/>
<path d="M21.8757 21.418L20.0388 13.9467" stroke="#005CA9" stroke-miterlimit="10"/>
<path d="M17.7011 14.7768C21.5746 14.7768 24.7147 11.6547 24.7147 7.80348C24.7147 3.95224 21.5746 0.8302 17.7011 0.8302C13.8276 0.8302 10.6875 3.95224 10.6875 7.80348C10.6875 11.6547 13.8276 14.7768 17.7011 14.7768Z" stroke="#005CA9" stroke-miterlimit="10"/>
</svg>
