<svg width="70" height="78" viewBox="0 0 70 78" fill="none" xmlns="http://www.w3.org/2000/svg">
<path d="M44.4177 66.086H8.08861C4.18987 66.086 1 62.9619 1 59.1435V43.5228C1 39.7045 4.18987 36.5803 8.08861 36.5803H44.4177C48.3165 36.5803 51.5063 39.7045 51.5063 43.5228V59.1435C51.5063 62.9619 48.3165 66.086 44.4177 66.086Z" stroke="#005CA9" stroke-width="1.5" stroke-miterlimit="10"/>
<path d="M1 60.1848H51.5063" stroke="#005CA9" stroke-width="1.5" stroke-miterlimit="10"/>
<path d="M23.6836 63.1355H28.8228" stroke="#005CA9" stroke-width="1.5" stroke-miterlimit="10"/>
<path d="M21.7341 66.2595C21.7341 70.9457 17.8354 74.5905 13.2278 74.5905" stroke="#005CA9" stroke-width="1.5" stroke-miterlimit="10"/>
<path d="M30.772 66.2595C30.772 70.9457 34.6707 74.5905 39.2783 74.5905" stroke="#005CA9" stroke-width="1.5" stroke-miterlimit="10"/>
<path d="M39.9875 76.6733H12.5191C11.9875 76.6733 11.4558 76.1526 11.4558 75.632C11.4558 75.1113 11.9875 74.5906 12.5191 74.5906H39.9875C40.5191 74.5906 41.0507 75.1113 41.0507 75.632C41.0507 76.3262 40.5191 76.6733 39.9875 76.6733Z" stroke="#005CA9" stroke-width="1.5" stroke-miterlimit="10"/>
<path d="M25.9871 17.8356C19.0757 17.8356 13.582 25.1252 13.582 34.1505" stroke="#005CA9" stroke-width="1.5" stroke-miterlimit="10"/>
<path d="M25.9874 17.8356L23.5063 15.2322" stroke="#005CA9" stroke-width="1.5" stroke-miterlimit="10"/>
<path d="M25.9874 17.8356L23.5063 20.2655" stroke="#005CA9" stroke-width="1.5" stroke-miterlimit="10"/>
<path d="M55.0503 48.5561C61.9617 48.5561 67.4554 41.2665 67.4554 32.2412" stroke="#005CA9" stroke-width="1.5" stroke-miterlimit="10"/>
<path d="M55.0503 48.5563L57.5313 51.1597" stroke="#005CA9" stroke-width="1.5" stroke-miterlimit="10"/>
<path d="M55.0503 48.5562L57.5313 46.1263" stroke="#005CA9" stroke-width="1.5" stroke-miterlimit="10"/>
<path d="M16.8225 44.5768H35.9618" stroke="#005CA9" stroke-miterlimit="10"/>
<path d="M16.8225 44.5767L26.3921 39.1963" stroke="#005CA9" stroke-miterlimit="10"/>
<path d="M35.962 44.5767L26.3923 39.1963" stroke="#005CA9" stroke-miterlimit="10"/>
<path d="M17.886 45.6182V55.5112" stroke="#005CA9" stroke-miterlimit="10"/>
<path d="M16.1138 58.1147L17.8859 55.5112" stroke="#005CA9" stroke-miterlimit="10"/>
<path d="M16.1138 58.1146H36.4935" stroke="#005CA9" stroke-miterlimit="10"/>
<path d="M36.4936 58.1147L34.8987 55.5112" stroke="#005CA9" stroke-miterlimit="10"/>
<path d="M34.8987 55.5112V45.6182" stroke="#005CA9" stroke-miterlimit="10"/>
<path d="M17.7087 45.7916H20.7214" stroke="#005CA9" stroke-miterlimit="10"/>
<path d="M22.3164 45.7916H25.3291" stroke="#005CA9" stroke-miterlimit="10"/>
<path d="M27.1011 45.7916H30.1137" stroke="#005CA9" stroke-miterlimit="10"/>
<path d="M20.5442 45.6182V55.1641" stroke="#005CA9" stroke-miterlimit="10"/>
<path d="M22.4934 45.6182V55.1641" stroke="#005CA9" stroke-miterlimit="10"/>
<path d="M25.1519 45.6182V55.1641" stroke="#005CA9" stroke-miterlimit="10"/>
<path d="M27.2783 45.6182V55.1641" stroke="#005CA9" stroke-miterlimit="10"/>
<path d="M29.9365 45.6182V55.1641" stroke="#005CA9" stroke-miterlimit="10"/>
<path d="M32.0632 45.9652V55.3376" stroke="#005CA9" stroke-miterlimit="10"/>
<path d="M20.3669 55.1641H22.6707" stroke="#005CA9" stroke-miterlimit="10"/>
<path d="M31.886 45.7916H35.0759" stroke="#005CA9" stroke-miterlimit="10"/>
<path d="M24.9746 55.1641H27.4556" stroke="#005CA9" stroke-miterlimit="10"/>
<path d="M29.7593 55.1641H32.0631" stroke="#005CA9" stroke-miterlimit="10"/>
<path d="M62.139 23.7367H37.3288C33.4301 23.7367 30.2402 20.6126 30.2402 16.7942V7.94251C30.2402 4.12413 33.4301 1 37.3288 1H62.139C66.0377 1 69.2276 4.12413 69.2276 7.94251V16.7942C69.2276 20.6126 66.0377 23.7367 62.139 23.7367Z" stroke="#005CA9" stroke-width="1.5" stroke-miterlimit="10"/>
<path d="M30.2402 19.2241H69.2276" stroke="#005CA9" stroke-width="1.5" stroke-miterlimit="10"/>
<path d="M47.7844 21.6539H51.6832" stroke="#005CA9" stroke-width="1.5" stroke-miterlimit="10"/>
<path d="M46.1895 23.9103C46.1895 27.5551 43.1769 30.3321 39.6326 30.3321" stroke="#005CA9" stroke-width="1.5" stroke-miterlimit="10"/>
<path d="M53.2781 23.9103C53.2781 27.5551 56.2907 30.3321 59.835 30.3321" stroke="#005CA9" stroke-width="1.5" stroke-miterlimit="10"/>
<path d="M60.3667 32.0678H39.1009C38.5693 32.0678 38.2148 31.7207 38.2148 31.2C38.2148 30.6793 38.5693 30.3322 39.1009 30.3322H60.3667C60.8984 30.3322 61.2528 30.6793 61.2528 31.2C61.0756 31.7207 60.7212 32.0678 60.3667 32.0678Z" stroke="#005CA9" stroke-width="1.5" stroke-miterlimit="10"/>
</svg>
