<svg width="72" height="72" viewBox="0 0 72 72" fill="none" xmlns="http://www.w3.org/2000/svg">
<path d="M15.4413 8.53333C15.4413 12.2667 12.3889 15.2889 8.61835 15.2889C4.84778 15.2889 1.79541 12.2667 1.79541 8.53333C1.79541 4.79999 4.84778 1.77777 8.61835 1.77777C12.0298 1.77777 14.9026 4.26666 15.4413 7.64444C15.4413 7.99999 15.4413 8.17777 15.4413 8.53333Z" stroke="#005CA9" stroke-width="2" stroke-miterlimit="10"/>
<path d="M5.38647 8.88885L7.54109 11.0222" stroke="#005CA9" stroke-width="2" stroke-miterlimit="10"/>
<path d="M7.00244 11.0222L11.8503 6.39996" stroke="#005CA9" stroke-width="2" stroke-miterlimit="10"/>
<path d="M29.9851 40.8889C29.8055 40.8889 29.6259 40.8889 29.2668 40.8889H29.9851Z" stroke="#005CA9" stroke-width="2" stroke-miterlimit="10"/>
<path d="M33.0374 9.42219V38.4C33.0374 38.9333 32.8578 39.2889 32.6783 39.6444C32.1396 40.5333 31.2419 41.0666 29.985 41.0666H29.2668C27.1122 41.0666 25.3167 39.2889 25.3167 37.1555C25.3167 36.6222 25.4962 36.0889 25.6758 35.5555H8.61841V15.2889C12.389 15.2889 15.4414 12.2666 15.4414 8.5333C15.4414 8.17774 15.4414 7.99996 15.4414 7.64441H31.2419C32.1396 7.64441 33.0374 8.35552 33.0374 9.42219Z" stroke="#005CA9" stroke-width="2" stroke-miterlimit="10"/>
<path d="M29.2667 40.8889H8.61834C6.46372 40.8889 4.66821 39.1111 4.66821 36.9777C4.66821 36.4444 4.84776 35.9111 5.02732 35.3777H25.6757C25.4961 35.9111 25.3166 36.4444 25.3166 36.9777C25.3166 39.2889 27.1121 40.8889 29.2667 40.8889Z" stroke="#005CA9" stroke-width="2" stroke-miterlimit="10"/>
<path d="M16.3391 13.3333H29.8054" stroke="#005CA9" stroke-width="2" stroke-miterlimit="10"/>
<path d="M12.0298 17.7778H29.8053" stroke="#005CA9" stroke-width="2" stroke-miterlimit="10"/>
<path d="M11.8503 22.4H29.6259" stroke="#005CA9" stroke-width="2" stroke-miterlimit="10"/>
<path d="M11.8503 26.8444H29.6259" stroke="#005CA9" stroke-width="2" stroke-miterlimit="10"/>
<path d="M11.8503 31.4667H29.6259" stroke="#005CA9" stroke-width="2" stroke-miterlimit="10"/>
<path d="M66.9724 70.2222C66.7928 70.2222 66.6133 70.2222 66.2542 70.2222H66.9724Z" stroke="#005CA9" stroke-width="2" stroke-miterlimit="10"/>
<path d="M70.2045 38.5778V67.5555C70.2045 68.0889 70.0249 68.4444 69.8454 68.8C69.3067 69.6889 68.409 70.2222 67.1521 70.2222H66.4339C64.2793 70.2222 62.4838 68.4444 62.4838 66.3111C62.4838 65.7778 62.6633 65.2444 62.8429 64.7111H45.606V38.5778C45.606 37.5111 46.5037 36.8 47.4015 36.8H68.2294C69.3067 36.8 70.2045 37.6889 70.2045 38.5778Z" stroke="#005CA9" stroke-width="2" stroke-miterlimit="10"/>
<path d="M66.4338 70.2222H45.6059C43.4513 70.2222 41.6558 68.4444 41.6558 66.3111C41.6558 65.7778 41.8353 65.2445 42.0149 64.7111H62.8428C62.6632 65.2445 62.4837 65.7778 62.4837 66.3111C62.4837 68.4444 64.2792 70.2222 66.4338 70.2222Z" stroke="#005CA9" stroke-width="2" stroke-miterlimit="10"/>
<path d="M49.0173 42.4889H66.7929" stroke="#005CA9" stroke-width="2" stroke-miterlimit="10"/>
<path d="M49.0173 47.1111H66.7929" stroke="#005CA9" stroke-width="2" stroke-miterlimit="10"/>
<path d="M48.8379 51.5555H66.6134" stroke="#005CA9" stroke-width="2" stroke-miterlimit="10"/>
<path d="M48.8379 56H66.6134" stroke="#005CA9" stroke-width="2" stroke-miterlimit="10"/>
<path d="M48.8379 60.6222H66.6134" stroke="#005CA9" stroke-width="2" stroke-miterlimit="10"/>
<path d="M60.3291 31.8222C60.3291 22.7555 50.2743 15.2889 37.8853 15.2889" stroke="#005CA9" stroke-width="2" stroke-miterlimit="10"/>
<path d="M17.5959 45.1555C17.5959 54.2222 27.6508 61.6889 40.0398 61.6889" stroke="#005CA9" stroke-width="2" stroke-miterlimit="10"/>
<path d="M17.5958 45.1555L14.1843 48.5333" stroke="#005CA9" stroke-width="2" stroke-miterlimit="10"/>
<path d="M17.5957 45.1555L21.0072 48.5333" stroke="#005CA9" stroke-width="2" stroke-miterlimit="10"/>
<path d="M60.3291 31.8222L64.4588 27.7333" stroke="#005CA9" stroke-width="2" stroke-miterlimit="10"/>
<path d="M60.329 31.8222L56.3789 27.7333" stroke="#005CA9" stroke-width="2" stroke-miterlimit="10"/>
</svg>
