<svg width="45" height="71" viewBox="0 0 45 71" fill="none" xmlns="http://www.w3.org/2000/svg">
<path fill-rule="evenodd" clip-rule="evenodd" d="M19.3529 0.2736C19.1576 0.424197 18.2098 1.58419 17.2465 2.85151L15.4952 5.15568L8.06586 11.2287C3.97972 14.5689 0.509158 17.4403 0.353495 17.6099C0.089577 17.8973 0.070473 18.1133 0.070473 20.8117C0.070473 23.6191 0.0798123 23.7146 0.38576 24.0142C0.850199 24.4692 1.63615 24.4351 2.07003 23.9409C2.39055 23.5757 2.40541 23.4667 2.40541 21.4864V19.4141H8.70266H14.9999L14.9917 24.7876L14.9835 30.1611L7.64684 36.124C3.61179 39.4036 0.240428 42.2303 0.154955 42.4054C0.0598597 42.6006 -0.000141261 43.7019 2.49766e-07 45.2482C0.000141761 47.3767 0.0389158 47.8472 0.247645 48.2495C0.55246 48.8376 1.10067 49.0474 1.65328 48.7878C2.29899 48.4844 2.40102 48.096 2.40329 45.9351L2.40541 43.959H8.50213C11.9857 43.959 14.5788 44.0117 14.5517 44.0818C14.5258 44.1495 12.4669 49.6958 9.97626 56.4071L5.4479 68.6096L4.32741 68.6738C3.32537 68.7313 3.17212 68.7778 2.87692 69.1141C2.51211 69.5298 2.46796 69.8462 2.704 70.3542C2.97825 70.9438 3.34504 71 6.92131 71C10.0687 71 10.3155 70.9818 10.6489 70.7249C11.0772 70.3947 11.2285 69.8973 11.0447 69.4233C10.8708 68.9753 10.4447 68.7582 9.53786 68.6556L8.80936 68.5732L15.5839 60.4609C19.3101 55.9992 22.4089 52.3323 22.4701 52.3122C22.5778 52.2769 36.2266 68.5375 36.2266 68.7008C36.2266 68.7451 36.1039 68.7812 35.9539 68.7812C35.6349 68.7812 35.0945 69.3995 35.0945 69.7642C35.0945 70.1947 35.3932 70.6852 35.7535 70.8461C35.9754 70.9451 37.3001 71 39.4689 71C42.6162 71 42.863 70.9818 43.1964 70.7249C43.9244 70.1638 43.7987 69.1898 42.9538 68.8439C42.6339 68.7129 41.9537 68.6417 41.0071 68.6402L39.5521 68.6379L35.0237 56.4213C32.5331 49.7022 30.4742 44.1495 30.4483 44.0818C30.4212 44.0117 33.0143 43.959 36.4979 43.959H42.5946L42.5967 45.9351C42.599 48.096 42.701 48.4844 43.3467 48.7878C43.8993 49.0474 44.4475 48.8376 44.7524 48.2495C44.9611 47.8472 44.9999 47.3767 45 45.2482C45.0001 43.7019 44.9401 42.6006 44.8451 42.4054C44.7596 42.2303 41.3882 39.4036 37.3532 36.124L30.0165 30.1611L30.0083 24.7876L30.0001 19.4141H36.2973H42.5946V21.4864C42.5946 23.4667 42.6095 23.5757 42.93 23.9409C43.3638 24.4351 44.1498 24.4692 44.6142 24.0142C44.9202 23.7146 44.9295 23.6191 44.9295 20.8117C44.9295 18.1133 44.9104 17.8973 44.6465 17.6099C44.4908 17.4403 41.0203 14.5689 36.9341 11.2287L29.5048 5.15568L27.7535 2.85151C26.7902 1.58419 25.8424 0.424197 25.6471 0.2736C25.3209 0.0221875 25.0652 0 22.5 0C19.9348 0 19.6791 0.0221875 19.3529 0.2736ZM25.3758 3.5708L26.3009 4.78418L24.4005 4.82273C23.3552 4.84395 21.6448 4.84395 20.5995 4.82273L18.6992 4.78418L19.6242 3.5708L20.5491 2.35742H22.5H24.4509L25.3758 3.5708ZM24.2328 8.90897L22.5 10.607L20.7672 8.90897L19.0344 7.21094H22.5H25.9656L24.2328 8.90897ZM14.9531 17.1487C14.925 17.1763 12.5672 17.1824 9.71347 17.1623L4.52482 17.126L9.72706 12.8794L14.9292 8.63302L14.9667 12.8658C14.9872 15.194 14.9811 17.1213 14.9531 17.1487ZM35.3775 12.9646C37.9849 15.084 40.2114 16.903 40.3253 17.0067C40.5004 17.1661 39.714 17.1953 35.2663 17.1953H30.0001V12.8724V8.54926L30.3185 8.83021C30.4937 8.98469 32.7702 10.8451 35.3775 12.9646ZM19.1384 13.9012L17.4056 15.5992V12.2031V8.80705L19.1384 10.5051L20.8712 12.2031L19.1384 13.9012ZM27.5944 12.2371V15.5992L25.8623 13.9019L24.1304 12.2047L25.8248 10.5398C26.7567 9.62411 27.5361 8.875 27.5568 8.875C27.5774 8.875 27.5944 10.3879 27.5944 12.2371ZM24.2689 15.5312L25.9626 17.1953H22.5H19.0374L20.7311 15.5312C21.6627 14.616 22.4587 13.8672 22.5 13.8672C22.5413 13.8672 23.3373 14.616 24.2689 15.5312ZM24.2328 21.1121L22.5 22.8101L20.7672 21.1121L19.0344 19.4141H22.5H25.9656L24.2328 21.1121ZM19.1414 22.8483L20.802 24.4799L19.1037 26.1396L17.4056 27.7994V24.508C17.4056 22.6978 17.4226 21.2168 17.4432 21.2168C17.4639 21.2168 18.2281 21.9509 19.1414 22.8483ZM27.5944 24.508V27.7994L25.8963 26.1396L24.198 24.4799L25.8586 22.8483C26.7719 21.9509 27.5361 21.2168 27.5568 21.2168C27.5774 21.2168 27.5944 22.6978 27.5944 24.508ZM24.1981 27.8037L25.8208 29.3984H22.5H19.1792L20.8019 27.8037C21.6944 26.9266 22.4585 26.209 22.5 26.209C22.5415 26.209 23.3056 26.9266 24.1981 27.8037ZM24.2328 33.4539L22.5 35.1519L20.7672 33.4539L19.0344 31.7559H22.5H25.9656L24.2328 33.4539ZM14.9531 41.6936C14.925 41.7212 12.5608 41.7273 9.69932 41.7072L4.49652 41.6709L9.71291 37.4134L14.9292 33.1558L14.9667 37.3998C14.9872 39.7339 14.9811 41.6662 14.9531 41.6936ZM35.236 37.3699C37.8434 39.4892 40.1022 41.3396 40.2557 41.4817C40.5282 41.7343 40.4121 41.7402 35.2674 41.7402H30.0001V37.4199C30.0001 33.3184 30.0127 33.1101 30.2477 33.308C30.3839 33.4226 32.6287 35.2504 35.236 37.3699ZM19.1384 38.4461L17.4056 40.1441V36.748V33.352L19.1384 35.05L20.8712 36.748L19.1384 38.4461ZM27.5944 36.782V40.1441L25.8623 38.4468L24.1304 36.7496L25.8248 35.0847C26.7567 34.169 27.5361 33.4199 27.5568 33.4199C27.5774 33.4199 27.5944 34.9328 27.5944 36.782ZM24.2689 40.0762L25.9626 41.7402H22.5H19.0374L20.7311 40.0762C21.6627 39.1609 22.4587 38.4121 22.5 38.4121C22.5413 38.4121 23.3373 39.1609 24.2689 40.0762ZM26.1557 44.0895C26.0642 44.3427 22.6234 48.3965 22.5 48.3965C22.3766 48.3965 18.9358 44.3427 18.8443 44.0895C18.8156 44.01 20.2463 43.959 22.5 43.959C24.7537 43.959 26.1844 44.01 26.1557 44.0895ZM18.8201 47.7718C20.733 50.0642 20.9407 50.3634 20.775 50.589C20.3754 51.1333 9.88314 63.6504 9.82668 63.6504C9.79357 63.6504 9.91484 63.2604 10.0963 62.7837C10.2777 62.3071 11.8197 58.1572 13.5231 53.562C15.2265 48.9668 16.6335 45.207 16.6501 45.207C16.6665 45.207 17.6431 46.3612 18.8201 47.7718ZM31.7247 54.2207C35.5459 64.5039 35.2342 63.6504 35.1684 63.6504C35.1152 63.6504 24.602 51.1025 24.225 50.589C24.0593 50.3634 24.2686 50.0622 26.1958 47.7526C28.1955 45.3562 28.3613 45.1927 28.4796 45.4999C28.5497 45.682 30.0101 49.6064 31.7247 54.2207Z" fill="#005CA9"/>
</svg>
