<svg width="70" height="66" viewBox="0 0 70 66" fill="none" xmlns="http://www.w3.org/2000/svg">
<g clip-path="url(#clip0_477_1219)">
<path d="M8.77193 66C8.07018 65.8231 7.19298 65.6461 6.49123 65.2922C2.63158 64.0536 0 60.1609 0 56.0911C0 40.874 0 25.6568 0 10.4397C0 5.83914 3.50877 1.2386 8.42105 0.353882C11.5789 -0.353893 11.7544 -5.59911e-06 11.7544 3.00804C11.7544 5.83914 11.7544 8.84718 11.7544 11.8552C12.2807 11.8552 12.6316 11.8552 12.9825 11.8552C25.9649 11.8552 38.7719 11.8552 51.7544 11.8552C53.3333 11.8552 53.6842 12.0322 53.6842 13.8016C53.6842 30.6113 53.6842 47.4209 53.6842 64.2306C53.6842 65.1153 53.6842 65.8231 52.807 66.1769C38.0702 66 23.5088 66 8.77193 66ZM11.7544 14.3324C11.7544 15.3941 11.7544 16.2788 11.7544 17.3405C11.7544 26.8954 11.7544 36.4504 11.7544 45.8284C11.7544 48.4826 11.5789 48.1287 9.47368 48.4826C6.66667 48.8365 4.38596 50.4289 3.15789 53.0831C0.877193 57.8606 4.5614 63.5228 10.1754 63.5228C23.5088 63.5228 36.8421 63.5228 50.1754 63.5228C50.5263 63.5228 50.8772 63.5228 51.2281 63.5228C51.2281 47.067 51.2281 30.7882 51.2281 14.3324C38.0702 14.3324 24.9123 14.3324 11.7544 14.3324ZM2.45614 49.7212C4.21053 47.7748 5.96491 46.7131 8.24561 46.1823C9.12281 46.0054 9.29825 45.6515 9.29825 44.9437C9.29825 31.319 9.29825 17.6944 9.29825 4.0697C9.29825 3.71581 9.29825 3.36192 9.29825 3.00804C5.61404 3.36192 2.45614 6.54691 2.45614 10.2627C2.45614 23.0027 2.45614 35.9196 2.45614 48.6595C2.45614 49.0134 2.45614 49.1903 2.45614 49.7212Z" fill="#005CA9"/>
<path d="M56.6666 66C56.4912 65.2922 55.9648 64.7614 55.9648 64.0536C55.9648 43.3512 55.9648 22.6488 55.9648 2.12332C55.9648 0.353887 56.3157 0 57.8947 0C61.228 0 64.7368 0 68.0701 0C68.7719 0 69.2982 0.353887 69.9999 0.530831C69.9999 22.2949 69.9999 44.059 69.9999 65.8231C65.614 66 61.0526 66 56.6666 66ZM67.5438 30.6113C65.2631 30.6113 62.9824 30.6113 60.7017 30.6113C60.7017 29.7265 60.7017 29.0188 60.7017 28.134C62.9824 28.134 65.2631 28.134 67.5438 28.134C67.5438 26.5416 67.5438 25.126 67.5438 23.5335C65.9648 23.5335 64.5613 23.5335 63.1578 23.5335C63.1578 22.6488 63.1578 21.941 63.1578 21.2332C64.7368 21.2332 66.1403 21.2332 67.7192 21.2332C67.7192 19.6408 67.7192 18.0483 67.7192 16.4558C65.4385 16.4558 63.1578 16.4558 60.8771 16.4558C60.8771 15.571 60.8771 14.8633 60.8771 14.1555C63.1578 14.1555 65.4385 14.1555 67.7192 14.1555C67.7192 12.563 67.7192 11.1475 67.7192 9.55496C66.1403 9.55496 64.7368 9.55496 63.3333 9.55496C63.3333 8.67024 63.3333 7.96247 63.3333 7.07775C64.9122 7.07775 66.3157 7.07775 67.7192 7.07775C67.7192 5.48525 67.7192 4.06971 67.7192 2.47721C64.5613 2.47721 61.5789 2.47721 58.5964 2.47721C58.5964 22.8257 58.5964 43.1743 58.5964 63.3458C61.7543 63.3458 64.7368 63.3458 67.7192 63.3458C67.7192 61.7534 67.7192 60.3378 67.7192 58.7453C65.4385 58.7453 63.1578 58.7453 60.8771 58.7453C60.8771 57.8606 60.8771 57.1528 60.8771 56.2681C63.1578 56.2681 65.4385 56.2681 67.7192 56.2681C67.7192 54.6756 67.7192 53.2601 67.7192 51.6676C66.1403 51.6676 64.7368 51.6676 63.3333 51.6676C63.3333 50.7828 63.3333 50.0751 63.3333 49.1903C64.9122 49.1903 66.3157 49.1903 67.7192 49.1903C67.7192 47.5979 67.7192 46.1823 67.7192 44.4129C65.4385 44.4129 63.1578 44.4129 60.8771 44.4129C60.8771 43.5282 60.8771 42.8204 60.8771 42.1126C63.1578 42.1126 65.4385 42.1126 67.7192 42.1126C67.7192 40.5201 67.7192 39.1046 67.7192 37.5121C66.1403 37.5121 64.7368 37.5121 63.1578 37.5121C63.1578 36.6273 63.1578 35.9196 63.1578 35.0349C64.7368 35.0349 66.1403 35.0349 67.7192 35.0349C67.5438 33.6193 67.5438 32.2038 67.5438 30.6113Z" fill="#005CA9"/>
<path d="M30.3508 44.7668C28.7718 44.7668 27.3683 44.7668 25.7894 44.7668C25.7894 45.1207 25.7894 45.4746 25.7894 45.8284C25.7894 48.1287 25.7894 50.252 25.7894 52.5523C25.7894 53.7909 25.4385 54.1448 24.2104 54.1448C22.1051 54.1448 19.9999 54.1448 17.8946 54.1448C16.6666 54.1448 16.3157 53.7909 16.3157 52.5523C16.3157 47.244 16.3157 42.1126 16.3157 36.8043C16.3157 36.2735 16.6666 35.5657 17.0174 35.2118C20.1753 31.496 23.5087 27.9571 26.842 24.2413C27.1929 23.8874 28.0701 23.5335 28.5964 23.5335C30.5262 23.3566 32.6315 23.5335 34.5613 23.5335C35.0876 23.5335 35.7894 23.8874 36.1402 24.2413C39.4736 27.9571 42.8069 31.6729 46.1402 35.5657C46.4911 35.9196 46.6665 36.4504 46.6665 36.9813C46.6665 42.1126 46.6665 47.4209 46.6665 52.5523C46.6665 53.9679 46.3157 54.3217 44.9122 54.3217C40.7016 54.3217 36.3157 54.3217 32.1051 54.3217C30.7016 54.3217 30.3508 53.9679 30.3508 52.5523C30.3508 49.8981 30.3508 47.4209 30.3508 44.7668ZM37.1929 37.866C31.0525 37.866 24.9122 37.866 18.7718 37.866C18.7718 42.4665 18.7718 47.244 18.7718 51.8445C20.3508 51.8445 21.7543 51.8445 23.3332 51.8445C23.3332 49.1904 23.3332 46.5362 23.3332 43.8821C23.3332 42.9973 23.6841 42.4665 24.5613 42.4665C26.842 42.4665 29.1227 42.4665 31.228 42.4665C32.1051 42.4665 32.6315 42.9973 32.6315 43.8821C32.6315 45.4746 32.6315 47.067 32.6315 48.6595C32.6315 49.7212 32.6315 50.7829 32.6315 51.8445C34.2104 51.8445 35.6139 51.8445 37.1929 51.8445C37.1929 47.067 37.1929 42.4665 37.1929 37.866ZM20.3508 35.2118C25.6139 35.2118 30.5262 35.2118 35.6139 35.2118C32.9823 32.2038 30.5262 29.5496 27.8946 26.5416C25.4385 29.5496 22.9823 32.2038 20.3508 35.2118ZM39.8244 37.689C39.8244 42.4665 39.8244 47.0671 39.8244 51.6676C41.4034 51.6676 42.8069 51.6676 44.2104 51.6676C44.2104 47.0671 44.2104 42.4665 44.2104 37.689C42.6315 37.689 41.228 37.689 39.8244 37.689ZM42.8069 35.2118C39.9999 32.0268 37.3683 29.1957 34.7367 26.1877C34.5613 26.0107 34.3858 25.8338 34.2104 25.8338C33.1578 25.8338 32.1051 25.8338 30.7016 25.8338C33.5087 29.0188 36.1402 31.8499 38.7718 34.8579C38.9473 35.0349 39.2981 35.2118 39.4736 35.2118C40.5262 35.2118 41.4034 35.2118 42.8069 35.2118Z" fill="#005CA9"/>
</g>
<defs>
<clipPath id="clip0_477_1219">
<rect width="70" height="66" fill="white"/>
</clipPath>
</defs>
</svg>
