<svg width="78" height="40" viewBox="0 0 78 40" fill="none" xmlns="http://www.w3.org/2000/svg">
<path d="M75.9739 33.9699V36.9849C75.9739 37.3869 75.5687 37.7889 75.1635 37.7889H2.83627C2.43107 37.7889 2.02588 37.3869 2.02588 36.9849V33.9699C2.02588 33.5678 2.43107 33.1658 2.83627 33.1658H75.1635C75.5687 33.1658 75.9739 33.5678 75.9739 33.9699Z" stroke="#005CA9" stroke-width="2" stroke-miterlimit="10"/>
<path d="M4.86223 29.7488H4.45703" stroke="#005CA9" stroke-width="2" stroke-miterlimit="10"/>
<path d="M75.974 29.7488H38.8987" stroke="#005CA9" stroke-width="2" stroke-miterlimit="10"/>
<path d="M75.9739 29.7488V2.01007" stroke="#005CA9" stroke-width="2" stroke-miterlimit="10"/>
<path d="M21.4753 2.01007H76.3792" stroke="#005CA9" stroke-width="2" stroke-miterlimit="10"/>
<path d="M38.8987 9.84928V17.2865C38.8987 17.8895 38.6961 18.2915 38.4935 18.6935C38.0883 19.4975 37.0753 20.1005 36.0623 20.1005H33.0234C31.4026 20.1005 30.187 18.8945 30.187 17.2865V9.84928C30.187 9.64827 30.187 9.64827 30.187 9.44727V9.24626V9.04526C30.187 8.84425 30.187 8.84425 30.3896 8.64325C30.3896 8.44224 30.5922 8.44224 30.5922 8.24124C30.5922 8.24124 30.5922 8.04023 30.7948 8.04023L30.9974 7.83923L31.2 7.63822C31.2 7.63822 31.4026 7.63822 31.4026 7.43722C31.4026 7.43722 31.6052 7.43722 31.6052 7.23621H31.8078H32.0104C32.0104 7.23621 32.0104 7.23621 32.213 7.23621H32.4156C32.6182 7.23621 32.8208 7.23621 33.0234 7.23621H36.0623C37.6831 7.03521 38.8987 8.24124 38.8987 9.84928Z" stroke="#005CA9" stroke-width="2" stroke-miterlimit="10"/>
<path d="M49.839 20.1005C47.4078 20.1005 45.3818 18.0905 45.3818 15.6784V11.4573C45.3818 9.04527 47.4078 7.03522 49.839 7.03522C52.2702 7.03522 54.2961 9.04527 54.2961 11.4573V15.8794C54.0935 18.0905 52.2702 20.1005 49.839 20.1005Z" stroke="#005CA9" stroke-width="2" stroke-miterlimit="10"/>
<path d="M63.6156 20.1005C61.1844 20.1005 59.1584 18.0905 59.1584 15.6784V11.4573C59.1584 9.04527 61.1844 7.03522 63.6156 7.03522C66.0468 7.03522 68.0727 9.04527 68.0727 11.4573V15.8794C67.8701 18.0905 65.8442 20.1005 63.6156 20.1005Z" stroke="#005CA9" stroke-width="2" stroke-miterlimit="10"/>
<path d="M2.22848 27.5377C2.02588 27.1357 2.02588 26.9347 2.02588 26.7337C2.02588 26.5327 2.02588 26.5327 2.02588 26.3317C2.02588 26.7337 2.02588 27.1357 2.22848 27.5377Z" stroke="#005CA9" stroke-width="2" stroke-miterlimit="10"/>
<path d="M38.696 18.6935C38.2908 19.4975 37.2778 20.1005 36.2648 20.1005H33.2259C31.6051 20.1005 30.3895 18.8945 30.3895 17.2865V9.84927C30.3895 9.64826 30.3895 9.64826 30.3895 9.44726V9.24625V9.04525C30.3895 8.84424 30.3895 8.84424 30.5921 8.64324C30.5921 8.44223 30.7947 8.44223 30.7947 8.24123C30.7947 8.24123 30.7947 8.04022 30.9973 8.04022L31.1999 7.83922L31.4025 7.63821C31.4025 7.63821 31.6051 7.63821 31.6051 7.43721C31.6051 7.43721 31.8077 7.43721 31.8077 7.2362H32.0103H32.2129C32.2129 7.2362 32.2129 7.2362 32.4155 7.2362H32.6181C29.1739 4.02012 25.122 2.01007 20.6648 2.01007C10.3324 2.01007 2.02588 12.2613 2.02588 24.9246C2.02588 25.3267 2.02588 25.7287 2.02588 26.1307C2.02588 26.5327 2.02588 26.9347 2.02588 27.3367C2.43107 28.5427 3.44406 29.5478 4.65965 29.5478H38.696C38.8986 27.9397 39.1012 26.5327 39.1012 24.7236C39.3038 22.7136 39.1012 20.7035 38.696 18.6935Z" stroke="#005CA9" stroke-width="2" stroke-miterlimit="10"/>
<path d="M24.1089 8.64325V20.1005C24.1089 20.5026 23.7037 20.9046 23.2985 20.9046H9.1167C9.1167 20.7036 9.1167 20.3015 9.1167 20.1005C9.1167 15.4774 11.7505 11.6583 15.8024 9.44727C17.6258 8.44225 19.8544 7.83923 22.2855 7.83923C22.6907 7.83923 23.0959 7.83923 23.7037 7.83923C23.9063 8.04024 24.1089 8.44225 24.1089 8.64325Z" stroke="#005CA9" stroke-width="2" stroke-miterlimit="10"/>
<path d="M15.1948 29.7487L21.4753 25.7286" stroke="#005CA9" stroke-width="2" stroke-miterlimit="10"/>
<path d="M21.4753 25.7286H75.974" stroke="#005CA9" stroke-width="2" stroke-miterlimit="10"/>
</svg>
