<svg width="81" height="67" viewBox="0 0 81 67" fill="none" xmlns="http://www.w3.org/2000/svg">
<path d="M70.6685 48.3312H10.3317C5.78579 48.3312 2.06641 44.5975 2.06641 40.034V10.3715C2.06641 5.80803 5.78579 2.07428 10.3317 2.07428H70.6685C75.2144 2.07428 78.9338 5.80803 78.9338 10.3715V40.034C78.9338 44.5975 75.2144 48.3312 70.6685 48.3312Z" stroke="#005CA9" stroke-width="2" stroke-miterlimit="10"/>
<path d="M2.06641 38.9969H78.9338" stroke="#005CA9" stroke-width="2" stroke-miterlimit="10"/>
<path d="M36.574 43.7678H44.426" stroke="#005CA9" stroke-width="2" stroke-miterlimit="10"/>
<path d="M33.6812 48.5387C33.6812 55.7988 27.8955 61.6068 20.6633 61.6068" stroke="#005CA9" stroke-width="2" stroke-miterlimit="10"/>
<path d="M47.5256 48.5387C47.5256 55.7988 53.3113 61.6068 60.5435 61.6068" stroke="#005CA9" stroke-width="2" stroke-miterlimit="10"/>
<path d="M61.3699 64.9257H19.6301C18.8036 64.9257 17.9771 64.096 17.9771 63.2663C17.9771 62.4365 18.8036 61.6068 19.6301 61.6068H61.3699C62.1964 61.6068 63.023 62.4365 63.023 63.2663C63.023 64.3034 62.4031 64.9257 61.3699 64.9257Z" stroke="#005CA9" stroke-width="2" stroke-miterlimit="10"/>
<path d="M48.7654 30.4922L46.9057 29.8699C45.666 29.4551 44.2195 30.0774 43.8063 31.322L43.393 32.9814C42.7731 35.0557 39.8802 35.2631 39.0537 33.1888L38.2272 31.5294C37.6073 30.2848 36.1609 29.8699 35.1277 30.4922L33.4746 31.322C31.6149 32.3591 29.5486 30.4922 30.3751 28.4179L30.995 26.5511C31.4083 25.3065 30.7884 23.8545 29.5486 23.4396L27.6889 22.8173C25.6226 22.195 25.416 19.291 27.4823 18.4613L29.1353 17.6316C30.3751 17.0093 30.7884 15.5573 30.1685 14.5201L29.342 12.8607C28.3088 10.9938 30.1685 8.91948 32.2348 9.7492L34.0945 10.3715C35.3343 10.7864 36.7807 10.1641 37.194 8.91948L37.8139 7.05261C38.4338 4.9783 41.3267 4.77087 42.1532 6.84518L42.9797 8.50462C43.5996 9.7492 45.0461 10.1641 46.0792 9.54177L47.5256 9.33434C49.3853 8.29719 51.4517 10.1641 50.6251 12.2384L50.0052 14.1052C49.592 15.3498 50.2119 16.8018 51.4517 17.2167L53.3114 17.839C55.3777 18.4613 55.5843 21.3653 53.518 22.195L51.6583 22.4025C50.4185 23.0247 50.0052 24.4768 50.6251 25.5139L51.4517 27.1734C52.4848 29.2477 50.6251 31.322 48.7654 30.4922Z" stroke="#005CA9" stroke-width="2" stroke-miterlimit="10"/>
<path d="M40.5002 23.8544C42.3261 23.8544 43.8063 22.3685 43.8063 20.5356C43.8063 18.7026 42.3261 17.2167 40.5002 17.2167C38.6743 17.2167 37.1941 18.7026 37.1941 20.5356C37.1941 22.3685 38.6743 23.8544 40.5002 23.8544Z" stroke="#005CA9" stroke-width="2" stroke-miterlimit="10"/>
</svg>
