<svg width="89" height="80" viewBox="0 0 89 80" fill="none" xmlns="http://www.w3.org/2000/svg">
<path d="M43.7433 70.2237C27.2363 70.0861 13.7557 56.7298 13.7557 40.0688C13.6181 23.2702 27.3739 9.63855 43.8809 9.77624C60.5254 9.77624 74.1436 23.4079 74.1436 40.0688C74.0061 56.7298 60.5254 70.2237 43.7433 70.2237ZM31.7758 54.1136C40.1668 51.9105 48.4203 51.9105 56.5362 54.2513C57.7742 49.8451 58.462 45.3012 58.462 40.6196C48.9705 40.6196 39.3414 40.6196 29.8499 40.6196C30.1251 45.3012 30.6753 49.7074 31.7758 54.1136ZM56.9489 26.7126C48.4203 29.8795 40.0292 30.0172 31.5006 27.401C30.8128 29.3287 29.7124 37.5904 30.1251 39.2427C39.6166 39.2427 49.1081 39.2427 58.5996 39.2427C58.5996 34.8365 58.0493 30.8434 56.9489 26.7126ZM31.7758 25.7487C40.1668 28.3649 48.2827 28.2272 56.5362 25.1979C55.986 23.6833 55.4357 22.4441 54.8855 21.0671C53.5099 18.1756 51.8592 15.4217 49.3832 13.494C47.3198 11.8416 44.9813 11.0155 42.3677 11.5663C40.4419 11.9793 38.7912 13.0809 37.5532 14.5955C34.6645 17.6248 33.0138 21.6179 31.7758 25.7487ZM56.1235 55.9036C48.1452 53.5628 40.1668 53.5628 32.1884 55.7659C33.1513 58.5198 34.2518 61.136 35.9025 63.4768C36.5903 64.4406 37.2781 65.2668 38.1034 66.0929C41.4048 69.2599 45.5316 69.5353 49.1081 66.6437C52.8221 63.8898 54.6104 60.0344 56.1235 55.9036ZM15.2688 40.7573C15.5439 47.642 18.02 53.7005 22.4218 58.9329C24.7603 56.8675 27.3739 55.6282 30.2626 54.6644C29.0246 50.1205 28.4744 45.5766 28.3368 40.7573C24.0725 40.7573 19.6707 40.7573 15.2688 40.7573ZM65.3399 58.9329C69.8793 53.7005 72.2178 47.642 72.4929 40.7573C68.3662 40.7573 64.2394 40.7573 60.2503 40.7573C60.1127 45.5766 59.5625 50.2582 58.1869 54.8021C60.8005 55.9036 63.139 57.1429 65.3399 58.9329ZM21.8716 21.6179C17.7448 26.7126 15.5439 32.4957 15.2688 39.105C19.6707 39.105 24.0725 39.105 28.3368 39.105C28.3368 34.8365 28.887 30.8434 29.8499 26.7126C26.9612 25.4733 24.2101 23.9587 21.8716 21.6179ZM65.3399 21.0671C63.4141 23.1325 61.2132 24.6472 58.8747 25.8864C58.5996 26.0241 58.462 26.1618 58.5996 26.5749C59.5625 30.0172 60.1127 33.5972 60.2503 37.1773C60.2503 37.8657 60.3878 38.5542 60.3878 39.2427C64.5146 39.2427 68.5037 39.2427 72.6305 39.2427C72.2178 32.2203 69.8793 26.2995 65.3399 21.0671ZM37.8283 11.9793C31.9133 13.2186 27.0988 16.1101 22.972 20.3787C25.0354 22.5818 27.5115 23.9587 30.4002 25.1979C31.9133 20.241 33.9767 15.5594 37.8283 11.9793ZM37.9659 67.883C34.3894 64.716 32.4635 60.5852 30.8128 56.179C28.1992 57.1429 25.7232 58.2444 23.5223 60.1721C27.649 64.1652 32.326 66.7814 37.9659 67.883ZM50.3461 12.117C54.1977 15.4217 56.2611 19.8279 57.9118 24.5095C60.2503 23.2702 62.4512 21.8933 64.2394 19.8279C60.3878 15.9725 55.7108 13.3563 50.3461 12.117ZM50.3461 67.883C55.7108 66.6437 60.2503 64.0275 64.2394 60.1721C62.3136 58.5198 59.9751 57.2805 57.6367 56.4544C55.986 60.7229 53.9226 64.716 50.3461 67.883Z" fill="#005CA9" stroke="#005CA9" stroke-miterlimit="10"/>
<path d="M83.085 38.1411C84.1855 37.0396 85.1484 36.0757 86.2489 35.1119C86.3864 34.9742 86.6615 34.6988 86.7991 34.5611C87.2118 34.148 87.6244 34.148 87.8996 34.5611C88.3122 34.9742 88.1747 35.3873 87.762 35.6627C86.3864 37.0396 85.0108 38.4165 83.6353 39.7935C83.3601 40.0688 83.2226 40.2065 82.9475 40.4819C82.3972 41.0327 82.1221 41.0327 81.5719 40.6196C79.9212 39.3804 78.1329 38.1411 76.4822 36.7642C75.932 36.3511 75.7945 35.938 76.2071 35.525C76.4823 35.1119 77.0325 35.1119 77.5827 35.525C78.8207 36.4888 80.1963 37.4527 81.5719 38.4165C81.4343 37.315 81.4343 36.4888 81.2968 35.6627C80.609 30.1549 78.9583 25.0602 75.932 20.3787C70.2921 11.1532 62.1762 5.37005 51.5843 3.02926C49.1082 2.47849 46.6322 2.34079 44.0186 2.2031C43.3308 2.2031 43.0557 1.92771 43.0557 1.37694C43.0557 0.826164 43.4683 0.550777 44.0186 0.68847C53.6476 0.826164 62.0387 3.99312 69.3292 10.1893C75.3818 15.4217 79.5085 21.8933 81.7095 29.6041C82.5348 32.2203 82.9475 35.1119 83.085 38.1411Z" fill="#005CA9" stroke="#005CA9" stroke-miterlimit="10"/>
<path d="M4.67691 42.272C3.98912 43.2358 3.16377 44.1997 2.47598 45.0258C2.33842 45.1635 2.33842 45.3012 2.20086 45.4389C1.78819 45.852 1.37552 45.9897 0.962842 45.7143C0.550168 45.3012 0.550168 45.0258 0.825284 44.6127C1.78819 43.3735 2.61354 42.1343 3.57644 41.0327C3.98912 40.6196 4.26423 40.0689 4.67691 39.6558C5.08958 39.105 5.50225 39.105 6.05249 39.5181C7.70318 41.0327 9.35388 42.685 11.0046 44.3374C11.4172 44.7504 11.4172 45.1635 11.1421 45.4389C10.867 45.852 10.3168 45.852 9.90411 45.4389C8.80365 44.1997 7.70318 43.0981 6.60272 41.8589C6.46516 41.9966 6.3276 41.9966 6.3276 42.1343C6.3276 42.8227 6.46516 43.5112 6.46516 44.1997C7.42807 52.599 10.867 59.8967 16.6445 65.9553C22.1468 71.8761 29.0247 75.4561 36.8655 76.9708C39.0664 77.3838 41.2673 77.5215 43.4683 77.6592C44.2936 77.7969 44.7063 77.9346 44.7063 78.4854C44.7063 79.0362 44.2936 79.3115 43.4683 79.3115C36.4528 79.1738 29.85 77.3838 23.7975 73.6661C14.9938 68.2961 9.07876 60.5852 6.19004 50.6713C5.50225 48.1928 4.95202 45.7143 4.81447 43.0981C4.81447 42.9604 4.81447 42.8227 4.67691 42.5473C4.67691 42.5473 4.67691 42.4096 4.67691 42.272Z" fill="#005CA9" stroke="#005CA9" stroke-miterlimit="10"/>
<path d="M43.8811 9.77625V69.3976" stroke="#005CA9" stroke-width="2" stroke-miterlimit="10"/>
</svg>
