<svg width="100" height="100" viewBox="0 0 100 100" fill="none" xmlns="http://www.w3.org/2000/svg">
<path d="M73.0769 50H50M50 73.0769V50M26.9231 50H50M50 26.9231V50" stroke="#51AF3D" stroke-width="8"/>
<path d="M69.0769 50C69.0769 60.5359 60.5359 69.0769 50 69.0769C39.4641 69.0769 30.9231 60.5359 30.9231 50C30.9231 39.4641 39.4641 30.9231 50 30.9231C60.5359 30.9231 69.0769 39.4641 69.0769 50ZM54 95.8285V76.7835C65.7522 75.0434 75.0434 65.7522 76.7835 54H95.8285C93.915 76.2139 76.2139 93.915 54 95.8285ZM76.7835 46C75.0434 34.2478 65.7522 24.9566 54 23.2165V4.1715C76.2139 6.08496 93.915 23.7861 95.8285 46H76.7835ZM46 76.7835V95.8285C23.7861 93.915 6.08496 76.2139 4.1715 54H23.2165C24.9566 65.7522 34.2478 75.0434 46 76.7835ZM23.2165 46H4.1715C6.08497 23.7861 23.7861 6.08497 46 4.1715V23.2165C34.2478 24.9566 24.9566 34.2478 23.2165 46Z" stroke="#005CA9" stroke-width="8"/>
</svg>
