<svg width="160" height="160" viewBox="0 0 160 160" fill="none" xmlns="http://www.w3.org/2000/svg">
<path d="M135.185 61.3675H87.5068C86.4921 61.3675 85.6699 60.545 85.6699 59.5306V26.3156C85.6699 25.3009 86.4924 24.4788 87.5068 24.4788H135.185C136.2 24.4788 137.022 25.3013 137.022 26.3156V59.5306C137.022 60.545 136.2 61.3675 135.185 61.3675Z" fill="url(#paint0_linear_566_1353)"/>
<path opacity="0.8" d="M60.6451 64.1765H7.16354C6.14885 64.1765 5.32666 63.354 5.32666 62.3397V27.744C5.32666 26.7294 6.14916 25.9072 7.16354 25.9072H60.6451C61.6598 25.9072 62.482 26.7297 62.482 27.744V62.3397C62.482 63.354 61.6598 64.1765 60.6451 64.1765Z" fill="url(#paint1_linear_566_1353)"/>
<path d="M146.199 52.2694H99.7837C98.769 52.2694 97.9468 51.4469 97.9468 50.4325V18.7412C97.9468 17.7265 98.7693 16.9044 99.7837 16.9044H146.199C147.213 16.9044 148.036 17.7269 148.036 18.7412V50.4325C148.036 51.4469 147.213 52.2694 146.199 52.2694Z" fill="url(#paint2_linear_566_1353)"/>
<path d="M138.575 120.657H13.7925V38.8681C13.7925 37.1562 15.1803 35.7684 16.8922 35.7684H135.475C137.187 35.7684 138.575 37.1562 138.575 38.8681V120.657H138.575Z" fill="url(#paint3_linear_566_1353)"/>
<path d="M143.662 130.1H8.70563C4.90281 130.1 1.82031 127.017 1.82031 123.214V120.657H150.548V123.214C150.547 127.017 147.465 130.1 143.662 130.1Z" fill="url(#paint4_linear_566_1353)"/>
<path d="M132.167 45.5053H20.2002V114.416H132.167V45.5053Z" fill="url(#paint5_linear_566_1353)"/>
<path d="M78.1366 41.3318H74.231C73.9122 41.3318 73.6538 41.0734 73.6538 40.7547V40.3259C73.6538 40.0072 73.9122 39.7487 74.231 39.7487H78.1366C78.4554 39.7487 78.7138 40.0072 78.7138 40.3259V40.7547C78.7138 41.0734 78.4554 41.3318 78.1366 41.3318Z" fill="#C4DCFE"/>
<path opacity="0.5" d="M48.4834 120.657L49.0831 121.29C50.2659 122.538 51.9103 123.246 53.6303 123.246H98.8118C100.82 123.246 102.706 122.283 103.884 120.657H48.4834V120.657Z" fill="#C4DCFE"/>
<path d="M103.854 54.3306H98.8823C97.417 54.3306 96.2288 55.5184 96.2288 56.9841C96.2288 57.1516 96.2463 57.315 96.276 57.4741L84.7813 59.5678C83.9413 56.5478 81.1732 54.3306 77.8854 54.3306H75.3801C71.571 54.3306 68.4579 57.3059 68.2351 61.0591H56.1182C55.8954 57.3059 52.7823 54.3306 48.9732 54.3306H36.6029C32.6492 54.3306 29.4438 57.5359 29.4438 61.4897C29.4438 65.4434 32.6492 68.6488 36.6029 68.6488H40.7979L38.9651 77.1169H36.6032C32.6495 77.1169 29.4442 80.3222 29.4442 84.2759C29.4442 88.0828 32.4157 91.1941 36.1657 91.4206L34.6113 100.284H32.0973C30.632 100.284 29.4438 101.472 29.4438 102.937C29.4438 104.402 30.632 105.591 32.0973 105.591H37.0692C38.5345 105.591 39.7226 104.402 39.7226 102.937C39.7226 101.472 38.5345 100.284 37.0692 100.284H35.4857L37.0373 91.435H39.1085C40.3135 91.435 41.4482 91.1359 42.4445 90.6103L49.5801 100.284C48.1176 100.288 46.9329 101.474 46.9329 102.937C46.9329 104.402 48.121 105.591 49.5863 105.591H54.5582C56.0235 105.591 57.2117 104.402 57.2117 102.937C57.2117 101.472 56.0238 100.284 54.5582 100.284H50.6501L43.1835 90.1612C45.0467 88.8687 46.2679 86.7156 46.2679 84.2759C46.2679 84.2619 46.267 84.2478 46.267 84.2334H57.8782C57.8782 84.2475 57.8773 84.2616 57.8773 84.2759C57.8773 88.2297 61.0826 91.435 65.0363 91.435H67.1073L68.6588 100.284H67.0754C65.6101 100.284 64.422 101.472 64.422 102.937C64.422 104.402 65.6098 105.591 67.0754 105.591H72.0473C73.5126 105.591 74.7007 104.402 74.7007 102.937C74.7007 101.472 73.5129 100.284 72.0473 100.284H69.5335L67.9792 91.4206C69.8832 91.3056 71.5863 90.4472 72.8017 89.1309L81.747 95.0888C81.0713 95.5697 80.6292 96.3575 80.6292 97.25C80.6292 98.7153 81.8173 99.9034 83.2826 99.9034H88.2545C89.7201 99.9034 90.9079 98.7153 90.9079 97.25C90.9079 95.7847 89.7201 94.5966 88.2545 94.5966H83.2826C83.072 94.5966 82.8682 94.6238 82.6717 94.67L73.3485 88.4606C74.1195 87.3925 74.6035 86.1038 74.6863 84.7066H85.0176C85.2238 85.9669 86.3145 86.9294 87.6329 86.9294H92.6048C94.0701 86.9294 95.2582 85.7416 95.2582 84.2759C95.2582 82.8106 94.0704 81.6225 92.6048 81.6225H87.6329C86.3145 81.6225 85.2235 82.5853 85.0176 83.8453H74.6863C74.5076 80.8366 72.4717 78.3281 69.7079 77.4516L73.8645 68.4863C74.3535 68.5919 74.8604 68.6488 75.381 68.6488H77.8863C80.3763 68.6488 82.5685 67.3772 83.851 65.4484L92.4591 69.6C92.0732 70.0609 91.8401 70.6541 91.8401 71.3022C91.8401 72.7675 93.0279 73.9556 94.4935 73.9556H99.4654C100.931 73.9556 102.119 72.7675 102.119 71.3022C102.119 69.8369 100.931 68.6488 99.4654 68.6488H94.4935C94.0179 68.6488 93.5726 68.7756 93.1863 68.9947L84.2842 64.7013C84.7701 63.735 85.0454 62.6447 85.0454 61.4897C85.0454 61.1225 85.0176 60.7622 84.9642 60.4097L96.5776 58.2941C97.0342 59.0956 97.8948 59.6372 98.8832 59.6372H103.855C105.32 59.6372 106.509 58.4491 106.509 56.9838C106.508 55.5188 105.319 54.3306 103.854 54.3306ZM46.2082 83.3728C45.7938 80.0841 43.1504 77.4894 39.8376 77.1541L41.6788 68.6491H48.9735C49.1607 68.6491 49.3454 68.6397 49.5288 68.6256L60.2132 78.9856C58.9873 80.1038 58.1535 81.6425 57.9354 83.3731H46.2082V83.3728ZM68.8563 77.24C68.4298 77.1606 67.9904 77.1172 67.5407 77.1172H65.0354C63.4898 77.1172 62.0595 77.6088 60.8895 78.4419L50.597 68.4619C53.6332 67.7575 55.9282 65.1231 56.1185 61.9203H68.2354C68.4098 64.86 70.3576 67.3206 73.0242 68.25L68.8563 77.24Z" fill="url(#paint6_linear_566_1353)"/>
<path d="M105.413 66.9134C107.592 65.1747 111.469 64.6053 111.469 64.6053L110.76 58.7706L103.734 55.8331C102.905 55.515 102.056 56.2475 102.249 57.1137L105.413 66.9134Z" fill="#479DFF"/>
<path d="M108.904 90.3291C114.228 92.6713 118.274 85.0056 118.274 85.0056C118.274 85.0056 125.726 91.1425 115.931 99.8728C109.314 105.771 105.582 114.443 103.858 119.426C103.189 121.357 104.628 123.404 106.671 123.404H146.713C146.713 123.404 150.427 102.722 143.4 83.5584C136.374 64.3947 120.831 63.0828 120.831 63.0828L112.567 54.0228C111.711 53.0847 110.156 53.7988 110.309 55.0591L111.469 64.605C110.749 64.7203 110.052 64.8688 109.392 65.0356C106.075 65.8744 103.282 68.1003 101.698 71.1331L91.8701 89.9556C91.5088 90.6478 91.7391 91.5013 92.3997 91.9178L95.0304 93.5756C96.7404 94.6531 99.0054 93.7703 99.5344 91.8194C100.702 88.4316 103.581 87.9869 108.904 90.3291Z" fill="url(#paint7_linear_566_1353)"/>
<path d="M152.362 132.333H106.977C103.775 132.333 101.131 134.985 101.131 138.188V142.343C101.131 143.108 101.798 143.716 102.563 143.716H156.776C157.541 143.716 158.049 143.108 158.049 142.343V138.188C158.049 134.985 155.564 132.333 152.362 132.333Z" fill="url(#paint8_linear_566_1353)"/>
<path d="M147.529 77.6669C138.593 62.0922 125.182 58.2716 115.608 57.3569L120.831 63.0828C120.831 63.0828 136.374 64.395 143.4 83.5587C150.427 102.722 146.713 123.405 146.713 123.405H151.22C153.429 123.405 155.256 121.638 155.391 119.414C155.881 111.305 155.935 92.3156 147.529 77.6669Z" fill="#479DFF"/>
<path d="M150.925 123.405H108.255V132.333H150.925V123.405Z" fill="url(#paint9_linear_566_1353)"/>
<path d="M119.007 123.405H108.255V132.333H119.007V123.405Z" fill="#2E73D8"/>
<path d="M113.336 123.405C115.35 108.403 128.619 102.476 129.59 93.4347C130.574 84.2672 122.074 78.8812 122.074 78.8812C120.584 83.1212 118.274 85.0059 118.274 85.0059C118.274 85.0059 125.726 91.1428 115.932 99.8731C109.314 105.771 105.583 114.443 103.858 119.427C103.19 121.357 104.629 123.405 106.672 123.405H113.336Z" fill="url(#paint10_linear_566_1353)"/>
<path d="M108.905 90.329C114.227 92.6706 118.272 85.0087 118.274 85.0059C112.176 87.2837 107.971 86.714 105.696 85.9822C104.424 85.5731 103.039 86.0784 102.313 87.1997L100.063 90.6737L100.064 90.674C101.471 88.3647 104.256 88.2834 108.905 90.329Z" fill="url(#paint11_linear_566_1353)"/>
<path d="M106.845 76.4059C106.845 76.4059 107.809 72.4159 111.678 70.959L110.92 72.2334C110.92 72.2334 111.906 75.3437 108.72 75.3437L106.845 76.4059Z" fill="url(#paint12_linear_566_1353)"/>
<path d="M152.804 127.869C152.804 126.893 151.804 126.103 150.572 126.103H108.608C107.375 126.103 106.376 126.893 106.376 127.869C106.376 128.844 107.375 129.635 108.608 129.635H150.572C151.804 129.635 152.804 128.844 152.804 127.869Z" fill="url(#paint13_linear_566_1353)"/>
<defs>
<linearGradient id="paint0_linear_566_1353" x1="136.762" y1="16.0443" x2="-8.05905" y2="169.2" gradientUnits="userSpaceOnUse">
<stop stop-color="#99C1F9"/>
<stop offset="1" stop-color="#C4DCFE"/>
</linearGradient>
<linearGradient id="paint1_linear_566_1353" x1="71.1647" y1="14.435" x2="-0.24941" y2="73.0966" gradientUnits="userSpaceOnUse">
<stop stop-color="#99C1F9"/>
<stop offset="1" stop-color="#C4DCFE"/>
</linearGradient>
<linearGradient id="paint2_linear_566_1353" x1="147.578" y1="8.58461" x2="7.48" y2="156.746" gradientUnits="userSpaceOnUse">
<stop stop-color="#7DA7FF"/>
<stop offset="1" stop-color="#3276E2"/>
</linearGradient>
<linearGradient id="paint3_linear_566_1353" x1="13.7926" y1="78.2126" x2="138.575" y2="78.2126" gradientUnits="userSpaceOnUse">
<stop stop-color="#3047A8"/>
<stop offset="1" stop-color="#2F2F5B"/>
</linearGradient>
<linearGradient id="paint4_linear_566_1353" x1="1.82028" y1="125.378" x2="150.547" y2="125.378" gradientUnits="userSpaceOnUse">
<stop stop-color="#3379DB"/>
<stop offset="1" stop-color="#2257BB"/>
</linearGradient>
<linearGradient id="paint5_linear_566_1353" x1="35.8742" y1="31.9733" x2="114.407" y2="125.465" gradientUnits="userSpaceOnUse">
<stop stop-color="#3379DB"/>
<stop offset="1" stop-color="#2257BB"/>
</linearGradient>
<linearGradient id="paint6_linear_566_1353" x1="29.4434" y1="79.9608" x2="106.508" y2="79.9608" gradientUnits="userSpaceOnUse">
<stop stop-color="#3047A8"/>
<stop offset="1" stop-color="#2F2F5B"/>
</linearGradient>
<linearGradient id="paint7_linear_566_1353" x1="104.734" y1="120.542" x2="138.179" y2="76.0688" gradientUnits="userSpaceOnUse">
<stop stop-color="#B9D3FF"/>
<stop offset="1" stop-color="#D9E8FE"/>
</linearGradient>
<linearGradient id="paint8_linear_566_1353" x1="117.044" y1="143.707" x2="147.243" y2="131.802" gradientUnits="userSpaceOnUse">
<stop stop-color="#A0BCF3"/>
<stop offset="1" stop-color="#D9E8FE"/>
</linearGradient>
<linearGradient id="paint9_linear_566_1353" x1="108.255" y1="127.869" x2="150.925" y2="127.869" gradientUnits="userSpaceOnUse">
<stop stop-color="#3F87EC"/>
<stop offset="1" stop-color="#479DFF"/>
</linearGradient>
<linearGradient id="paint10_linear_566_1353" x1="131.745" y1="74.5277" x2="111.078" y2="115.441" gradientUnits="userSpaceOnUse">
<stop stop-color="#95BBF1"/>
<stop offset="1" stop-color="#B9D3FF"/>
</linearGradient>
<linearGradient id="paint11_linear_566_1353" x1="113.21" y1="79.8391" x2="107.375" y2="91.3901" gradientUnits="userSpaceOnUse">
<stop stop-color="#95BBF1"/>
<stop offset="1" stop-color="#B9D3FF"/>
</linearGradient>
<linearGradient id="paint12_linear_566_1353" x1="106.845" y1="73.6826" x2="111.679" y2="73.6826" gradientUnits="userSpaceOnUse">
<stop stop-color="#95BBF1"/>
<stop offset="1" stop-color="#B9D3FF"/>
</linearGradient>
<linearGradient id="paint13_linear_566_1353" x1="107.458" y1="137.522" x2="148.696" y2="119.535" gradientUnits="userSpaceOnUse">
<stop stop-color="#B9D3FF"/>
<stop offset="1" stop-color="#D9E8FE"/>
</linearGradient>
</defs>
</svg>
