<svg width="160" height="160" viewBox="0 0 160 160" fill="none" xmlns="http://www.w3.org/2000/svg">
<path d="M139.479 125.832H19.1196C16.8809 125.832 15.0493 124 15.0493 121.762V28.885H143.55V121.762C143.55 124 141.718 125.832 139.479 125.832Z" fill="url(#paint0_linear_566_1377)"/>
<path d="M139.234 13.6641H19.3649C16.9915 13.6641 15.0493 15.6059 15.0493 17.9797V28.8853H143.55V17.9797C143.55 15.6059 141.608 13.6641 139.234 13.6641Z" fill="url(#paint1_linear_566_1377)"/>
<path d="M25.0928 24.1119C26.317 24.1119 27.3093 23.1195 27.3093 21.8953C27.3093 20.6712 26.317 19.6788 25.0928 19.6788C23.8686 19.6788 22.8762 20.6712 22.8762 21.8953C22.8762 23.1195 23.8686 24.1119 25.0928 24.1119Z" fill="#76CBFD"/>
<path d="M33.7378 24.1119C34.962 24.1119 35.9544 23.1195 35.9544 21.8953C35.9544 20.6712 34.962 19.6788 33.7378 19.6788C32.5136 19.6788 31.5212 20.6712 31.5212 21.8953C31.5212 23.1195 32.5136 24.1119 33.7378 24.1119Z" fill="#63C3FF"/>
<path d="M42.3828 24.1119C43.607 24.1119 44.5994 23.1195 44.5994 21.8953C44.5994 20.6712 43.607 19.6788 42.3828 19.6788C41.1586 19.6788 40.1663 20.6712 40.1663 21.8953C40.1663 23.1195 41.1586 24.1119 42.3828 24.1119Z" fill="#76CBFD"/>
<g opacity="0.8">
<path d="M133.315 37.0669H25.2847V100.838H133.315V37.0669Z" fill="white"/>
<path d="M103.07 117.473H84.7189C83.9911 117.473 83.4011 116.883 83.4011 116.155V115.996C83.4011 115.268 83.9911 114.678 84.7189 114.678H103.07C103.798 114.678 104.388 115.268 104.388 115.996V116.155C104.388 116.883 103.798 117.473 103.07 117.473Z" fill="white"/>
<path d="M131.996 109.438H84.7189C83.9911 109.438 83.4011 108.848 83.4011 108.12V107.962C83.4011 107.234 83.9911 106.644 84.7189 106.644H131.996C132.724 106.644 133.314 107.234 133.314 107.962V108.12C133.315 108.848 132.725 109.438 131.996 109.438Z" fill="white"/>
<path d="M44.954 117.473H26.6025C25.8747 117.473 25.2847 116.883 25.2847 116.155V115.996C25.2847 115.268 25.8747 114.678 26.6025 114.678H44.954C45.6819 114.678 46.2719 115.268 46.2719 115.996V116.155C46.2719 116.883 45.6819 117.473 44.954 117.473Z" fill="white"/>
<path d="M73.88 117.473H51.2531C50.5253 117.473 49.9353 116.883 49.9353 116.155V115.996C49.9353 115.268 50.5253 114.678 51.2531 114.678H73.88C74.6078 114.678 75.1978 115.268 75.1978 115.996V116.155C75.1981 116.883 74.6078 117.473 73.88 117.473Z" fill="white"/>
<path d="M73.88 109.438H26.6025C25.8747 109.438 25.2847 108.848 25.2847 108.12V107.962C25.2847 107.234 25.8747 106.644 26.6025 106.644H73.88C74.6078 106.644 75.1978 107.234 75.1978 107.962V108.12C75.1981 108.848 74.6078 109.438 73.88 109.438Z" fill="white"/>
</g>
<path opacity="0.8" d="M18.484 48.5591C18.569 52.2435 21.5799 55.2044 25.2846 55.2044C29.0428 55.2044 32.0893 52.1578 32.0893 48.3997C32.0893 52.1578 35.1359 55.2044 38.894 55.2044C42.5987 55.2044 45.6096 52.2435 45.6946 48.5591C45.7796 52.2435 48.7906 55.2044 52.4953 55.2044C56.2534 55.2044 59.2999 52.1578 59.2999 48.3997C59.2999 52.1578 62.3465 55.2044 66.1043 55.2044C69.809 55.2044 72.8199 52.2435 72.9049 48.5591C72.9899 52.2435 76.0009 55.2044 79.7056 55.2044C83.4637 55.2044 86.5103 52.1578 86.5103 48.3997C86.5103 52.1578 89.5568 55.2044 93.3146 55.2044C97.0193 55.2044 100.03 52.2435 100.115 48.5591C100.2 52.2435 103.211 55.2044 106.916 55.2044C110.674 55.2044 113.721 52.1578 113.721 48.3997C113.721 52.1578 116.767 55.2044 120.525 55.2044C124.23 55.2044 127.241 52.2435 127.326 48.5591C127.411 52.2435 130.422 55.2044 134.127 55.2044C137.885 55.2044 140.931 52.1578 140.931 48.3997C140.931 50.5791 141.957 52.5178 143.551 53.7631V37.0669H15.0493V54.3072C17.0571 53.1597 18.4271 51.0241 18.484 48.5591Z" fill="url(#paint2_linear_566_1377)"/>
<path d="M11.2627 48.7991C7.50457 48.7991 4.45801 45.7525 4.45801 41.9944V37.0669H18.0671V41.9944C18.0674 45.7525 15.0208 48.7991 11.2627 48.7991Z" fill="url(#paint3_linear_566_1377)"/>
<path d="M24.864 48.7991C21.1059 48.7991 18.0593 45.7525 18.0593 41.9944V37.0669H31.6684V41.9944C31.6687 45.7525 28.6221 48.7991 24.864 48.7991Z" fill="url(#paint4_linear_566_1377)"/>
<path d="M38.4729 48.7991C34.7148 48.7991 31.6682 45.7525 31.6682 41.9944V37.0669H45.2773V41.9944C45.2776 45.7525 42.231 48.7991 38.4729 48.7991Z" fill="url(#paint5_linear_566_1377)"/>
<path d="M52.0742 48.7991C48.3161 48.7991 45.2695 45.7525 45.2695 41.9944V37.0669H58.8786V41.9944C58.8786 45.7525 55.832 48.7991 52.0742 48.7991Z" fill="url(#paint6_linear_566_1377)"/>
<path d="M65.6833 48.7991C61.9252 48.7991 58.8787 45.7525 58.8787 41.9944V37.0669H72.4877V41.9944C72.488 45.7525 69.4415 48.7991 65.6833 48.7991Z" fill="url(#paint7_linear_566_1377)"/>
<path d="M79.2842 48.7991C75.5261 48.7991 72.4795 45.7525 72.4795 41.9944V37.0669H86.0886V41.9944C86.0889 45.7525 83.0423 48.7991 79.2842 48.7991Z" fill="url(#paint8_linear_566_1377)"/>
<path d="M92.8936 48.7991C89.1354 48.7991 86.0889 45.7525 86.0889 41.9944V37.0669H99.6979V41.9944C99.6979 45.7525 96.6514 48.7991 92.8936 48.7991Z" fill="url(#paint9_linear_566_1377)"/>
<path d="M106.495 48.7991C102.737 48.7991 99.6899 45.7525 99.6899 41.9944V37.0669H113.299V41.9944C113.299 45.7525 110.253 48.7991 106.495 48.7991Z" fill="url(#paint10_linear_566_1377)"/>
<path d="M120.104 48.7991C116.345 48.7991 113.299 45.7525 113.299 41.9944V37.0669H126.908V41.9944C126.908 45.7525 123.862 48.7991 120.104 48.7991Z" fill="url(#paint11_linear_566_1377)"/>
<path d="M133.705 48.7991C129.947 48.7991 126.9 45.7525 126.9 41.9944V37.0669H140.509V41.9944C140.51 45.7525 137.463 48.7991 133.705 48.7991Z" fill="url(#paint12_linear_566_1377)"/>
<path d="M147.314 48.7991C143.556 48.7991 140.509 45.7525 140.509 41.9944V37.0669H154.118V41.9944C154.119 45.7525 151.072 48.7991 147.314 48.7991Z" fill="url(#paint13_linear_566_1377)"/>
<path d="M27.4344 28.885H15.0494L4.4585 37.0669H18.0594L27.4344 28.885Z" fill="#3068D8"/>
<path d="M37.9145 28.885H27.4382L18.0632 37.0669H31.6645L37.9145 28.885Z" fill="#479DFF"/>
<path d="M48.4005 28.885H37.9246L31.6746 37.0669H45.2755L48.4005 28.885Z" fill="#3068D8"/>
<path d="M58.8808 28.885H48.4045L45.2795 37.0669H58.8808V28.885Z" fill="#479DFF"/>
<path d="M72.4921 28.885H58.8909V37.0669H72.4921V28.885Z" fill="#3068D8"/>
<path d="M86.0971 28.885H72.4958V37.0669H86.0971V28.885Z" fill="#479DFF"/>
<path d="M99.7084 28.885H86.1072V37.0669H99.7084V28.885Z" fill="#3068D8"/>
<path d="M110.188 28.885H99.7122V37.0669H113.313L110.188 28.885Z" fill="#479DFF"/>
<path d="M120.674 28.885H110.198L113.323 37.0669H126.924L120.674 28.885Z" fill="#3068D8"/>
<path d="M131.154 28.885H120.678L126.928 37.0669H140.529L131.154 28.885Z" fill="#479DFF"/>
<path d="M143.55 28.885H131.165L140.54 37.0669H154.141L143.55 28.885Z" fill="#3068D8"/>
<path d="M93.8908 69.5294C93.5946 69.1516 93.1411 68.9306 92.6608 68.9306H63.8289L62.0927 62.5506C61.9077 61.8703 61.2902 61.3984 60.5852 61.3984H53.438C52.5749 61.3984 51.8755 62.0981 51.8755 62.9609C51.8755 63.8238 52.5749 64.5234 53.438 64.5234H59.3911L66.2842 89.8509C66.4692 90.5313 67.0867 91.0031 67.7917 91.0031H69.5167C69.3083 91.4097 69.1886 91.8694 69.1886 92.3575C69.1886 94.0016 70.5211 95.3341 72.1652 95.3341C73.8089 95.3341 75.1417 94.0013 75.1417 92.3575C75.1417 91.8691 75.0217 91.4097 74.8136 91.0031H80.5174C80.3089 91.4097 80.1892 91.8694 80.1892 92.3575C80.1892 94.0016 81.5217 95.3341 83.1658 95.3341C84.8096 95.3341 86.1424 94.0013 86.1424 92.3575C86.1424 91.8691 86.0227 91.4097 85.8142 91.0031H88.5339C89.3971 91.0031 90.0964 90.3034 90.0964 89.4406C90.0964 88.5778 89.3971 87.8781 88.5339 87.8781H68.9861L68.0589 84.4716H89.6055C90.3246 84.4716 90.9511 83.9806 91.1227 83.2825L94.1783 70.8666C94.293 70.4006 94.1867 69.9075 93.8908 69.5294ZM90.6674 72.0559L89.9086 75.1387H65.5186L64.6796 72.0559H90.6674ZM67.208 81.3469L66.3689 78.2637H89.1392L88.3805 81.3469H67.208Z" fill="#479DFF"/>
<path d="M154.657 135.363H110.727V69.6478C110.727 67.4203 112.533 65.6147 114.76 65.6147H150.624C152.851 65.6147 154.657 67.4203 154.657 69.6478V135.363Z" fill="url(#paint14_linear_566_1377)"/>
<path d="M110.727 135.363V141.875C110.727 144.682 113.002 146.957 115.809 146.957H149.575C152.382 146.957 154.657 144.682 154.657 141.875V135.363H110.727Z" fill="url(#paint15_linear_566_1377)"/>
<path d="M135.304 142.439H130.08C129.52 142.439 129.065 141.984 129.065 141.424V140.896C129.065 140.336 129.52 139.882 130.08 139.882H135.304C135.865 139.882 136.319 140.336 136.319 140.896V141.424C136.319 141.984 135.865 142.439 135.304 142.439Z" fill="#C4DCFE"/>
<mask id="path-39-inside-1_566_1377" fill="white">
<path fill-rule="evenodd" clip-rule="evenodd" d="M133.004 84.0616C132.942 84.129 132.903 84.3909 132.9 84.7692C132.898 84.9556 132.907 84.9888 132.978 85.0613C133.047 85.132 133.053 85.1524 133.021 85.2105C132.98 85.2848 133.005 85.5901 133.054 85.6199C133.096 85.6452 133.09 85.8987 133.046 85.9249C133.026 85.9374 133.003 85.9289 132.995 85.9057C132.972 85.8359 132.842 85.7244 132.799 85.7371C132.316 85.8803 132.17 85.9308 132.002 86.0136C131.674 86.1752 131.556 86.2752 131.45 86.4838C131.365 86.6506 131.354 86.7026 131.354 86.9289C131.354 87.1401 131.372 87.2391 131.459 87.4917C131.555 87.7725 131.717 88.156 131.786 88.2675C131.915 88.4755 131.972 88.6545 131.99 88.9141C132.01 89.183 132.008 89.195 131.93 89.286C131.885 89.3377 131.741 89.4503 131.609 89.5362C131.35 89.7046 130.092 90.341 130.067 90.3162C130.058 90.3079 130.148 90.1191 130.267 89.8965C130.516 89.4263 130.577 89.2113 130.523 88.9821C130.446 88.6566 130.278 88.521 129.801 88.401C129.458 88.3148 129.36 88.3108 129.316 88.3811C129.275 88.446 129.3 88.2253 129.365 87.9497C129.429 87.6736 129.422 87.3222 129.35 87.235C129.294 87.1673 129.285 87.166 129.135 87.2037C129.039 87.228 128.916 87.2353 128.815 87.2229C128.677 87.206 128.642 87.2119 128.601 87.2583C128.532 87.336 128.508 87.5625 128.548 87.7722C128.566 87.8698 128.583 88.0048 128.585 88.0721C128.587 88.1394 128.615 88.2328 128.646 88.2797C128.722 88.3935 128.666 88.4618 128.581 88.3588L128.523 88.2891L128.232 88.3706C127.892 88.4659 127.631 88.5769 127.528 88.6704C127.377 88.8064 127.336 89.012 127.404 89.291C127.442 89.4463 127.663 89.9169 127.775 90.0813L127.845 90.1847L127.573 90.1642C127.209 90.1367 126.972 90.0452 126.897 89.9023C126.85 89.8136 126.843 89.7446 126.855 89.4785C126.866 89.2101 126.891 89.0899 127.011 88.7065C127.176 88.183 127.206 87.9849 127.156 87.7498C127.115 87.5576 127.02 87.4522 126.696 87.24C126.223 86.9302 125.805 86.8097 125.575 86.9166C125.442 86.9787 125.26 87.1515 125.07 87.396C124.859 87.6664 124.746 87.7416 124.391 87.8465C123.892 87.9938 123.834 88.02 123.683 88.1651C123.583 88.2618 123.527 88.3491 123.494 88.4573C123.394 88.7886 123.442 88.966 123.727 89.3182C123.9 89.5318 123.941 89.6024 123.934 89.6753L123.926 89.7661L123.594 89.7692C123.314 89.7718 123.251 89.7813 123.196 89.8297C122.993 90.0072 123.003 90.3815 123.218 90.5918C123.352 90.7229 123.443 90.7151 123.494 90.5683C123.524 90.4832 123.546 90.4637 123.605 90.469C124.101 90.5136 124.209 90.5133 124.32 90.4677C124.383 90.4415 124.436 90.4296 124.435 90.4412C124.435 90.4529 124.401 90.5441 124.359 90.644C124.22 90.9735 124.267 91.2785 124.487 91.4822C124.575 91.5637 124.88 91.7179 124.954 91.7185C125.021 91.719 125.03 91.6367 124.971 91.5485C124.929 91.4856 124.914 91.4059 124.914 91.2349C124.914 91.0143 124.92 90.9955 125.073 90.734C125.23 90.4665 125.275 90.3226 125.317 89.9629C125.335 89.809 125.324 89.7697 125.18 89.4462C124.958 88.9473 124.94 88.8443 125.022 88.5339C125.059 88.3963 125.094 88.2784 125.1 88.2719C125.107 88.2655 125.178 88.2483 125.257 88.2336C125.337 88.219 125.515 88.158 125.653 88.0981C126.06 87.9204 126.042 87.9155 126.042 88.1998C126.042 88.3916 126.016 88.528 125.92 88.8562C125.756 89.4124 125.746 89.4908 125.81 89.7696C125.855 89.9708 125.882 90.0224 126.004 90.1506C126.272 90.4313 126.584 90.6163 126.937 90.7039C127.048 90.7313 127.189 90.7666 127.251 90.7824C127.368 90.8125 127.411 90.8653 127.371 90.9295C127.358 90.9503 127.251 90.9854 127.134 91.0073C126.664 91.0959 126.409 91.2432 126.275 91.5041C126.111 91.8256 126.099 92.1377 126.239 92.425C126.326 92.6029 126.399 92.6926 126.5 92.7455C126.561 92.7778 126.598 92.7658 126.804 92.6452C127.083 92.4828 127.302 92.4308 127.601 92.4559C127.848 92.4766 128.181 92.5379 128.16 92.5587C128.152 92.5664 128.044 92.5839 127.919 92.5976C127.763 92.6147 127.534 92.6807 127.188 92.8082C126.91 92.9103 126.618 93.0015 126.538 93.0108C126.314 93.0368 126.079 92.9568 125.891 92.7911L125.733 92.6521L125.702 92.7323C125.653 92.8577 125.667 93.1145 125.729 93.2476C125.806 93.4144 126.037 93.6142 126.201 93.6576C126.278 93.678 126.462 93.688 126.635 93.6812L126.935 93.6694L127.235 93.4666C127.4 93.3551 127.541 93.2691 127.547 93.2756C127.554 93.2821 127.539 93.3261 127.515 93.3734C127.443 93.5102 127.425 93.642 127.46 93.7692C127.502 93.9238 127.612 94.0206 127.766 94.041C127.906 94.0593 127.889 94.0866 127.959 93.732C128.009 93.4765 128.029 93.4505 128.26 93.3437C128.45 93.2561 128.49 93.2488 128.775 93.251C129.007 93.2528 129.134 93.27 129.284 93.32C129.395 93.3566 129.59 93.3945 129.718 93.4042L129.95 93.4218L130.233 93.8342C130.388 94.061 130.573 94.3666 130.645 94.5132L130.775 94.7798L130.761 95.2425C130.748 95.6376 130.736 95.725 130.679 95.8413C130.607 95.987 130.312 96.2471 130.181 96.2805C130.14 96.2911 129.966 96.2837 129.795 96.2641C129.377 96.216 129.371 96.2242 129.488 96.6437C129.547 96.8547 129.664 96.9614 129.947 97.0626C130.075 97.1084 130.18 97.1585 130.18 97.1738C130.18 97.2256 129.892 97.3272 129.703 97.3419C129.462 97.3606 129.309 97.3185 129.071 97.1676C128.965 97.1006 128.866 97.0538 128.85 97.0635C128.738 97.1308 128.621 97.5573 128.641 97.823C128.661 98.0994 128.757 98.26 129.011 98.4406C129.129 98.5252 129.221 98.6107 129.214 98.6305C129.194 98.6908 128.879 98.8315 128.687 98.8656C128.358 98.9242 127.895 98.8065 127.652 98.6026C127.502 98.4769 127.41 98.3166 127.371 98.1132C127.332 97.9109 127.405 97.7667 127.703 97.4621C127.89 97.2709 127.959 97.1755 128.001 97.0525C128.067 96.8562 128.071 96.5819 128.009 96.4366C127.955 96.311 127.443 95.754 127.17 95.5242C126.853 95.2574 126.222 94.5704 125.892 94.1331C125.55 93.6797 125.511 93.6544 125.373 93.8001L125.294 93.8833L125.173 93.7471C124.926 93.4664 124.528 92.9037 124.36 92.5972C124.265 92.4228 124.173 92.2669 124.157 92.2507C124.137 92.2317 124.076 92.2454 123.984 92.2893C123.906 92.3267 123.838 92.3532 123.835 92.3483C123.805 92.3072 122.718 90.6297 122.622 90.4775C122.417 90.1514 122.188 89.7386 121.849 89.0849C121.672 88.7436 121.513 88.4473 121.495 88.4265C121.448 88.371 121.315 88.3805 121.203 88.4474C121.073 88.5252 120.878 88.7826 120.753 89.0413L120.652 89.2514L120.654 89.751C120.655 90.2031 120.663 90.2789 120.741 90.5503C120.788 90.7152 120.882 90.974 120.95 91.1255C121.018 91.277 121.095 91.4469 121.12 91.5031L121.166 91.6054L121.061 91.5183C121.003 91.4704 120.792 91.2915 120.591 91.1208C120.293 90.8676 120.208 90.8105 120.128 90.8105C120.009 90.8105 119.925 90.8906 119.828 91.0985C119.766 91.2289 119.757 91.2969 119.758 91.5977C119.759 91.8295 119.777 92.0103 119.812 92.1389C119.888 92.4141 120.082 92.8047 120.282 93.0835C120.376 93.2154 120.442 93.3231 120.429 93.3228C120.416 93.3226 120.294 93.2885 120.158 93.2471C119.975 93.1913 119.842 93.1719 119.642 93.1719C119.397 93.1719 119.37 93.1778 119.337 93.2379C119.288 93.3268 119.321 93.6839 119.397 93.9017C119.484 94.1479 119.576 94.2726 119.91 94.5948C120.074 94.753 120.221 94.9034 120.235 94.9291C120.259 94.9706 120.199 94.9744 119.697 94.9633C119.039 94.9488 119 94.9588 119 95.1418C119 95.4592 119.49 96.0494 120.072 96.4315C120.302 96.5829 120.308 96.5793 119.793 96.6096C119.494 96.6271 119.436 96.6404 119.243 96.7353C119.124 96.7937 119.018 96.862 119.009 96.8871C118.979 96.9639 119.148 97.2564 119.334 97.4491C119.678 97.8056 119.997 98.0036 120.405 98.1134L120.56 98.155L120.343 98.2081C120.004 98.2916 119.368 98.7035 119.346 98.8539C119.339 98.9023 119.391 98.9595 119.56 99.0894C119.901 99.351 120.173 99.4972 120.441 99.5628C120.573 99.5952 120.696 99.6359 120.713 99.6534C120.763 99.7032 120.59 99.8321 120.473 99.8326C120.35 99.8332 120.318 99.8536 120.257 99.9709C120.23 100.022 120.16 100.121 120.1 100.191C119.953 100.363 119.937 100.427 120.016 100.51C120.081 100.578 120.105 100.71 120.053 100.71C120.037 100.71 119.959 100.683 119.88 100.65C119.643 100.55 119.637 100.554 119.657 100.824C119.693 101.327 119.775 101.459 120.242 101.772C120.66 102.052 120.909 102.249 120.931 102.318C120.942 102.352 121.013 102.448 121.09 102.532C121.166 102.616 121.249 102.728 121.275 102.781C121.301 102.834 121.357 102.897 121.401 102.921C121.466 102.958 121.629 103.307 122.324 104.899C123.153 106.803 123.166 106.835 123.12 106.922C123.081 106.995 123.08 107.03 123.11 107.122C123.175 107.32 123.287 107.511 123.368 107.563C123.427 107.601 123.447 107.64 123.447 107.714C123.447 107.855 123.521 108.078 123.598 108.175C123.635 108.221 123.663 108.3 123.663 108.358C123.663 108.432 123.693 108.492 123.772 108.578C123.884 108.699 124.003 108.982 124.003 109.127C124.003 109.173 123.98 109.228 123.952 109.251C123.827 109.352 123.66 109.599 123.616 109.746C123.573 109.891 123.573 109.918 123.618 110.027C123.645 110.093 123.701 110.177 123.742 110.212C123.801 110.262 123.818 110.306 123.818 110.409C123.818 110.575 123.895 110.677 124.098 110.777C124.222 110.839 124.26 110.878 124.315 111.003C124.388 111.17 124.478 111.238 124.736 111.32C124.927 111.38 125.022 111.484 125.022 111.631C125.022 111.799 125.106 111.927 125.364 112.155C125.619 112.381 125.718 112.426 125.958 112.426C126.076 112.426 126.122 112.41 126.186 112.347C126.266 112.27 126.266 112.264 126.247 111.954C126.236 111.769 126.241 111.578 126.26 111.491C126.291 111.351 126.286 111.33 126.186 111.135C126.024 110.818 126.023 110.807 126.141 110.739C126.197 110.706 126.429 110.572 126.657 110.441C126.94 110.277 127.09 110.172 127.128 110.108C127.17 110.038 127.226 110.003 127.361 109.962C127.459 109.932 127.569 109.889 127.606 109.866C127.642 109.844 127.764 109.804 127.876 109.779C127.988 109.754 128.132 109.711 128.196 109.685C128.289 109.646 128.485 109.634 129.192 109.621C129.676 109.612 130.123 109.592 130.186 109.577C130.33 109.541 130.476 109.423 130.502 109.32C130.528 109.22 130.477 109.07 130.346 108.856C130.222 108.656 130.22 108.642 130.313 108.642C130.43 108.642 130.69 108.556 130.778 108.488C130.87 108.417 131.004 108.207 131.062 108.041C131.119 107.879 131.083 107.855 130.786 107.855C130.472 107.854 130.339 107.819 130.228 107.705C130.163 107.638 130.141 107.586 130.141 107.498C130.141 107.345 130.289 107.025 130.403 106.93C130.688 106.695 131.309 106.728 131.627 106.995C131.785 107.127 131.979 107.5 132.031 107.769C132.1 108.127 132.038 108.225 131.471 108.653C131.179 108.874 131.113 108.96 131.014 109.247L130.937 109.473L130.18 109.968C129.292 110.549 129.162 110.617 129.034 110.574C128.911 110.532 128.898 110.503 128.898 110.262C128.898 110.061 128.894 110.049 128.812 110.01C128.734 109.973 128.708 109.978 128.527 110.06C128.418 110.111 128.259 110.216 128.173 110.294C128.048 110.409 128.006 110.474 127.956 110.632C127.849 110.972 127.881 111.204 128.069 111.445L128.153 111.554L128.008 111.684C127.815 111.858 127.728 112.051 127.73 112.307C127.731 112.549 127.797 112.758 127.975 113.081C128.083 113.278 128.107 113.347 128.091 113.422C128.081 113.473 128.089 113.556 128.11 113.604C128.182 113.775 128.228 113.755 128.564 113.412C128.737 113.236 128.885 113.092 128.892 113.092C128.9 113.092 128.914 113.13 128.924 113.175C128.982 113.439 129.369 113.842 129.632 113.912C129.856 113.971 130.097 113.93 130.389 113.783L130.649 113.652L130.7 113.722C130.945 114.055 131.185 114.278 131.431 114.401C131.659 114.514 132.099 114.485 132.49 114.329L132.654 114.264L133.015 114.632C133.247 114.868 133.399 115 133.439 115C133.559 114.999 133.848 114.753 134.091 114.447C134.167 114.351 134.247 114.273 134.269 114.273C134.29 114.273 134.39 114.306 134.491 114.346C134.791 114.465 135.014 114.493 135.228 114.438C135.328 114.413 135.477 114.356 135.558 114.313C135.7 114.237 136.056 113.9 136.188 113.716L136.25 113.628L136.499 113.754C136.736 113.874 136.76 113.879 137.027 113.879C137.351 113.879 137.414 113.849 137.738 113.538C137.876 113.405 137.954 113.298 138.014 113.159L138.098 112.965L138.198 113.16C138.297 113.353 138.601 113.667 138.687 113.667C138.715 113.667 138.732 113.607 138.741 113.478C138.751 113.322 138.778 113.247 138.895 113.047C139.086 112.72 139.117 112.612 139.119 112.275C139.12 111.952 139.096 111.889 138.89 111.655C138.821 111.577 138.766 111.51 138.766 111.504C138.766 111.499 138.809 111.404 138.861 111.294C138.99 111.025 139.009 110.801 138.923 110.577C138.805 110.271 138.589 110.083 138.261 110.002C138.01 109.94 137.891 110.021 138.008 110.172C138.074 110.257 138.068 110.468 137.999 110.529C137.832 110.677 137.649 110.617 137.074 110.221C136.858 110.073 136.497 109.833 136.272 109.69C136 109.516 135.863 109.411 135.863 109.375C135.863 109.254 135.774 108.999 135.691 108.882C135.643 108.813 135.47 108.657 135.308 108.534C134.781 108.136 134.714 107.922 134.965 107.435C135.014 107.341 135.113 107.186 135.185 107.091C135.363 106.855 135.506 106.789 135.84 106.787C136.29 106.785 136.498 106.892 136.649 107.204C136.735 107.381 136.746 107.491 136.693 107.639C136.644 107.777 136.569 107.804 136.187 107.823L135.847 107.84L135.838 108.028C135.829 108.211 135.832 108.22 135.955 108.35C136.114 108.519 136.332 108.612 136.619 108.633L136.842 108.65L136.816 108.759C136.802 108.82 136.762 108.957 136.728 109.066C136.645 109.328 136.645 109.507 136.728 109.55C136.767 109.571 136.958 109.58 137.235 109.574C137.665 109.566 137.682 109.568 137.757 109.636C137.82 109.694 137.966 109.734 138.555 109.854C138.951 109.935 139.407 110.028 139.569 110.062C139.73 110.096 139.914 110.125 139.978 110.125C140.15 110.125 140.435 110.234 141.159 110.573C141.516 110.74 141.869 110.893 141.944 110.912C142.168 110.97 142.428 110.89 142.603 110.709C142.683 110.626 142.699 110.622 142.851 110.641C142.939 110.652 143.105 110.651 143.218 110.639C143.404 110.619 143.448 110.6 143.662 110.447C143.792 110.354 143.981 110.248 144.082 110.212C144.277 110.142 144.387 110.04 144.387 109.928C144.387 109.884 144.468 109.777 144.615 109.628C144.754 109.487 144.887 109.314 144.957 109.184C145.028 109.052 145.098 108.961 145.143 108.945C145.196 108.925 145.22 108.885 145.236 108.792C145.248 108.722 145.291 108.617 145.332 108.559C145.426 108.423 145.425 108.354 145.329 108.23C145.286 108.176 145.251 108.113 145.251 108.091C145.251 107.991 145.019 107.402 144.924 107.262C144.748 107.002 144.439 106.747 144.058 106.549C143.756 106.391 143.772 106.407 143.854 106.347C143.921 106.297 143.922 106.286 143.903 105.863C143.883 105.432 143.882 105.43 143.793 105.356C143.706 105.284 143.685 105.281 143.263 105.281H142.823L142.738 105.368L142.654 105.455L142.663 105.905C142.669 106.153 142.685 106.38 142.699 106.409C142.719 106.45 142.712 106.462 142.667 106.462C142.571 106.462 142.171 106.664 141.976 106.811C141.721 107.004 141.52 107.308 141.413 107.662C141.387 107.747 141.344 107.859 141.316 107.91C141.289 107.961 141.267 108.034 141.267 108.073C141.267 108.111 141.245 108.202 141.219 108.275C141.179 108.388 141.178 108.441 141.21 108.632C141.244 108.829 141.261 108.865 141.35 108.932C141.406 108.973 141.466 109.034 141.484 109.066C141.53 109.15 141.458 109.301 141.312 109.426L141.193 109.529L140.763 109.508C140.333 109.488 140.331 109.488 139.757 109.29C139.441 109.181 139.065 109.035 138.92 108.965C138.684 108.851 138.647 108.822 138.557 108.673C138.434 108.47 138.433 108.449 138.547 108.514C138.633 108.562 138.641 108.562 138.702 108.508C138.737 108.476 138.766 108.43 138.766 108.404C138.766 108.372 138.797 108.387 138.866 108.452C139.029 108.607 139.272 108.661 139.397 108.571C139.46 108.526 139.459 108.519 139.355 108.175C139.32 108.059 139.298 107.959 139.306 107.951C139.314 107.943 139.407 107.976 139.514 108.023C139.677 108.096 139.746 108.109 139.947 108.107C140.15 108.105 140.206 108.093 140.306 108.027C140.414 107.958 140.681 107.616 140.681 107.548C140.681 107.512 140.58 107.474 140.368 107.432C140.149 107.389 140.049 107.295 140.054 107.135C140.056 107.073 140.067 106.811 140.079 106.553C140.098 106.121 140.095 106.071 140.036 105.917C139.955 105.711 139.733 105.43 139.549 105.302C139.378 105.183 139.094 105.073 138.955 105.071L138.85 105.07L138.869 104.934C138.894 104.758 138.863 104.743 138.548 104.779C138.373 104.8 138.247 104.798 138.131 104.774C137.946 104.736 137.747 104.653 137.747 104.613C137.747 104.599 137.809 104.561 137.886 104.528C137.962 104.495 138.024 104.449 138.024 104.427C138.024 104.405 137.967 104.312 137.897 104.221C137.698 103.964 137.685 103.913 137.685 103.427C137.685 102.934 137.728 102.527 137.795 102.401C137.869 102.26 137.955 102.263 138.299 102.418C138.47 102.494 138.629 102.557 138.653 102.557C138.688 102.557 138.701 102.657 138.718 103.064C138.73 103.343 138.752 103.666 138.766 103.783C138.789 103.97 138.804 104.004 138.894 104.078C139.047 104.204 139.458 104.404 139.564 104.404C139.667 104.404 139.971 104.243 140.179 104.079C140.286 103.994 140.31 103.957 140.31 103.873C140.31 103.693 140.36 103.734 140.462 103.999C140.609 104.378 140.651 104.412 141.125 104.544C141.41 104.623 141.538 104.646 141.573 104.625C141.6 104.609 141.696 104.494 141.785 104.371C141.875 104.247 141.968 104.118 141.993 104.084C142.018 104.05 142.049 103.95 142.062 103.861L142.086 103.7L142.202 103.865C142.41 104.162 142.432 104.173 142.79 104.186C143.289 104.204 143.285 104.206 143.512 103.781C143.619 103.582 143.706 103.384 143.707 103.341C143.707 103.298 143.654 103.182 143.59 103.084C143.406 102.803 143.407 102.807 143.477 102.859C143.51 102.883 143.64 102.998 143.766 103.113L143.995 103.322L144.424 103.306C144.958 103.285 144.958 103.285 144.984 102.942C144.995 102.805 145.012 102.6 145.024 102.485L145.044 102.277L145.184 102.293C145.419 102.319 145.814 102.186 146.077 101.992C146.177 101.919 146.178 101.915 146.178 101.666C146.178 101.279 146.135 101.11 146.003 100.978L145.892 100.866L146.012 100.848C146.335 100.799 146.995 100.546 147.03 100.457C147.069 100.358 146.824 100.081 146.402 99.7438C146.313 99.6727 146.24 99.604 146.24 99.5911C146.24 99.5781 146.337 99.5581 146.455 99.5467C146.76 99.5173 147.048 99.3698 147.339 99.0941C147.488 98.9532 147.568 98.8547 147.568 98.8109C147.568 98.765 147.507 98.6959 147.375 98.5919C147.106 98.3802 146.802 98.2348 146.578 98.2099C146.477 98.1987 146.394 98.1807 146.394 98.1699C146.394 98.1591 146.488 98.1265 146.603 98.0974C146.985 98.0005 147.498 97.6635 147.619 97.429C147.646 97.3771 147.694 97.3105 147.725 97.281C147.757 97.2516 147.805 97.1519 147.832 97.0594C147.879 96.9017 147.879 96.8877 147.828 96.8326C147.743 96.7409 147.4 96.6507 147.073 96.6346C146.518 96.6071 146.527 96.6203 146.894 96.3829C147.313 96.1113 147.621 95.8272 147.83 95.5196C147.974 95.307 148 95.2482 148 95.1301C148 94.9939 147.998 94.9906 147.884 94.967C147.821 94.9538 147.533 94.9468 147.245 94.9516L146.721 94.9602L146.797 94.8759C146.838 94.8295 146.957 94.703 147.06 94.5948C147.397 94.2401 147.495 94.0624 147.63 93.5587C147.687 93.343 147.693 93.2861 147.661 93.2484C147.606 93.1831 147.353 93.1888 146.894 93.2657C146.685 93.3007 146.506 93.3225 146.498 93.3141C146.489 93.3057 146.548 93.2124 146.628 93.1067C146.804 92.8739 147.115 92.2557 147.18 92.0076C147.24 91.7806 147.241 91.57 147.182 91.2969C147.12 91.0062 147.06 90.8776 146.969 90.837C146.85 90.784 146.77 90.8216 146.486 91.0624C146.118 91.3748 145.678 91.7188 145.645 91.7188C145.631 91.7188 145.736 91.4974 145.881 91.2268C146.278 90.4808 146.31 90.3706 146.326 89.6881C146.339 89.1333 146.338 89.1236 146.26 88.9734C146.217 88.8896 146.142 88.7759 146.095 88.7207C145.984 88.5907 145.656 88.3836 145.58 88.395C145.537 88.4014 145.475 88.5093 145.347 88.7973C145.038 89.4916 144.5 90.4178 143.845 91.3857C143.497 91.8995 143.163 92.3234 143.086 92.3502C143.068 92.3561 143.021 92.33 142.979 92.2922C142.906 92.2243 142.904 92.2241 142.839 92.2814C142.803 92.3133 142.707 92.4694 142.626 92.6282C142.431 93.0077 142.135 93.4383 141.911 93.6682L141.73 93.8531L141.66 93.7698C141.516 93.6005 141.486 93.6228 140.826 94.3795C140.493 94.7606 139.952 95.3431 139.624 95.6739C139.296 96.0048 138.997 96.3235 138.96 96.3821C138.855 96.5476 138.819 96.7501 138.869 96.8907C138.891 96.9552 139.031 97.1803 139.179 97.3909C139.484 97.8246 139.567 97.9847 139.567 98.1368C139.567 98.3829 139.345 98.6494 139.017 98.7966C138.815 98.8874 138.446 98.9062 138.207 98.838C138.063 98.7971 137.777 98.6076 137.754 98.538C137.747 98.5172 137.788 98.4763 137.844 98.4472C138.136 98.2972 138.327 97.9577 138.287 97.6607C138.205 97.0386 138.025 96.8112 137.862 97.1227C137.773 97.2929 137.708 97.3269 137.474 97.3248C137.146 97.3218 136.666 97.1915 136.666 97.1052C136.666 97.0945 136.74 97.0781 136.832 97.0689C137.046 97.0473 137.221 96.958 137.341 96.8103C137.459 96.6637 137.499 96.5619 137.499 96.4103C137.499 96.2533 137.449 96.231 137.11 96.2383C136.799 96.2451 136.644 96.194 136.438 96.0173C136.245 95.8506 136.197 95.7218 136.163 95.2709L136.133 94.8723L136.37 94.4065C136.501 94.1504 136.692 93.8291 136.796 93.6926L136.984 93.4444H137.195C137.337 93.4444 137.471 93.4218 137.6 93.3763C137.847 93.2889 138.347 93.2821 138.617 93.3623C138.871 93.4381 138.966 93.5441 139.03 93.8255C139.087 94.0758 139.129 94.1168 139.256 94.0465C139.391 93.9723 139.476 93.8175 139.477 93.6442C139.477 93.5593 139.488 93.4731 139.501 93.4527C139.527 93.4128 139.581 93.4359 139.859 93.606C140.153 93.7852 140.672 93.7804 140.969 93.5957C141.215 93.4427 141.373 93.0615 141.29 92.8191C141.224 92.6278 141.168 92.6238 141.008 92.7987C140.831 92.9912 140.735 93.0313 140.488 93.0144C140.339 93.0042 140.205 92.9625 139.908 92.8334C139.696 92.7411 139.418 92.6415 139.291 92.612C139.163 92.5825 139.039 92.5479 139.014 92.5352C138.95 92.5015 139.333 92.4669 139.621 92.4803C139.833 92.4902 139.895 92.5077 140.132 92.6257L140.401 92.7598L140.477 92.6899C140.519 92.6515 140.603 92.5276 140.663 92.4147C140.765 92.2254 140.773 92.1891 140.773 91.9477C140.773 91.6196 140.725 91.5195 140.449 91.2715C140.202 91.0499 140.108 91.0039 139.844 90.9768C139.661 90.958 139.635 90.9467 139.586 90.866C139.556 90.8165 139.537 90.7725 139.543 90.7682C139.548 90.7639 139.663 90.7444 139.796 90.7248C139.96 90.7008 140.106 90.6551 140.244 90.5846C140.357 90.5272 140.513 90.4522 140.59 90.418C140.77 90.3392 141.068 90.0516 141.115 89.9111C141.179 89.7202 141.133 89.1857 141.009 88.6929C140.875 88.1609 140.836 87.8856 140.9 87.9127C141.131 88.0108 141.62 88.1905 141.731 88.2179C141.863 88.2509 141.871 88.259 141.909 88.4038C142.021 88.8357 141.991 89.0409 141.739 89.5818C141.517 90.0556 141.521 90.1114 141.815 90.7322C141.999 91.1207 142.001 91.1387 141.928 91.5901L141.908 91.7188H142.021C142.083 91.7188 142.181 91.6997 142.238 91.6763C142.371 91.6218 142.585 91.432 142.649 91.3123C142.707 91.2031 142.71 90.8753 142.655 90.6509C142.635 90.5704 142.624 90.5019 142.63 90.4986C142.637 90.4953 142.805 90.4969 143.004 90.502L143.366 90.5114L143.449 90.661C143.494 90.7432 143.545 90.8105 143.562 90.8105C143.617 90.8105 143.809 90.5852 143.872 90.4474C143.955 90.2635 143.956 90.0808 143.875 89.9746C143.757 89.82 143.665 89.775 143.414 89.751C143.051 89.7161 143.007 89.6223 143.227 89.3522C143.512 89.0038 143.577 88.7797 143.479 88.4892C143.379 88.1958 143.165 88.0163 142.778 87.9036C142.358 87.7811 142.211 87.687 141.808 87.2833C141.362 86.8369 141.297 86.8064 140.967 86.8862C140.755 86.9375 140.556 87.05 140.113 87.3693C139.741 87.6373 139.697 87.8856 139.905 88.5408C140.161 89.3477 140.188 89.6801 140.012 89.8936C139.839 90.1051 139.749 90.1445 139.441 90.1445C139.29 90.1445 139.167 90.1405 139.167 90.1355C139.167 90.1306 139.243 89.9648 139.336 89.767C139.611 89.1809 139.622 88.9853 139.393 88.7236C139.261 88.572 138.989 88.4339 138.763 88.4034C138.68 88.3922 138.604 88.3706 138.594 88.3555C138.569 88.3153 138.352 88.3221 138.309 88.3644C138.28 88.3927 138.272 88.3868 138.272 88.3378C138.272 88.3033 138.29 88.2603 138.312 88.2424C138.341 88.2188 138.354 88.078 138.359 87.7287C138.368 87.1814 138.352 87.1375 138.178 87.2081C138.115 87.2337 138.017 87.2393 137.873 87.2255C137.572 87.1964 137.553 87.2199 137.572 87.598C137.593 88.0269 137.614 88.1692 137.668 88.2441C137.694 88.2811 137.715 88.3389 137.715 88.3727C137.715 88.4201 137.708 88.4244 137.687 88.3917C137.64 88.3183 137.218 88.3656 136.923 88.4774C136.529 88.6263 136.365 88.8478 136.394 89.191C136.408 89.3569 136.582 89.7532 136.762 90.0291C136.83 90.1334 136.852 90.1997 136.845 90.2793L136.835 90.3876L136.202 90.0503C135.44 89.644 135.126 89.4499 134.996 89.3049C134.899 89.1973 134.898 89.1929 134.912 88.9361C134.926 88.6849 134.934 88.6606 135.162 88.207C135.452 87.6285 135.552 87.3402 135.575 87.01C135.598 86.699 135.557 86.5411 135.404 86.3461C135.249 86.1484 135.009 86.0122 134.52 85.8459L134.106 85.705L133.984 85.8246C133.793 86.0115 133.729 85.8967 133.859 85.6004C133.913 85.4789 133.922 85.4153 133.906 85.271C133.889 85.1042 133.893 85.0881 133.967 85.0309L134.046 84.9696L134.036 84.5343C134.024 84.0389 134.001 83.9794 133.841 84.0145C133.661 84.0543 133.262 84.0654 133.228 84.0316C133.174 83.9793 133.067 83.9937 133.004 84.0616ZM134.277 89.6581C134.674 89.9343 135.191 90.2629 135.399 90.3714C135.676 90.5151 135.636 90.5353 135.216 90.4643C134.821 90.3975 134.72 90.4007 134.72 90.4798C134.72 90.5652 135.039 90.8879 135.23 90.9954L135.384 91.0824L135.163 91.0827C135.041 91.0829 134.919 91.0913 134.892 91.1014C134.749 91.1551 134.939 91.3638 135.267 91.5144L135.462 91.6039L135.3 91.716C134.992 91.9278 134.559 92.0729 134.056 92.1322C133.862 92.1551 133.839 92.165 133.83 92.2283C133.809 92.372 134.018 92.4756 134.33 92.4756C134.406 92.4756 134.49 92.4838 134.516 92.4938C134.574 92.5157 134.551 92.5674 134.378 92.7935C134.062 93.2082 133.735 93.9962 133.545 94.8012C133.508 94.9563 133.475 95.0789 133.47 95.0736C133.466 95.0683 133.398 94.8455 133.319 94.5784C133.092 93.8058 132.934 93.4361 132.587 92.8629C132.486 92.6968 132.404 92.5559 132.404 92.5498C132.404 92.5438 132.456 92.5303 132.519 92.5198C132.795 92.4745 132.954 92.3739 133.003 92.2148C133.02 92.1593 133.007 92.1482 132.906 92.1319C132.842 92.1215 132.747 92.1128 132.696 92.1126C132.644 92.1125 132.522 92.0919 132.424 92.0669C132.202 92.0101 131.477 91.667 131.477 91.6185C131.477 91.5987 131.568 91.5282 131.679 91.4619C131.919 91.3181 132.112 91.1347 132.079 91.0817C132.062 91.0552 131.982 91.0492 131.798 91.0605L131.54 91.0762L131.717 90.9633C131.919 90.8343 132.198 90.554 132.179 90.4992C132.169 90.4723 132.057 90.4644 131.76 90.4699C131.536 90.4741 131.354 90.4715 131.354 90.4643C131.354 90.457 131.51 90.3594 131.701 90.2473C131.892 90.1352 132.192 89.947 132.367 89.8291C132.542 89.7112 132.716 89.5973 132.753 89.5759C132.804 89.5469 132.985 89.5393 133.474 89.5457L134.128 89.5542L134.277 89.6581ZM129.087 102.388C129.162 102.47 129.215 102.76 129.244 103.238C129.268 103.641 129.217 103.921 129.068 104.21C128.937 104.465 128.938 104.54 129.074 104.567C129.197 104.591 129.174 104.645 129.006 104.729C128.86 104.802 128.622 104.815 128.254 104.77C128.044 104.744 128.025 104.763 128.073 104.949C128.108 105.083 128.117 105.077 127.848 105.112C127.669 105.136 127.351 105.304 127.194 105.459C127.119 105.532 127.009 105.686 126.95 105.801L126.842 106.011L126.872 106.668C126.907 107.448 126.92 107.414 126.545 107.489C126.325 107.533 126.303 107.544 126.295 107.614C126.273 107.795 126.598 108.006 126.935 108.029C127.118 108.042 127.374 108.001 127.563 107.929C127.645 107.898 127.633 108.083 127.539 108.291C127.497 108.385 127.462 108.489 127.462 108.521C127.462 108.622 127.597 108.628 127.87 108.539C128.103 108.464 128.121 108.462 128.157 108.511C128.194 108.56 128.203 108.56 128.321 108.508C128.47 108.442 128.512 108.461 128.512 108.594C128.512 108.708 128.545 108.691 127.615 109.046C126.771 109.367 126.534 109.399 126.194 109.235C126.01 109.146 125.991 109.124 125.837 108.819C125.781 108.708 125.696 108.588 125.649 108.552C125.557 108.48 125.505 108.481 125.121 108.555C124.985 108.582 124.91 108.584 124.874 108.562C124.785 108.509 124.714 108.333 124.714 108.166C124.714 108.021 124.706 108.004 124.621 107.961C124.54 107.92 124.528 107.897 124.528 107.785C124.528 107.669 124.511 107.64 124.358 107.491C124.174 107.313 124.145 107.246 124.112 106.915C124.088 106.675 124.07 106.643 123.943 106.618C123.851 106.599 123.831 106.569 123.635 106.159C123.52 105.918 123.322 105.509 123.194 105.251C123.066 104.993 122.882 104.612 122.784 104.404C122.686 104.195 122.531 103.879 122.44 103.7C122.348 103.521 122.274 103.361 122.274 103.344C122.274 103.326 122.388 103.314 122.565 103.314C122.725 103.314 122.892 103.3 122.936 103.284C122.98 103.268 123.191 103.094 123.406 102.899L123.796 102.543L123.631 102.8C123.541 102.941 123.433 103.115 123.391 103.187L123.316 103.318L123.402 103.52C123.561 103.894 123.664 104.072 123.735 104.098C123.772 104.113 123.963 104.133 124.158 104.145L124.513 104.165L124.667 103.952C124.752 103.835 124.861 103.694 124.91 103.64C124.992 103.547 124.996 103.545 124.979 103.616C124.908 103.899 124.913 103.92 125.11 104.223C125.4 104.67 125.352 104.631 125.572 104.589C126.175 104.473 126.225 104.429 126.463 103.814C126.657 103.309 126.684 103.291 126.688 103.662C126.691 103.963 126.746 104.052 127.045 104.244C127.181 104.332 127.313 104.403 127.339 104.402C127.364 104.402 127.545 104.336 127.74 104.256L128.095 104.111L128.132 103.967C128.153 103.888 128.185 103.575 128.204 103.273C128.231 102.835 128.248 102.717 128.286 102.693C128.313 102.676 128.453 102.577 128.599 102.472C128.888 102.262 128.96 102.25 129.087 102.388ZM131.934 110.042C131.88 110.129 131.712 110.375 131.561 110.587C131.41 110.799 131.227 111.085 131.154 111.222C131.028 111.461 131.017 111.472 130.918 111.472H130.813L130.82 111.312C130.83 111.075 130.913 110.927 131.202 110.627C131.448 110.372 131.984 109.883 132.017 109.883C132.026 109.883 131.988 109.955 131.934 110.042ZM135.277 110.265C135.914 110.778 136.217 111.23 136.055 111.426C136.023 111.465 135.982 111.489 135.965 111.478C135.948 111.468 135.859 111.34 135.768 111.194C135.676 111.047 135.462 110.737 135.291 110.504C135.12 110.271 134.968 110.059 134.952 110.034C134.918 109.979 134.939 109.994 135.277 110.265ZM132.927 110.4C132.91 110.507 132.848 110.812 132.79 111.079C132.66 111.68 132.576 112.169 132.513 112.699C132.448 113.239 132.435 113.304 132.389 113.304C132.336 113.304 132.256 113.116 132.203 112.865C132.141 112.574 132.145 112.477 132.232 112.146C132.344 111.725 132.915 110.163 132.946 110.193C132.953 110.199 132.944 110.292 132.927 110.4ZM134.493 111.528L134.727 112.162L134.715 112.559C134.705 112.875 134.69 112.98 134.642 113.077C134.529 113.301 134.525 113.288 134.398 112.381C134.357 112.081 134.252 111.512 134.166 111.117C134.08 110.722 134.01 110.382 134.011 110.361C134.013 110.296 134.246 110.858 134.493 111.528ZM130.226 112.275C130.293 112.308 130.376 112.335 130.41 112.336C130.445 112.336 130.506 112.345 130.545 112.355C130.605 112.371 130.613 112.387 130.597 112.453C130.586 112.496 130.572 112.536 130.567 112.541C130.539 112.568 130.172 112.467 130.151 112.427C130.123 112.373 130.082 112.214 130.096 112.214C130.101 112.214 130.16 112.241 130.226 112.275ZM136.789 112.346C136.789 112.472 136.727 112.528 136.52 112.588L136.359 112.634L136.339 112.532C136.31 112.38 136.327 112.359 136.529 112.303C136.787 112.23 136.789 112.231 136.789 112.346Z"/>
</mask>
<path fill-rule="evenodd" clip-rule="evenodd" d="M133.004 84.0616C132.942 84.129 132.903 84.3909 132.9 84.7692C132.898 84.9556 132.907 84.9888 132.978 85.0613C133.047 85.132 133.053 85.1524 133.021 85.2105C132.98 85.2848 133.005 85.5901 133.054 85.6199C133.096 85.6452 133.09 85.8987 133.046 85.9249C133.026 85.9374 133.003 85.9289 132.995 85.9057C132.972 85.8359 132.842 85.7244 132.799 85.7371C132.316 85.8803 132.17 85.9308 132.002 86.0136C131.674 86.1752 131.556 86.2752 131.45 86.4838C131.365 86.6506 131.354 86.7026 131.354 86.9289C131.354 87.1401 131.372 87.2391 131.459 87.4917C131.555 87.7725 131.717 88.156 131.786 88.2675C131.915 88.4755 131.972 88.6545 131.99 88.9141C132.01 89.183 132.008 89.195 131.93 89.286C131.885 89.3377 131.741 89.4503 131.609 89.5362C131.35 89.7046 130.092 90.341 130.067 90.3162C130.058 90.3079 130.148 90.1191 130.267 89.8965C130.516 89.4263 130.577 89.2113 130.523 88.9821C130.446 88.6566 130.278 88.521 129.801 88.401C129.458 88.3148 129.36 88.3108 129.316 88.3811C129.275 88.446 129.3 88.2253 129.365 87.9497C129.429 87.6736 129.422 87.3222 129.35 87.235C129.294 87.1673 129.285 87.166 129.135 87.2037C129.039 87.228 128.916 87.2353 128.815 87.2229C128.677 87.206 128.642 87.2119 128.601 87.2583C128.532 87.336 128.508 87.5625 128.548 87.7722C128.566 87.8698 128.583 88.0048 128.585 88.0721C128.587 88.1394 128.615 88.2328 128.646 88.2797C128.722 88.3935 128.666 88.4618 128.581 88.3588L128.523 88.2891L128.232 88.3706C127.892 88.4659 127.631 88.5769 127.528 88.6704C127.377 88.8064 127.336 89.012 127.404 89.291C127.442 89.4463 127.663 89.9169 127.775 90.0813L127.845 90.1847L127.573 90.1642C127.209 90.1367 126.972 90.0452 126.897 89.9023C126.85 89.8136 126.843 89.7446 126.855 89.4785C126.866 89.2101 126.891 89.0899 127.011 88.7065C127.176 88.183 127.206 87.9849 127.156 87.7498C127.115 87.5576 127.02 87.4522 126.696 87.24C126.223 86.9302 125.805 86.8097 125.575 86.9166C125.442 86.9787 125.26 87.1515 125.07 87.396C124.859 87.6664 124.746 87.7416 124.391 87.8465C123.892 87.9938 123.834 88.02 123.683 88.1651C123.583 88.2618 123.527 88.3491 123.494 88.4573C123.394 88.7886 123.442 88.966 123.727 89.3182C123.9 89.5318 123.941 89.6024 123.934 89.6753L123.926 89.7661L123.594 89.7692C123.314 89.7718 123.251 89.7813 123.196 89.8297C122.993 90.0072 123.003 90.3815 123.218 90.5918C123.352 90.7229 123.443 90.7151 123.494 90.5683C123.524 90.4832 123.546 90.4637 123.605 90.469C124.101 90.5136 124.209 90.5133 124.32 90.4677C124.383 90.4415 124.436 90.4296 124.435 90.4412C124.435 90.4529 124.401 90.5441 124.359 90.644C124.22 90.9735 124.267 91.2785 124.487 91.4822C124.575 91.5637 124.88 91.7179 124.954 91.7185C125.021 91.719 125.03 91.6367 124.971 91.5485C124.929 91.4856 124.914 91.4059 124.914 91.2349C124.914 91.0143 124.92 90.9955 125.073 90.734C125.23 90.4665 125.275 90.3226 125.317 89.9629C125.335 89.809 125.324 89.7697 125.18 89.4462C124.958 88.9473 124.94 88.8443 125.022 88.5339C125.059 88.3963 125.094 88.2784 125.1 88.2719C125.107 88.2655 125.178 88.2483 125.257 88.2336C125.337 88.219 125.515 88.158 125.653 88.0981C126.06 87.9204 126.042 87.9155 126.042 88.1998C126.042 88.3916 126.016 88.528 125.92 88.8562C125.756 89.4124 125.746 89.4908 125.81 89.7696C125.855 89.9708 125.882 90.0224 126.004 90.1506C126.272 90.4313 126.584 90.6163 126.937 90.7039C127.048 90.7313 127.189 90.7666 127.251 90.7824C127.368 90.8125 127.411 90.8653 127.371 90.9295C127.358 90.9503 127.251 90.9854 127.134 91.0073C126.664 91.0959 126.409 91.2432 126.275 91.5041C126.111 91.8256 126.099 92.1377 126.239 92.425C126.326 92.6029 126.399 92.6926 126.5 92.7455C126.561 92.7778 126.598 92.7658 126.804 92.6452C127.083 92.4828 127.302 92.4308 127.601 92.4559C127.848 92.4766 128.181 92.5379 128.16 92.5587C128.152 92.5664 128.044 92.5839 127.919 92.5976C127.763 92.6147 127.534 92.6807 127.188 92.8082C126.91 92.9103 126.618 93.0015 126.538 93.0108C126.314 93.0368 126.079 92.9568 125.891 92.7911L125.733 92.6521L125.702 92.7323C125.653 92.8577 125.667 93.1145 125.729 93.2476C125.806 93.4144 126.037 93.6142 126.201 93.6576C126.278 93.678 126.462 93.688 126.635 93.6812L126.935 93.6694L127.235 93.4666C127.4 93.3551 127.541 93.2691 127.547 93.2756C127.554 93.2821 127.539 93.3261 127.515 93.3734C127.443 93.5102 127.425 93.642 127.46 93.7692C127.502 93.9238 127.612 94.0206 127.766 94.041C127.906 94.0593 127.889 94.0866 127.959 93.732C128.009 93.4765 128.029 93.4505 128.26 93.3437C128.45 93.2561 128.49 93.2488 128.775 93.251C129.007 93.2528 129.134 93.27 129.284 93.32C129.395 93.3566 129.59 93.3945 129.718 93.4042L129.95 93.4218L130.233 93.8342C130.388 94.061 130.573 94.3666 130.645 94.5132L130.775 94.7798L130.761 95.2425C130.748 95.6376 130.736 95.725 130.679 95.8413C130.607 95.987 130.312 96.2471 130.181 96.2805C130.14 96.2911 129.966 96.2837 129.795 96.2641C129.377 96.216 129.371 96.2242 129.488 96.6437C129.547 96.8547 129.664 96.9614 129.947 97.0626C130.075 97.1084 130.18 97.1585 130.18 97.1738C130.18 97.2256 129.892 97.3272 129.703 97.3419C129.462 97.3606 129.309 97.3185 129.071 97.1676C128.965 97.1006 128.866 97.0538 128.85 97.0635C128.738 97.1308 128.621 97.5573 128.641 97.823C128.661 98.0994 128.757 98.26 129.011 98.4406C129.129 98.5252 129.221 98.6107 129.214 98.6305C129.194 98.6908 128.879 98.8315 128.687 98.8656C128.358 98.9242 127.895 98.8065 127.652 98.6026C127.502 98.4769 127.41 98.3166 127.371 98.1132C127.332 97.9109 127.405 97.7667 127.703 97.4621C127.89 97.2709 127.959 97.1755 128.001 97.0525C128.067 96.8562 128.071 96.5819 128.009 96.4366C127.955 96.311 127.443 95.754 127.17 95.5242C126.853 95.2574 126.222 94.5704 125.892 94.1331C125.55 93.6797 125.511 93.6544 125.373 93.8001L125.294 93.8833L125.173 93.7471C124.926 93.4664 124.528 92.9037 124.36 92.5972C124.265 92.4228 124.173 92.2669 124.157 92.2507C124.137 92.2317 124.076 92.2454 123.984 92.2893C123.906 92.3267 123.838 92.3532 123.835 92.3483C123.805 92.3072 122.718 90.6297 122.622 90.4775C122.417 90.1514 122.188 89.7386 121.849 89.0849C121.672 88.7436 121.513 88.4473 121.495 88.4265C121.448 88.371 121.315 88.3805 121.203 88.4474C121.073 88.5252 120.878 88.7826 120.753 89.0413L120.652 89.2514L120.654 89.751C120.655 90.2031 120.663 90.2789 120.741 90.5503C120.788 90.7152 120.882 90.974 120.95 91.1255C121.018 91.277 121.095 91.4469 121.12 91.5031L121.166 91.6054L121.061 91.5183C121.003 91.4704 120.792 91.2915 120.591 91.1208C120.293 90.8676 120.208 90.8105 120.128 90.8105C120.009 90.8105 119.925 90.8906 119.828 91.0985C119.766 91.2289 119.757 91.2969 119.758 91.5977C119.759 91.8295 119.777 92.0103 119.812 92.1389C119.888 92.4141 120.082 92.8047 120.282 93.0835C120.376 93.2154 120.442 93.3231 120.429 93.3228C120.416 93.3226 120.294 93.2885 120.158 93.2471C119.975 93.1913 119.842 93.1719 119.642 93.1719C119.397 93.1719 119.37 93.1778 119.337 93.2379C119.288 93.3268 119.321 93.6839 119.397 93.9017C119.484 94.1479 119.576 94.2726 119.91 94.5948C120.074 94.753 120.221 94.9034 120.235 94.9291C120.259 94.9706 120.199 94.9744 119.697 94.9633C119.039 94.9488 119 94.9588 119 95.1418C119 95.4592 119.49 96.0494 120.072 96.4315C120.302 96.5829 120.308 96.5793 119.793 96.6096C119.494 96.6271 119.436 96.6404 119.243 96.7353C119.124 96.7937 119.018 96.862 119.009 96.8871C118.979 96.9639 119.148 97.2564 119.334 97.4491C119.678 97.8056 119.997 98.0036 120.405 98.1134L120.56 98.155L120.343 98.2081C120.004 98.2916 119.368 98.7035 119.346 98.8539C119.339 98.9023 119.391 98.9595 119.56 99.0894C119.901 99.351 120.173 99.4972 120.441 99.5628C120.573 99.5952 120.696 99.6359 120.713 99.6534C120.763 99.7032 120.59 99.8321 120.473 99.8326C120.35 99.8332 120.318 99.8536 120.257 99.9709C120.23 100.022 120.16 100.121 120.1 100.191C119.953 100.363 119.937 100.427 120.016 100.51C120.081 100.578 120.105 100.71 120.053 100.71C120.037 100.71 119.959 100.683 119.88 100.65C119.643 100.55 119.637 100.554 119.657 100.824C119.693 101.327 119.775 101.459 120.242 101.772C120.66 102.052 120.909 102.249 120.931 102.318C120.942 102.352 121.013 102.448 121.09 102.532C121.166 102.616 121.249 102.728 121.275 102.781C121.301 102.834 121.357 102.897 121.401 102.921C121.466 102.958 121.629 103.307 122.324 104.899C123.153 106.803 123.166 106.835 123.12 106.922C123.081 106.995 123.08 107.03 123.11 107.122C123.175 107.32 123.287 107.511 123.368 107.563C123.427 107.601 123.447 107.64 123.447 107.714C123.447 107.855 123.521 108.078 123.598 108.175C123.635 108.221 123.663 108.3 123.663 108.358C123.663 108.432 123.693 108.492 123.772 108.578C123.884 108.699 124.003 108.982 124.003 109.127C124.003 109.173 123.98 109.228 123.952 109.251C123.827 109.352 123.66 109.599 123.616 109.746C123.573 109.891 123.573 109.918 123.618 110.027C123.645 110.093 123.701 110.177 123.742 110.212C123.801 110.262 123.818 110.306 123.818 110.409C123.818 110.575 123.895 110.677 124.098 110.777C124.222 110.839 124.26 110.878 124.315 111.003C124.388 111.17 124.478 111.238 124.736 111.32C124.927 111.38 125.022 111.484 125.022 111.631C125.022 111.799 125.106 111.927 125.364 112.155C125.619 112.381 125.718 112.426 125.958 112.426C126.076 112.426 126.122 112.41 126.186 112.347C126.266 112.27 126.266 112.264 126.247 111.954C126.236 111.769 126.241 111.578 126.26 111.491C126.291 111.351 126.286 111.33 126.186 111.135C126.024 110.818 126.023 110.807 126.141 110.739C126.197 110.706 126.429 110.572 126.657 110.441C126.94 110.277 127.09 110.172 127.128 110.108C127.17 110.038 127.226 110.003 127.361 109.962C127.459 109.932 127.569 109.889 127.606 109.866C127.642 109.844 127.764 109.804 127.876 109.779C127.988 109.754 128.132 109.711 128.196 109.685C128.289 109.646 128.485 109.634 129.192 109.621C129.676 109.612 130.123 109.592 130.186 109.577C130.33 109.541 130.476 109.423 130.502 109.32C130.528 109.22 130.477 109.07 130.346 108.856C130.222 108.656 130.22 108.642 130.313 108.642C130.43 108.642 130.69 108.556 130.778 108.488C130.87 108.417 131.004 108.207 131.062 108.041C131.119 107.879 131.083 107.855 130.786 107.855C130.472 107.854 130.339 107.819 130.228 107.705C130.163 107.638 130.141 107.586 130.141 107.498C130.141 107.345 130.289 107.025 130.403 106.93C130.688 106.695 131.309 106.728 131.627 106.995C131.785 107.127 131.979 107.5 132.031 107.769C132.1 108.127 132.038 108.225 131.471 108.653C131.179 108.874 131.113 108.96 131.014 109.247L130.937 109.473L130.18 109.968C129.292 110.549 129.162 110.617 129.034 110.574C128.911 110.532 128.898 110.503 128.898 110.262C128.898 110.061 128.894 110.049 128.812 110.01C128.734 109.973 128.708 109.978 128.527 110.06C128.418 110.111 128.259 110.216 128.173 110.294C128.048 110.409 128.006 110.474 127.956 110.632C127.849 110.972 127.881 111.204 128.069 111.445L128.153 111.554L128.008 111.684C127.815 111.858 127.728 112.051 127.73 112.307C127.731 112.549 127.797 112.758 127.975 113.081C128.083 113.278 128.107 113.347 128.091 113.422C128.081 113.473 128.089 113.556 128.11 113.604C128.182 113.775 128.228 113.755 128.564 113.412C128.737 113.236 128.885 113.092 128.892 113.092C128.9 113.092 128.914 113.13 128.924 113.175C128.982 113.439 129.369 113.842 129.632 113.912C129.856 113.971 130.097 113.93 130.389 113.783L130.649 113.652L130.7 113.722C130.945 114.055 131.185 114.278 131.431 114.401C131.659 114.514 132.099 114.485 132.49 114.329L132.654 114.264L133.015 114.632C133.247 114.868 133.399 115 133.439 115C133.559 114.999 133.848 114.753 134.091 114.447C134.167 114.351 134.247 114.273 134.269 114.273C134.29 114.273 134.39 114.306 134.491 114.346C134.791 114.465 135.014 114.493 135.228 114.438C135.328 114.413 135.477 114.356 135.558 114.313C135.7 114.237 136.056 113.9 136.188 113.716L136.25 113.628L136.499 113.754C136.736 113.874 136.76 113.879 137.027 113.879C137.351 113.879 137.414 113.849 137.738 113.538C137.876 113.405 137.954 113.298 138.014 113.159L138.098 112.965L138.198 113.16C138.297 113.353 138.601 113.667 138.687 113.667C138.715 113.667 138.732 113.607 138.741 113.478C138.751 113.322 138.778 113.247 138.895 113.047C139.086 112.72 139.117 112.612 139.119 112.275C139.12 111.952 139.096 111.889 138.89 111.655C138.821 111.577 138.766 111.51 138.766 111.504C138.766 111.499 138.809 111.404 138.861 111.294C138.99 111.025 139.009 110.801 138.923 110.577C138.805 110.271 138.589 110.083 138.261 110.002C138.01 109.94 137.891 110.021 138.008 110.172C138.074 110.257 138.068 110.468 137.999 110.529C137.832 110.677 137.649 110.617 137.074 110.221C136.858 110.073 136.497 109.833 136.272 109.69C136 109.516 135.863 109.411 135.863 109.375C135.863 109.254 135.774 108.999 135.691 108.882C135.643 108.813 135.47 108.657 135.308 108.534C134.781 108.136 134.714 107.922 134.965 107.435C135.014 107.341 135.113 107.186 135.185 107.091C135.363 106.855 135.506 106.789 135.84 106.787C136.29 106.785 136.498 106.892 136.649 107.204C136.735 107.381 136.746 107.491 136.693 107.639C136.644 107.777 136.569 107.804 136.187 107.823L135.847 107.84L135.838 108.028C135.829 108.211 135.832 108.22 135.955 108.35C136.114 108.519 136.332 108.612 136.619 108.633L136.842 108.65L136.816 108.759C136.802 108.82 136.762 108.957 136.728 109.066C136.645 109.328 136.645 109.507 136.728 109.55C136.767 109.571 136.958 109.58 137.235 109.574C137.665 109.566 137.682 109.568 137.757 109.636C137.82 109.694 137.966 109.734 138.555 109.854C138.951 109.935 139.407 110.028 139.569 110.062C139.73 110.096 139.914 110.125 139.978 110.125C140.15 110.125 140.435 110.234 141.159 110.573C141.516 110.74 141.869 110.893 141.944 110.912C142.168 110.97 142.428 110.89 142.603 110.709C142.683 110.626 142.699 110.622 142.851 110.641C142.939 110.652 143.105 110.651 143.218 110.639C143.404 110.619 143.448 110.6 143.662 110.447C143.792 110.354 143.981 110.248 144.082 110.212C144.277 110.142 144.387 110.04 144.387 109.928C144.387 109.884 144.468 109.777 144.615 109.628C144.754 109.487 144.887 109.314 144.957 109.184C145.028 109.052 145.098 108.961 145.143 108.945C145.196 108.925 145.22 108.885 145.236 108.792C145.248 108.722 145.291 108.617 145.332 108.559C145.426 108.423 145.425 108.354 145.329 108.23C145.286 108.176 145.251 108.113 145.251 108.091C145.251 107.991 145.019 107.402 144.924 107.262C144.748 107.002 144.439 106.747 144.058 106.549C143.756 106.391 143.772 106.407 143.854 106.347C143.921 106.297 143.922 106.286 143.903 105.863C143.883 105.432 143.882 105.43 143.793 105.356C143.706 105.284 143.685 105.281 143.263 105.281H142.823L142.738 105.368L142.654 105.455L142.663 105.905C142.669 106.153 142.685 106.38 142.699 106.409C142.719 106.45 142.712 106.462 142.667 106.462C142.571 106.462 142.171 106.664 141.976 106.811C141.721 107.004 141.52 107.308 141.413 107.662C141.387 107.747 141.344 107.859 141.316 107.91C141.289 107.961 141.267 108.034 141.267 108.073C141.267 108.111 141.245 108.202 141.219 108.275C141.179 108.388 141.178 108.441 141.21 108.632C141.244 108.829 141.261 108.865 141.35 108.932C141.406 108.973 141.466 109.034 141.484 109.066C141.53 109.15 141.458 109.301 141.312 109.426L141.193 109.529L140.763 109.508C140.333 109.488 140.331 109.488 139.757 109.29C139.441 109.181 139.065 109.035 138.92 108.965C138.684 108.851 138.647 108.822 138.557 108.673C138.434 108.47 138.433 108.449 138.547 108.514C138.633 108.562 138.641 108.562 138.702 108.508C138.737 108.476 138.766 108.43 138.766 108.404C138.766 108.372 138.797 108.387 138.866 108.452C139.029 108.607 139.272 108.661 139.397 108.571C139.46 108.526 139.459 108.519 139.355 108.175C139.32 108.059 139.298 107.959 139.306 107.951C139.314 107.943 139.407 107.976 139.514 108.023C139.677 108.096 139.746 108.109 139.947 108.107C140.15 108.105 140.206 108.093 140.306 108.027C140.414 107.958 140.681 107.616 140.681 107.548C140.681 107.512 140.58 107.474 140.368 107.432C140.149 107.389 140.049 107.295 140.054 107.135C140.056 107.073 140.067 106.811 140.079 106.553C140.098 106.121 140.095 106.071 140.036 105.917C139.955 105.711 139.733 105.43 139.549 105.302C139.378 105.183 139.094 105.073 138.955 105.071L138.85 105.07L138.869 104.934C138.894 104.758 138.863 104.743 138.548 104.779C138.373 104.8 138.247 104.798 138.131 104.774C137.946 104.736 137.747 104.653 137.747 104.613C137.747 104.599 137.809 104.561 137.886 104.528C137.962 104.495 138.024 104.449 138.024 104.427C138.024 104.405 137.967 104.312 137.897 104.221C137.698 103.964 137.685 103.913 137.685 103.427C137.685 102.934 137.728 102.527 137.795 102.401C137.869 102.26 137.955 102.263 138.299 102.418C138.47 102.494 138.629 102.557 138.653 102.557C138.688 102.557 138.701 102.657 138.718 103.064C138.73 103.343 138.752 103.666 138.766 103.783C138.789 103.97 138.804 104.004 138.894 104.078C139.047 104.204 139.458 104.404 139.564 104.404C139.667 104.404 139.971 104.243 140.179 104.079C140.286 103.994 140.31 103.957 140.31 103.873C140.31 103.693 140.36 103.734 140.462 103.999C140.609 104.378 140.651 104.412 141.125 104.544C141.41 104.623 141.538 104.646 141.573 104.625C141.6 104.609 141.696 104.494 141.785 104.371C141.875 104.247 141.968 104.118 141.993 104.084C142.018 104.05 142.049 103.95 142.062 103.861L142.086 103.7L142.202 103.865C142.41 104.162 142.432 104.173 142.79 104.186C143.289 104.204 143.285 104.206 143.512 103.781C143.619 103.582 143.706 103.384 143.707 103.341C143.707 103.298 143.654 103.182 143.59 103.084C143.406 102.803 143.407 102.807 143.477 102.859C143.51 102.883 143.64 102.998 143.766 103.113L143.995 103.322L144.424 103.306C144.958 103.285 144.958 103.285 144.984 102.942C144.995 102.805 145.012 102.6 145.024 102.485L145.044 102.277L145.184 102.293C145.419 102.319 145.814 102.186 146.077 101.992C146.177 101.919 146.178 101.915 146.178 101.666C146.178 101.279 146.135 101.11 146.003 100.978L145.892 100.866L146.012 100.848C146.335 100.799 146.995 100.546 147.03 100.457C147.069 100.358 146.824 100.081 146.402 99.7438C146.313 99.6727 146.24 99.604 146.24 99.5911C146.24 99.5781 146.337 99.5581 146.455 99.5467C146.76 99.5173 147.048 99.3698 147.339 99.0941C147.488 98.9532 147.568 98.8547 147.568 98.8109C147.568 98.765 147.507 98.6959 147.375 98.5919C147.106 98.3802 146.802 98.2348 146.578 98.2099C146.477 98.1987 146.394 98.1807 146.394 98.1699C146.394 98.1591 146.488 98.1265 146.603 98.0974C146.985 98.0005 147.498 97.6635 147.619 97.429C147.646 97.3771 147.694 97.3105 147.725 97.281C147.757 97.2516 147.805 97.1519 147.832 97.0594C147.879 96.9017 147.879 96.8877 147.828 96.8326C147.743 96.7409 147.4 96.6507 147.073 96.6346C146.518 96.6071 146.527 96.6203 146.894 96.3829C147.313 96.1113 147.621 95.8272 147.83 95.5196C147.974 95.307 148 95.2482 148 95.1301C148 94.9939 147.998 94.9906 147.884 94.967C147.821 94.9538 147.533 94.9468 147.245 94.9516L146.721 94.9602L146.797 94.8759C146.838 94.8295 146.957 94.703 147.06 94.5948C147.397 94.2401 147.495 94.0624 147.63 93.5587C147.687 93.343 147.693 93.2861 147.661 93.2484C147.606 93.1831 147.353 93.1888 146.894 93.2657C146.685 93.3007 146.506 93.3225 146.498 93.3141C146.489 93.3057 146.548 93.2124 146.628 93.1067C146.804 92.8739 147.115 92.2557 147.18 92.0076C147.24 91.7806 147.241 91.57 147.182 91.2969C147.12 91.0062 147.06 90.8776 146.969 90.837C146.85 90.784 146.77 90.8216 146.486 91.0624C146.118 91.3748 145.678 91.7188 145.645 91.7188C145.631 91.7188 145.736 91.4974 145.881 91.2268C146.278 90.4808 146.31 90.3706 146.326 89.6881C146.339 89.1333 146.338 89.1236 146.26 88.9734C146.217 88.8896 146.142 88.7759 146.095 88.7207C145.984 88.5907 145.656 88.3836 145.58 88.395C145.537 88.4014 145.475 88.5093 145.347 88.7973C145.038 89.4916 144.5 90.4178 143.845 91.3857C143.497 91.8995 143.163 92.3234 143.086 92.3502C143.068 92.3561 143.021 92.33 142.979 92.2922C142.906 92.2243 142.904 92.2241 142.839 92.2814C142.803 92.3133 142.707 92.4694 142.626 92.6282C142.431 93.0077 142.135 93.4383 141.911 93.6682L141.73 93.8531L141.66 93.7698C141.516 93.6005 141.486 93.6228 140.826 94.3795C140.493 94.7606 139.952 95.3431 139.624 95.6739C139.296 96.0048 138.997 96.3235 138.96 96.3821C138.855 96.5476 138.819 96.7501 138.869 96.8907C138.891 96.9552 139.031 97.1803 139.179 97.3909C139.484 97.8246 139.567 97.9847 139.567 98.1368C139.567 98.3829 139.345 98.6494 139.017 98.7966C138.815 98.8874 138.446 98.9062 138.207 98.838C138.063 98.7971 137.777 98.6076 137.754 98.538C137.747 98.5172 137.788 98.4763 137.844 98.4472C138.136 98.2972 138.327 97.9577 138.287 97.6607C138.205 97.0386 138.025 96.8112 137.862 97.1227C137.773 97.2929 137.708 97.3269 137.474 97.3248C137.146 97.3218 136.666 97.1915 136.666 97.1052C136.666 97.0945 136.74 97.0781 136.832 97.0689C137.046 97.0473 137.221 96.958 137.341 96.8103C137.459 96.6637 137.499 96.5619 137.499 96.4103C137.499 96.2533 137.449 96.231 137.11 96.2383C136.799 96.2451 136.644 96.194 136.438 96.0173C136.245 95.8506 136.197 95.7218 136.163 95.2709L136.133 94.8723L136.37 94.4065C136.501 94.1504 136.692 93.8291 136.796 93.6926L136.984 93.4444H137.195C137.337 93.4444 137.471 93.4218 137.6 93.3763C137.847 93.2889 138.347 93.2821 138.617 93.3623C138.871 93.4381 138.966 93.5441 139.03 93.8255C139.087 94.0758 139.129 94.1168 139.256 94.0465C139.391 93.9723 139.476 93.8175 139.477 93.6442C139.477 93.5593 139.488 93.4731 139.501 93.4527C139.527 93.4128 139.581 93.4359 139.859 93.606C140.153 93.7852 140.672 93.7804 140.969 93.5957C141.215 93.4427 141.373 93.0615 141.29 92.8191C141.224 92.6278 141.168 92.6238 141.008 92.7987C140.831 92.9912 140.735 93.0313 140.488 93.0144C140.339 93.0042 140.205 92.9625 139.908 92.8334C139.696 92.7411 139.418 92.6415 139.291 92.612C139.163 92.5825 139.039 92.5479 139.014 92.5352C138.95 92.5015 139.333 92.4669 139.621 92.4803C139.833 92.4902 139.895 92.5077 140.132 92.6257L140.401 92.7598L140.477 92.6899C140.519 92.6515 140.603 92.5276 140.663 92.4147C140.765 92.2254 140.773 92.1891 140.773 91.9477C140.773 91.6196 140.725 91.5195 140.449 91.2715C140.202 91.0499 140.108 91.0039 139.844 90.9768C139.661 90.958 139.635 90.9467 139.586 90.866C139.556 90.8165 139.537 90.7725 139.543 90.7682C139.548 90.7639 139.663 90.7444 139.796 90.7248C139.96 90.7008 140.106 90.6551 140.244 90.5846C140.357 90.5272 140.513 90.4522 140.59 90.418C140.77 90.3392 141.068 90.0516 141.115 89.9111C141.179 89.7202 141.133 89.1857 141.009 88.6929C140.875 88.1609 140.836 87.8856 140.9 87.9127C141.131 88.0108 141.62 88.1905 141.731 88.2179C141.863 88.2509 141.871 88.259 141.909 88.4038C142.021 88.8357 141.991 89.0409 141.739 89.5818C141.517 90.0556 141.521 90.1114 141.815 90.7322C141.999 91.1207 142.001 91.1387 141.928 91.5901L141.908 91.7188H142.021C142.083 91.7188 142.181 91.6997 142.238 91.6763C142.371 91.6218 142.585 91.432 142.649 91.3123C142.707 91.2031 142.71 90.8753 142.655 90.6509C142.635 90.5704 142.624 90.5019 142.63 90.4986C142.637 90.4953 142.805 90.4969 143.004 90.502L143.366 90.5114L143.449 90.661C143.494 90.7432 143.545 90.8105 143.562 90.8105C143.617 90.8105 143.809 90.5852 143.872 90.4474C143.955 90.2635 143.956 90.0808 143.875 89.9746C143.757 89.82 143.665 89.775 143.414 89.751C143.051 89.7161 143.007 89.6223 143.227 89.3522C143.512 89.0038 143.577 88.7797 143.479 88.4892C143.379 88.1958 143.165 88.0163 142.778 87.9036C142.358 87.7811 142.211 87.687 141.808 87.2833C141.362 86.8369 141.297 86.8064 140.967 86.8862C140.755 86.9375 140.556 87.05 140.113 87.3693C139.741 87.6373 139.697 87.8856 139.905 88.5408C140.161 89.3477 140.188 89.6801 140.012 89.8936C139.839 90.1051 139.749 90.1445 139.441 90.1445C139.29 90.1445 139.167 90.1405 139.167 90.1355C139.167 90.1306 139.243 89.9648 139.336 89.767C139.611 89.1809 139.622 88.9853 139.393 88.7236C139.261 88.572 138.989 88.4339 138.763 88.4034C138.68 88.3922 138.604 88.3706 138.594 88.3555C138.569 88.3153 138.352 88.3221 138.309 88.3644C138.28 88.3927 138.272 88.3868 138.272 88.3378C138.272 88.3033 138.29 88.2603 138.312 88.2424C138.341 88.2188 138.354 88.078 138.359 87.7287C138.368 87.1814 138.352 87.1375 138.178 87.2081C138.115 87.2337 138.017 87.2393 137.873 87.2255C137.572 87.1964 137.553 87.2199 137.572 87.598C137.593 88.0269 137.614 88.1692 137.668 88.2441C137.694 88.2811 137.715 88.3389 137.715 88.3727C137.715 88.4201 137.708 88.4244 137.687 88.3917C137.64 88.3183 137.218 88.3656 136.923 88.4774C136.529 88.6263 136.365 88.8478 136.394 89.191C136.408 89.3569 136.582 89.7532 136.762 90.0291C136.83 90.1334 136.852 90.1997 136.845 90.2793L136.835 90.3876L136.202 90.0503C135.44 89.644 135.126 89.4499 134.996 89.3049C134.899 89.1973 134.898 89.1929 134.912 88.9361C134.926 88.6849 134.934 88.6606 135.162 88.207C135.452 87.6285 135.552 87.3402 135.575 87.01C135.598 86.699 135.557 86.5411 135.404 86.3461C135.249 86.1484 135.009 86.0122 134.52 85.8459L134.106 85.705L133.984 85.8246C133.793 86.0115 133.729 85.8967 133.859 85.6004C133.913 85.4789 133.922 85.4153 133.906 85.271C133.889 85.1042 133.893 85.0881 133.967 85.0309L134.046 84.9696L134.036 84.5343C134.024 84.0389 134.001 83.9794 133.841 84.0145C133.661 84.0543 133.262 84.0654 133.228 84.0316C133.174 83.9793 133.067 83.9937 133.004 84.0616ZM134.277 89.6581C134.674 89.9343 135.191 90.2629 135.399 90.3714C135.676 90.5151 135.636 90.5353 135.216 90.4643C134.821 90.3975 134.72 90.4007 134.72 90.4798C134.72 90.5652 135.039 90.8879 135.23 90.9954L135.384 91.0824L135.163 91.0827C135.041 91.0829 134.919 91.0913 134.892 91.1014C134.749 91.1551 134.939 91.3638 135.267 91.5144L135.462 91.6039L135.3 91.716C134.992 91.9278 134.559 92.0729 134.056 92.1322C133.862 92.1551 133.839 92.165 133.83 92.2283C133.809 92.372 134.018 92.4756 134.33 92.4756C134.406 92.4756 134.49 92.4838 134.516 92.4938C134.574 92.5157 134.551 92.5674 134.378 92.7935C134.062 93.2082 133.735 93.9962 133.545 94.8012C133.508 94.9563 133.475 95.0789 133.47 95.0736C133.466 95.0683 133.398 94.8455 133.319 94.5784C133.092 93.8058 132.934 93.4361 132.587 92.8629C132.486 92.6968 132.404 92.5559 132.404 92.5498C132.404 92.5438 132.456 92.5303 132.519 92.5198C132.795 92.4745 132.954 92.3739 133.003 92.2148C133.02 92.1593 133.007 92.1482 132.906 92.1319C132.842 92.1215 132.747 92.1128 132.696 92.1126C132.644 92.1125 132.522 92.0919 132.424 92.0669C132.202 92.0101 131.477 91.667 131.477 91.6185C131.477 91.5987 131.568 91.5282 131.679 91.4619C131.919 91.3181 132.112 91.1347 132.079 91.0817C132.062 91.0552 131.982 91.0492 131.798 91.0605L131.54 91.0762L131.717 90.9633C131.919 90.8343 132.198 90.554 132.179 90.4992C132.169 90.4723 132.057 90.4644 131.76 90.4699C131.536 90.4741 131.354 90.4715 131.354 90.4643C131.354 90.457 131.51 90.3594 131.701 90.2473C131.892 90.1352 132.192 89.947 132.367 89.8291C132.542 89.7112 132.716 89.5973 132.753 89.5759C132.804 89.5469 132.985 89.5393 133.474 89.5457L134.128 89.5542L134.277 89.6581ZM129.087 102.388C129.162 102.47 129.215 102.76 129.244 103.238C129.268 103.641 129.217 103.921 129.068 104.21C128.937 104.465 128.938 104.54 129.074 104.567C129.197 104.591 129.174 104.645 129.006 104.729C128.86 104.802 128.622 104.815 128.254 104.77C128.044 104.744 128.025 104.763 128.073 104.949C128.108 105.083 128.117 105.077 127.848 105.112C127.669 105.136 127.351 105.304 127.194 105.459C127.119 105.532 127.009 105.686 126.95 105.801L126.842 106.011L126.872 106.668C126.907 107.448 126.92 107.414 126.545 107.489C126.325 107.533 126.303 107.544 126.295 107.614C126.273 107.795 126.598 108.006 126.935 108.029C127.118 108.042 127.374 108.001 127.563 107.929C127.645 107.898 127.633 108.083 127.539 108.291C127.497 108.385 127.462 108.489 127.462 108.521C127.462 108.622 127.597 108.628 127.87 108.539C128.103 108.464 128.121 108.462 128.157 108.511C128.194 108.56 128.203 108.56 128.321 108.508C128.47 108.442 128.512 108.461 128.512 108.594C128.512 108.708 128.545 108.691 127.615 109.046C126.771 109.367 126.534 109.399 126.194 109.235C126.01 109.146 125.991 109.124 125.837 108.819C125.781 108.708 125.696 108.588 125.649 108.552C125.557 108.48 125.505 108.481 125.121 108.555C124.985 108.582 124.91 108.584 124.874 108.562C124.785 108.509 124.714 108.333 124.714 108.166C124.714 108.021 124.706 108.004 124.621 107.961C124.54 107.92 124.528 107.897 124.528 107.785C124.528 107.669 124.511 107.64 124.358 107.491C124.174 107.313 124.145 107.246 124.112 106.915C124.088 106.675 124.07 106.643 123.943 106.618C123.851 106.599 123.831 106.569 123.635 106.159C123.52 105.918 123.322 105.509 123.194 105.251C123.066 104.993 122.882 104.612 122.784 104.404C122.686 104.195 122.531 103.879 122.44 103.7C122.348 103.521 122.274 103.361 122.274 103.344C122.274 103.326 122.388 103.314 122.565 103.314C122.725 103.314 122.892 103.3 122.936 103.284C122.98 103.268 123.191 103.094 123.406 102.899L123.796 102.543L123.631 102.8C123.541 102.941 123.433 103.115 123.391 103.187L123.316 103.318L123.402 103.52C123.561 103.894 123.664 104.072 123.735 104.098C123.772 104.113 123.963 104.133 124.158 104.145L124.513 104.165L124.667 103.952C124.752 103.835 124.861 103.694 124.91 103.64C124.992 103.547 124.996 103.545 124.979 103.616C124.908 103.899 124.913 103.92 125.11 104.223C125.4 104.67 125.352 104.631 125.572 104.589C126.175 104.473 126.225 104.429 126.463 103.814C126.657 103.309 126.684 103.291 126.688 103.662C126.691 103.963 126.746 104.052 127.045 104.244C127.181 104.332 127.313 104.403 127.339 104.402C127.364 104.402 127.545 104.336 127.74 104.256L128.095 104.111L128.132 103.967C128.153 103.888 128.185 103.575 128.204 103.273C128.231 102.835 128.248 102.717 128.286 102.693C128.313 102.676 128.453 102.577 128.599 102.472C128.888 102.262 128.96 102.25 129.087 102.388ZM131.934 110.042C131.88 110.129 131.712 110.375 131.561 110.587C131.41 110.799 131.227 111.085 131.154 111.222C131.028 111.461 131.017 111.472 130.918 111.472H130.813L130.82 111.312C130.83 111.075 130.913 110.927 131.202 110.627C131.448 110.372 131.984 109.883 132.017 109.883C132.026 109.883 131.988 109.955 131.934 110.042ZM135.277 110.265C135.914 110.778 136.217 111.23 136.055 111.426C136.023 111.465 135.982 111.489 135.965 111.478C135.948 111.468 135.859 111.34 135.768 111.194C135.676 111.047 135.462 110.737 135.291 110.504C135.12 110.271 134.968 110.059 134.952 110.034C134.918 109.979 134.939 109.994 135.277 110.265ZM132.927 110.4C132.91 110.507 132.848 110.812 132.79 111.079C132.66 111.68 132.576 112.169 132.513 112.699C132.448 113.239 132.435 113.304 132.389 113.304C132.336 113.304 132.256 113.116 132.203 112.865C132.141 112.574 132.145 112.477 132.232 112.146C132.344 111.725 132.915 110.163 132.946 110.193C132.953 110.199 132.944 110.292 132.927 110.4ZM134.493 111.528L134.727 112.162L134.715 112.559C134.705 112.875 134.69 112.98 134.642 113.077C134.529 113.301 134.525 113.288 134.398 112.381C134.357 112.081 134.252 111.512 134.166 111.117C134.08 110.722 134.01 110.382 134.011 110.361C134.013 110.296 134.246 110.858 134.493 111.528ZM130.226 112.275C130.293 112.308 130.376 112.335 130.41 112.336C130.445 112.336 130.506 112.345 130.545 112.355C130.605 112.371 130.613 112.387 130.597 112.453C130.586 112.496 130.572 112.536 130.567 112.541C130.539 112.568 130.172 112.467 130.151 112.427C130.123 112.373 130.082 112.214 130.096 112.214C130.101 112.214 130.16 112.241 130.226 112.275ZM136.789 112.346C136.789 112.472 136.727 112.528 136.52 112.588L136.359 112.634L136.339 112.532C136.31 112.38 136.327 112.359 136.529 112.303C136.787 112.23 136.789 112.231 136.789 112.346Z" stroke="url(#paint16_linear_566_1377)" stroke-width="24" mask="url(#path-39-inside-1_566_1377)"/>
<defs>
<linearGradient id="paint0_linear_566_1377" x1="25.8544" y1="117.064" x2="135.035" y2="33.8469" gradientUnits="userSpaceOnUse">
<stop stop-color="#B9D3FF"/>
<stop offset="1" stop-color="#D9E8FE"/>
</linearGradient>
<linearGradient id="paint1_linear_566_1377" x1="120.215" y1="-11.1323" x2="37.6132" y2="56.5932" gradientUnits="userSpaceOnUse">
<stop stop-color="#3379DB"/>
<stop offset="1" stop-color="#2257BB"/>
</linearGradient>
<linearGradient id="paint2_linear_566_1377" x1="15.0493" y1="46.1356" x2="143.55" y2="46.1356" gradientUnits="userSpaceOnUse">
<stop stop-color="#99C1F9"/>
<stop offset="1" stop-color="#C4DCFE"/>
</linearGradient>
<linearGradient id="paint3_linear_566_1377" x1="11.2628" y1="48.7991" x2="11.2628" y2="37.0064" gradientUnits="userSpaceOnUse">
<stop stop-color="#3379DB"/>
<stop offset="1" stop-color="#2257BB"/>
</linearGradient>
<linearGradient id="paint4_linear_566_1377" x1="24.864" y1="32.9372" x2="24.864" y2="60.7961" gradientUnits="userSpaceOnUse">
<stop stop-color="#2377EE"/>
<stop offset="1" stop-color="#1EB6FF"/>
</linearGradient>
<linearGradient id="paint5_linear_566_1377" x1="38.4729" y1="48.7991" x2="38.4729" y2="37.0064" gradientUnits="userSpaceOnUse">
<stop stop-color="#3379DB"/>
<stop offset="1" stop-color="#2257BB"/>
</linearGradient>
<linearGradient id="paint6_linear_566_1377" x1="52.0741" y1="32.9372" x2="52.0741" y2="60.7961" gradientUnits="userSpaceOnUse">
<stop stop-color="#2377EE"/>
<stop offset="1" stop-color="#1EB6FF"/>
</linearGradient>
<linearGradient id="paint7_linear_566_1377" x1="65.6833" y1="48.7991" x2="65.6833" y2="37.0064" gradientUnits="userSpaceOnUse">
<stop stop-color="#3379DB"/>
<stop offset="1" stop-color="#2257BB"/>
</linearGradient>
<linearGradient id="paint8_linear_566_1377" x1="79.2843" y1="32.9372" x2="79.2843" y2="60.7961" gradientUnits="userSpaceOnUse">
<stop stop-color="#2377EE"/>
<stop offset="1" stop-color="#1EB6FF"/>
</linearGradient>
<linearGradient id="paint9_linear_566_1377" x1="92.8935" y1="48.7991" x2="92.8935" y2="37.0064" gradientUnits="userSpaceOnUse">
<stop stop-color="#3379DB"/>
<stop offset="1" stop-color="#2257BB"/>
</linearGradient>
<linearGradient id="paint10_linear_566_1377" x1="106.495" y1="32.9372" x2="106.495" y2="60.7961" gradientUnits="userSpaceOnUse">
<stop stop-color="#2377EE"/>
<stop offset="1" stop-color="#1EB6FF"/>
</linearGradient>
<linearGradient id="paint11_linear_566_1377" x1="120.104" y1="48.7991" x2="120.104" y2="37.0064" gradientUnits="userSpaceOnUse">
<stop stop-color="#3379DB"/>
<stop offset="1" stop-color="#2257BB"/>
</linearGradient>
<linearGradient id="paint12_linear_566_1377" x1="133.705" y1="32.9372" x2="133.705" y2="60.7961" gradientUnits="userSpaceOnUse">
<stop stop-color="#2377EE"/>
<stop offset="1" stop-color="#1EB6FF"/>
</linearGradient>
<linearGradient id="paint13_linear_566_1377" x1="147.314" y1="48.7991" x2="147.314" y2="37.0064" gradientUnits="userSpaceOnUse">
<stop stop-color="#3379DB"/>
<stop offset="1" stop-color="#2257BB"/>
</linearGradient>
<linearGradient id="paint14_linear_566_1377" x1="115.521" y1="138.071" x2="147.959" y2="70.0218" gradientUnits="userSpaceOnUse">
<stop stop-color="#3047A8"/>
<stop offset="1" stop-color="#2F2F5B"/>
</linearGradient>
<linearGradient id="paint15_linear_566_1377" x1="141.685" y1="124.824" x2="124.049" y2="153.299" gradientUnits="userSpaceOnUse">
<stop stop-color="#3379DB"/>
<stop offset="1" stop-color="#2257BB"/>
</linearGradient>
<linearGradient id="paint16_linear_566_1377" x1="145.5" y1="94.5" x2="124.5" y2="114" gradientUnits="userSpaceOnUse">
<stop stop-color="#79D4FF"/>
<stop offset="1" stop-color="#27AAFC"/>
</linearGradient>
</defs>
</svg>
