<svg width="160" height="160" viewBox="0 0 160 160" fill="none" xmlns="http://www.w3.org/2000/svg">
<path d="M146.437 77.1353H98.7585C97.7438 77.1353 96.9216 76.3128 96.9216 75.2984V42.0831C96.9216 41.0684 97.7441 40.2462 98.7585 40.2462H146.437C147.452 40.2462 148.274 41.0687 148.274 42.0831V75.2981C148.274 76.3128 147.451 77.1353 146.437 77.1353Z" fill="url(#paint0_linear_566_1186)"/>
<path d="M153.988 63.4794H107.573C106.559 63.4794 105.736 62.6569 105.736 61.6425V29.951C105.736 28.9363 106.559 28.1141 107.573 28.1141H153.988C155.003 28.1141 155.825 28.9366 155.825 29.951V61.6422C155.825 62.6569 155.003 63.4794 153.988 63.4794Z" fill="url(#paint1_linear_566_1186)"/>
<path opacity="0.4" d="M152.639 31.8806C152.465 31.5831 152.082 31.4822 151.784 31.6572L130.779 43.9566L109.542 31.6556C109.242 31.4825 108.861 31.5844 108.688 31.8834C108.515 32.1819 108.617 32.5644 108.916 32.7372L124.651 41.8516L112.927 52.9313C112.676 53.1684 112.665 53.5641 112.902 53.815C113.025 53.945 113.19 54.0106 113.356 54.0106C113.51 54.0106 113.664 53.9541 113.785 53.84L125.78 42.5053L130.467 45.2206C130.565 45.2769 130.672 45.305 130.781 45.305C130.89 45.305 130.999 45.2762 131.097 45.2194L135.632 42.5641L147.565 53.8403C147.686 53.9544 147.84 54.0109 147.994 54.0109C148.16 54.0109 148.326 53.9453 148.448 53.8153C148.685 53.5644 148.674 53.1688 148.423 52.9316L136.756 41.9059L152.416 32.7359C152.714 32.5613 152.814 32.1784 152.639 31.8806Z" fill="white"/>
<path d="M144.597 131.391H35.2356V60.0931C35.2356 58.3812 36.6234 56.9934 38.3353 56.9934H141.497C143.209 56.9934 144.597 58.3812 144.597 60.0931V131.391H144.597Z" fill="url(#paint2_linear_566_1186)"/>
<path d="M148.204 139.667H31.6285C27.8257 139.667 24.7432 136.584 24.7432 132.782V131.391H155.09V132.782C155.09 136.584 152.007 139.667 148.204 139.667Z" fill="url(#paint3_linear_566_1186)"/>
<path d="M138.981 65.5269H40.8516V125.922H138.981V65.5269Z" fill="url(#paint4_linear_566_1186)"/>
<path d="M91.5567 61.869H88.2764C87.9577 61.869 87.6992 61.6106 87.6992 61.2918V61.0587C87.6992 60.7399 87.9577 60.4815 88.2764 60.4815H91.5567C91.8755 60.4815 92.1339 60.7399 92.1339 61.0587V61.2918C92.1339 61.6106 91.8755 61.869 91.5567 61.869Z" fill="#C4DCFE"/>
<path opacity="0.5" d="M65.6394 131.391L66.165 131.946C67.2016 133.04 68.6428 133.66 70.15 133.66H109.748C111.508 133.66 113.161 132.816 114.193 131.391H65.6394Z" fill="#C4DCFE"/>
<path d="M57.717 123.506H16.0949C15.088 123.506 14.2717 124.322 14.2717 125.329V142.805C14.2717 143.812 15.088 144.628 16.0949 144.628H55.6395L59.5402 147.114V125.329C59.5402 124.322 58.7239 123.506 57.717 123.506Z" fill="#479DFF"/>
<path d="M6.41321 97.0756H48.0357C49.0426 97.0756 49.8588 97.8919 49.8588 98.8988V116.375C49.8588 117.382 49.0426 118.198 48.0357 118.198H8.49071L4.59009 120.684V98.8988C4.59009 97.8919 5.40634 97.0756 6.41321 97.0756Z" fill="url(#paint5_linear_566_1186)"/>
<path d="M57.717 69.5662H16.0949C15.088 69.5662 14.2717 70.3825 14.2717 71.3893V88.8656C14.2717 89.8725 15.088 90.6887 16.0949 90.6887H55.6395L59.5402 93.175V71.3893C59.5402 70.3822 58.7239 69.5662 57.717 69.5662Z" fill="#479DFF"/>
<path d="M57.717 12.2606H16.0949C15.088 12.2606 14.2717 13.0769 14.2717 14.0837V31.56C14.2717 32.5669 15.088 33.3831 16.0949 33.3831H55.6395L59.5402 35.8694V14.0837C59.5402 13.0769 58.7239 12.2606 57.717 12.2606Z" fill="#479DFF"/>
<path d="M6.41321 43.1362H48.0357C49.0426 43.1362 49.8588 43.9525 49.8588 44.9594V62.4356C49.8588 63.4425 49.0426 64.2587 48.0357 64.2587H8.49071L4.59009 66.745V44.9594C4.59009 43.9522 5.40634 43.1362 6.41321 43.1362Z" fill="url(#paint6_linear_566_1186)"/>
<g opacity="0.6">
<path d="M27.9222 28.114H21.591C20.9069 28.114 20.3525 27.5597 20.3525 26.8756V26.6531C20.3525 25.969 20.9069 25.4147 21.591 25.4147H27.9222C28.6063 25.4147 29.1607 25.969 29.1607 26.6531V26.8756C29.1607 27.5594 28.6063 28.114 27.9222 28.114Z" fill="white"/>
<path d="M44.2196 28.114H32.8078C32.1237 28.114 31.5693 27.5597 31.5693 26.8756V26.6531C31.5693 25.969 32.1237 25.4147 32.8078 25.4147H44.2196C44.9037 25.4147 45.4581 25.969 45.4581 26.6531V26.8756C45.4581 27.5594 44.9034 28.114 44.2196 28.114Z" fill="white"/>
<path d="M38.0785 20.3534H21.591C20.9069 20.3534 20.3525 19.7991 20.3525 19.115V18.8925C20.3525 18.2084 20.9069 17.6541 21.591 17.6541H38.0782C38.7622 17.6541 39.3166 18.2084 39.3166 18.8925V19.115C39.3166 19.7987 38.7622 20.3534 38.0785 20.3534Z" fill="white"/>
<path d="M53.5307 20.3534H43.8654C43.1813 20.3534 42.627 19.7991 42.627 19.115V18.8925C42.627 18.2084 43.1813 17.6541 43.8654 17.6541H53.5307C54.2148 17.6541 54.7691 18.2084 54.7691 18.8925V19.115C54.7691 19.7987 54.2148 20.3534 53.5307 20.3534Z" fill="white"/>
</g>
<g opacity="0.6">
<path d="M27.9222 84.9175H21.591C20.9069 84.9175 20.3525 84.3631 20.3525 83.6791V83.4566C20.3525 82.7725 20.9069 82.2181 21.591 82.2181H27.9222C28.6063 82.2181 29.1607 82.7725 29.1607 83.4566V83.6791C29.1607 84.3631 28.6063 84.9175 27.9222 84.9175Z" fill="white"/>
<path d="M44.2196 84.9175H32.8078C32.1237 84.9175 31.5693 84.3631 31.5693 83.6791V83.4566C31.5693 82.7725 32.1237 82.2181 32.8078 82.2181H44.2196C44.9037 82.2181 45.4581 82.7725 45.4581 83.4566V83.6791C45.4581 84.3631 44.9034 84.9175 44.2196 84.9175Z" fill="white"/>
<path d="M38.0785 77.1569H21.591C20.9069 77.1569 20.3525 76.6025 20.3525 75.9185V75.696C20.3525 75.0119 20.9069 74.4575 21.591 74.4575H38.0782C38.7622 74.4575 39.3166 75.0119 39.3166 75.696V75.9185C39.3166 76.6025 38.7622 77.1569 38.0785 77.1569Z" fill="white"/>
<path d="M53.5307 77.1569H43.8654C43.1813 77.1569 42.627 76.6025 42.627 75.9185V75.696C42.627 75.0119 43.1813 74.4575 43.8654 74.4575H53.5307C54.2148 74.4575 54.7691 75.0119 54.7691 75.696V75.9185C54.7691 76.6025 54.2148 77.1569 53.5307 77.1569Z" fill="white"/>
</g>
<g opacity="0.6">
<path d="M27.9222 139.236H21.591C20.9069 139.236 20.3525 138.682 20.3525 137.998V137.775C20.3525 137.091 20.9069 136.537 21.591 136.537H27.9222C28.6063 136.537 29.1607 137.091 29.1607 137.775V137.998C29.1607 138.682 28.6063 139.236 27.9222 139.236Z" fill="white"/>
<path d="M44.2196 139.236H32.8078C32.1237 139.236 31.5693 138.682 31.5693 137.998V137.775C31.5693 137.091 32.1237 136.537 32.8078 136.537H44.2196C44.9037 136.537 45.4581 137.091 45.4581 137.775V137.998C45.4581 138.682 44.9034 139.236 44.2196 139.236Z" fill="white"/>
<path d="M38.0785 131.475H21.591C20.9069 131.475 20.3525 130.921 20.3525 130.237V130.014C20.3525 129.33 20.9069 128.776 21.591 128.776H38.0782C38.7622 128.776 39.3166 129.33 39.3166 130.014V130.237C39.3166 130.921 38.7622 131.475 38.0785 131.475Z" fill="white"/>
<path d="M53.5307 131.475H43.8654C43.1813 131.475 42.627 130.921 42.627 130.237V130.014C42.627 129.33 43.1813 128.776 43.8654 128.776H53.5307C54.2148 128.776 54.7691 129.33 54.7691 130.014V130.237C54.7691 130.921 54.2148 131.475 53.5307 131.475Z" fill="white"/>
</g>
<g opacity="0.8">
<path d="M17.5858 58.6906H11.2546C10.5705 58.6906 10.0161 58.1362 10.0161 57.4521V57.2296C10.0161 56.5456 10.5705 55.9912 11.2546 55.9912H17.5858C18.2699 55.9912 18.8242 56.5456 18.8242 57.2296V57.4521C18.8242 58.1362 18.2699 58.6906 17.5858 58.6906Z" fill="white"/>
<path d="M33.8833 58.6906H22.4711C21.787 58.6906 21.2327 58.1362 21.2327 57.4521V57.2296C21.2327 56.5456 21.787 55.9912 22.4711 55.9912H33.883C34.567 55.9912 35.1214 56.5456 35.1214 57.2296V57.4521C35.1217 58.1362 34.567 58.6906 33.8833 58.6906Z" fill="white"/>
<path d="M27.7417 50.93H11.2546C10.5705 50.93 10.0161 50.3756 10.0161 49.6915V49.469C10.0161 48.785 10.5705 48.2306 11.2546 48.2306H27.7417C28.4258 48.2306 28.9802 48.785 28.9802 49.469V49.6915C28.9802 50.3756 28.4258 50.93 27.7417 50.93Z" fill="white"/>
<path d="M43.1943 50.93H33.529C32.8449 50.93 32.2905 50.3756 32.2905 49.6915V49.469C32.2905 48.785 32.8449 48.2306 33.529 48.2306H43.1943C43.8783 48.2306 44.4327 48.785 44.4327 49.469V49.6915C44.4327 50.3756 43.8783 50.93 43.1943 50.93Z" fill="white"/>
</g>
<g opacity="0.8">
<path d="M17.5858 113.214H11.2546C10.5705 113.214 10.0161 112.66 10.0161 111.976V111.753C10.0161 111.069 10.5705 110.515 11.2546 110.515H17.5858C18.2699 110.515 18.8242 111.069 18.8242 111.753V111.976C18.8242 112.659 18.2699 113.214 17.5858 113.214Z" fill="white"/>
<path d="M33.8833 113.214H22.4711C21.787 113.214 21.2327 112.66 21.2327 111.976V111.753C21.2327 111.069 21.787 110.515 22.4711 110.515H33.883C34.567 110.515 35.1214 111.069 35.1214 111.753V111.976C35.1217 112.659 34.567 113.214 33.8833 113.214Z" fill="white"/>
<path d="M27.7417 105.453H11.2546C10.5705 105.453 10.0161 104.899 10.0161 104.215V103.992C10.0161 103.308 10.5705 102.754 11.2546 102.754H27.7417C28.4258 102.754 28.9802 103.308 28.9802 103.992V104.215C28.9802 104.899 28.4258 105.453 27.7417 105.453Z" fill="white"/>
<path d="M43.1943 105.453H33.529C32.8449 105.453 32.2905 104.899 32.2905 104.215V103.992C32.2905 103.308 32.8449 102.754 33.529 102.754H43.1943C43.8783 102.754 44.4327 103.308 44.4327 103.992V104.215C44.4327 104.899 43.8783 105.453 43.1943 105.453Z" fill="white"/>
</g>
<path d="M102.587 106.97C102.133 106.517 101.414 106.397 100.696 106.654L99.7194 107.004C98.9688 107.274 98.3388 107.912 98.0819 108.664C97.7282 109.699 96.6948 110.469 95.6791 110.458C93.5126 110.434 89.7248 109.761 85.891 106.085C82.2151 102.251 81.5419 98.4631 81.5179 96.2965C81.5066 95.2809 82.2763 94.2475 83.3113 93.8937C84.0635 93.6365 84.7023 93.0068 84.9713 92.2562L85.3216 91.2797C85.5791 90.5615 85.4591 89.8425 85.0057 89.389L81.3479 85.7309C80.876 85.259 80.1188 85.1493 79.3763 85.4456L79.0469 85.5768C75.6288 86.9397 73.2379 90.5362 73.6138 93.8253C74.4607 101.232 80.7357 108.28 82.2501 109.726C83.6957 111.24 90.7441 117.515 98.1507 118.362C101.44 118.738 105.036 116.347 106.399 112.929L106.53 112.6C106.826 111.858 106.716 111.1 106.245 110.628L102.587 106.97Z" fill="white"/>
<path d="M100.491 101.434C100.497 101.434 100.503 101.434 100.509 101.434C101.364 101.434 102.062 100.747 102.071 99.8903C102.073 99.8565 102.073 99.8225 102.073 99.7881C102.073 94.1828 97.5131 89.6228 91.9078 89.6228C91.8956 89.6228 91.8728 89.6231 91.8559 89.6234C91.0028 89.635 90.3147 90.33 90.3147 91.1859C90.3147 92.0491 91.0144 92.7484 91.8772 92.7484C91.8875 92.7484 91.9063 92.7481 91.9219 92.7478C95.7975 92.7553 98.9485 95.9109 98.9485 99.7762L98.9466 99.8531C98.9366 100.716 99.6284 101.424 100.491 101.434Z" fill="white"/>
<path d="M91.877 81.8334C91.0142 81.8334 90.3298 82.5328 90.3298 83.3959C90.3298 84.2587 91.0448 84.9581 91.9076 84.9581C100.085 84.9581 106.738 91.6106 106.737 99.8031L106.737 99.8703C106.737 100.733 107.436 101.425 108.299 101.425C109.162 101.425 109.862 100.718 109.862 99.8553L109.862 99.7881C109.863 89.8875 101.808 81.8331 91.877 81.8334Z" fill="white"/>
<path d="M91.877 72.9381C91.0142 72.9381 90.3298 73.6375 90.3298 74.5003C90.3298 75.3634 91.0448 76.0628 91.9076 76.0628C104.99 76.0628 115.633 86.7059 115.632 99.8044L115.632 99.8619C115.627 100.725 116.323 101.419 117.186 101.424C117.189 101.424 117.192 101.424 117.195 101.424C118.054 101.424 118.752 100.721 118.757 99.8612L118.758 99.7881C118.758 84.9828 106.713 72.9378 91.877 72.9381Z" fill="white"/>
<defs>
<linearGradient id="paint0_linear_566_1186" x1="148.014" y1="31.812" x2="3.19255" y2="184.968" gradientUnits="userSpaceOnUse">
<stop stop-color="#99C1F9"/>
<stop offset="1" stop-color="#C4DCFE"/>
</linearGradient>
<linearGradient id="paint1_linear_566_1186" x1="155.368" y1="19.7945" x2="15.2694" y2="167.956" gradientUnits="userSpaceOnUse">
<stop stop-color="#7DA7FF"/>
<stop offset="1" stop-color="#3276E2"/>
</linearGradient>
<linearGradient id="paint2_linear_566_1186" x1="35.2357" y1="94.192" x2="144.597" y2="94.192" gradientUnits="userSpaceOnUse">
<stop stop-color="#3047A8"/>
<stop offset="1" stop-color="#2F2F5B"/>
</linearGradient>
<linearGradient id="paint3_linear_566_1186" x1="24.7429" y1="135.529" x2="155.09" y2="135.529" gradientUnits="userSpaceOnUse">
<stop stop-color="#3379DB"/>
<stop offset="1" stop-color="#2257BB"/>
</linearGradient>
<linearGradient id="paint4_linear_566_1186" x1="54.5885" y1="53.6672" x2="123.416" y2="135.605" gradientUnits="userSpaceOnUse">
<stop stop-color="#3379DB"/>
<stop offset="1" stop-color="#2257BB"/>
</linearGradient>
<linearGradient id="paint5_linear_566_1186" x1="49.8586" y1="108.88" x2="4.59009" y2="108.88" gradientUnits="userSpaceOnUse">
<stop stop-color="#B9D3FF"/>
<stop offset="1" stop-color="#D9E8FE"/>
</linearGradient>
<linearGradient id="paint6_linear_566_1186" x1="49.8586" y1="54.9404" x2="4.59009" y2="54.9404" gradientUnits="userSpaceOnUse">
<stop stop-color="#B9D3FF"/>
<stop offset="1" stop-color="#D9E8FE"/>
</linearGradient>
</defs>
</svg>
