<svg width="160" height="160" viewBox="0 0 160 160" fill="none" xmlns="http://www.w3.org/2000/svg">
<path d="M149.889 102.132H10.1733V31.8731C10.1733 29.1988 12.3412 27.0309 15.0155 27.0309H145.047C147.721 27.0309 149.889 29.1988 149.889 31.8731V102.132Z" fill="url(#paint0_linear_566_1284)"/>
<path d="M103.664 139.548H56.3984C60.105 139.548 63.11 136.544 63.11 132.837V119.545H96.9531V132.837C96.9528 136.544 99.9578 139.548 103.664 139.548Z" fill="url(#paint1_linear_566_1284)"/>
<path d="M125.225 142.437H34.838C34.0789 142.437 33.4636 141.822 33.4636 141.063V140.923C33.4636 140.164 34.0789 139.549 34.838 139.549H125.225C125.984 139.549 126.599 140.164 126.599 140.923V141.063C126.599 141.822 125.984 142.437 125.225 142.437Z" fill="#3772D1"/>
<path d="M10.1733 102.132V114.458C10.1733 117.268 12.4512 119.546 15.2612 119.546H144.802C147.612 119.546 149.89 117.268 149.89 114.458V102.132H10.1733Z" fill="url(#paint2_linear_566_1284)"/>
<path d="M82.0409 111.905H78.0215C77.4612 111.905 77.0068 111.45 77.0068 110.89V110.787C77.0068 110.227 77.4612 109.773 78.0215 109.773H82.0409C82.6012 109.773 83.0556 110.227 83.0556 110.787V110.89C83.0559 111.45 82.6015 111.905 82.0409 111.905Z" fill="#C4DCFE"/>
<path d="M154.421 76.7422C151.569 75.5785 151.549 71.5481 154.388 70.3547C156.148 69.615 156.975 67.5885 156.235 65.8281L156.153 65.6335C155.413 63.8735 153.387 63.0463 151.626 63.7863C148.787 64.9797 145.922 62.1447 147.086 59.2931C147.808 57.5253 146.959 55.5075 145.192 54.7863L144.996 54.7066C143.228 53.985 141.21 54.8335 140.489 56.601C139.325 59.4525 135.295 59.4735 134.102 56.6344C133.362 54.8744 131.335 54.0472 129.575 54.7872L129.38 54.8691C127.62 55.6088 126.793 57.6353 127.533 59.3956C128.727 62.2347 125.892 65.0997 123.04 63.936C121.272 63.2144 119.254 64.0628 118.533 65.8303L118.454 66.026C117.732 67.7938 118.58 69.8116 120.348 70.5328C123.199 71.6966 123.22 75.7269 120.381 76.9203C118.621 77.66 117.794 79.6866 118.534 81.4469L118.616 81.6416C119.356 83.4016 121.382 84.2288 123.143 83.4888C125.982 82.2953 128.847 85.1303 127.683 87.9819C126.961 89.7497 127.81 91.7675 129.577 92.4888L129.773 92.5685C131.541 93.29 133.559 92.4416 134.28 90.6741C135.444 87.8225 139.474 87.8016 140.667 90.6406C141.407 92.4006 143.434 93.2278 145.194 92.4878L145.389 92.406C147.149 91.6663 147.976 89.6397 147.236 87.8794C146.042 85.0403 148.877 82.1753 151.729 83.3391C153.497 84.0606 155.514 83.2122 156.236 81.4447L156.315 81.2491C157.037 79.4816 156.189 77.4638 154.421 76.7422ZM134.665 80.3016C130.939 78.781 129.151 74.5275 130.672 70.8013C132.192 67.075 136.446 65.2872 140.172 66.8078C143.898 68.3285 145.686 72.5819 144.165 76.3078C142.645 80.0338 138.391 81.8222 134.665 80.3016Z" fill="url(#paint3_linear_566_1284)"/>
<path d="M73.997 35.0275H16.8064V38.8069H73.997V35.0275Z" fill="url(#paint4_linear_566_1284)"/>
<path d="M73.997 43.9094H16.8064V47.6888H73.997V43.9094Z" fill="url(#paint5_linear_566_1284)"/>
<path d="M73.997 52.7913H16.8064V56.5706H73.997V52.7913Z" fill="url(#paint6_linear_566_1284)"/>
<path d="M117.597 50.3325C115.827 49.61 115.814 47.1081 117.576 46.3672C118.669 45.9078 119.182 44.6497 118.723 43.5572L118.672 43.4362C118.213 42.3437 116.955 41.8303 115.862 42.2894C114.1 43.0303 112.321 41.2703 113.044 39.5C113.491 38.4025 112.965 37.15 111.868 36.7022L111.746 36.6528C110.649 36.205 109.396 36.7316 108.949 37.8287C108.226 39.5991 105.724 39.6119 104.983 37.8494C104.524 36.7569 103.266 36.2434 102.173 36.7025L102.052 36.7534C100.96 37.2128 100.446 38.4709 100.905 39.5634C101.646 41.3259 99.8863 43.1044 98.116 42.3822C97.0185 41.9344 95.766 42.4609 95.3182 43.5581L95.2685 43.6794C94.8207 44.7769 95.3473 46.0294 96.4445 46.4772C98.2148 47.1997 98.2279 49.7016 96.4651 50.4425C95.3726 50.9019 94.8592 52.16 95.3182 53.2525L95.3692 53.3734C95.8285 54.4659 97.0867 54.9794 98.1792 54.5203C99.9417 53.7794 101.72 55.5394 100.998 57.3097C100.55 58.4072 101.077 59.6597 102.174 60.1075L102.295 60.1569C103.393 60.6047 104.645 60.0781 105.093 58.9809C105.815 57.2106 108.317 57.1978 109.058 58.9603C109.518 60.0528 110.776 60.5662 111.868 60.1072L111.989 60.0562C113.082 59.5969 113.595 58.3387 113.136 57.2463C112.395 55.4837 114.155 53.7053 115.925 54.4275C117.023 54.8753 118.275 54.3487 118.723 53.2516L118.773 53.1303C119.221 52.0331 118.694 50.7803 117.597 50.3325ZM105.332 52.5422C103.019 51.5981 101.909 48.9575 102.853 46.6444C103.797 44.3312 106.438 43.2212 108.751 44.1653C111.064 45.1094 112.174 47.75 111.23 50.0631C110.286 52.3762 107.645 53.4862 105.332 52.5422Z" fill="url(#paint7_linear_566_1284)"/>
<path d="M65.2906 102.132C65.0228 101.003 64.8768 99.8281 64.8768 98.6181C64.8768 90.2484 71.6618 83.4634 80.0315 83.4634C88.4012 83.4634 95.1862 90.2484 95.1862 98.6181C95.1862 99.8281 95.0403 101.003 94.7725 102.132H121.76C122.212 101.191 122.465 100.136 122.465 99.0228V98.5837C122.465 94.6131 119.246 91.3944 115.276 91.3944H115.275C108.87 91.3944 105.663 83.6503 110.192 79.1212C112.999 76.3137 112.999 71.7615 110.192 68.9537L109.881 68.6434C107.073 65.8356 102.522 65.8356 99.7137 68.6434C95.1846 73.1725 87.4406 69.965 87.4406 63.5597C87.4406 59.5891 84.2218 56.3703 80.2512 56.3703H79.8121C75.8415 56.3703 72.6228 59.5891 72.6228 63.5597C72.6228 69.9647 64.8787 73.1725 60.3496 68.6434C57.5418 65.8356 52.9899 65.8356 50.1821 68.6434L49.8715 68.9537C47.064 71.7615 47.064 76.3134 49.8715 79.1212C54.4006 83.6503 51.1931 91.3944 44.7878 91.3944C40.8171 91.3944 37.5984 94.6131 37.5984 98.5837V99.0228C37.5984 100.136 37.8518 101.191 38.3037 102.132H65.2906Z" fill="url(#paint8_linear_566_1284)"/>
<path d="M61.497 35.0275H16.8064V38.8069H61.497V35.0275Z" fill="url(#paint9_linear_566_1284)"/>
<path d="M29.3064 43.9094H16.8064V47.6888H29.3064V43.9094Z" fill="url(#paint10_linear_566_1284)"/>
<path d="M55.7117 52.7913H16.8064V56.5706H55.7117V52.7913Z" fill="url(#paint11_linear_566_1284)"/>
<defs>
<linearGradient id="paint0_linear_566_1284" x1="144.112" y1="29.086" x2="13.1006" y2="103.727" gradientUnits="userSpaceOnUse">
<stop stop-color="#3047A8"/>
<stop offset="1" stop-color="#2F2F5B"/>
</linearGradient>
<linearGradient id="paint1_linear_566_1284" x1="80.0313" y1="140.742" x2="80.0313" y2="120.251" gradientUnits="userSpaceOnUse">
<stop stop-color="#2A6BC2"/>
<stop offset="1" stop-color="#194FAB"/>
</linearGradient>
<linearGradient id="paint2_linear_566_1284" x1="157.049" y1="101.61" x2="8.16987" y2="118.911" gradientUnits="userSpaceOnUse">
<stop stop-color="#3379DB"/>
<stop offset="1" stop-color="#2257BB"/>
</linearGradient>
<linearGradient id="paint3_linear_566_1284" x1="117.118" y1="86.5804" x2="148.702" y2="66.4229" gradientUnits="userSpaceOnUse">
<stop stop-color="#B9D3FF"/>
<stop offset="1" stop-color="#D9E8FE"/>
</linearGradient>
<linearGradient id="paint4_linear_566_1284" x1="14.4179" y1="51.2398" x2="69.0911" y2="25.9663" gradientUnits="userSpaceOnUse">
<stop stop-color="#3379DB"/>
<stop offset="1" stop-color="#2257BB"/>
</linearGradient>
<linearGradient id="paint5_linear_566_1284" x1="17.4961" y1="58.6988" x2="98.4058" y2="21.2972" gradientUnits="userSpaceOnUse">
<stop stop-color="#3379DB"/>
<stop offset="1" stop-color="#2257BB"/>
</linearGradient>
<linearGradient id="paint6_linear_566_1284" x1="23.1795" y1="64.9535" x2="85.5512" y2="36.1212" gradientUnits="userSpaceOnUse">
<stop stop-color="#3379DB"/>
<stop offset="1" stop-color="#2257BB"/>
</linearGradient>
<linearGradient id="paint7_linear_566_1284" x1="94.4392" y1="56.4406" x2="114.047" y2="43.9267" gradientUnits="userSpaceOnUse">
<stop stop-color="#B9D3FF"/>
<stop offset="1" stop-color="#D9E8FE"/>
</linearGradient>
<linearGradient id="paint8_linear_566_1284" x1="58.3223" y1="124.351" x2="95.1711" y2="72.2141" gradientUnits="userSpaceOnUse">
<stop stop-color="#B9D3FF"/>
<stop offset="1" stop-color="#D9E8FE"/>
</linearGradient>
<linearGradient id="paint9_linear_566_1284" x1="14.7392" y1="48.2021" x2="57.8169" y2="28.2889" gradientUnits="userSpaceOnUse">
<stop stop-color="#479DFF"/>
<stop offset="1" stop-color="#86C8FF"/>
</linearGradient>
<linearGradient id="paint10_linear_566_1284" x1="16.3109" y1="48.9173" x2="35.8692" y2="39.8762" gradientUnits="userSpaceOnUse">
<stop stop-color="#479DFF"/>
<stop offset="1" stop-color="#86C8FF"/>
</linearGradient>
<linearGradient id="paint11_linear_566_1284" x1="20.9313" y1="61.7664" x2="63.9524" y2="41.8793" gradientUnits="userSpaceOnUse">
<stop stop-color="#479DFF"/>
<stop offset="1" stop-color="#86C8FF"/>
</linearGradient>
</defs>
</svg>
