<svg width="160" height="160" viewBox="0 0 160 160" fill="none" xmlns="http://www.w3.org/2000/svg">
<path d="M137.99 131.512H12.1953C9.95656 131.512 8.125 129.68 8.125 127.441V31.6984C8.125 29.4597 9.95656 27.6281 12.1953 27.6281H137.99C140.229 27.6281 142.06 29.4597 142.06 31.6984V127.441C142.06 129.68 140.228 131.512 137.99 131.512Z" fill="url(#paint0_linear_566_1427)"/>
<path opacity="0.7" d="M143.49 137.012H17.6956C15.4568 137.012 13.6252 135.18 13.6252 132.942V37.199C13.6252 34.9603 15.4568 33.1287 17.6956 33.1287H143.49C145.729 33.1287 147.561 34.9603 147.561 37.199V132.942C147.561 135.18 145.729 137.012 143.49 137.012Z" fill="url(#paint1_linear_566_1427)"/>
<path d="M151.247 144.143H23.4197C21.1809 144.143 19.3494 142.312 19.3494 140.073V54.7885H155.318V140.073C155.318 142.312 153.486 144.143 151.247 144.143Z" fill="url(#paint2_linear_566_1427)"/>
<path d="M150.751 38.6828H23.9159C21.4043 38.6828 19.3496 40.7378 19.3496 43.2491V54.7884H155.318V43.2491C155.318 40.7375 153.263 38.6828 150.751 38.6828Z" fill="url(#paint3_linear_566_1427)"/>
<path d="M29.9767 49.7378C31.2719 49.7378 32.322 48.6878 32.322 47.3925C32.322 46.0972 31.2719 45.0472 29.9767 45.0472C28.6814 45.0472 27.6313 46.0972 27.6313 47.3925C27.6313 48.6878 28.6814 49.7378 29.9767 49.7378Z" fill="#76CBFD"/>
<path d="M39.1241 49.7378C40.4194 49.7378 41.4694 48.6878 41.4694 47.3925C41.4694 46.0972 40.4194 45.0472 39.1241 45.0472C37.8288 45.0472 36.7788 46.0972 36.7788 47.3925C36.7788 48.6878 37.8288 49.7378 39.1241 49.7378Z" fill="#63C3FF"/>
<path d="M48.2713 49.7378C49.5666 49.7378 50.6167 48.6878 50.6167 47.3925C50.6167 46.0972 49.5666 45.0472 48.2713 45.0472C46.9761 45.0472 45.926 46.0972 45.926 47.3925C45.926 48.6878 46.9761 49.7378 48.2713 49.7378Z" fill="#76CBFD"/>
<g opacity="0.8">
<path d="M79.0441 64.4378H29.9766V114.721H79.0441V64.4378Z" fill="white"/>
<path d="M136.912 94.0525H87.5042V114.72H136.912V94.0525Z" fill="white"/>
<path d="M95.8353 84.3978H88.8222C88.0944 84.3978 87.5044 83.8078 87.5044 83.08V82.7587C87.5044 82.0309 88.0944 81.4409 88.8222 81.4409H95.8353C96.5631 81.4409 97.1531 82.0309 97.1531 82.7587V83.08C97.1531 83.8078 96.5631 84.3978 95.8353 84.3978Z" fill="white"/>
<path d="M113.688 84.3978H101.109C100.381 84.3978 99.7915 83.8078 99.7915 83.08V82.7587C99.7915 82.0309 100.381 81.4409 101.109 81.4409H113.688C114.416 81.4409 115.006 82.0309 115.006 82.7587V83.08C115.006 83.8078 114.416 84.3978 113.688 84.3978Z" fill="white"/>
<path d="M106.961 75.8963H88.8222C88.0944 75.8963 87.5044 75.3063 87.5044 74.5785V74.2572C87.5044 73.5294 88.0944 72.9394 88.8222 72.9394H106.961C107.689 72.9394 108.279 73.5294 108.279 74.2572V74.5785C108.279 75.3063 107.689 75.8963 106.961 75.8963Z" fill="white"/>
<path d="M135.594 75.8963H113.223C112.495 75.8963 111.905 75.3063 111.905 74.5785V74.2572C111.905 73.5294 112.495 72.9394 113.223 72.9394H135.594C136.322 72.9394 136.912 73.5294 136.912 74.2572V74.5785C136.912 75.3063 136.322 75.8963 135.594 75.8963Z" fill="white"/>
<path d="M135.594 67.3947H88.8222C88.0944 67.3947 87.5044 66.8047 87.5044 66.0769V65.7556C87.5044 65.0278 88.0944 64.4378 88.8222 64.4378H135.594C136.322 64.4378 136.912 65.0278 136.912 65.7556V66.0769C136.912 66.8047 136.322 67.3947 135.594 67.3947Z" fill="white"/>
<path d="M49.4334 132.322H31.2946C30.5668 132.322 29.9768 131.732 29.9768 131.004V130.683C29.9768 129.955 30.5668 129.365 31.2946 129.365H49.4334C50.1612 129.365 50.7512 129.955 50.7512 130.683V131.004C50.7512 131.732 50.1612 132.322 49.4334 132.322Z" fill="white"/>
<path d="M78.0661 132.322H55.6955C54.9677 132.322 54.3777 131.732 54.3777 131.004V130.683C54.3777 129.955 54.9677 129.365 55.6955 129.365H78.0661C78.7939 129.365 79.3839 129.955 79.3839 130.683V131.004C79.3839 131.732 78.7939 132.322 78.0661 132.322Z" fill="white"/>
<path d="M78.0662 123.82H31.2946C30.5668 123.82 29.9768 123.23 29.9768 122.502V122.181C29.9768 121.453 30.5668 120.863 31.2946 120.863H78.0662C78.794 120.863 79.384 121.453 79.384 122.181V122.502C79.384 123.23 78.794 123.82 78.0662 123.82Z" fill="white"/>
</g>
<path d="M87.3337 121.874C104.157 121.874 117.795 108.236 117.795 91.4128C117.795 74.5897 104.157 60.9518 87.3337 60.9518C70.5106 60.9518 56.8728 74.5897 56.8728 91.4128C56.8728 108.236 70.5106 121.874 87.3337 121.874Z" fill="url(#paint4_linear_566_1427)"/>
<mask id="path-19-inside-1_566_1427" fill="white">
<path fill-rule="evenodd" clip-rule="evenodd" d="M86.8671 70.0794C86.7877 70.1664 86.7384 70.5044 86.7341 70.9926C86.7319 71.233 86.7433 71.2759 86.8337 71.3695C86.9218 71.4606 86.9293 71.4869 86.8888 71.5619C86.837 71.6578 86.8688 72.0518 86.9314 72.0902C86.9848 72.1229 86.9763 72.4499 86.9211 72.4837C86.8948 72.4998 86.8663 72.489 86.8562 72.459C86.8259 72.3689 86.6603 72.225 86.6058 72.2414C85.9894 72.4261 85.8037 72.4913 85.5889 72.5982C85.1699 72.8067 85.02 72.9358 84.8843 73.2049C84.7758 73.4201 84.7614 73.4873 84.7614 73.7792C84.7614 74.0517 84.785 74.1794 84.8955 74.5054C85.0182 74.8677 85.2247 75.3626 85.3131 75.5065C85.4779 75.7749 85.5501 76.0058 85.5738 76.3408C85.5985 76.6877 85.5959 76.7032 85.4963 76.8206C85.4396 76.8873 85.2555 77.0326 85.0872 77.1434C84.7571 77.3608 83.152 78.1819 83.1198 78.1499C83.109 78.1393 83.2237 77.8956 83.3746 77.6084C83.6934 77.0016 83.7703 76.7242 83.7014 76.4286C83.6036 76.0086 83.3886 75.8335 82.7802 75.6786C82.3436 75.5675 82.2179 75.5623 82.1618 75.653C82.1099 75.7368 82.1415 75.452 82.2237 75.0963C82.306 74.7402 82.2966 74.2867 82.2047 74.1742C82.1334 74.0869 82.1224 74.0852 81.931 74.1338C81.8078 74.1651 81.6515 74.1746 81.522 74.1585C81.3468 74.1368 81.3019 74.1444 81.2493 74.2043C81.1613 74.3046 81.1313 74.5967 81.1814 74.8674C81.2046 74.9933 81.2262 75.1674 81.2293 75.2543C81.2323 75.3412 81.2675 75.4617 81.3074 75.5222C81.4045 75.669 81.3321 75.7572 81.2236 75.6243L81.15 75.5343L80.7787 75.6395C80.3452 75.7624 80.0125 75.9057 79.8803 76.0263C79.688 76.2018 79.6357 76.4671 79.7226 76.8271C79.771 77.0275 80.0526 77.6348 80.1955 77.8469L80.2853 77.9802L79.9385 77.9538C79.473 77.9183 79.1713 77.8003 79.075 77.6159C79.0151 77.5014 79.0064 77.4124 79.0214 77.069C79.0365 76.7227 79.0677 76.5676 79.2213 76.0729C79.4311 75.3975 79.4693 75.1418 79.4058 74.8384C79.3539 74.5904 79.2326 74.4544 78.819 74.1807C78.2151 73.7808 77.6824 73.6254 77.3891 73.7633C77.2189 73.8434 76.9863 74.0664 76.7439 74.3819C76.4758 74.7309 76.3313 74.8279 75.8777 74.9633C75.2412 75.1533 75.1669 75.1872 74.9754 75.3744C74.8477 75.4991 74.7755 75.6117 74.7337 75.7513C74.6057 76.1788 74.6669 76.4078 75.0306 76.8623C75.2512 77.1378 75.3035 77.2289 75.2952 77.3229L75.2849 77.4401L74.861 77.4441C74.5041 77.4474 74.4239 77.4598 74.3532 77.5222C74.0939 77.7512 74.1079 78.2342 74.3816 78.5056C74.5521 78.6747 74.6691 78.6646 74.7341 78.4753C74.7718 78.3654 74.7996 78.3402 74.8754 78.3471C75.5082 78.4046 75.6459 78.4043 75.7873 78.3454C75.8685 78.3117 75.935 78.2963 75.9348 78.3113C75.9348 78.3263 75.8909 78.444 75.8373 78.5729C75.6606 78.9981 75.72 79.3916 76.0004 79.6545C76.1126 79.7596 76.5015 79.9586 76.5963 79.9593C76.6826 79.96 76.693 79.8537 76.6177 79.74C76.5641 79.6588 76.5458 79.556 76.5458 79.3354C76.5458 79.0507 76.5534 79.0264 76.7486 78.6891C76.9485 78.3439 77.0065 78.1582 77.0595 77.694C77.0822 77.4955 77.0689 77.4447 76.885 77.0273C76.6015 76.3837 76.5787 76.2507 76.6834 75.8502C76.7298 75.6726 76.7747 75.5205 76.783 75.5122C76.7914 75.5039 76.8817 75.4817 76.9836 75.4627C77.0855 75.4439 77.3125 75.3652 77.4879 75.2878C78.0077 75.0586 77.984 75.0523 77.984 75.4192C77.984 75.6666 77.9517 75.8426 77.8284 76.2661C77.6196 76.9838 77.6075 77.085 77.6883 77.4447C77.7465 77.7043 77.7801 77.7709 77.9361 77.9363C78.2779 78.2984 78.676 78.5372 79.1267 78.6502C79.2676 78.6855 79.4475 78.7311 79.5266 78.7515C79.6766 78.7903 79.7317 78.8585 79.6801 78.9413C79.6633 78.9682 79.5275 79.0134 79.3783 79.0417C78.7776 79.156 78.4525 79.3461 78.2824 79.6827C78.0728 80.0975 78.0572 80.5002 78.2362 80.8709C78.3472 81.1006 78.4403 81.2163 78.5689 81.2845C78.6473 81.3261 78.6936 81.3108 78.9575 81.1551C79.3126 80.9455 79.5918 80.8785 79.9739 80.9109C80.2885 80.9375 80.7137 81.0167 80.6866 81.0435C80.6766 81.0534 80.5384 81.076 80.3793 81.0936C80.1808 81.1157 79.8885 81.2009 79.4466 81.3654C79.0927 81.4972 78.7193 81.6148 78.6168 81.6269C78.3319 81.6603 78.0318 81.5572 77.7918 81.3433L77.5906 81.164L77.5509 81.2675C77.4888 81.4294 77.5057 81.7606 77.5849 81.9324C77.6841 82.1476 77.9776 82.4054 78.1873 82.4614C78.2857 82.4877 78.5208 82.5006 78.7409 82.4918L79.1233 82.4766L79.5067 82.215C79.7175 82.0711 79.8969 81.9602 79.9053 81.9685C79.9137 81.9769 79.8948 82.0337 79.8633 82.0948C79.7723 82.2713 79.7492 82.4413 79.7938 82.6055C79.8479 82.8049 79.9873 82.9298 80.1848 82.9561C80.363 82.9798 80.3413 83.015 80.4299 82.5574C80.4937 82.2278 80.5195 82.1942 80.8145 82.0564C81.0566 81.9434 81.1082 81.934 81.4712 81.9368C81.7671 81.939 81.9291 81.9612 82.1214 82.0258C82.2623 82.073 82.5111 82.1219 82.6743 82.1344L82.9711 82.1572L83.3312 82.6893C83.5293 82.982 83.766 83.3763 83.8573 83.5654L84.0232 83.9094L84.0049 84.5064C83.9893 85.0162 83.9741 85.129 83.9008 85.2791C83.8089 85.4671 83.4331 85.8027 83.2659 85.8457C83.2127 85.8595 82.991 85.85 82.7734 85.8247C82.24 85.7626 82.2315 85.7732 82.3813 86.3145C82.4566 86.5867 82.6058 86.7244 82.967 86.855C83.1305 86.9141 83.2641 86.9787 83.2641 86.9985C83.2641 87.0653 82.8964 87.1964 82.6558 87.2153C82.3483 87.2395 82.1533 87.1851 81.8495 86.9905C81.7146 86.904 81.5872 86.8436 81.5667 86.8562C81.4249 86.943 81.2755 87.4933 81.3005 87.8361C81.3266 88.1928 81.4492 88.4 81.7724 88.633C81.9238 88.7422 82.0407 88.8525 82.0322 88.8781C82.0062 88.9559 81.6037 89.1375 81.3597 89.1814C80.9396 89.257 80.3485 89.1052 80.0384 88.842C79.8472 88.6798 79.7298 88.473 79.6799 88.2105C79.6302 87.9496 79.7241 87.7635 80.1037 87.3705C80.3421 87.1238 80.4306 87.0007 80.4838 86.8419C80.5686 86.5886 80.5733 86.2347 80.4943 86.0472C80.4259 85.8851 79.7727 85.1664 79.4243 84.87C79.0196 84.5257 78.2142 83.6392 77.7936 83.075C77.3574 82.4899 77.3072 82.4573 77.1307 82.6453L77.0299 82.7527L76.8765 82.5769C76.5605 82.2147 76.0526 81.4886 75.8388 81.0932C75.7171 80.8681 75.6003 80.6669 75.5793 80.6461C75.5546 80.6216 75.4767 80.6392 75.359 80.6959C75.2588 80.7441 75.1731 80.7784 75.1686 80.772C75.1308 80.719 73.7434 78.5544 73.6214 78.3581C73.3598 77.9373 73.0674 77.4046 72.6349 76.5612C72.4091 76.1208 72.206 75.7384 72.1835 75.7116C72.1236 75.64 71.9534 75.6523 71.8107 75.7385C71.6445 75.839 71.3959 76.1711 71.2371 76.5049L71.1081 76.776L71.1097 77.4206C71.1112 78.004 71.1217 78.1018 71.2209 78.452C71.2812 78.6648 71.4015 78.9988 71.4883 79.1942C71.575 79.3896 71.6724 79.6089 71.7047 79.6815L71.7635 79.8134L71.6294 79.701C71.5556 79.6392 71.2858 79.4084 71.0297 79.1882C70.6498 78.8615 70.5412 78.7878 70.4391 78.7878C70.2872 78.7878 70.1807 78.8911 70.056 79.1594C69.9777 79.3276 69.9656 79.4154 69.9668 79.8034C69.9678 80.1026 69.991 80.3359 70.0363 80.5018C70.1332 80.8569 70.3808 81.3609 70.6351 81.7206C70.7553 81.8908 70.84 82.0298 70.8233 82.0294C70.8066 82.0291 70.651 81.9852 70.4776 81.9318C70.2437 81.8597 70.0739 81.8347 69.819 81.8347C69.5065 81.8347 69.4715 81.8424 69.4297 81.9199C69.3677 82.0346 69.4093 82.4953 69.5069 82.7764C69.6172 83.0941 69.7349 83.255 70.1614 83.6707C70.3708 83.8748 70.5573 84.0689 70.5758 84.102C70.6059 84.1556 70.5298 84.1605 69.8897 84.1462C69.05 84.1275 69 84.1404 69 84.3765C69 84.7861 69.6257 85.5476 70.3672 86.0406C70.6611 86.236 70.6682 86.2314 70.012 86.2704C69.6309 86.2931 69.5566 86.3102 69.3098 86.4327C69.158 86.5079 69.0235 86.5961 69.0109 86.6286C68.9726 86.7276 69.1884 87.105 69.4257 87.3536C69.8646 87.8137 70.2722 88.0692 70.7929 88.2109L70.9899 88.2645L70.7141 88.3331C70.2815 88.4407 69.4695 88.9722 69.4411 89.1663C69.4319 89.2288 69.4983 89.3026 69.7144 89.4702C70.1495 89.8077 70.4967 89.9964 70.8388 90.0811C71.0075 90.1229 71.1637 90.1754 71.1859 90.1979C71.2496 90.2622 71.0291 90.4285 70.8793 90.4292C70.7226 90.4299 70.6819 90.4562 70.6038 90.6076C70.5695 90.6738 70.4795 90.8016 70.4036 90.8917C70.2165 91.1138 70.195 91.1964 70.2966 91.3036C70.3796 91.3912 70.4103 91.5614 70.343 91.5614C70.3231 91.5614 70.2241 91.5263 70.123 91.4833C69.82 91.3545 69.813 91.3601 69.8378 91.7079C69.8841 92.3571 69.9884 92.528 70.5845 92.9313C71.1181 93.2923 71.4355 93.5468 71.4642 93.6363C71.4781 93.6796 71.5688 93.8037 71.666 93.9121C71.7631 94.0205 71.8694 94.1652 71.9023 94.2335C71.9352 94.3019 72.0077 94.3834 72.0634 94.4147C72.1468 94.4616 72.3548 94.9126 73.2405 96.967C74.2993 99.4231 74.3153 99.4641 74.2565 99.5768C74.2073 99.6712 74.205 99.7166 74.2438 99.8354C74.3272 100.091 74.4696 100.337 74.5732 100.404C74.6479 100.453 74.6741 100.503 74.6741 100.599C74.6741 100.78 74.7677 101.069 74.8666 101.194C74.9139 101.253 74.9499 101.355 74.9499 101.43C74.9499 101.525 74.9879 101.603 75.0885 101.713C75.2314 101.87 75.3834 102.235 75.3834 102.422C75.3834 102.481 75.3538 102.553 75.3177 102.582C75.1589 102.712 74.9453 103.03 74.8895 103.221C74.8345 103.408 74.8347 103.442 74.8916 103.583C74.9261 103.669 74.9977 103.776 75.0507 103.822C75.1253 103.886 75.147 103.943 75.147 104.076C75.147 104.29 75.2459 104.421 75.5044 104.551C75.6631 104.631 75.7113 104.682 75.7811 104.843C75.8746 105.058 75.9893 105.145 76.3187 105.251C76.5623 105.33 76.6837 105.463 76.6837 105.653C76.6837 105.87 76.7901 106.035 77.1192 106.329C77.4455 106.621 77.5715 106.679 77.8772 106.679C78.0284 106.679 78.087 106.658 78.1689 106.577C78.2699 106.477 78.271 106.47 78.2463 106.07C78.2316 105.831 78.2383 105.585 78.2627 105.472C78.3017 105.291 78.2962 105.265 78.1689 105.013C77.9622 104.604 77.9606 104.59 78.1107 104.502C78.1819 104.46 78.4783 104.287 78.7693 104.117C79.1307 103.906 79.3211 103.77 79.3698 103.688C79.424 103.597 79.4955 103.552 79.6681 103.499C79.793 103.46 79.9331 103.405 79.9796 103.376C80.026 103.347 80.1811 103.296 80.3242 103.263C80.4672 103.23 80.6508 103.176 80.7322 103.142C80.851 103.092 81.1014 103.076 82.0032 103.059C82.6208 103.048 83.1919 103.022 83.2722 103.002C83.4558 102.956 83.6417 102.804 83.6753 102.671C83.708 102.542 83.6436 102.348 83.4756 102.072C83.3182 101.814 83.3156 101.796 83.4343 101.796C83.5833 101.796 83.9153 101.685 84.0271 101.598C84.1444 101.506 84.3152 101.234 84.3895 101.021C84.4621 100.812 84.416 100.78 84.0375 100.78C83.6366 100.78 83.4672 100.734 83.3255 100.587C83.2423 100.501 83.2139 100.433 83.2139 100.321C83.2139 100.123 83.403 99.7091 83.5487 99.5876C83.9123 99.2843 84.7041 99.3265 85.1099 99.6708C85.3114 99.8418 85.5598 100.323 85.6258 100.669C85.7138 101.131 85.6348 101.258 84.9114 101.811C84.5392 102.096 84.4544 102.207 84.3288 102.577L84.2295 102.869L83.2641 103.507C82.1307 104.257 81.9653 104.345 81.802 104.289C81.6445 104.234 81.6289 104.198 81.6289 103.887C81.6289 103.627 81.6237 103.612 81.5188 103.562C81.419 103.514 81.3855 103.52 81.1554 103.626C81.016 103.691 80.8128 103.827 80.7038 103.928C80.5435 104.076 80.4906 104.16 80.4269 104.364C80.2902 104.803 80.331 105.102 80.5703 105.413L80.6782 105.553L80.4929 105.722C80.2461 105.946 80.1363 106.195 80.1382 106.525C80.14 106.837 80.2244 107.107 80.451 107.524C80.5885 107.778 80.6187 107.867 80.5993 107.964C80.5859 108.03 80.5964 108.136 80.6228 108.199C80.7146 108.419 80.7733 108.394 81.2028 107.952C81.4235 107.724 81.6119 107.538 81.6214 107.538C81.6309 107.538 81.6492 107.587 81.6621 107.646C81.7361 107.986 82.2299 108.506 82.565 108.596C82.8506 108.672 83.1584 108.62 83.5307 108.43L83.863 108.261L83.928 108.351C84.2401 108.78 84.5459 109.068 84.8602 109.227C85.1507 109.373 85.7123 109.335 86.2118 109.135L86.421 109.051L86.8817 109.526C87.177 109.83 87.3711 110.001 87.4223 110C87.5755 109.998 87.9446 109.682 88.2546 109.286C88.3514 109.163 88.4531 109.062 88.4806 109.062C88.5081 109.062 88.636 109.104 88.7647 109.156C89.1466 109.31 89.4313 109.346 89.7047 109.275C89.8325 109.242 90.0221 109.169 90.126 109.113C90.3067 109.016 90.7607 108.58 90.9292 108.343L91.0092 108.23L91.3263 108.392C91.6292 108.547 91.6592 108.554 91.9993 108.554C92.4138 108.554 92.4933 108.515 92.9069 108.113C93.0827 107.942 93.1822 107.804 93.2592 107.625L93.3664 107.375L93.4942 107.626C93.6205 107.874 94.0077 108.28 94.1184 108.28C94.1533 108.28 94.175 108.202 94.1862 108.036C94.1998 107.835 94.2341 107.738 94.3834 107.48C94.6268 107.059 94.667 106.918 94.6686 106.484C94.6702 106.068 94.6402 105.985 94.3765 105.683C94.2895 105.584 94.2183 105.496 94.2183 105.489C94.2183 105.482 94.2732 105.36 94.3403 105.218C94.5043 104.871 94.5289 104.582 94.4189 104.293C94.2684 103.898 93.9927 103.656 93.5743 103.551C93.2542 103.471 93.1021 103.575 93.2517 103.771C93.3352 103.88 93.3286 104.152 93.2405 104.231C93.0269 104.422 92.7939 104.344 92.0599 103.834C91.7842 103.642 91.3236 103.333 91.0365 103.148C90.6898 102.924 90.5144 102.788 90.5144 102.742C90.5144 102.586 90.4013 102.257 90.2956 102.106C90.2337 102.017 90.0138 101.815 89.8069 101.657C89.134 101.143 89.0486 100.867 89.3693 100.239C89.4312 100.118 89.5573 99.9177 89.6497 99.7944C89.8771 99.4909 90.0594 99.4056 90.486 99.4032C91.0603 99.3998 91.3254 99.538 91.5176 99.9407C91.6268 100.17 91.6411 100.311 91.5741 100.502C91.5116 100.68 91.4152 100.715 90.9281 100.739L90.4947 100.761L90.483 101.004C90.4716 101.24 90.4756 101.252 90.6316 101.419C90.8346 101.638 91.1129 101.758 91.4799 101.785L91.7645 101.806L91.7312 101.948C91.7129 102.025 91.6623 102.203 91.6187 102.343C91.513 102.682 91.5129 102.912 91.6185 102.968C91.6681 102.995 91.9116 103.006 92.2654 102.999C92.8141 102.988 92.8361 102.99 92.9311 103.079C93.0113 103.154 93.1983 103.205 93.9489 103.36C94.4547 103.464 95.0369 103.585 95.2428 103.629C95.4487 103.673 95.684 103.709 95.7657 103.709C95.9847 103.71 96.3482 103.85 97.2721 104.288C97.7272 104.504 98.1777 104.701 98.2733 104.726C98.5596 104.8 98.8904 104.697 99.1148 104.463C99.2165 104.357 99.2372 104.351 99.43 104.376C99.5435 104.39 99.7546 104.389 99.8993 104.373C100.136 104.348 100.193 104.323 100.465 104.126C100.631 104.005 100.873 103.869 101.002 103.822C101.25 103.732 101.39 103.6 101.39 103.455C101.39 103.398 101.494 103.26 101.681 103.069C101.859 102.887 102.029 102.664 102.118 102.496C102.208 102.325 102.298 102.208 102.355 102.187C102.422 102.161 102.453 102.11 102.474 101.989C102.489 101.9 102.544 101.764 102.596 101.688C102.715 101.514 102.715 101.425 102.592 101.265C102.537 101.195 102.493 101.114 102.493 101.085C102.493 100.956 102.197 100.197 102.076 100.016C101.851 99.6797 101.457 99.3516 100.971 99.095C100.586 98.8916 100.606 98.9121 100.71 98.8343C100.796 98.77 100.798 98.7563 100.773 98.2102C100.747 97.6542 100.746 97.6514 100.632 97.5559C100.522 97.4638 100.494 97.4599 99.9559 97.4599H99.3949L99.287 97.5716L99.1791 97.6833L99.1913 98.265C99.1981 98.5849 99.2186 98.8775 99.237 98.915C99.2627 98.9677 99.2534 98.9834 99.1961 98.9834C99.0735 98.9834 98.5634 99.2441 98.3143 99.4341C97.9893 99.6821 97.7319 100.075 97.5953 100.531C97.5624 100.641 97.5073 100.785 97.4727 100.851C97.4382 100.918 97.4097 101.012 97.4094 101.062C97.4091 101.111 97.3818 101.229 97.3487 101.323C97.2973 101.469 97.2957 101.537 97.3375 101.783C97.3805 102.037 97.4021 102.084 97.5159 102.17C97.5871 102.224 97.6638 102.302 97.6862 102.344C97.7447 102.452 97.6529 102.646 97.4671 102.808L97.3155 102.94L96.7662 102.914C96.2184 102.888 96.2151 102.887 95.4836 102.632C95.0803 102.491 94.5995 102.303 94.4153 102.213C94.1144 102.066 94.0674 102.028 93.9523 101.837C93.7949 101.575 93.7932 101.547 93.9395 101.631C94.0486 101.693 94.059 101.692 94.1365 101.623C94.1815 101.582 94.2183 101.522 94.2183 101.489C94.2183 101.448 94.2582 101.467 94.3464 101.551C94.5546 101.751 94.8643 101.82 95.0243 101.704C95.1036 101.647 95.1026 101.638 94.97 101.193C94.9256 101.044 94.8975 100.914 94.9076 100.904C94.9177 100.894 95.0371 100.936 95.173 100.998C95.3804 101.091 95.4693 101.108 95.726 101.106C95.9847 101.103 96.0554 101.087 96.1839 101.003C96.3209 100.913 96.6613 100.472 96.6613 100.384C96.6613 100.338 96.5332 100.29 96.2628 100.235C95.9827 100.179 95.8555 100.057 95.8618 99.8514C95.8643 99.7715 95.8786 99.4336 95.8936 99.1006C95.9187 98.5428 95.9144 98.4782 95.8384 98.2803C95.7363 98.014 95.4526 97.6512 95.2179 97.4865C94.9997 97.3335 94.6376 97.1912 94.4592 97.1885L94.3258 97.1865L94.3499 97.0121C94.3814 96.7843 94.342 96.765 93.9406 96.8122C93.7172 96.8384 93.5568 96.8364 93.4082 96.8055C93.1727 96.7565 92.918 96.6487 92.918 96.5979C92.918 96.5799 92.9978 96.5302 93.0953 96.4874C93.1928 96.4446 93.2726 96.3862 93.2726 96.3575C93.2726 96.3289 93.1993 96.2093 93.1096 96.0917C92.8564 95.7596 92.8392 95.6943 92.8392 95.0676C92.8392 94.4315 92.8949 93.9064 92.9798 93.7438C93.0749 93.5615 93.1838 93.5651 93.6234 93.7648C93.8406 93.8635 94.0434 93.9443 94.0741 93.9443C94.1189 93.9443 94.1355 94.0731 94.1579 94.5986C94.1733 94.9584 94.2008 95.3759 94.2191 95.5263C94.2485 95.7683 94.2672 95.8121 94.3815 95.9071C94.5771 96.0696 95.1014 96.3271 95.2369 96.3271C95.368 96.3271 95.7564 96.1198 96.021 95.9087C96.1583 95.7991 96.1885 95.7512 96.1885 95.6432C96.1885 95.41 96.2518 95.4626 96.3828 95.8045C96.5704 96.2941 96.6235 96.3383 97.2288 96.5084C97.5926 96.6107 97.755 96.6404 97.8001 96.6129C97.8348 96.5918 97.9566 96.4441 98.0709 96.2848C98.1852 96.1254 98.3044 95.9592 98.336 95.9153C98.3676 95.8715 98.4071 95.7419 98.4238 95.6273L98.4542 95.419L98.6022 95.6321C98.8684 96.0154 98.8954 96.0303 99.3528 96.0469C99.9892 96.0699 99.9845 96.0726 100.275 95.5242C100.41 95.2675 100.522 95.0119 100.522 94.9562C100.523 94.9004 100.455 94.751 100.373 94.6242C100.138 94.2624 100.14 94.2666 100.23 94.334C100.272 94.3657 100.437 94.5132 100.598 94.6618L100.89 94.932L101.438 94.9104C102.118 94.8837 102.118 94.8838 102.152 94.4412C102.166 94.2645 102.188 93.9994 102.203 93.8519L102.229 93.5838L102.408 93.6038C102.707 93.6372 103.211 93.4654 103.547 93.2152C103.674 93.1211 103.675 93.116 103.675 92.7953C103.675 92.2956 103.621 92.0775 103.453 91.9069L103.31 91.7622L103.463 91.739C103.876 91.6762 104.718 91.3497 104.762 91.2353C104.812 91.1072 104.5 90.7491 103.961 90.3146C103.847 90.2229 103.754 90.1342 103.754 90.1175C103.754 90.1008 103.878 90.075 104.029 90.0602C104.418 90.0223 104.785 89.8319 105.157 89.4763C105.347 89.2944 105.448 89.1674 105.448 89.1109C105.448 89.0516 105.371 88.9624 105.202 88.8283C104.859 88.5551 104.472 88.3675 104.186 88.3354C104.057 88.3209 103.951 88.2977 103.951 88.2837C103.951 88.2698 104.071 88.2277 104.217 88.1902C104.705 88.0651 105.359 87.6304 105.514 87.3278C105.548 87.2607 105.609 87.1748 105.649 87.1368C105.69 87.0988 105.751 86.9702 105.786 86.8509C105.846 86.6474 105.845 86.6293 105.78 86.5582C105.672 86.4399 105.234 86.3235 104.818 86.3027C104.109 86.2672 104.121 86.2843 104.589 85.978C105.124 85.6275 105.517 85.2609 105.783 84.864C105.967 84.5897 106 84.5138 106 84.3615C106 84.1857 105.997 84.1814 105.852 84.151C105.771 84.1339 105.404 84.1249 105.036 84.131L104.368 84.1422L104.465 84.0334C104.518 83.9735 104.669 83.8103 104.8 83.6707C105.231 83.213 105.356 82.9837 105.527 82.3338C105.601 82.0555 105.608 81.9821 105.567 81.9334C105.497 81.8492 105.174 81.8565 104.589 81.9557C104.322 82.0008 104.094 82.029 104.084 82.0182C104.073 82.0074 104.147 81.887 104.249 81.7506C104.475 81.4503 104.871 80.6525 104.954 80.3323C105.031 80.0395 105.031 79.7678 104.956 79.4154C104.877 79.0403 104.801 78.8744 104.685 78.822C104.533 78.7535 104.43 78.8021 104.068 79.1127C103.599 79.5159 103.037 79.9597 102.996 79.9597C102.977 79.9597 103.112 79.674 103.296 79.3249C103.803 78.3623 103.844 78.2201 103.864 77.3395C103.88 76.6236 103.879 76.6111 103.78 76.4173C103.725 76.3092 103.63 76.1625 103.57 76.0912C103.427 75.9235 103.01 75.6563 102.913 75.6709C102.858 75.6792 102.778 75.8184 102.615 76.1901C102.22 77.0859 101.535 78.2811 100.699 79.53C100.255 80.1929 99.829 80.7399 99.7299 80.7744C99.7078 80.7821 99.6469 80.7484 99.5945 80.6997C99.5004 80.612 99.4982 80.6118 99.4156 80.6857C99.3696 80.7268 99.247 80.9282 99.1431 81.1332C98.8951 81.6228 98.5174 82.1785 98.231 82.4751L98.0008 82.7136L97.9108 82.6062C97.7278 82.3878 97.689 82.4165 96.8466 83.3929C96.4224 83.8847 95.7324 84.6363 95.3135 85.0632C94.8946 85.49 94.5131 85.9013 94.4659 85.977C94.3329 86.1904 94.2866 86.4517 94.3496 86.6332C94.3785 86.7164 94.5568 87.0068 94.7457 87.2786C95.1348 87.8382 95.2411 88.0448 95.2411 88.2411C95.2411 88.5585 94.9574 88.9025 94.5389 89.0924C94.281 89.2095 93.8103 89.2338 93.5052 89.1458C93.3219 89.093 92.9572 88.8485 92.9275 88.7587C92.9187 88.7318 92.9706 88.6791 93.0428 88.6415C93.4143 88.448 93.6582 88.01 93.6078 87.6267C93.5024 86.824 93.2731 86.5306 93.0654 86.9325C92.952 87.1521 92.8687 87.196 92.5707 87.1933C92.1512 87.1894 91.5389 87.0212 91.5389 86.9099C91.5389 86.8961 91.6341 86.875 91.7505 86.8631C92.0237 86.8352 92.2477 86.7201 92.4001 86.5294C92.5512 86.3402 92.6028 86.2089 92.6028 86.0133C92.6028 85.8107 92.5386 85.782 92.1064 85.7914C91.709 85.8001 91.5107 85.7341 91.2489 85.5062C91.0018 85.2911 90.9412 85.125 90.8981 84.5431L90.8599 84.0288L91.1621 83.4278C91.3284 83.0972 91.5726 82.6827 91.7049 82.5065L91.9454 82.1863H92.2148C92.395 82.1863 92.5659 82.1571 92.7307 82.0984C93.0465 81.9857 93.6846 81.9769 94.0284 82.0804C94.3532 82.1782 94.4738 82.315 94.5553 82.678C94.6278 83.001 94.6813 83.0539 94.8442 82.9633C95.0164 82.8675 95.1245 82.6677 95.1252 82.4442C95.1255 82.3346 95.1396 82.2233 95.1565 82.197C95.1894 82.1456 95.2581 82.1753 95.6138 82.3948C95.9886 82.6261 96.6503 82.6199 97.0294 82.3816C97.3435 82.1841 97.5443 81.6923 97.4385 81.3795C97.3551 81.1327 97.2839 81.1275 97.0792 81.3531C96.8539 81.6015 96.7305 81.6533 96.4155 81.6315C96.2257 81.6184 96.0552 81.5645 95.6763 81.398C95.4054 81.2789 95.0507 81.1503 94.8882 81.1122C94.7256 81.0742 94.567 81.0295 94.5357 81.0131C94.453 80.9697 94.9419 80.925 95.309 80.9423C95.5801 80.9551 95.6585 80.9777 95.9611 81.1299L96.3051 81.3029L96.4019 81.2128C96.4551 81.1632 96.5619 81.0034 96.6391 80.8577C96.7686 80.6134 96.7796 80.5666 96.7796 80.2552C96.7796 79.8318 96.7184 79.7026 96.366 79.3825C96.0513 79.0967 95.9306 79.0372 95.5938 79.0023C95.3606 78.9781 95.3269 78.9634 95.2648 78.8593C95.2268 78.7955 95.2019 78.7388 95.2094 78.7332C95.217 78.7277 95.3626 78.7024 95.5331 78.6772C95.742 78.6461 95.9282 78.5872 96.1044 78.4963C96.2482 78.4222 96.4471 78.3254 96.5464 78.2813C96.7757 78.1796 97.1553 77.8086 97.2157 77.6272C97.2977 77.3809 97.2381 76.6913 97.0798 76.0554C96.9089 75.3689 96.86 75.0137 96.9412 75.0486C97.2356 75.1752 97.8598 75.4071 98.0011 75.4425C98.1706 75.485 98.1806 75.4955 98.2285 75.6823C98.3717 76.2396 98.3339 76.5044 98.0113 77.2024C97.7287 77.8137 97.7335 77.8857 98.1083 78.6867C98.3429 79.188 98.346 79.2112 98.2535 79.7937L98.2271 79.9597H98.3715C98.4509 79.9597 98.5754 79.935 98.6481 79.9049C98.818 79.8345 99.0914 79.5897 99.1726 79.4353C99.2467 79.2943 99.2506 78.8713 99.1806 78.5818C99.1554 78.4779 99.1413 78.3895 99.1492 78.3853C99.157 78.3811 99.3713 78.3831 99.6253 78.3897L100.087 78.4018L100.193 78.5948C100.251 78.701 100.316 78.7878 100.337 78.7878C100.408 78.7878 100.653 78.497 100.733 78.3192C100.839 78.0819 100.84 77.8461 100.737 77.7091C100.587 77.5097 100.469 77.4516 100.149 77.4206C99.6852 77.3756 99.6292 77.2546 99.9107 76.9061C100.274 76.4565 100.357 76.1673 100.232 75.7926C100.105 75.414 99.8306 75.1823 99.3374 75.0368C98.8017 74.8788 98.6138 74.7574 98.0994 74.2365C97.5305 73.6605 97.448 73.6211 97.0269 73.7241C96.7561 73.7903 96.5023 73.9355 95.9368 74.3475C95.4623 74.6933 95.4061 75.0136 95.6717 75.8592C95.9987 76.9003 96.0323 77.3292 95.8087 77.6047C95.5872 77.8775 95.4726 77.9284 95.0794 77.9284C94.8875 77.9284 94.7306 77.9232 94.7306 77.9168C94.7306 77.9104 94.8275 77.6965 94.9459 77.4413C95.297 76.685 95.3107 76.4326 95.0191 76.0949C94.8502 75.8994 94.5035 75.7211 94.2153 75.6818C94.1087 75.6673 94.0114 75.6395 93.9993 75.62C93.967 75.5681 93.6903 75.5768 93.6351 75.6315C93.5984 75.6679 93.5879 75.6603 93.5879 75.5972C93.5879 75.5526 93.6108 75.4972 93.6389 75.4741C93.6759 75.4436 93.6925 75.262 93.6995 74.8113C93.7104 74.105 93.691 74.0484 93.4691 74.1395C93.3886 74.1726 93.2628 74.1798 93.0797 74.1619C92.6954 74.1244 92.6711 74.1548 92.695 74.6426C92.7222 75.1961 92.7491 75.3797 92.8174 75.4763C92.8511 75.524 92.8783 75.5986 92.878 75.6422C92.8775 75.7033 92.8695 75.7089 92.8425 75.6667C92.782 75.572 92.2442 75.633 91.867 75.7773C91.3648 75.9694 91.1554 76.2552 91.1925 76.6981C91.2104 76.9121 91.4325 77.4234 91.6622 77.7795C91.749 77.9141 91.7771 77.9996 91.768 78.1023L91.7556 78.2421L90.9478 77.8068C89.9748 77.2825 89.574 77.0321 89.4083 76.8451C89.2853 76.7062 89.2841 76.7005 89.3017 76.3692C89.3188 76.045 89.3295 76.0137 89.62 75.4284C89.9904 74.682 90.1176 74.3099 90.1479 73.8839C90.1765 73.4826 90.1246 73.2789 89.9297 73.0273C89.7321 72.7721 89.4248 72.5963 88.8015 72.3818L88.2729 72.2L88.1173 72.3543C87.874 72.5954 87.7927 72.4473 87.9586 72.065C88.0266 71.9083 88.0382 71.8262 88.0186 71.64C87.9959 71.4248 88.0011 71.4039 88.0956 71.3302L88.197 71.2511L88.1834 70.6894C88.168 70.0502 88.1396 69.9734 87.9357 70.0187C87.7051 70.07 87.1964 70.0843 87.1525 70.0408C87.0844 69.9733 86.947 69.9919 86.8671 70.0794ZM88.4918 77.3007C88.9977 77.6572 89.6572 78.0812 89.9233 78.2211C90.2761 78.4066 90.2251 78.4327 89.689 78.341C89.1856 78.2549 89.0564 78.259 89.0564 78.361C89.0564 78.4712 89.4634 78.8876 89.7066 79.0263L89.9036 79.1386L89.6212 79.139C89.4658 79.1392 89.3107 79.15 89.2764 79.1631C89.0941 79.2324 89.3357 79.5017 89.7547 79.696L90.0036 79.8115L89.796 79.9562C89.4039 80.2294 88.8507 80.4166 88.2093 80.4932C87.9619 80.5227 87.9321 80.5355 87.9204 80.6172C87.8939 80.8026 88.1612 80.9363 88.5584 80.9363C88.6554 80.9363 88.7625 80.9468 88.7964 80.9597C88.8709 80.988 88.8405 81.0547 88.6204 81.3464C88.2165 81.8816 87.7993 82.8983 87.5573 83.937C87.5106 84.1372 87.4677 84.2954 87.4619 84.2886C87.456 84.2817 87.3693 83.9942 87.269 83.6495C86.979 82.6527 86.7777 82.1757 86.3347 81.436C86.2062 81.2216 86.1012 81.0398 86.1012 81.032C86.1012 81.0243 86.1677 81.0068 86.2489 80.9933C86.6002 80.9349 86.8037 80.8051 86.8661 80.5997C86.8878 80.5282 86.8712 80.5138 86.7425 80.4927C86.6607 80.4793 86.5398 80.4682 86.4739 80.4679C86.408 80.4677 86.252 80.4411 86.1273 80.4089C85.8435 80.3356 84.919 79.8929 84.9191 79.8303C84.9192 79.8048 85.0349 79.7139 85.1763 79.6283C85.4829 79.4426 85.729 79.206 85.6864 79.1377C85.6651 79.1035 85.5635 79.0957 85.328 79.1103L84.9993 79.1306L85.2251 78.9849C85.4832 78.8185 85.8391 78.4568 85.8144 78.3861C85.8023 78.3513 85.6585 78.3412 85.2796 78.3483C84.9946 78.3536 84.7614 78.3504 84.7614 78.341C84.7614 78.3317 84.9609 78.2057 85.2047 78.061C85.4486 77.9164 85.8309 77.6736 86.0544 77.5214C86.278 77.3693 86.4996 77.2223 86.547 77.1948C86.6114 77.1573 86.8434 77.1475 87.4673 77.1557L88.3015 77.1667L88.4918 77.3007ZM81.8697 93.7268C81.9651 93.8323 82.0333 94.2066 82.0696 94.8232C82.1002 95.3434 82.0357 95.705 81.8459 96.0773C81.678 96.4068 81.6794 96.5031 81.8525 96.5375C82.0096 96.5686 81.9809 96.6386 81.7663 96.747C81.5801 96.8412 81.2769 96.8579 80.8072 96.7998C80.5393 96.7667 80.5146 96.7915 80.576 97.0314C80.6203 97.2044 80.6323 97.1956 80.2891 97.2417C80.0606 97.2724 79.6546 97.4897 79.4539 97.6887C79.3583 97.7835 79.2183 97.9825 79.1429 98.1309L79.0058 98.4008L79.0433 99.2488C79.0877 100.255 79.1049 100.211 78.6269 100.308C78.3458 100.365 78.3179 100.379 78.3072 100.47C78.2798 100.703 78.6943 100.975 79.1235 101.005C79.3581 101.022 79.684 100.97 79.9247 100.877C80.0299 100.836 80.0148 101.075 79.8951 101.343C79.8409 101.464 79.7966 101.598 79.7966 101.64C79.7966 101.77 79.968 101.778 80.3172 101.664C80.6139 101.567 80.6371 101.564 80.6836 101.627C80.7305 101.691 80.7421 101.691 80.892 101.624C81.0823 101.539 81.1363 101.563 81.1363 101.734C81.1363 101.881 81.1784 101.859 79.9916 102.317C78.9149 102.732 78.6126 102.773 78.1791 102.562C77.9435 102.447 77.9192 102.418 77.7226 102.024C77.6512 101.882 77.5437 101.726 77.4835 101.679C77.3652 101.587 77.2995 101.588 76.8091 101.684C76.6359 101.719 76.5399 101.721 76.4939 101.693C76.3806 101.625 76.2898 101.397 76.2897 101.182C76.2897 100.994 76.2799 100.973 76.1715 100.917C76.0682 100.864 76.0532 100.835 76.0532 100.69C76.0532 100.54 76.0318 100.503 75.8355 100.311C75.6018 100.082 75.5649 99.9943 75.5225 99.5681C75.4917 99.2586 75.4685 99.2172 75.307 99.1844C75.1893 99.1605 75.1634 99.1215 74.9142 98.5926C74.7675 98.2812 74.5141 97.7539 74.351 97.4209C74.188 97.0879 73.9523 96.5957 73.8273 96.3271C73.7023 96.0585 73.5048 95.6501 73.3884 95.4196C73.272 95.1889 73.1768 94.9824 73.1768 94.9606C73.1768 94.9365 73.3229 94.9208 73.5486 94.9208C73.753 94.9208 73.966 94.9036 74.0217 94.8826C74.0775 94.8616 74.3473 94.6379 74.6212 94.3855L75.1193 93.9265L74.909 94.2577C74.7934 94.4398 74.6556 94.6647 74.6028 94.7574L74.5069 94.926L74.6168 95.1871C74.8198 95.6696 74.9504 95.8995 75.0406 95.9335C75.089 95.9518 75.3322 95.9786 75.5811 95.9932L76.0335 96.0198L76.2306 95.7447C76.3389 95.5933 76.4781 95.412 76.5398 95.3417C76.6453 95.2213 76.6505 95.2196 76.6279 95.3115C76.5381 95.6763 76.5438 95.7032 76.7951 96.0939C77.1659 96.6704 77.1043 96.6209 77.3844 96.5663C78.154 96.4162 78.2184 96.3595 78.5214 95.566C78.7699 94.9154 78.8039 94.8922 78.8088 95.3701C78.8128 95.7586 78.8824 95.8734 79.2646 96.1219C79.438 96.2346 79.6065 96.3263 79.639 96.3255C79.6715 96.3248 79.902 96.24 80.1512 96.1371L80.6044 95.95L80.6515 95.7637C80.6774 95.6613 80.7184 95.2583 80.7426 94.8683C80.7777 94.3032 80.7991 94.1512 80.848 94.12C80.8817 94.0986 81.061 93.97 81.2464 93.8343C81.6162 93.5639 81.7082 93.548 81.8697 93.7268ZM85.5018 103.603C85.4326 103.715 85.2185 104.032 85.026 104.305C84.8336 104.579 84.6001 104.948 84.5073 105.126C84.3464 105.433 84.3323 105.448 84.2052 105.448H84.0719L84.0806 105.242C84.0935 104.936 84.1994 104.744 84.5679 104.358C84.8816 104.029 85.5655 103.398 85.6079 103.398C85.6188 103.398 85.571 103.49 85.5018 103.603ZM89.767 103.891C90.5795 104.552 90.9666 105.135 90.7601 105.388C90.7186 105.439 90.667 105.469 90.6452 105.456C90.6235 105.443 90.5102 105.277 90.3934 105.089C90.2766 104.9 90.0027 104.499 89.7847 104.198C89.5668 103.898 89.3724 103.625 89.3528 103.593C89.3092 103.521 89.3359 103.54 89.767 103.891ZM86.7687 104.064C86.7468 104.202 86.6685 104.597 86.5947 104.941C86.4282 105.716 86.3212 106.347 86.2401 107.03C86.1576 107.728 86.1407 107.812 86.0831 107.812C86.0153 107.812 85.9134 107.569 85.845 107.245C85.7658 106.87 85.7709 106.745 85.8828 106.318C86.0254 105.774 86.7539 103.758 86.7937 103.798C86.8018 103.806 86.7906 103.925 86.7687 104.064ZM88.7664 105.52L89.0653 106.338L89.0497 106.85C89.0373 107.258 89.0184 107.394 88.9566 107.519C88.8131 107.808 88.8074 107.791 88.6462 106.62C88.5929 106.233 88.4595 105.5 88.3497 104.99C88.24 104.48 88.151 104.041 88.152 104.014C88.1551 103.93 88.4512 104.656 88.7664 105.52ZM83.3232 106.484C83.4082 106.526 83.5139 106.562 83.5581 106.562C83.6023 106.562 83.6797 106.574 83.73 106.587C83.806 106.607 83.8172 106.629 83.7958 106.713C83.7816 106.769 83.7644 106.821 83.7576 106.828C83.7227 106.862 83.2536 106.732 83.227 106.68C83.1913 106.611 83.1386 106.405 83.1565 106.405C83.1632 106.405 83.2382 106.441 83.3232 106.484ZM91.6965 106.575C91.6965 106.738 91.6173 106.81 91.353 106.887L91.1475 106.947L91.1225 106.815C91.0855 106.62 91.1075 106.593 91.364 106.52C91.6941 106.426 91.6965 106.427 91.6965 106.575Z"/>
</mask>
<path fill-rule="evenodd" clip-rule="evenodd" d="M86.8671 70.0794C86.7877 70.1664 86.7384 70.5044 86.7341 70.9926C86.7319 71.233 86.7433 71.2759 86.8337 71.3695C86.9218 71.4606 86.9293 71.4869 86.8888 71.5619C86.837 71.6578 86.8688 72.0518 86.9314 72.0902C86.9848 72.1229 86.9763 72.4499 86.9211 72.4837C86.8948 72.4998 86.8663 72.489 86.8562 72.459C86.8259 72.3689 86.6603 72.225 86.6058 72.2414C85.9894 72.4261 85.8037 72.4913 85.5889 72.5982C85.1699 72.8067 85.02 72.9358 84.8843 73.2049C84.7758 73.4201 84.7614 73.4873 84.7614 73.7792C84.7614 74.0517 84.785 74.1794 84.8955 74.5054C85.0182 74.8677 85.2247 75.3626 85.3131 75.5065C85.4779 75.7749 85.5501 76.0058 85.5738 76.3408C85.5985 76.6877 85.5959 76.7032 85.4963 76.8206C85.4396 76.8873 85.2555 77.0326 85.0872 77.1434C84.7571 77.3608 83.152 78.1819 83.1198 78.1499C83.109 78.1393 83.2237 77.8956 83.3746 77.6084C83.6934 77.0016 83.7703 76.7242 83.7014 76.4286C83.6036 76.0086 83.3886 75.8335 82.7802 75.6786C82.3436 75.5675 82.2179 75.5623 82.1618 75.653C82.1099 75.7368 82.1415 75.452 82.2237 75.0963C82.306 74.7402 82.2966 74.2867 82.2047 74.1742C82.1334 74.0869 82.1224 74.0852 81.931 74.1338C81.8078 74.1651 81.6515 74.1746 81.522 74.1585C81.3468 74.1368 81.3019 74.1444 81.2493 74.2043C81.1613 74.3046 81.1313 74.5967 81.1814 74.8674C81.2046 74.9933 81.2262 75.1674 81.2293 75.2543C81.2323 75.3412 81.2675 75.4617 81.3074 75.5222C81.4045 75.669 81.3321 75.7572 81.2236 75.6243L81.15 75.5343L80.7787 75.6395C80.3452 75.7624 80.0125 75.9057 79.8803 76.0263C79.688 76.2018 79.6357 76.4671 79.7226 76.8271C79.771 77.0275 80.0526 77.6348 80.1955 77.8469L80.2853 77.9802L79.9385 77.9538C79.473 77.9183 79.1713 77.8003 79.075 77.6159C79.0151 77.5014 79.0064 77.4124 79.0214 77.069C79.0365 76.7227 79.0677 76.5676 79.2213 76.0729C79.4311 75.3975 79.4693 75.1418 79.4058 74.8384C79.3539 74.5904 79.2326 74.4544 78.819 74.1807C78.2151 73.7808 77.6824 73.6254 77.3891 73.7633C77.2189 73.8434 76.9863 74.0664 76.7439 74.3819C76.4758 74.7309 76.3313 74.8279 75.8777 74.9633C75.2412 75.1533 75.1669 75.1872 74.9754 75.3744C74.8477 75.4991 74.7755 75.6117 74.7337 75.7513C74.6057 76.1788 74.6669 76.4078 75.0306 76.8623C75.2512 77.1378 75.3035 77.2289 75.2952 77.3229L75.2849 77.4401L74.861 77.4441C74.5041 77.4474 74.4239 77.4598 74.3532 77.5222C74.0939 77.7512 74.1079 78.2342 74.3816 78.5056C74.5521 78.6747 74.6691 78.6646 74.7341 78.4753C74.7718 78.3654 74.7996 78.3402 74.8754 78.3471C75.5082 78.4046 75.6459 78.4043 75.7873 78.3454C75.8685 78.3117 75.935 78.2963 75.9348 78.3113C75.9348 78.3263 75.8909 78.444 75.8373 78.5729C75.6606 78.9981 75.72 79.3916 76.0004 79.6545C76.1126 79.7596 76.5015 79.9586 76.5963 79.9593C76.6826 79.96 76.693 79.8537 76.6177 79.74C76.5641 79.6588 76.5458 79.556 76.5458 79.3354C76.5458 79.0507 76.5534 79.0264 76.7486 78.6891C76.9485 78.3439 77.0065 78.1582 77.0595 77.694C77.0822 77.4955 77.0689 77.4447 76.885 77.0273C76.6015 76.3837 76.5787 76.2507 76.6834 75.8502C76.7298 75.6726 76.7747 75.5205 76.783 75.5122C76.7914 75.5039 76.8817 75.4817 76.9836 75.4627C77.0855 75.4439 77.3125 75.3652 77.4879 75.2878C78.0077 75.0586 77.984 75.0523 77.984 75.4192C77.984 75.6666 77.9517 75.8426 77.8284 76.2661C77.6196 76.9838 77.6075 77.085 77.6883 77.4447C77.7465 77.7043 77.7801 77.7709 77.9361 77.9363C78.2779 78.2984 78.676 78.5372 79.1267 78.6502C79.2676 78.6855 79.4475 78.7311 79.5266 78.7515C79.6766 78.7903 79.7317 78.8585 79.6801 78.9413C79.6633 78.9682 79.5275 79.0134 79.3783 79.0417C78.7776 79.156 78.4525 79.3461 78.2824 79.6827C78.0728 80.0975 78.0572 80.5002 78.2362 80.8709C78.3472 81.1006 78.4403 81.2163 78.5689 81.2845C78.6473 81.3261 78.6936 81.3108 78.9575 81.1551C79.3126 80.9455 79.5918 80.8785 79.9739 80.9109C80.2885 80.9375 80.7137 81.0167 80.6866 81.0435C80.6766 81.0534 80.5384 81.076 80.3793 81.0936C80.1808 81.1157 79.8885 81.2009 79.4466 81.3654C79.0927 81.4972 78.7193 81.6148 78.6168 81.6269C78.3319 81.6603 78.0318 81.5572 77.7918 81.3433L77.5906 81.164L77.5509 81.2675C77.4888 81.4294 77.5057 81.7606 77.5849 81.9324C77.6841 82.1476 77.9776 82.4054 78.1873 82.4614C78.2857 82.4877 78.5208 82.5006 78.7409 82.4918L79.1233 82.4766L79.5067 82.215C79.7175 82.0711 79.8969 81.9602 79.9053 81.9685C79.9137 81.9769 79.8948 82.0337 79.8633 82.0948C79.7723 82.2713 79.7492 82.4413 79.7938 82.6055C79.8479 82.8049 79.9873 82.9298 80.1848 82.9561C80.363 82.9798 80.3413 83.015 80.4299 82.5574C80.4937 82.2278 80.5195 82.1942 80.8145 82.0564C81.0566 81.9434 81.1082 81.934 81.4712 81.9368C81.7671 81.939 81.9291 81.9612 82.1214 82.0258C82.2623 82.073 82.5111 82.1219 82.6743 82.1344L82.9711 82.1572L83.3312 82.6893C83.5293 82.982 83.766 83.3763 83.8573 83.5654L84.0232 83.9094L84.0049 84.5064C83.9893 85.0162 83.9741 85.129 83.9008 85.2791C83.8089 85.4671 83.4331 85.8027 83.2659 85.8457C83.2127 85.8595 82.991 85.85 82.7734 85.8247C82.24 85.7626 82.2315 85.7732 82.3813 86.3145C82.4566 86.5867 82.6058 86.7244 82.967 86.855C83.1305 86.9141 83.2641 86.9787 83.2641 86.9985C83.2641 87.0653 82.8964 87.1964 82.6558 87.2153C82.3483 87.2395 82.1533 87.1851 81.8495 86.9905C81.7146 86.904 81.5872 86.8436 81.5667 86.8562C81.4249 86.943 81.2755 87.4933 81.3005 87.8361C81.3266 88.1928 81.4492 88.4 81.7724 88.633C81.9238 88.7422 82.0407 88.8525 82.0322 88.8781C82.0062 88.9559 81.6037 89.1375 81.3597 89.1814C80.9396 89.257 80.3485 89.1052 80.0384 88.842C79.8472 88.6798 79.7298 88.473 79.6799 88.2105C79.6302 87.9496 79.7241 87.7635 80.1037 87.3705C80.3421 87.1238 80.4306 87.0007 80.4838 86.8419C80.5686 86.5886 80.5733 86.2347 80.4943 86.0472C80.4259 85.8851 79.7727 85.1664 79.4243 84.87C79.0196 84.5257 78.2142 83.6392 77.7936 83.075C77.3574 82.4899 77.3072 82.4573 77.1307 82.6453L77.0299 82.7527L76.8765 82.5769C76.5605 82.2147 76.0526 81.4886 75.8388 81.0932C75.7171 80.8681 75.6003 80.6669 75.5793 80.6461C75.5546 80.6216 75.4767 80.6392 75.359 80.6959C75.2588 80.7441 75.1731 80.7784 75.1686 80.772C75.1308 80.719 73.7434 78.5544 73.6214 78.3581C73.3598 77.9373 73.0674 77.4046 72.6349 76.5612C72.4091 76.1208 72.206 75.7384 72.1835 75.7116C72.1236 75.64 71.9534 75.6523 71.8107 75.7385C71.6445 75.839 71.3959 76.1711 71.2371 76.5049L71.1081 76.776L71.1097 77.4206C71.1112 78.004 71.1217 78.1018 71.2209 78.452C71.2812 78.6648 71.4015 78.9988 71.4883 79.1942C71.575 79.3896 71.6724 79.6089 71.7047 79.6815L71.7635 79.8134L71.6294 79.701C71.5556 79.6392 71.2858 79.4084 71.0297 79.1882C70.6498 78.8615 70.5412 78.7878 70.4391 78.7878C70.2872 78.7878 70.1807 78.8911 70.056 79.1594C69.9777 79.3276 69.9656 79.4154 69.9668 79.8034C69.9678 80.1026 69.991 80.3359 70.0363 80.5018C70.1332 80.8569 70.3808 81.3609 70.6351 81.7206C70.7553 81.8908 70.84 82.0298 70.8233 82.0294C70.8066 82.0291 70.651 81.9852 70.4776 81.9318C70.2437 81.8597 70.0739 81.8347 69.819 81.8347C69.5065 81.8347 69.4715 81.8424 69.4297 81.9199C69.3677 82.0346 69.4093 82.4953 69.5069 82.7764C69.6172 83.0941 69.7349 83.255 70.1614 83.6707C70.3708 83.8748 70.5573 84.0689 70.5758 84.102C70.6059 84.1556 70.5298 84.1605 69.8897 84.1462C69.05 84.1275 69 84.1404 69 84.3765C69 84.7861 69.6257 85.5476 70.3672 86.0406C70.6611 86.236 70.6682 86.2314 70.012 86.2704C69.6309 86.2931 69.5566 86.3102 69.3098 86.4327C69.158 86.5079 69.0235 86.5961 69.0109 86.6286C68.9726 86.7276 69.1884 87.105 69.4257 87.3536C69.8646 87.8137 70.2722 88.0692 70.7929 88.2109L70.9899 88.2645L70.7141 88.3331C70.2815 88.4407 69.4695 88.9722 69.4411 89.1663C69.4319 89.2288 69.4983 89.3026 69.7144 89.4702C70.1495 89.8077 70.4967 89.9964 70.8388 90.0811C71.0075 90.1229 71.1637 90.1754 71.1859 90.1979C71.2496 90.2622 71.0291 90.4285 70.8793 90.4292C70.7226 90.4299 70.6819 90.4562 70.6038 90.6076C70.5695 90.6738 70.4795 90.8016 70.4036 90.8917C70.2165 91.1138 70.195 91.1964 70.2966 91.3036C70.3796 91.3912 70.4103 91.5614 70.343 91.5614C70.3231 91.5614 70.2241 91.5263 70.123 91.4833C69.82 91.3545 69.813 91.3601 69.8378 91.7079C69.8841 92.3571 69.9884 92.528 70.5845 92.9313C71.1181 93.2923 71.4355 93.5468 71.4642 93.6363C71.4781 93.6796 71.5688 93.8037 71.666 93.9121C71.7631 94.0205 71.8694 94.1652 71.9023 94.2335C71.9352 94.3019 72.0077 94.3834 72.0634 94.4147C72.1468 94.4616 72.3548 94.9126 73.2405 96.967C74.2993 99.4231 74.3153 99.4641 74.2565 99.5768C74.2073 99.6712 74.205 99.7166 74.2438 99.8354C74.3272 100.091 74.4696 100.337 74.5732 100.404C74.6479 100.453 74.6741 100.503 74.6741 100.599C74.6741 100.78 74.7677 101.069 74.8666 101.194C74.9139 101.253 74.9499 101.355 74.9499 101.43C74.9499 101.525 74.9879 101.603 75.0885 101.713C75.2314 101.87 75.3834 102.235 75.3834 102.422C75.3834 102.481 75.3538 102.553 75.3177 102.582C75.1589 102.712 74.9453 103.03 74.8895 103.221C74.8345 103.408 74.8347 103.442 74.8916 103.583C74.9261 103.669 74.9977 103.776 75.0507 103.822C75.1253 103.886 75.147 103.943 75.147 104.076C75.147 104.29 75.2459 104.421 75.5044 104.551C75.6631 104.631 75.7113 104.682 75.7811 104.843C75.8746 105.058 75.9893 105.145 76.3187 105.251C76.5623 105.33 76.6837 105.463 76.6837 105.653C76.6837 105.87 76.7901 106.035 77.1192 106.329C77.4455 106.621 77.5715 106.679 77.8772 106.679C78.0284 106.679 78.087 106.658 78.1689 106.577C78.2699 106.477 78.271 106.47 78.2463 106.07C78.2316 105.831 78.2383 105.585 78.2627 105.472C78.3017 105.291 78.2962 105.265 78.1689 105.013C77.9622 104.604 77.9606 104.59 78.1107 104.502C78.1819 104.46 78.4783 104.287 78.7693 104.117C79.1307 103.906 79.3211 103.77 79.3698 103.688C79.424 103.597 79.4955 103.552 79.6681 103.499C79.793 103.46 79.9331 103.405 79.9796 103.376C80.026 103.347 80.1811 103.296 80.3242 103.263C80.4672 103.23 80.6508 103.176 80.7322 103.142C80.851 103.092 81.1014 103.076 82.0032 103.059C82.6208 103.048 83.1919 103.022 83.2722 103.002C83.4558 102.956 83.6417 102.804 83.6753 102.671C83.708 102.542 83.6436 102.348 83.4756 102.072C83.3182 101.814 83.3156 101.796 83.4343 101.796C83.5833 101.796 83.9153 101.685 84.0271 101.598C84.1444 101.506 84.3152 101.234 84.3895 101.021C84.4621 100.812 84.416 100.78 84.0375 100.78C83.6366 100.78 83.4672 100.734 83.3255 100.587C83.2423 100.501 83.2139 100.433 83.2139 100.321C83.2139 100.123 83.403 99.7091 83.5487 99.5876C83.9123 99.2843 84.7041 99.3265 85.1099 99.6708C85.3114 99.8418 85.5598 100.323 85.6258 100.669C85.7138 101.131 85.6348 101.258 84.9114 101.811C84.5392 102.096 84.4544 102.207 84.3288 102.577L84.2295 102.869L83.2641 103.507C82.1307 104.257 81.9653 104.345 81.802 104.289C81.6445 104.234 81.6289 104.198 81.6289 103.887C81.6289 103.627 81.6237 103.612 81.5188 103.562C81.419 103.514 81.3855 103.52 81.1554 103.626C81.016 103.691 80.8128 103.827 80.7038 103.928C80.5435 104.076 80.4906 104.16 80.4269 104.364C80.2902 104.803 80.331 105.102 80.5703 105.413L80.6782 105.553L80.4929 105.722C80.2461 105.946 80.1363 106.195 80.1382 106.525C80.14 106.837 80.2244 107.107 80.451 107.524C80.5885 107.778 80.6187 107.867 80.5993 107.964C80.5859 108.03 80.5964 108.136 80.6228 108.199C80.7146 108.419 80.7733 108.394 81.2028 107.952C81.4235 107.724 81.6119 107.538 81.6214 107.538C81.6309 107.538 81.6492 107.587 81.6621 107.646C81.7361 107.986 82.2299 108.506 82.565 108.596C82.8506 108.672 83.1584 108.62 83.5307 108.43L83.863 108.261L83.928 108.351C84.2401 108.78 84.5459 109.068 84.8602 109.227C85.1507 109.373 85.7123 109.335 86.2118 109.135L86.421 109.051L86.8817 109.526C87.177 109.83 87.3711 110.001 87.4223 110C87.5755 109.998 87.9446 109.682 88.2546 109.286C88.3514 109.163 88.4531 109.062 88.4806 109.062C88.5081 109.062 88.636 109.104 88.7647 109.156C89.1466 109.31 89.4313 109.346 89.7047 109.275C89.8325 109.242 90.0221 109.169 90.126 109.113C90.3067 109.016 90.7607 108.58 90.9292 108.343L91.0092 108.23L91.3263 108.392C91.6292 108.547 91.6592 108.554 91.9993 108.554C92.4138 108.554 92.4933 108.515 92.9069 108.113C93.0827 107.942 93.1822 107.804 93.2592 107.625L93.3664 107.375L93.4942 107.626C93.6205 107.874 94.0077 108.28 94.1184 108.28C94.1533 108.28 94.175 108.202 94.1862 108.036C94.1998 107.835 94.2341 107.738 94.3834 107.48C94.6268 107.059 94.667 106.918 94.6686 106.484C94.6702 106.068 94.6402 105.985 94.3765 105.683C94.2895 105.584 94.2183 105.496 94.2183 105.489C94.2183 105.482 94.2732 105.36 94.3403 105.218C94.5043 104.871 94.5289 104.582 94.4189 104.293C94.2684 103.898 93.9927 103.656 93.5743 103.551C93.2542 103.471 93.1021 103.575 93.2517 103.771C93.3352 103.88 93.3286 104.152 93.2405 104.231C93.0269 104.422 92.7939 104.344 92.0599 103.834C91.7842 103.642 91.3236 103.333 91.0365 103.148C90.6898 102.924 90.5144 102.788 90.5144 102.742C90.5144 102.586 90.4013 102.257 90.2956 102.106C90.2337 102.017 90.0138 101.815 89.8069 101.657C89.134 101.143 89.0486 100.867 89.3693 100.239C89.4312 100.118 89.5573 99.9177 89.6497 99.7944C89.8771 99.4909 90.0594 99.4056 90.486 99.4032C91.0603 99.3998 91.3254 99.538 91.5176 99.9407C91.6268 100.17 91.6411 100.311 91.5741 100.502C91.5116 100.68 91.4152 100.715 90.9281 100.739L90.4947 100.761L90.483 101.004C90.4716 101.24 90.4756 101.252 90.6316 101.419C90.8346 101.638 91.1129 101.758 91.4799 101.785L91.7645 101.806L91.7312 101.948C91.7129 102.025 91.6623 102.203 91.6187 102.343C91.513 102.682 91.5129 102.912 91.6185 102.968C91.6681 102.995 91.9116 103.006 92.2654 102.999C92.8141 102.988 92.8361 102.99 92.9311 103.079C93.0113 103.154 93.1983 103.205 93.9489 103.36C94.4547 103.464 95.0369 103.585 95.2428 103.629C95.4487 103.673 95.684 103.709 95.7657 103.709C95.9847 103.71 96.3482 103.85 97.2721 104.288C97.7272 104.504 98.1777 104.701 98.2733 104.726C98.5596 104.8 98.8904 104.697 99.1148 104.463C99.2165 104.357 99.2372 104.351 99.43 104.376C99.5435 104.39 99.7546 104.389 99.8993 104.373C100.136 104.348 100.193 104.323 100.465 104.126C100.631 104.005 100.873 103.869 101.002 103.822C101.25 103.732 101.39 103.6 101.39 103.455C101.39 103.398 101.494 103.26 101.681 103.069C101.859 102.887 102.029 102.664 102.118 102.496C102.208 102.325 102.298 102.208 102.355 102.187C102.422 102.161 102.453 102.11 102.474 101.989C102.489 101.9 102.544 101.764 102.596 101.688C102.715 101.514 102.715 101.425 102.592 101.265C102.537 101.195 102.493 101.114 102.493 101.085C102.493 100.956 102.197 100.197 102.076 100.016C101.851 99.6797 101.457 99.3516 100.971 99.095C100.586 98.8916 100.606 98.9121 100.71 98.8343C100.796 98.77 100.798 98.7563 100.773 98.2102C100.747 97.6542 100.746 97.6514 100.632 97.5559C100.522 97.4638 100.494 97.4599 99.9559 97.4599H99.3949L99.287 97.5716L99.1791 97.6833L99.1913 98.265C99.1981 98.5849 99.2186 98.8775 99.237 98.915C99.2627 98.9677 99.2534 98.9834 99.1961 98.9834C99.0735 98.9834 98.5634 99.2441 98.3143 99.4341C97.9893 99.6821 97.7319 100.075 97.5953 100.531C97.5624 100.641 97.5073 100.785 97.4727 100.851C97.4382 100.918 97.4097 101.012 97.4094 101.062C97.4091 101.111 97.3818 101.229 97.3487 101.323C97.2973 101.469 97.2957 101.537 97.3375 101.783C97.3805 102.037 97.4021 102.084 97.5159 102.17C97.5871 102.224 97.6638 102.302 97.6862 102.344C97.7447 102.452 97.6529 102.646 97.4671 102.808L97.3155 102.94L96.7662 102.914C96.2184 102.888 96.2151 102.887 95.4836 102.632C95.0803 102.491 94.5995 102.303 94.4153 102.213C94.1144 102.066 94.0674 102.028 93.9523 101.837C93.7949 101.575 93.7932 101.547 93.9395 101.631C94.0486 101.693 94.059 101.692 94.1365 101.623C94.1815 101.582 94.2183 101.522 94.2183 101.489C94.2183 101.448 94.2582 101.467 94.3464 101.551C94.5546 101.751 94.8643 101.82 95.0243 101.704C95.1036 101.647 95.1026 101.638 94.97 101.193C94.9256 101.044 94.8975 100.914 94.9076 100.904C94.9177 100.894 95.0371 100.936 95.173 100.998C95.3804 101.091 95.4693 101.108 95.726 101.106C95.9847 101.103 96.0554 101.087 96.1839 101.003C96.3209 100.913 96.6613 100.472 96.6613 100.384C96.6613 100.338 96.5332 100.29 96.2628 100.235C95.9827 100.179 95.8555 100.057 95.8618 99.8514C95.8643 99.7715 95.8786 99.4336 95.8936 99.1006C95.9187 98.5428 95.9144 98.4782 95.8384 98.2803C95.7363 98.014 95.4526 97.6512 95.2179 97.4865C94.9997 97.3335 94.6376 97.1912 94.4592 97.1885L94.3258 97.1865L94.3499 97.0121C94.3814 96.7843 94.342 96.765 93.9406 96.8122C93.7172 96.8384 93.5568 96.8364 93.4082 96.8055C93.1727 96.7565 92.918 96.6487 92.918 96.5979C92.918 96.5799 92.9978 96.5302 93.0953 96.4874C93.1928 96.4446 93.2726 96.3862 93.2726 96.3575C93.2726 96.3289 93.1993 96.2093 93.1096 96.0917C92.8564 95.7596 92.8392 95.6943 92.8392 95.0676C92.8392 94.4315 92.8949 93.9064 92.9798 93.7438C93.0749 93.5615 93.1838 93.5651 93.6234 93.7648C93.8406 93.8635 94.0434 93.9443 94.0741 93.9443C94.1189 93.9443 94.1355 94.0731 94.1579 94.5986C94.1733 94.9584 94.2008 95.3759 94.2191 95.5263C94.2485 95.7683 94.2672 95.8121 94.3815 95.9071C94.5771 96.0696 95.1014 96.3271 95.2369 96.3271C95.368 96.3271 95.7564 96.1198 96.021 95.9087C96.1583 95.7991 96.1885 95.7512 96.1885 95.6432C96.1885 95.41 96.2518 95.4626 96.3828 95.8045C96.5704 96.2941 96.6235 96.3383 97.2288 96.5084C97.5926 96.6107 97.755 96.6404 97.8001 96.6129C97.8348 96.5918 97.9566 96.4441 98.0709 96.2848C98.1852 96.1254 98.3044 95.9592 98.336 95.9153C98.3676 95.8715 98.4071 95.7419 98.4238 95.6273L98.4542 95.419L98.6022 95.6321C98.8684 96.0154 98.8954 96.0303 99.3528 96.0469C99.9892 96.0699 99.9845 96.0726 100.275 95.5242C100.41 95.2675 100.522 95.0119 100.522 94.9562C100.523 94.9004 100.455 94.751 100.373 94.6242C100.138 94.2624 100.14 94.2666 100.23 94.334C100.272 94.3657 100.437 94.5132 100.598 94.6618L100.89 94.932L101.438 94.9104C102.118 94.8837 102.118 94.8838 102.152 94.4412C102.166 94.2645 102.188 93.9994 102.203 93.8519L102.229 93.5838L102.408 93.6038C102.707 93.6372 103.211 93.4654 103.547 93.2152C103.674 93.1211 103.675 93.116 103.675 92.7953C103.675 92.2956 103.621 92.0775 103.453 91.9069L103.31 91.7622L103.463 91.739C103.876 91.6762 104.718 91.3497 104.762 91.2353C104.812 91.1072 104.5 90.7491 103.961 90.3146C103.847 90.2229 103.754 90.1342 103.754 90.1175C103.754 90.1008 103.878 90.075 104.029 90.0602C104.418 90.0223 104.785 89.8319 105.157 89.4763C105.347 89.2944 105.448 89.1674 105.448 89.1109C105.448 89.0516 105.371 88.9624 105.202 88.8283C104.859 88.5551 104.472 88.3675 104.186 88.3354C104.057 88.3209 103.951 88.2977 103.951 88.2837C103.951 88.2698 104.071 88.2277 104.217 88.1902C104.705 88.0651 105.359 87.6304 105.514 87.3278C105.548 87.2607 105.609 87.1748 105.649 87.1368C105.69 87.0988 105.751 86.9702 105.786 86.8509C105.846 86.6474 105.845 86.6293 105.78 86.5582C105.672 86.4399 105.234 86.3235 104.818 86.3027C104.109 86.2672 104.121 86.2843 104.589 85.978C105.124 85.6275 105.517 85.2609 105.783 84.864C105.967 84.5897 106 84.5138 106 84.3615C106 84.1857 105.997 84.1814 105.852 84.151C105.771 84.1339 105.404 84.1249 105.036 84.131L104.368 84.1422L104.465 84.0334C104.518 83.9735 104.669 83.8103 104.8 83.6707C105.231 83.213 105.356 82.9837 105.527 82.3338C105.601 82.0555 105.608 81.9821 105.567 81.9334C105.497 81.8492 105.174 81.8565 104.589 81.9557C104.322 82.0008 104.094 82.029 104.084 82.0182C104.073 82.0074 104.147 81.887 104.249 81.7506C104.475 81.4503 104.871 80.6525 104.954 80.3323C105.031 80.0395 105.031 79.7678 104.956 79.4154C104.877 79.0403 104.801 78.8744 104.685 78.822C104.533 78.7535 104.43 78.8021 104.068 79.1127C103.599 79.5159 103.037 79.9597 102.996 79.9597C102.977 79.9597 103.112 79.674 103.296 79.3249C103.803 78.3623 103.844 78.2201 103.864 77.3395C103.88 76.6236 103.879 76.6111 103.78 76.4173C103.725 76.3092 103.63 76.1625 103.57 76.0912C103.427 75.9235 103.01 75.6563 102.913 75.6709C102.858 75.6792 102.778 75.8184 102.615 76.1901C102.22 77.0859 101.535 78.2811 100.699 79.53C100.255 80.1929 99.829 80.7399 99.7299 80.7744C99.7078 80.7821 99.6469 80.7484 99.5945 80.6997C99.5004 80.612 99.4982 80.6118 99.4156 80.6857C99.3696 80.7268 99.247 80.9282 99.1431 81.1332C98.8951 81.6228 98.5174 82.1785 98.231 82.4751L98.0008 82.7136L97.9108 82.6062C97.7278 82.3878 97.689 82.4165 96.8466 83.3929C96.4224 83.8847 95.7324 84.6363 95.3135 85.0632C94.8946 85.49 94.5131 85.9013 94.4659 85.977C94.3329 86.1904 94.2866 86.4517 94.3496 86.6332C94.3785 86.7164 94.5568 87.0068 94.7457 87.2786C95.1348 87.8382 95.2411 88.0448 95.2411 88.2411C95.2411 88.5585 94.9574 88.9025 94.5389 89.0924C94.281 89.2095 93.8103 89.2338 93.5052 89.1458C93.3219 89.093 92.9572 88.8485 92.9275 88.7587C92.9187 88.7318 92.9706 88.6791 93.0428 88.6415C93.4143 88.448 93.6582 88.01 93.6078 87.6267C93.5024 86.824 93.2731 86.5306 93.0654 86.9325C92.952 87.1521 92.8687 87.196 92.5707 87.1933C92.1512 87.1894 91.5389 87.0212 91.5389 86.9099C91.5389 86.8961 91.6341 86.875 91.7505 86.8631C92.0237 86.8352 92.2477 86.7201 92.4001 86.5294C92.5512 86.3402 92.6028 86.2089 92.6028 86.0133C92.6028 85.8107 92.5386 85.782 92.1064 85.7914C91.709 85.8001 91.5107 85.7341 91.2489 85.5062C91.0018 85.2911 90.9412 85.125 90.8981 84.5431L90.8599 84.0288L91.1621 83.4278C91.3284 83.0972 91.5726 82.6827 91.7049 82.5065L91.9454 82.1863H92.2148C92.395 82.1863 92.5659 82.1571 92.7307 82.0984C93.0465 81.9857 93.6846 81.9769 94.0284 82.0804C94.3532 82.1782 94.4738 82.315 94.5553 82.678C94.6278 83.001 94.6813 83.0539 94.8442 82.9633C95.0164 82.8675 95.1245 82.6677 95.1252 82.4442C95.1255 82.3346 95.1396 82.2233 95.1565 82.197C95.1894 82.1456 95.2581 82.1753 95.6138 82.3948C95.9886 82.6261 96.6503 82.6199 97.0294 82.3816C97.3435 82.1841 97.5443 81.6923 97.4385 81.3795C97.3551 81.1327 97.2839 81.1275 97.0792 81.3531C96.8539 81.6015 96.7305 81.6533 96.4155 81.6315C96.2257 81.6184 96.0552 81.5645 95.6763 81.398C95.4054 81.2789 95.0507 81.1503 94.8882 81.1122C94.7256 81.0742 94.567 81.0295 94.5357 81.0131C94.453 80.9697 94.9419 80.925 95.309 80.9423C95.5801 80.9551 95.6585 80.9777 95.9611 81.1299L96.3051 81.3029L96.4019 81.2128C96.4551 81.1632 96.5619 81.0034 96.6391 80.8577C96.7686 80.6134 96.7796 80.5666 96.7796 80.2552C96.7796 79.8318 96.7184 79.7026 96.366 79.3825C96.0513 79.0967 95.9306 79.0372 95.5938 79.0023C95.3606 78.9781 95.3269 78.9634 95.2648 78.8593C95.2268 78.7955 95.2019 78.7388 95.2094 78.7332C95.217 78.7277 95.3626 78.7024 95.5331 78.6772C95.742 78.6461 95.9282 78.5872 96.1044 78.4963C96.2482 78.4222 96.4471 78.3254 96.5464 78.2813C96.7757 78.1796 97.1553 77.8086 97.2157 77.6272C97.2977 77.3809 97.2381 76.6913 97.0798 76.0554C96.9089 75.3689 96.86 75.0137 96.9412 75.0486C97.2356 75.1752 97.8598 75.4071 98.0011 75.4425C98.1706 75.485 98.1806 75.4955 98.2285 75.6823C98.3717 76.2396 98.3339 76.5044 98.0113 77.2024C97.7287 77.8137 97.7335 77.8857 98.1083 78.6867C98.3429 79.188 98.346 79.2112 98.2535 79.7937L98.2271 79.9597H98.3715C98.4509 79.9597 98.5754 79.935 98.6481 79.9049C98.818 79.8345 99.0914 79.5897 99.1726 79.4353C99.2467 79.2943 99.2506 78.8713 99.1806 78.5818C99.1554 78.4779 99.1413 78.3895 99.1492 78.3853C99.157 78.3811 99.3713 78.3831 99.6253 78.3897L100.087 78.4018L100.193 78.5948C100.251 78.701 100.316 78.7878 100.337 78.7878C100.408 78.7878 100.653 78.497 100.733 78.3192C100.839 78.0819 100.84 77.8461 100.737 77.7091C100.587 77.5097 100.469 77.4516 100.149 77.4206C99.6852 77.3756 99.6292 77.2546 99.9107 76.9061C100.274 76.4565 100.357 76.1673 100.232 75.7926C100.105 75.414 99.8306 75.1823 99.3374 75.0368C98.8017 74.8788 98.6138 74.7574 98.0994 74.2365C97.5305 73.6605 97.448 73.6211 97.0269 73.7241C96.7561 73.7903 96.5023 73.9355 95.9368 74.3475C95.4623 74.6933 95.4061 75.0136 95.6717 75.8592C95.9987 76.9003 96.0323 77.3292 95.8087 77.6047C95.5872 77.8775 95.4726 77.9284 95.0794 77.9284C94.8875 77.9284 94.7306 77.9232 94.7306 77.9168C94.7306 77.9104 94.8275 77.6965 94.9459 77.4413C95.297 76.685 95.3107 76.4326 95.0191 76.0949C94.8502 75.8994 94.5035 75.7211 94.2153 75.6818C94.1087 75.6673 94.0114 75.6395 93.9993 75.62C93.967 75.5681 93.6903 75.5768 93.6351 75.6315C93.5984 75.6679 93.5879 75.6603 93.5879 75.5972C93.5879 75.5526 93.6108 75.4972 93.6389 75.4741C93.6759 75.4436 93.6925 75.262 93.6995 74.8113C93.7104 74.105 93.691 74.0484 93.4691 74.1395C93.3886 74.1726 93.2628 74.1798 93.0797 74.1619C92.6954 74.1244 92.6711 74.1548 92.695 74.6426C92.7222 75.1961 92.7491 75.3797 92.8174 75.4763C92.8511 75.524 92.8783 75.5986 92.878 75.6422C92.8775 75.7033 92.8695 75.7089 92.8425 75.6667C92.782 75.572 92.2442 75.633 91.867 75.7773C91.3648 75.9694 91.1554 76.2552 91.1925 76.6981C91.2104 76.9121 91.4325 77.4234 91.6622 77.7795C91.749 77.9141 91.7771 77.9996 91.768 78.1023L91.7556 78.2421L90.9478 77.8068C89.9748 77.2825 89.574 77.0321 89.4083 76.8451C89.2853 76.7062 89.2841 76.7005 89.3017 76.3692C89.3188 76.045 89.3295 76.0137 89.62 75.4284C89.9904 74.682 90.1176 74.3099 90.1479 73.8839C90.1765 73.4826 90.1246 73.2789 89.9297 73.0273C89.7321 72.7721 89.4248 72.5963 88.8015 72.3818L88.2729 72.2L88.1173 72.3543C87.874 72.5954 87.7927 72.4473 87.9586 72.065C88.0266 71.9083 88.0382 71.8262 88.0186 71.64C87.9959 71.4248 88.0011 71.4039 88.0956 71.3302L88.197 71.2511L88.1834 70.6894C88.168 70.0502 88.1396 69.9734 87.9357 70.0187C87.7051 70.07 87.1964 70.0843 87.1525 70.0408C87.0844 69.9733 86.947 69.9919 86.8671 70.0794ZM88.4918 77.3007C88.9977 77.6572 89.6572 78.0812 89.9233 78.2211C90.2761 78.4066 90.2251 78.4327 89.689 78.341C89.1856 78.2549 89.0564 78.259 89.0564 78.361C89.0564 78.4712 89.4634 78.8876 89.7066 79.0263L89.9036 79.1386L89.6212 79.139C89.4658 79.1392 89.3107 79.15 89.2764 79.1631C89.0941 79.2324 89.3357 79.5017 89.7547 79.696L90.0036 79.8115L89.796 79.9562C89.4039 80.2294 88.8507 80.4166 88.2093 80.4932C87.9619 80.5227 87.9321 80.5355 87.9204 80.6172C87.8939 80.8026 88.1612 80.9363 88.5584 80.9363C88.6554 80.9363 88.7625 80.9468 88.7964 80.9597C88.8709 80.988 88.8405 81.0547 88.6204 81.3464C88.2165 81.8816 87.7993 82.8983 87.5573 83.937C87.5106 84.1372 87.4677 84.2954 87.4619 84.2886C87.456 84.2817 87.3693 83.9942 87.269 83.6495C86.979 82.6527 86.7777 82.1757 86.3347 81.436C86.2062 81.2216 86.1012 81.0398 86.1012 81.032C86.1012 81.0243 86.1677 81.0068 86.2489 80.9933C86.6002 80.9349 86.8037 80.8051 86.8661 80.5997C86.8878 80.5282 86.8712 80.5138 86.7425 80.4927C86.6607 80.4793 86.5398 80.4682 86.4739 80.4679C86.408 80.4677 86.252 80.4411 86.1273 80.4089C85.8435 80.3356 84.919 79.8929 84.9191 79.8303C84.9192 79.8048 85.0349 79.7139 85.1763 79.6283C85.4829 79.4426 85.729 79.206 85.6864 79.1377C85.6651 79.1035 85.5635 79.0957 85.328 79.1103L84.9993 79.1306L85.2251 78.9849C85.4832 78.8185 85.8391 78.4568 85.8144 78.3861C85.8023 78.3513 85.6585 78.3412 85.2796 78.3483C84.9946 78.3536 84.7614 78.3504 84.7614 78.341C84.7614 78.3317 84.9609 78.2057 85.2047 78.061C85.4486 77.9164 85.8309 77.6736 86.0544 77.5214C86.278 77.3693 86.4996 77.2223 86.547 77.1948C86.6114 77.1573 86.8434 77.1475 87.4673 77.1557L88.3015 77.1667L88.4918 77.3007ZM81.8697 93.7268C81.9651 93.8323 82.0333 94.2066 82.0696 94.8232C82.1002 95.3434 82.0357 95.705 81.8459 96.0773C81.678 96.4068 81.6794 96.5031 81.8525 96.5375C82.0096 96.5686 81.9809 96.6386 81.7663 96.747C81.5801 96.8412 81.2769 96.8579 80.8072 96.7998C80.5393 96.7667 80.5146 96.7915 80.576 97.0314C80.6203 97.2044 80.6323 97.1956 80.2891 97.2417C80.0606 97.2724 79.6546 97.4897 79.4539 97.6887C79.3583 97.7835 79.2183 97.9825 79.1429 98.1309L79.0058 98.4008L79.0433 99.2488C79.0877 100.255 79.1049 100.211 78.6269 100.308C78.3458 100.365 78.3179 100.379 78.3072 100.47C78.2798 100.703 78.6943 100.975 79.1235 101.005C79.3581 101.022 79.684 100.97 79.9247 100.877C80.0299 100.836 80.0148 101.075 79.8951 101.343C79.8409 101.464 79.7966 101.598 79.7966 101.64C79.7966 101.77 79.968 101.778 80.3172 101.664C80.6139 101.567 80.6371 101.564 80.6836 101.627C80.7305 101.691 80.7421 101.691 80.892 101.624C81.0823 101.539 81.1363 101.563 81.1363 101.734C81.1363 101.881 81.1784 101.859 79.9916 102.317C78.9149 102.732 78.6126 102.773 78.1791 102.562C77.9435 102.447 77.9192 102.418 77.7226 102.024C77.6512 101.882 77.5437 101.726 77.4835 101.679C77.3652 101.587 77.2995 101.588 76.8091 101.684C76.6359 101.719 76.5399 101.721 76.4939 101.693C76.3806 101.625 76.2898 101.397 76.2897 101.182C76.2897 100.994 76.2799 100.973 76.1715 100.917C76.0682 100.864 76.0532 100.835 76.0532 100.69C76.0532 100.54 76.0318 100.503 75.8355 100.311C75.6018 100.082 75.5649 99.9943 75.5225 99.5681C75.4917 99.2586 75.4685 99.2172 75.307 99.1844C75.1893 99.1605 75.1634 99.1215 74.9142 98.5926C74.7675 98.2812 74.5141 97.7539 74.351 97.4209C74.188 97.0879 73.9523 96.5957 73.8273 96.3271C73.7023 96.0585 73.5048 95.6501 73.3884 95.4196C73.272 95.1889 73.1768 94.9824 73.1768 94.9606C73.1768 94.9365 73.3229 94.9208 73.5486 94.9208C73.753 94.9208 73.966 94.9036 74.0217 94.8826C74.0775 94.8616 74.3473 94.6379 74.6212 94.3855L75.1193 93.9265L74.909 94.2577C74.7934 94.4398 74.6556 94.6647 74.6028 94.7574L74.5069 94.926L74.6168 95.1871C74.8198 95.6696 74.9504 95.8995 75.0406 95.9335C75.089 95.9518 75.3322 95.9786 75.5811 95.9932L76.0335 96.0198L76.2306 95.7447C76.3389 95.5933 76.4781 95.412 76.5398 95.3417C76.6453 95.2213 76.6505 95.2196 76.6279 95.3115C76.5381 95.6763 76.5438 95.7032 76.7951 96.0939C77.1659 96.6704 77.1043 96.6209 77.3844 96.5663C78.154 96.4162 78.2184 96.3595 78.5214 95.566C78.7699 94.9154 78.8039 94.8922 78.8088 95.3701C78.8128 95.7586 78.8824 95.8734 79.2646 96.1219C79.438 96.2346 79.6065 96.3263 79.639 96.3255C79.6715 96.3248 79.902 96.24 80.1512 96.1371L80.6044 95.95L80.6515 95.7637C80.6774 95.6613 80.7184 95.2583 80.7426 94.8683C80.7777 94.3032 80.7991 94.1512 80.848 94.12C80.8817 94.0986 81.061 93.97 81.2464 93.8343C81.6162 93.5639 81.7082 93.548 81.8697 93.7268ZM85.5018 103.603C85.4326 103.715 85.2185 104.032 85.026 104.305C84.8336 104.579 84.6001 104.948 84.5073 105.126C84.3464 105.433 84.3323 105.448 84.2052 105.448H84.0719L84.0806 105.242C84.0935 104.936 84.1994 104.744 84.5679 104.358C84.8816 104.029 85.5655 103.398 85.6079 103.398C85.6188 103.398 85.571 103.49 85.5018 103.603ZM89.767 103.891C90.5795 104.552 90.9666 105.135 90.7601 105.388C90.7186 105.439 90.667 105.469 90.6452 105.456C90.6235 105.443 90.5102 105.277 90.3934 105.089C90.2766 104.9 90.0027 104.499 89.7847 104.198C89.5668 103.898 89.3724 103.625 89.3528 103.593C89.3092 103.521 89.3359 103.54 89.767 103.891ZM86.7687 104.064C86.7468 104.202 86.6685 104.597 86.5947 104.941C86.4282 105.716 86.3212 106.347 86.2401 107.03C86.1576 107.728 86.1407 107.812 86.0831 107.812C86.0153 107.812 85.9134 107.569 85.845 107.245C85.7658 106.87 85.7709 106.745 85.8828 106.318C86.0254 105.774 86.7539 103.758 86.7937 103.798C86.8018 103.806 86.7906 103.925 86.7687 104.064ZM88.7664 105.52L89.0653 106.338L89.0497 106.85C89.0373 107.258 89.0184 107.394 88.9566 107.519C88.8131 107.808 88.8074 107.791 88.6462 106.62C88.5929 106.233 88.4595 105.5 88.3497 104.99C88.24 104.48 88.151 104.041 88.152 104.014C88.1551 103.93 88.4512 104.656 88.7664 105.52ZM83.3232 106.484C83.4082 106.526 83.5139 106.562 83.5581 106.562C83.6023 106.562 83.6797 106.574 83.73 106.587C83.806 106.607 83.8172 106.629 83.7958 106.713C83.7816 106.769 83.7644 106.821 83.7576 106.828C83.7227 106.862 83.2536 106.732 83.227 106.68C83.1913 106.611 83.1386 106.405 83.1565 106.405C83.1632 106.405 83.2382 106.441 83.3232 106.484ZM91.6965 106.575C91.6965 106.738 91.6173 106.81 91.353 106.887L91.1475 106.947L91.1225 106.815C91.0855 106.62 91.1075 106.593 91.364 106.52C91.6941 106.426 91.6965 106.427 91.6965 106.575Z" stroke="white" stroke-width="2" mask="url(#path-19-inside-1_566_1427)"/>
<defs>
<linearGradient id="paint0_linear_566_1427" x1="19.1751" y1="122.19" x2="133.076" y2="35.375" gradientUnits="userSpaceOnUse">
<stop stop-color="#3379DB"/>
<stop offset="1" stop-color="#2257BB"/>
</linearGradient>
<linearGradient id="paint1_linear_566_1427" x1="24.6755" y1="127.69" x2="138.577" y2="40.8754" gradientUnits="userSpaceOnUse">
<stop stop-color="#7DA7FF"/>
<stop offset="1" stop-color="#3276E2"/>
</linearGradient>
<linearGradient id="paint2_linear_566_1427" x1="33.4387" y1="139.514" x2="143.536" y2="55.5986" gradientUnits="userSpaceOnUse">
<stop stop-color="#B9D3FF"/>
<stop offset="1" stop-color="#D9E8FE"/>
</linearGradient>
<linearGradient id="paint3_linear_566_1427" x1="130.627" y1="12.4454" x2="43.2246" y2="84.1069" gradientUnits="userSpaceOnUse">
<stop stop-color="#3379DB"/>
<stop offset="1" stop-color="#2257BB"/>
</linearGradient>
<linearGradient id="paint4_linear_566_1427" x1="56.8726" y1="91.4129" x2="117.795" y2="91.4129" gradientUnits="userSpaceOnUse">
<stop stop-color="#0C1265"/>
<stop offset="1" stop-color="#0057C6"/>
</linearGradient>
</defs>
</svg>
