<svg width="1410" height="889" viewBox="0 0 1410 889" fill="none" xmlns="http://www.w3.org/2000/svg">
<path d="M910.04 1231.93C870.234 1231.09 841.727 1227.23 817.607 1219.43C725.749 1188.05 659.903 1068.87 649.864 915.799C645.491 839.241 658.594 767.811 687.756 709.237C713.643 658.201 756.341 609.391 822.129 555.629C867.588 518.925 920.194 487.106 987.686 455.496C1056.14 423.744 1110.52 409.202 1164.01 408.348C1166.44 408.331 1168.87 408.347 1171.44 408.401C1232.26 409.691 1328.29 431.214 1428.32 465.979C1529.99 501.311 1616.37 543.946 1659.38 580.027C1776.71 644.989 1759.87 705.759 1734.39 797.746C1723.09 838.549 1710.28 884.797 1705.73 940.912C1702.45 981.408 1700.15 1017.58 1698.11 1049.5C1688.34 1202.78 1683.89 1272.73 1600.68 1348.34C1580.45 1365.87 1553.72 1374.41 1521.25 1373.72C1495.65 1373.18 1466.26 1366.91 1433.9 1355.08C1404.54 1344.24 1374.29 1330.84 1342.26 1316.65C1300.14 1297.99 1256.59 1278.69 1208.94 1262.39C1152.21 1243.23 1089.88 1233.19 1018.36 1231.67C1007.75 1231.44 996.613 1231.4 985.267 1231.54C980.168 1231.6 975.11 1231.68 970.098 1231.75C949.064 1232.05 929.196 1232.34 910.04 1231.93ZM1171.46 407.543C1168.88 407.489 1166.43 407.47 1163.99 407.485C1110.29 408.343 1055.75 422.922 987.13 454.754C919.553 486.404 866.875 518.267 821.346 555.024C755.457 608.871 712.687 657.768 686.745 708.913C657.524 767.607 644.397 839.159 648.779 915.837C658.838 1069.23 724.943 1188.71 817.191 1220.23C841.446 1228.07 870.074 1231.95 910.017 1232.8C929.197 1233.2 949.076 1232.92 970.125 1232.61C975.136 1232.54 980.19 1232.46 985.289 1232.4C996.621 1232.26 1007.74 1232.31 1018.34 1232.53C1089.71 1234.04 1151.92 1244.07 1208.52 1263.18C1256.11 1279.46 1299.64 1298.75 1341.74 1317.4C1373.78 1331.6 1404.04 1345.01 1433.44 1355.86C1465.95 1367.74 1495.48 1374.04 1521.23 1374.59C1554.03 1375.28 1581.03 1366.65 1601.49 1348.92C1641.95 1312.15 1664.82 1276.27 1677.95 1228.94C1690.69 1182.99 1694.26 1127.02 1699.2 1049.55C1701.23 1017.64 1703.54 981.461 1706.82 940.971C1711.36 884.926 1724.16 838.708 1735.46 797.934C1748.61 750.456 1759 712.952 1751.65 678.14C1743.72 640.5 1715.47 610.043 1660.08 579.378C1617.06 543.275 1530.55 500.567 1428.75 465.187C1328.6 430.385 1232.42 408.836 1171.46 407.543Z" fill="url(#paint0_linear_157_385)" fill-opacity="0.25"/>
<path d="M1170.58 417.704C1172.02 417.71 1173.45 417.731 1174.92 417.763C1233.04 418.994 1325.52 439.964 1422.32 473.865C1520.83 508.358 1604.82 549.985 1647.01 585.219C1760.94 648.559 1745.9 707.869 1723.14 797.645C1713.29 836.466 1702.13 880.468 1698.52 933.51C1695.77 972.173 1693.9 1006.81 1692.24 1037.36C1684.23 1185.58 1680.58 1253.24 1601 1326.88C1580.05 1345.91 1551.69 1355.19 1516.69 1354.45C1493.23 1353.95 1466.63 1348.93 1437.66 1339.53C1401.89 1329.31 1364.6 1315.22 1325.12 1300.31C1288.03 1286.29 1249.67 1271.8 1208.69 1258.99C1123.62 1232.93 1040.99 1227.86 986.229 1226.31L976.568 1226.21C964.84 1226.08 953.76 1225.97 942.739 1225.73C895.858 1224.74 857.795 1221.65 824.405 1209.8C736.175 1178.08 671.713 1062.56 660.188 915.5C653.785 840.24 664.605 770.335 691.474 713.345C715.588 662.822 756.576 614.647 820.468 561.739C867.03 523.005 921.386 490.469 991.531 459.356C1059.86 429.372 1114.89 416.522 1169.98 417.691L1170.58 417.704ZM1174.95 416.899C1173.47 416.868 1172.03 416.846 1170.59 416.846L1170 416.829C1114.71 415.658 1059.5 428.541 990.996 458.605C920.756 489.761 866.317 522.343 819.679 561.139C755.687 614.134 714.623 662.4 690.455 713.037C663.531 770.142 652.69 840.169 659.102 915.549C670.652 1062.92 735.363 1178.73 823.964 1210.59C857.521 1222.49 895.705 1225.6 942.716 1226.6C953.746 1226.83 964.827 1226.94 976.561 1227.07L986.209 1227.17C1040.88 1228.72 1123.39 1233.79 1208.3 1259.79C1249.24 1272.59 1287.58 1287.08 1324.66 1301.09C1364.16 1316.01 1401.47 1330.11 1437.27 1340.34C1466.35 1349.77 1493.07 1354.81 1516.67 1355.31C1552 1356.06 1580.65 1346.69 1601.82 1327.44C1681.65 1253.57 1685.31 1185.83 1693.33 1037.4C1694.98 1006.85 1696.85 972.223 1699.61 933.56C1703.21 880.58 1714.37 836.61 1724.2 797.82C1735.96 751.482 1745.24 714.882 1737.53 680.909C1729.21 644.183 1701.5 614.47 1647.71 584.571C1605.51 549.316 1521.38 507.613 1422.75 473.077C1325.83 439.132 1233.19 418.133 1174.95 416.899Z" fill="url(#paint1_linear_157_385)" fill-opacity="0.25"/>
<path d="M1511.79 1335.14C1490.65 1334.69 1467.04 1330.83 1441.63 1323.69C1398.01 1314.72 1351.92 1300 1303.12 1284.42C1272.66 1274.69 1241.17 1264.63 1208.31 1255.33C1127.29 1233.03 1050.83 1225.38 986.717 1220.83L982.961 1220.69C924.348 1218.54 873.726 1216.68 830.472 1199.93C745.717 1167.88 682.536 1056.1 669.506 915.144C660.923 840.177 669.238 773.697 694.226 717.54C716.271 668.263 756.771 619.368 818.033 568.051C865.102 527.861 922.94 493.663 994.858 463.504C1063.08 435.219 1120.39 423.858 1176.91 427.375L1178.18 427.4C1233.65 428.575 1322.73 448.992 1416.44 482.009C1511.94 515.657 1593.7 556.264 1635.15 590.634C1745.9 652.33 1732.65 710.158 1712.6 797.693C1704.17 834.481 1694.63 876.178 1691.92 926.094C1689.69 962.85 1688.25 995.872 1686.98 1025.01C1680.74 1168.15 1677.89 1233.49 1601.79 1305.14C1580.03 1325.84 1549.75 1335.94 1511.79 1335.14ZM1163.9 425.974C1111.41 424.862 1057.53 436.546 994.348 462.741C922.318 492.948 864.387 527.202 817.24 567.457C755.871 618.861 715.298 667.858 693.2 717.249C668.159 773.522 659.824 840.128 668.421 915.207C674.848 984.736 693.414 1048.29 722.104 1098.99C750.799 1149.69 788.111 1184.87 830.003 1200.7C873.458 1217.53 924.182 1219.39 982.918 1221.55L986.649 1221.69C1050.67 1226.23 1127.05 1233.88 1207.96 1256.14C1240.78 1265.44 1272.27 1275.49 1302.72 1285.22C1351.55 1300.81 1397.68 1315.54 1441.32 1324.51C1466.8 1331.68 1490.51 1335.55 1511.76 1336C1550.08 1336.81 1580.65 1326.61 1602.63 1305.69C1678.96 1233.82 1681.81 1168.39 1688.06 1025.04C1689.33 995.91 1690.77 962.89 1693 926.138C1695.71 876.278 1705.25 834.612 1713.68 797.853C1724.02 752.672 1732.2 716.991 1724.1 683.873C1715.36 648.066 1688.14 619.112 1635.85 589.986C1594.39 555.595 1512.5 514.915 1416.88 481.224C1323.04 448.159 1233.81 427.717 1178.2 426.539L1176.96 426.514C1172.65 426.249 1168.25 426.066 1163.9 425.974Z" fill="url(#paint2_linear_157_385)" fill-opacity="0.25"/>
<path d="M1505.49 1315.81C1487.04 1315.42 1466.75 1312.62 1445.21 1307.51C1392.09 1300.66 1335.11 1285.29 1274.78 1269.01C1253.15 1263.18 1230.78 1257.14 1207.98 1251.34C1124.83 1230.93 1045.55 1221.74 987.668 1215.03C932.721 1211.49 880.854 1208.15 837.294 1189.75C797.329 1173.82 761.465 1139.64 733.562 1090.92C705.606 1042.1 687.048 981.105 679.892 914.521C669.213 840.926 675.309 775.979 698.016 721.486C718.262 672.779 756.993 624.575 816.417 574.118C864.534 531.94 924.147 497.039 998.667 467.421C1057.27 444.409 1107.77 434.186 1157.61 435.241C1166.16 435.422 1174.83 435.947 1183.37 436.807C1236.6 438.357 1321.92 458.385 1411.67 490.389C1504.71 523.567 1581.58 561.978 1622.57 595.779C1729.96 655.845 1718.55 712.208 1701.29 797.523C1694.26 832.252 1686.29 871.616 1684.47 918.386C1682.76 953.166 1681.75 984.531 1680.86 1012.2C1676.42 1150.35 1674.39 1213.4 1601.88 1283.07C1579.28 1305.67 1546.84 1316.68 1505.49 1315.81ZM1157.64 434.379C1107.61 433.319 1056.95 443.575 998.179 466.646C923.532 496.317 863.817 531.279 815.614 573.535C756.087 624.079 717.281 672.387 696.984 721.212C674.229 775.826 668.116 840.893 678.812 914.6C685.976 981.27 704.566 1042.37 732.575 1091.27C760.581 1140.18 796.62 1174.49 836.798 1190.52C880.545 1208.99 932.522 1212.34 987.551 1215.89C1045.37 1222.59 1124.6 1231.77 1207.66 1252.16C1230.44 1257.96 1252.81 1263.99 1274.44 1269.83C1334.81 1286.11 1391.84 1301.5 1444.97 1308.35C1466.54 1313.47 1486.91 1316.27 1505.46 1316.67C1547.18 1317.55 1579.9 1306.43 1602.73 1283.61C1675.46 1213.72 1677.5 1150.58 1681.95 1012.23C1682.84 984.559 1683.84 953.2 1685.55 918.422C1687.38 871.702 1695.34 832.37 1702.36 797.665C1711.27 753.635 1718.31 718.854 1709.83 686.582C1700.67 651.691 1673.97 623.485 1623.28 595.133C1582.27 561.308 1505.27 522.826 1412.11 489.602C1322.25 457.56 1236.76 437.503 1183.45 435.95C1174.92 435.094 1166.22 434.56 1157.64 434.379Z" fill="url(#paint3_linear_157_385)" fill-opacity="0.25"/>
<path d="M1498.54 1297.94C1483.15 1297.61 1466.53 1295.76 1449.11 1292.41C1384.23 1288.81 1313.46 1272.57 1238.55 1255.38C1228.38 1253.04 1218.12 1250.69 1207.76 1248.34C1144.6 1234.66 1085.44 1225.42 1033.25 1217.27C1017.54 1214.82 1002.71 1212.5 988.529 1210.18C931.423 1204.78 884.54 1199.18 843.869 1180.49C805.56 1164.34 770.922 1130.96 743.685 1083.97C716.384 1036.86 697.778 978.223 689.883 914.395C677.079 842.054 680.966 778.553 701.441 725.638C719.893 677.449 756.894 629.867 814.56 580.18C863.075 536.548 926.271 499.877 1002.4 471.168C1056.82 450.902 1104.16 441.929 1151.36 442.929C1164.13 443.199 1177.11 444.244 1189.93 446.023C1241.22 448.236 1322.78 468.022 1408.18 498.962C1496.99 531.144 1570.75 568.312 1610.54 600.94C1714.7 659.488 1705.15 714.495 1690.69 797.76C1685.01 830.453 1678.58 867.505 1677.6 911.176C1676.41 943.965 1675.82 973.663 1675.31 999.865C1672.68 1133.3 1671.48 1194.2 1602.47 1262.04C1578.89 1286.83 1543.93 1298.9 1498.54 1297.94ZM1151.39 442.066C1104.01 441.063 1056.52 450.064 1001.93 470.391C925.667 499.146 862.354 535.894 813.752 579.602C755.981 629.378 718.901 677.064 700.403 725.384C679.884 778.417 675.98 842.042 688.805 914.491C696.709 978.395 715.349 1037.13 742.701 1084.32C770.039 1131.49 804.842 1165.01 843.347 1181.24C884.181 1200 931.176 1205.63 988.361 1211.03C1002.5 1213.34 1017.33 1215.66 1033.04 1218.11C1085.22 1226.26 1144.36 1235.5 1207.47 1249.17C1217.82 1251.52 1228.08 1253.87 1238.25 1256.2C1313.22 1273.41 1384.04 1289.66 1448.96 1293.26C1466.35 1296.61 1483.05 1298.47 1498.52 1298.8C1544.28 1299.77 1579.54 1287.58 1603.33 1262.57C1672.56 1194.52 1673.76 1133.53 1676.39 999.884C1676.91 973.684 1677.49 943.99 1678.69 911.202C1679.67 867.576 1686.09 830.55 1691.77 797.885C1699.23 754.911 1705.12 720.968 1696.24 689.478C1686.63 655.434 1660.42 627.925 1611.24 600.292C1571.44 567.639 1497.56 530.406 1408.62 498.181C1323.11 467.199 1241.4 447.382 1190.05 445.168C1177.23 443.383 1164.2 442.337 1151.39 442.066Z" fill="url(#paint4_linear_157_385)" fill-opacity="0.25"/>
<path d="M1433.8 1276.02C1365.45 1274.57 1290.97 1260.74 1207.7 1244.18C1173.6 1237.77 1141.24 1232.12 1109.95 1226.66C1066.09 1219 1024.67 1211.77 989.36 1204.24C937.468 1197.66 891.225 1190.56 850.291 1170.18C813.601 1153.85 780.158 1121.35 753.559 1076.17C726.885 1030.86 708.216 974.706 699.566 913.761C684.592 842.827 686.273 780.896 704.558 729.672C721.204 682.108 756.505 635.251 812.476 586.428C862.091 540.845 927.218 503.473 1006.06 475.337C1055.91 457.783 1101.47 449.701 1145.35 450.63C1162.24 450.987 1179.48 452.699 1196.57 455.72C1296.58 461.543 1513.77 537.047 1598.95 606.292C1700.02 663.235 1692.36 716.811 1680.76 797.909C1676.39 828.459 1671.44 863.085 1671.27 903.533C1670.58 934.189 1670.42 962.098 1670.27 986.721C1669.5 1115.29 1669.15 1173.97 1603.54 1239.86C1578.89 1267.09 1540.93 1280.35 1490.72 1279.29C1478.89 1279.04 1466.33 1277.96 1453.38 1276.09C1446.95 1276.18 1440.4 1276.16 1433.8 1276.02ZM1145.37 449.768C1101.33 448.836 1055.61 456.945 1005.61 474.554C926.622 502.74 861.368 540.188 811.661 585.857C755.581 634.772 720.202 681.738 703.513 729.435C685.182 780.784 683.494 842.839 698.491 913.876C707.15 974.889 725.852 1031.14 752.574 1076.53C779.271 1121.87 812.872 1154.51 849.74 1170.92C890.827 1191.37 937.182 1198.49 989.139 1205.08C1024.42 1212.6 1065.85 1219.84 1109.72 1227.5C1141.01 1232.96 1173.37 1238.61 1207.45 1245.02C1290.77 1261.59 1365.32 1275.43 1433.78 1276.87C1440.39 1277.01 1446.96 1277.04 1453.3 1276.94C1466.19 1278.82 1478.81 1279.89 1490.7 1280.15C1541.29 1281.22 1579.55 1267.84 1604.41 1240.38C1636.19 1208.47 1653.5 1177.33 1662.28 1136.27C1670.69 1096.98 1670.97 1050.73 1671.36 986.731C1671.5 962.11 1671.67 934.203 1672.35 903.547C1672.53 863.142 1677.47 828.54 1681.84 798.008C1687.82 756.154 1692.55 723.095 1683.23 692.44C1673.14 659.291 1647.37 632.526 1599.66 605.645C1561.02 574.23 1490.19 538.309 1405.4 507.147C1324.18 477.291 1246.17 457.75 1196.72 454.868C1179.64 451.848 1162.34 450.127 1145.37 449.768Z" fill="url(#paint5_linear_157_385)" fill-opacity="0.25"/>
<path d="M1395.96 1262.55C1331.83 1261.2 1264.58 1250.93 1207.25 1241.07C1130.39 1228.73 1050.32 1215.34 990.109 1199.3C935.297 1190.39 893.915 1180.86 856.822 1160.84C785.13 1126.99 728.722 1032.28 709.587 913.659C692.438 844.004 691.913 783.543 708.02 733.929C722.819 686.914 756.376 640.708 810.604 592.65C860.533 545.7 929.367 506.506 1009.67 479.293C1055.91 463.834 1098.38 456.743 1139.52 457.613C1160.62 458.06 1181.36 460.525 1202.9 465.149C1250.34 468.702 1324.41 487.965 1401.13 516.695C1481.54 546.806 1549.1 581.401 1586.5 611.608C1684.39 667.07 1678.66 719.342 1670 798.469C1666.88 826.889 1663.35 859.099 1663.94 896.348C1663.74 924.839 1663.98 950.934 1664.2 973.956C1665.28 1094.24 1665.83 1154.62 1603.68 1218.73C1578.21 1248.39 1535.65 1263.44 1480.58 1262.28C1472.94 1262.11 1464.99 1261.64 1456.92 1260.87C1437.81 1262.44 1417.35 1263.01 1395.96 1262.55ZM1139.54 456.753C1098.25 455.88 1055.63 462.993 1009.24 478.499C928.779 505.766 859.808 545.045 809.784 592.085C755.446 640.236 721.809 686.569 706.968 733.708C690.823 783.451 691.341 844.036 708.515 913.792C727.689 1032.64 784.297 1127.59 856.243 1161.56C897.487 1183.83 944.852 1192.82 989.831 1200.13C1050.04 1216.16 1130.15 1229.56 1207.04 1241.91C1264.41 1251.78 1331.72 1262.06 1395.94 1263.41C1417.36 1263.87 1437.88 1263.3 1456.92 1261.72C1464.9 1262.5 1472.88 1262.97 1480.56 1263.14C1536.02 1264.31 1578.9 1249.13 1604.56 1219.23C1666.92 1154.91 1666.37 1094.43 1665.28 973.955C1665.07 950.935 1664.83 924.844 1665.02 896.349C1664.43 859.14 1667.96 826.949 1671.07 798.549C1675.55 757.709 1679.08 725.455 1669.31 695.555C1658.74 663.231 1633.41 637.143 1587.2 610.957C1549.79 580.729 1482.11 546.068 1401.59 515.916C1324.76 487.15 1250.56 467.852 1203.09 464.305C1181.55 459.676 1160.73 457.202 1139.54 456.753Z" fill="url(#paint6_linear_157_385)" fill-opacity="0.25"/>
<path d="M1354.93 1251.39C1311.82 1250.48 1263.36 1246.03 1206.77 1237.8C1113.69 1225.34 1043 1211.07 990.646 1194.18C940.946 1184.18 900.263 1173.08 863.031 1151.31C794.858 1117.11 739.742 1025.94 719.164 913.366C699.796 844.987 697.065 785.992 711.041 737.987C723.99 691.547 755.83 645.977 808.374 598.672C872.768 536.804 955.229 501.642 1013.07 483.039C1056.04 469.408 1095.65 463.176 1134.17 463.991C1159.02 464.516 1183.55 467.913 1209.17 474.377C1301.86 482.997 1495.52 553.568 1574.3 616.733C1669.16 670.766 1665.41 721.792 1659.74 799.027C1657.82 825.257 1655.63 854.987 1656.92 888.99C1657.2 915.214 1657.83 939.406 1658.38 960.75C1661.37 1076.79 1662.88 1135.03 1604.09 1197.42C1577.3 1230.35 1530.51 1247.06 1468.76 1245.75C1466.08 1245.7 1463.33 1245.6 1460.6 1245.48C1428.12 1250.28 1393.6 1252.21 1354.93 1251.39ZM1134.19 463.131C1095.52 462.313 1055.77 468.564 1012.66 482.242C954.7 500.883 872.075 536.119 807.549 598.115C754.89 645.517 722.972 691.207 709.984 737.792C695.97 785.919 698.699 845.047 718.095 913.518C738.713 1026.31 794.021 1117.71 862.423 1152.02C899.764 1173.85 940.559 1184.99 990.314 1195C1042.67 1211.89 1113.44 1226.17 1206.58 1238.64C1263.22 1246.88 1311.74 1251.34 1354.91 1252.25C1393.65 1253.07 1428.25 1251.13 1460.68 1246.33C1463.29 1246.46 1466.04 1246.56 1468.73 1246.61C1530.88 1247.93 1578 1231.09 1604.98 1197.92C1663.97 1135.32 1662.46 1076.97 1659.46 960.738C1658.91 939.398 1658.29 915.211 1658 888.98C1656.72 855.005 1658.9 825.295 1660.83 799.081C1666.52 721.562 1670.27 670.347 1575 616.086C1496.15 552.852 1302.15 482.157 1209.38 473.536C1183.77 467.073 1159.14 463.658 1134.19 463.131Z" fill="url(#paint7_linear_157_385)" fill-opacity="0.25"/>
<path d="M1314.5 1241.7C1280.71 1240.99 1245.38 1238.38 1206.51 1233.75C1117.51 1224.18 1045.08 1208.91 991.212 1188.36C951.278 1178.64 908.911 1166.21 869.156 1141.14C804.421 1106.64 750.542 1019.15 728.512 912.783C706.563 844.838 701.758 788.998 713.817 742.026C724.9 696.235 755.048 651.383 805.976 604.897C857.281 554.703 932.032 512.903 1016.47 487.187C1056.5 475.159 1093.51 469.684 1129.59 470.448C1157.94 471.047 1186.08 475.486 1215.61 484.017C1304.54 494.035 1485.67 561.034 1562.6 622.079C1654.6 674.653 1652.9 724.416 1650.32 799.748C1649.51 823.674 1648.58 850.797 1650.5 881.433C1651.23 905.242 1652.21 927.386 1653.08 946.927C1658.08 1058.71 1660.58 1114.81 1605.07 1175.45C1571.11 1219.48 1510.01 1229.05 1464.73 1229.34L1464.6 1229.35C1419.47 1238.84 1370.37 1242.88 1314.5 1241.7ZM1129.61 469.59C1093.38 468.824 1056.25 474.316 1016.07 486.38C931.463 512.156 856.552 554.045 805.142 604.342C754.095 650.935 723.872 695.915 712.75 741.852C700.663 788.949 705.47 844.921 727.451 912.953C749.519 1019.51 803.576 1107.22 868.516 1141.83C908.38 1166.97 950.86 1179.44 990.823 1189.16C1044.72 1209.72 1117.26 1225.02 1206.35 1234.6C1245.27 1239.24 1280.64 1241.84 1314.48 1242.56C1370.43 1243.74 1419.6 1239.7 1464.82 1230.19C1510.36 1229.9 1571.8 1220.24 1605.97 1175.93C1661.68 1115.08 1659.17 1058.88 1654.17 946.902C1653.3 927.366 1652.31 905.222 1651.59 881.41C1649.66 850.791 1650.59 823.69 1651.41 799.775C1653.99 724.171 1655.7 674.225 1563.3 621.427C1486.29 560.323 1304.85 493.206 1215.87 483.187C1186.33 474.648 1158.08 470.193 1129.61 469.59Z" fill="url(#paint8_linear_157_385)" fill-opacity="0.25"/>
<path d="M1277.58 1235.09C1254.5 1234.6 1230.37 1233.19 1205.84 1230.89C1119.1 1223.75 1045.03 1207.42 991.619 1183.64C941.996 1169.22 907.22 1153.78 875.26 1131.99C845.118 1114.82 816.543 1085.6 792.591 1047.44C768.496 1009.05 749.625 962.475 738.022 912.746C713.754 846.057 706.808 791.611 716.779 746.25C725.972 701.031 754.395 656.796 803.671 611.017C855.987 558.784 932.718 516.156 1019.75 490.97C1057.09 480.313 1091.66 475.478 1125.44 476.192C1157.02 476.86 1188.51 482.447 1221.71 493.274C1307.68 504.853 1476.04 568.955 1550.16 627.303C1639.29 678.599 1639.72 727.295 1640.36 801.006C1640.55 822.588 1640.76 847.052 1643.21 874.304C1644.34 895.606 1645.59 914.763 1646.81 933.282C1653.89 1041.24 1657.45 1095.42 1605.2 1154.52C1572.75 1199.11 1512.78 1211.67 1468.18 1214.36L1468.04 1214.38C1411.83 1229.61 1347.75 1236.57 1277.58 1235.09ZM1125.46 475.332C1091.54 474.615 1056.84 479.466 1019.37 490.161C932.156 515.399 855.257 558.125 802.832 610.467C753.436 656.359 724.934 700.729 715.709 746.101C705.71 791.59 712.663 846.164 736.965 912.939C748.578 962.705 767.481 1009.36 791.623 1047.82C815.652 1086.1 844.344 1115.44 874.595 1132.66C906.623 1154.51 941.497 1169.99 991.172 1184.42C1044.63 1208.22 1118.85 1224.6 1205.73 1231.74C1230.28 1234.04 1254.45 1235.46 1277.56 1235.95C1347.83 1237.43 1412.02 1230.46 1468.34 1215.21C1513.19 1212.5 1573.47 1199.85 1606.12 1154.99C1658.55 1095.68 1654.99 1041.39 1647.89 933.244C1646.68 914.723 1645.42 895.574 1644.3 874.261C1641.84 847.023 1641.63 822.574 1641.44 801.001C1640.8 727.032 1640.37 678.162 1550.86 626.652C1517.01 599.997 1458.56 569.145 1390.58 542.051C1326.73 516.606 1263.71 498.066 1222 492.453C1188.79 481.61 1157.18 476.003 1125.46 475.332Z" fill="url(#paint9_linear_157_385)" fill-opacity="0.25"/>
<path d="M1247.41 1229.36C1233.74 1229.07 1219.74 1228.44 1205.79 1227.49C1119.21 1222.51 1045.47 1205.54 992.542 1178.43C947.796 1163.1 913.675 1145.83 881.83 1122.39C823.141 1086.64 773.095 1008.19 747.919 912.503C721.281 847.149 712.192 794.161 720.121 750.464C727.408 705.875 754.12 662.312 801.781 617.28C855.117 563.062 933.863 519.654 1023.52 495.035C1058.44 485.578 1090.82 481.31 1122.5 481.98C1157.1 482.711 1191.74 489.527 1228.4 502.819C1309.55 515.718 1468.49 578.15 1538.46 632.674C1624.91 682.734 1627.57 730.426 1631.58 802.61C1632.64 821.696 1633.84 843.329 1636.72 867.05C1638.17 885.66 1639.69 902.596 1641.16 918.972C1650.2 1019.93 1655.17 1075.54 1606.12 1133.15C1575.18 1178.22 1516.3 1193.76 1472.34 1198.86C1405.43 1220.85 1329.79 1231.11 1247.41 1229.36ZM1122.52 481.119C1090.71 480.446 1058.21 484.732 1023.17 494.223C933.309 518.894 854.389 562.402 800.937 616.736C753.15 661.886 726.359 705.593 719.048 750.341C711.093 794.162 720.195 847.28 746.874 912.722C772.086 1008.55 822.281 1087.2 881.133 1123.05C913.033 1146.53 947.251 1163.85 992.036 1179.19C1045.04 1206.34 1118.95 1223.35 1205.71 1228.34C1219.67 1229.3 1233.7 1229.93 1247.39 1230.22C1329.92 1231.97 1405.7 1221.69 1472.64 1199.69C1516.7 1194.58 1575.92 1178.95 1607.05 1133.6C1656.28 1075.78 1651.3 1020.06 1642.24 918.917C1640.78 902.541 1639.26 885.609 1637.8 866.983C1634.92 843.276 1633.72 821.656 1632.66 802.577C1628.64 730.143 1625.97 682.29 1539.16 632.021C1506.01 606.19 1452.07 577.373 1387.32 550.921C1327.82 526.613 1268.53 508.328 1228.72 502.007C1192.05 488.696 1157.27 481.853 1122.52 481.119Z" fill="url(#paint10_linear_157_385)" fill-opacity="0.25"/>
<path d="M1222.68 1224.51C1216.83 1224.38 1210.89 1224.19 1205.02 1223.93C1118.23 1221.03 1044.88 1203.46 992.907 1173.1C953.032 1157.12 919.697 1137.95 887.915 1112.71C832.715 1076.6 783.953 1001.69 757.441 912.278C727.998 847.393 717.094 797.357 723.11 754.768C728.466 710.844 753.449 667.976 799.481 623.703C853.01 568.334 935.831 523.006 1026.72 499.325C1059.43 490.92 1089.79 487.143 1119.53 487.772C1157.45 488.573 1193.93 496.456 1234.35 512.579C1311.12 526.855 1458.16 586.046 1525.8 638.194C1609.73 687.132 1614.73 733.951 1622.31 804.823C1624.07 821.229 1626.06 839.82 1629.19 859.829C1630.89 875.547 1632.58 890.053 1634.22 904.08C1645.64 1001.69 1651.94 1055.45 1606.03 1111.69C1576.64 1157.19 1518.88 1175.71 1475.59 1183.25C1400.41 1212.16 1312.99 1226.42 1222.68 1224.51ZM1119.55 486.911C1089.68 486.28 1059.2 490.071 1026.38 498.508C935.286 522.241 852.276 567.681 798.63 623.172C752.469 667.563 727.41 710.581 722.033 754.673C715.997 797.391 726.918 847.552 756.404 912.517C782.951 1002.05 831.85 1077.15 887.19 1113.34C919.014 1138.62 952.44 1157.85 992.343 1173.82C1044.42 1204.25 1117.97 1221.89 1204.98 1224.79C1210.84 1225.05 1216.79 1225.24 1222.66 1225.36C1313.14 1227.28 1400.72 1212.99 1475.95 1184.05C1519.34 1176.52 1577.42 1157.88 1606.97 1112.12C1653.05 1055.67 1646.75 1001.8 1635.3 904.007C1633.66 889.981 1631.96 875.477 1630.27 859.749C1627.14 839.737 1625.15 821.151 1623.39 804.757C1619.48 768.122 1616.38 739.188 1603.66 712.544C1589.92 683.777 1566.13 660.643 1526.5 637.54C1494.59 612.936 1443.69 585.377 1383.23 559.983C1328.11 536.836 1272.59 518.816 1234.72 511.778C1194.27 495.63 1157.63 487.716 1119.55 486.911Z" fill="url(#paint11_linear_157_385)" fill-opacity="0.25"/>
<path d="M1197.55 1221.12C1113.44 1219.34 1042.91 1201.16 993.615 1168.53C957.627 1151.75 927.019 1131.76 894.304 1103.68C842.51 1067.12 795.012 995.606 767.205 912.335C735.272 848.714 722.296 800.026 726.34 759.067C729.71 716.342 753.639 672.884 797.468 629.876C851.981 572.464 936.843 526.271 1030.31 503.134C1061.02 495.629 1089.56 492.272 1117.55 492.864C1158.15 493.722 1197.31 502.938 1240.78 521.872C1315.72 538.097 1448.32 593.526 1513.77 643.474C1595.49 691.558 1602.63 735.35 1614.45 807.903C1616.76 822.055 1619.15 836.683 1622.32 852.78C1624.1 865.383 1625.87 877.219 1627.56 888.667C1641.66 983.476 1649.43 1035.7 1606.55 1090.86C1578.72 1136.84 1522.04 1158.4 1479.39 1168.41C1396.36 1204.87 1301.4 1223.12 1204.69 1221.23C1202.29 1221.21 1199.92 1221.17 1197.55 1221.12ZM1117.58 492.001C1089.46 491.406 1060.81 494.779 1029.98 502.312C936.304 525.501 851.245 571.805 796.612 629.347C752.654 672.479 728.643 716.104 725.26 759.001C721.202 800.09 734.202 848.899 766.177 912.601C794.015 995.978 841.639 1067.66 893.547 1104.29C926.3 1132.4 956.985 1152.44 992.995 1169.23C1042.41 1201.94 1113.16 1220.2 1197.53 1221.98C1199.9 1222.03 1202.28 1222.07 1204.68 1222.09C1301.58 1223.98 1396.72 1205.69 1479.81 1169.19C1522.57 1159.18 1579.53 1137.5 1607.5 1091.28C1650.55 1035.9 1642.76 983.57 1628.64 888.572C1626.94 877.124 1625.18 865.291 1623.39 852.673C1620.22 836.567 1617.84 821.943 1615.53 807.8C1609.62 771.548 1604.95 742.918 1591.4 716.636C1576.78 688.292 1553.06 665.527 1514.46 642.817C1483.77 619.394 1435.89 593.045 1379.68 568.661C1328.94 546.651 1277.16 528.863 1241.18 521.082C1197.67 502.117 1158.35 492.863 1117.58 492.001Z" fill="url(#paint12_linear_157_385)" fill-opacity="0.25"/>
<path d="M1185.56 1218C1106.02 1216.32 1039.85 1197.49 994.215 1163.54C962.808 1146.59 933.916 1125.24 900.468 1094.28C851.951 1057.24 805.657 989.186 776.597 912.191C741.607 849.038 726.977 803.139 729.137 763.303C730.578 721.219 752.77 678.43 795.095 636.107C850.646 576.692 937.642 529.677 1033.79 507.112C1062.73 500.406 1089.64 497.421 1116.07 497.979C1159.26 498.893 1200.98 509.494 1247.35 531.338C1317.46 548.906 1439.29 601.451 1502.18 648.83C1582.23 696.313 1592.03 739.913 1608.28 812.149C1610.67 822.795 1613.15 833.814 1616.02 845.616C1617.69 854.765 1619.34 863.566 1620.91 872.032C1638.17 964.465 1647.67 1015.38 1607.66 1069.69C1581.37 1116.06 1525.71 1140.67 1483.65 1153.15C1397.95 1195.22 1301.46 1217.65 1204.5 1218.07C1198.14 1218.16 1191.77 1218.13 1185.56 1218ZM1116.09 497.12C1089.55 496.559 1062.53 499.557 1033.48 506.288C937.109 528.908 849.908 576.031 794.233 635.583C751.772 678.034 729.501 721.002 728.053 763.266C725.887 803.233 740.546 849.253 775.58 912.485C804.67 989.564 851.071 1057.76 899.682 1094.86C933.158 1125.86 962.117 1147.25 993.541 1164.21C1039.31 1198.26 1105.72 1217.17 1185.54 1218.86C1191.77 1218.99 1198.15 1219.02 1204.52 1218.93C1301.67 1218.51 1398.36 1196.03 1484.12 1153.92C1526.29 1141.41 1582.2 1116.68 1608.62 1070.09C1648.8 1015.56 1639.28 964.534 1621.99 871.912C1620.41 863.444 1618.77 854.646 1617.09 845.477C1614.21 833.66 1611.74 822.649 1609.35 812.001C1601.21 775.847 1594.79 747.295 1580.23 721.217C1564.54 693.129 1540.68 670.601 1502.87 648.176C1439.92 600.753 1317.9 548.116 1247.79 530.557C1201.36 508.675 1159.48 498.037 1116.09 497.12Z" fill="url(#paint13_linear_157_385)" fill-opacity="0.25"/>
<path d="M1176.16 1214.94C1100.07 1213.33 1037.38 1193.78 994.87 1158.39C963.097 1138.57 936.691 1114.62 906.802 1084.75C860.825 1046.58 816.917 983.632 786.3 912C760.96 870.395 731.949 816.426 732.304 767.56C731.798 726.146 752.225 684.042 793.016 642.417C848.707 581.922 940.026 532.882 1037.3 511.229C1064.59 505.226 1089.99 502.567 1114.96 503.095C1161.22 504.073 1204.01 515.735 1253.71 540.923C1320.11 560.147 1430.87 610.245 1490.07 654.245C1569.07 701.57 1581.92 745.552 1603.2 818.422C1605.09 824.863 1607.03 831.522 1609.09 838.421C1610.3 843.683 1611.51 848.838 1612.67 853.878C1633.07 941.609 1645.38 994.564 1608.13 1048.4C1583.42 1095.09 1528.84 1122.75 1487.4 1137.73C1400.57 1184.73 1299.99 1212.06 1204.12 1214.73C1194.69 1215.06 1185.28 1215.14 1176.16 1214.94ZM1114.98 502.236C1089.9 501.706 1064.4 504.374 1037.01 510.398C991.398 520.554 945.672 537.131 904.764 558.349C859.431 581.86 821.541 609.965 792.149 641.895C751.213 683.669 730.711 725.95 731.218 767.553C730.863 816.594 759.931 870.681 785.297 912.322C815.939 984.019 859.938 1047.09 905.985 1085.31C935.892 1115.2 962.346 1139.2 994.145 1159.02C1036.8 1194.54 1099.75 1214.19 1176.14 1215.8C1185.28 1215.99 1194.71 1215.92 1204.17 1215.59C1251.98 1214.26 1300.55 1207.02 1348.53 1194.06C1397.16 1180.93 1444.06 1162.23 1487.94 1138.48C1529.47 1123.47 1584.29 1095.68 1609.1 1048.78C1646.52 994.714 1634.18 941.646 1613.75 853.727C1612.57 848.688 1611.37 843.535 1610.15 838.253C1608.08 831.332 1606.14 824.672 1604.26 818.235C1582.92 745.175 1570.04 701.074 1490.77 653.589C1431.51 609.549 1320.58 559.371 1254.18 540.155C1204.41 514.928 1161.45 503.218 1114.98 502.236Z" fill="url(#paint14_linear_157_385)" fill-opacity="0.25"/>
<path d="M1168.18 1211.9C1094.73 1210.35 1034.88 1190.02 995.093 1153.11C964.612 1131.18 939.391 1103.95 912.691 1075.12C869.764 1036.18 827.077 976.648 795.55 911.773C766.707 868.591 736.982 818.233 735.019 771.834C732.552 731.118 751.213 689.718 790.489 648.789C847.138 586.361 940.55 536.523 1040.38 515.462C1066.14 510.09 1090.16 507.72 1113.8 508.22C1162.44 509.248 1207.42 522.322 1259.64 550.611C1321.94 571.429 1420.43 617.908 1477.56 659.729C1556.8 707.716 1573.34 753.184 1600.75 828.515L1601.75 831.247L1602.4 833.484C1627.67 920.545 1642.92 973.096 1608.18 1027.05C1585.07 1073.99 1531.56 1104.71 1490.74 1122.22C1401.67 1174.74 1299.61 1206.34 1203.32 1211.24C1191.39 1211.92 1179.57 1212.14 1168.18 1211.9ZM1113.82 507.36C1090.08 506.858 1065.96 509.238 1040.09 514.634C940.032 535.742 846.396 585.703 789.614 648.274C750.193 689.365 731.458 730.945 733.934 771.862C735.905 818.436 765.692 868.901 794.565 912.128C826.109 977.044 868.869 1036.67 911.848 1075.66C938.552 1104.49 963.802 1131.75 994.316 1153.71C1034.26 1190.77 1094.39 1211.2 1168.16 1212.76C1179.59 1213 1191.44 1212.78 1203.41 1212.09C1299.9 1207.19 1402.15 1175.53 1491.33 1122.95C1532.24 1105.4 1585.96 1074.55 1609.17 1027.41C1644.06 973.213 1628.78 920.546 1603.45 833.297L1602.79 831.038L1601.79 828.28C1574.32 752.777 1557.74 707.208 1478.25 659.076C1421.07 617.216 1322.44 570.665 1260.15 549.861C1207.84 521.516 1162.68 508.393 1113.82 507.36Z" fill="url(#paint15_linear_157_385)" fill-opacity="0.25"/>
<path d="M1162.3 1209.67C1090.96 1208.16 1033.52 1187 996.188 1148.48C972.853 1129.06 952.929 1105.52 931.833 1080.61C927.804 1075.85 923.703 1071.01 919.494 1066.09C879.169 1025.78 837.722 969.628 805.767 912.007C774.959 869.797 742.928 820.725 738.737 776.458C734.302 736.418 751.193 695.693 788.95 655.414C846.529 591.003 941.995 540.322 1044.32 519.845C1068.68 515.022 1091.42 512.905 1113.81 513.378C1164.75 514.455 1211.79 528.978 1266.33 560.466C1323.89 582.7 1410.82 625.877 1465.73 665.46C1541.27 711.826 1564.97 756.457 1595.03 824.453C1623.67 903.134 1639.67 954.025 1608.85 1006.25C1587.35 1053.42 1534.93 1087.25 1494.74 1107.32C1403.56 1165.41 1300.08 1201.3 1203.31 1208.43C1189.31 1209.53 1175.51 1209.94 1162.3 1209.67ZM1113.83 512.52C1091.34 512.044 1068.51 514.167 1044.05 519.008C941.479 539.541 845.79 590.343 788.073 654.906C750.161 695.352 733.196 736.273 737.656 776.522C741.863 820.957 773.961 870.139 804.8 912.392C836.767 970.035 878.263 1026.26 918.624 1066.6C922.807 1071.49 926.907 1076.33 930.933 1081.09C952.056 1106.03 972.007 1129.59 995.366 1149.04C1013.38 1167.62 1036.44 1182.36 1063.87 1192.8C1092.74 1203.79 1125.85 1209.75 1162.27 1210.52C1175.54 1210.8 1189.38 1210.38 1203.42 1209.28C1300.4 1202.15 1404.08 1166.18 1495.37 1108.03C1535.65 1087.91 1588.26 1053.94 1609.85 1006.58C1640.82 954.116 1624.78 903.095 1596.06 824.197C1565.93 756.027 1542.17 711.295 1466.42 664.803C1411.47 625.187 1324.43 581.952 1266.89 559.733C1212.23 528.176 1165 513.602 1113.83 512.52Z" fill="url(#paint16_linear_157_385)" fill-opacity="0.25"/>
<path d="M1156.71 1206.65C1086.99 1205.17 1031.56 1183.17 996.411 1143C978.065 1125.32 962.337 1104.61 945.683 1082.68C939.174 1074.11 932.442 1065.25 925.31 1056.23C897.121 1025 855.089 974.54 814.828 911.445C780.309 868.157 747.518 822.339 741.204 780.323C734.773 740.983 749.921 700.943 786.227 661.32C844.811 594.937 942.453 543.436 1047.43 523.555C1070.21 519.284 1092.41 517.341 1113.39 517.785C1166.63 518.91 1215.71 534.904 1272.51 569.642C1320.86 591.244 1397.26 630.588 1453.67 670.49C1524.1 714.325 1555.31 755.77 1588.27 816.928C1622.23 890.81 1634.84 937.044 1609.49 984.663C1589.57 1032 1538.17 1068.95 1498.57 1091.61C1405.25 1155.24 1300.2 1195.42 1202.72 1204.76C1186.93 1206.32 1171.46 1206.96 1156.71 1206.65ZM1113.41 516.926C1092.33 516.481 1070.05 518.431 1047.18 522.721C998.479 531.943 949.307 548.732 904.975 571.27C856.789 595.77 815.421 626.738 785.344 660.816C748.875 700.619 733.659 740.862 740.127 780.426C746.468 822.604 779.323 868.523 813.886 911.862C854.153 974.972 896.219 1025.47 924.412 1056.71C931.52 1065.69 938.248 1074.55 944.757 1083.12C961.428 1105.08 977.177 1125.82 995.546 1143.51C1012.51 1162.89 1034.54 1178.25 1061.01 1189.12C1088.89 1200.57 1121.08 1206.75 1156.69 1207.51C1171.49 1207.82 1187.02 1207.18 1202.85 1205.61C1300.55 1196.25 1405.8 1156 1499.24 1092.29C1538.94 1069.57 1590.5 1032.49 1610.5 984.97C1623.08 961.348 1626.63 936.83 1621.67 907.845C1616.67 878.728 1603.15 846.794 1589.28 816.618C1556.24 755.306 1524.95 713.768 1454.36 669.834C1397.92 629.905 1321.44 590.518 1273.11 568.932C1216.17 534.105 1166.9 518.057 1113.41 516.926Z" fill="url(#paint17_linear_157_385)" fill-opacity="0.25"/>
<path d="M1152.21 1204.43C1083.9 1202.98 1030.31 1180.1 997.235 1138.26C982.623 1121.88 970.063 1103.12 956.764 1083.26C948.923 1071.55 940.816 1059.44 931.84 1047.14C925.265 1038.97 918.354 1030.47 911.18 1021.63C884.488 988.772 854.238 951.526 824.769 911.665C782.376 862.872 752.542 822.67 744.666 784.998C736.243 746.374 749.623 707.026 784.439 668.053C843.049 600.728 945.227 547.107 1051.1 528.108C1072.69 524.272 1093.74 522.538 1113.68 522.959C1169.85 524.147 1219.27 541.102 1278.91 579.647C1300.69 590.964 1376.64 631.297 1441.55 676.331C1504.23 716.03 1544.69 754.809 1581.25 810.194C1610.27 859.683 1633.82 912.563 1609.84 963.849C1595.34 1001.39 1558.14 1040.39 1502.25 1076.64C1407.01 1145.81 1300.53 1190.26 1202.42 1201.81C1185.1 1203.88 1168.21 1204.76 1152.21 1204.43ZM1113.7 522.099C1093.68 521.676 1072.53 523.418 1050.85 527.274C1001.16 536.19 950.877 553.047 905.435 576.025C856.119 600.96 813.973 632.612 783.55 667.559C748.566 706.72 735.124 746.282 743.6 785.137C751.505 822.964 781.401 863.257 823.855 912.123C853.315 951.973 883.573 989.226 910.27 1022.09C917.442 1030.92 924.351 1039.43 930.915 1047.58C939.867 1059.85 947.97 1071.95 955.807 1083.66C969.125 1103.54 981.702 1122.33 996.335 1138.73C1012.3 1158.93 1033.37 1174.91 1058.97 1186.22C1085.93 1198.13 1117.29 1204.55 1152.18 1205.28C1168.25 1205.62 1185.21 1204.74 1202.59 1202.66C1300.9 1191.08 1407.58 1146.56 1502.96 1077.29C1558.99 1040.95 1596.31 1001.81 1610.86 964.128C1621.4 941.602 1623.67 917.763 1617.79 891.279C1612.72 868.445 1601.42 842.561 1582.22 809.819C1545.57 754.298 1505.03 715.441 1442.24 675.669C1377.3 630.617 1301.29 590.257 1279.54 578.959C1219.75 540.307 1170.14 523.292 1113.7 522.099Z" fill="url(#paint18_linear_157_385)" fill-opacity="0.25"/>
<path d="M1148.15 1202.18C1081.92 1200.78 1028.53 1176.35 997.804 1133.4C986.086 1118.01 975.999 1100.69 965.32 1082.36C956.895 1067.89 948.183 1052.93 938.046 1037.84C912.274 1001.55 878.161 962.198 842.051 920.534L834.271 911.557C796.327 871.429 758.391 828.938 747.612 789.234C737.174 751.301 748.802 712.611 782.178 674.243C841.747 604.919 946.117 550.416 1054.56 532C1075.06 528.545 1095.08 526.998 1114.06 527.399C1187.49 528.951 1241.85 559.426 1285.34 589.032C1313.4 606.082 1369.43 640.758 1429.64 681.634C1480.01 714.207 1532.42 751.451 1574.59 803.048C1615.61 856.764 1627.04 901.158 1610.55 942.753C1597.12 980.896 1562.01 1020.84 1506.2 1061.5C1409 1136.26 1300.99 1185.01 1202.08 1198.79C1183.39 1201.41 1165.25 1202.55 1148.15 1202.18ZM1114.09 526.541C1095.02 526.138 1074.92 527.692 1054.33 531.158C945.624 549.622 841 604.26 781.283 673.755C747.733 712.322 736.047 751.238 746.551 789.409C757.379 829.285 795.387 871.863 833.389 912.055L841.157 921.018C877.258 962.664 911.353 1002 937.095 1038.25C947.214 1053.31 955.918 1068.26 964.335 1082.71C975.031 1101.07 985.129 1118.41 996.87 1133.83C1011.91 1154.86 1032.13 1171.49 1056.97 1183.26C1083.14 1195.66 1113.81 1202.32 1148.13 1203.04C1165.3 1203.41 1183.52 1202.26 1202.27 1199.64C1301.39 1185.83 1409.6 1136.99 1506.95 1062.12C1562.9 1021.37 1598.11 981.285 1611.6 943.003C1628.17 901.169 1616.71 856.55 1575.51 802.595C1533.25 750.888 1480.76 713.584 1430.33 680.977C1370.11 640.097 1314.06 605.409 1286.02 588.369C1242.41 558.675 1187.86 528.1 1114.09 526.541Z" fill="url(#paint19_linear_157_385)" fill-opacity="0.25"/>
<path d="M1144.61 1199.96C1079.33 1198.58 1027.44 1173.2 998.519 1128.51C989.136 1113.96 981.063 1097.79 972.515 1080.67C964.031 1063.67 955.256 1046.09 944.419 1028.53C923.39 994.447 893.349 959.436 843.97 911.462C802.109 870.741 763.486 831.077 750.792 793.504C738.335 756.276 748.209 718.252 780.143 680.481C840.649 609.164 947.176 553.789 1058.15 535.96C1077.63 532.849 1096.67 531.468 1114.75 531.85C1190.93 533.46 1247.01 566.437 1291.81 598.481C1299.1 603.703 1306.55 609.072 1314.18 614.579C1344.6 636.515 1379.08 661.382 1417.72 686.989C1426.88 693.054 1436.4 699.246 1445.61 705.236C1488.63 733.214 1533.11 762.141 1567.89 795.93C1608.87 835.777 1624.25 880.428 1611.2 921.655C1599.03 959.808 1565.03 1001.75 1510.13 1046.33C1411.03 1126.67 1301.54 1179.73 1201.82 1195.75C1181.9 1198.93 1162.65 1200.34 1144.61 1199.96ZM1114.78 530.99C1096.62 530.606 1077.49 531.994 1057.93 535.115C946.687 552.989 839.899 608.504 779.242 680.001C747.127 717.983 737.204 756.243 749.746 793.719C762.497 831.456 801.195 871.207 843.132 912.001C892.455 959.925 922.456 994.883 943.444 1028.9C954.264 1046.43 963.031 1064 971.509 1080.98C980.065 1098.12 988.148 1114.31 997.558 1128.9C1011.72 1150.78 1031.14 1168.08 1055.28 1180.31C1080.72 1193.2 1110.77 1200.1 1144.59 1200.82C1162.71 1201.2 1182.04 1199.78 1202.04 1196.6C1251.69 1188.62 1303.96 1171.41 1357.39 1145.45C1410.39 1119.69 1462.04 1086.55 1510.91 1046.93C1565.94 1002.25 1600.03 960.17 1612.26 921.869C1625.39 880.374 1609.93 835.451 1568.72 795.387C1533.88 761.535 1489.35 732.576 1446.29 704.571C1437.08 698.585 1427.57 692.394 1418.42 686.33C1379.79 660.737 1345.32 635.879 1314.9 613.944C1307.28 608.441 1299.82 603.068 1292.54 597.845C1247.58 565.69 1191.31 532.607 1114.78 530.99Z" fill="url(#paint20_linear_157_385)" fill-opacity="0.25"/>
<path d="M1143.34 1189.03C1078.36 1187.66 1027.28 1163.42 999.505 1120.78C989.658 1105.68 981.435 1089.08 972.732 1071.5C964.983 1055.85 956.971 1039.67 947.207 1023.35C942.6 1015.7 937.354 1007.76 931.617 999.718C912.592 973.068 887.956 945.007 851.739 908.73C812.099 868.899 775.54 830.105 763.724 793.34C752.132 756.977 761.896 719.944 792.741 683.27C828.267 640.975 879.412 605.508 940.643 580.7C979.745 564.498 1022.75 552.687 1065.02 546.536C1083.63 543.723 1101.88 542.484 1119.26 542.851C1165.95 543.838 1208.9 556.045 1254.43 581.269C1266.89 588.217 1279.74 596.253 1293.7 605.833C1304.73 613.305 1315.98 621.031 1327.89 629.207C1354.59 647.532 1384.84 668.305 1417.7 689.62C1423.09 693.09 1428.52 696.57 1433.99 700.07C1471.15 723.874 1509.57 748.489 1542.1 776.328C1549.83 782.937 1557.04 789.573 1563.54 796.052C1602.7 834.965 1617.35 878.605 1604.78 918.931C1593 956.555 1560.26 997.636 1507.49 1041.03C1472.35 1070.38 1432.63 1096.76 1389.44 1119.42C1359.45 1135.35 1328.16 1149.16 1296.45 1160.45C1264.6 1171.76 1234.1 1179.52 1200.44 1184.87C1180.64 1188.02 1161.43 1189.42 1143.34 1189.03ZM1119.28 541.994C1101.82 541.626 1083.5 542.867 1064.81 545.693C1022.44 551.855 979.331 563.7 940.143 579.938C878.751 604.811 827.465 640.377 791.838 682.79C760.816 719.672 751.005 756.936 762.674 793.546C774.543 830.478 811.173 869.353 850.891 909.26C887.072 945.503 911.678 973.53 930.676 1000.14C936.399 1008.16 941.633 1016.09 946.231 1023.71C955.977 1040.01 963.981 1056.18 971.722 1071.81C980.437 1089.41 988.67 1106.03 998.545 1121.17C1026.51 1164.11 1077.93 1188.51 1143.32 1189.89C1161.48 1190.28 1180.77 1188.87 1200.65 1185.72C1234.39 1180.35 1264.98 1172.57 1296.9 1161.23C1328.67 1149.92 1360 1136.09 1390.05 1120.13C1433.3 1097.44 1473.08 1071.02 1508.28 1041.63C1561.18 998.125 1594 956.913 1605.83 919.14C1618.48 878.549 1603.77 834.645 1564.39 795.519C1557.87 789.024 1550.64 782.371 1542.89 775.751C1510.32 747.863 1471.86 723.229 1434.67 699.403C1429.2 695.905 1423.77 692.425 1418.39 688.953C1385.54 667.647 1356.59 647.776 1328.6 628.559C1316.69 620.381 1305.44 612.655 1294.41 605.184C1280.41 595.584 1267.54 587.533 1255.05 580.571C1209.34 555.242 1166.2 542.986 1119.28 541.994Z" fill="url(#paint21_linear_157_385)" fill-opacity="0.25"/>
<path d="M1141.65 1178.12C1077.09 1176.76 1026.89 1153.68 1000.29 1113.14C989.95 1097.47 981.6 1080.43 972.758 1062.4C965.764 1048.14 958.534 1033.39 949.842 1018.36C945.482 1010.94 940.507 1003.19 935.053 995.308C916.967 969.173 893.647 941.727 859.441 906.324C822.055 867.435 787.594 829.556 776.666 793.636C765.955 758.17 775.595 722.172 805.328 686.636C840.196 644.707 890.345 610.75 950.348 588.43C988.178 573.673 1028.97 563.383 1071.61 557.852C1089.31 555.335 1106.73 554.239 1123.36 554.591C1169.01 555.555 1211.32 567.069 1256.52 590.821C1268.8 597.347 1281.42 604.881 1295.1 613.854C1311.23 624.143 1327.98 635.086 1345.7 646.674C1368.24 661.413 1391.55 676.653 1417.08 692.829L1419.81 694.539C1460.67 720.106 1502.93 746.545 1537.94 777.275C1545.31 783.735 1552.22 790.25 1558.45 796.628C1595.75 834.565 1609.65 877.141 1597.57 916.517C1586.19 953.575 1554.76 993.742 1504.16 1035.91C1470.64 1064.74 1432.22 1089.73 1386.69 1112.31C1357.4 1127.19 1327.06 1139.91 1293.95 1151.2C1263.91 1161.39 1235.41 1168.22 1198.66 1174.01C1178.97 1177.12 1159.79 1178.51 1141.65 1178.12ZM1123.38 553.731C1106.68 553.378 1089.19 554.48 1071.42 557.004C1028.69 562.551 987.789 572.866 949.875 587.66C889.701 610.04 839.399 644.099 804.421 686.16C774.522 721.9 764.827 758.124 775.614 793.831C786.59 829.91 821.125 867.874 858.584 906.842C892.754 942.209 916.046 969.621 934.105 995.717C939.547 1003.58 944.51 1011.32 948.86 1018.72C957.537 1033.72 964.763 1048.46 971.75 1062.71C980.599 1080.76 988.962 1097.82 999.33 1113.53C1012.41 1133.46 1031.28 1149.29 1055.41 1160.57C1080.09 1172.1 1109.1 1178.29 1141.62 1178.98C1159.85 1179.37 1179.11 1177.97 1198.87 1174.85C1235.71 1169.04 1264.27 1162.21 1294.38 1151.99C1327.55 1140.68 1357.93 1127.94 1387.27 1113.03C1432.88 1090.42 1471.38 1065.38 1504.96 1036.49C1555.68 994.225 1587.2 953.929 1598.62 916.726C1610.78 877.089 1596.82 834.251 1559.3 796.105C1553.05 789.705 1546.13 783.183 1538.74 776.702C1503.67 745.921 1461.38 719.459 1420.47 693.866L1417.75 692.161C1392.24 675.991 1368.93 660.749 1346.38 646.013C1328.66 634.424 1311.91 623.479 1295.78 613.188C1282.08 604.206 1269.43 596.655 1257.12 590.109C1211.74 566.26 1169.24 554.701 1123.38 553.731Z" fill="url(#paint22_linear_157_385)" fill-opacity="0.25"/>
<path d="M1139.79 1167.18C1076.52 1165.84 1025.84 1143.32 1000.74 1105.38C989.844 1089.07 981.371 1071.58 972.4 1053.06C966.156 1040.17 959.703 1026.85 952.051 1013.15C947.92 1005.95 943.206 998.375 938.036 990.654C920.858 965.005 898.811 938.148 866.548 903.573C831.346 865.587 798.914 828.585 788.85 793.461C778.997 758.855 788.539 723.849 817.203 689.418C851.478 647.811 900.722 615.327 959.616 595.47C995.63 582.347 1035.45 573.254 1077.98 568.429C1094.8 566.204 1111.38 565.251 1127.28 565.587C1171.98 566.532 1213.76 577.366 1258.76 599.679C1270.88 605.802 1283.3 612.842 1296.71 621.206C1320.41 635.371 1345.65 651.113 1372.36 667.776C1386.65 676.695 1401.42 685.914 1416.89 695.471C1457.39 720.007 1499.83 746.565 1534.44 777.742C1541.5 784.081 1548.1 790.475 1554.07 796.754C1589.59 833.753 1602.76 875.317 1591.15 913.787C1580.14 950.32 1549.96 989.617 1501.45 1030.59C1469.17 1059.17 1431.96 1082.84 1384.34 1105.09C1356.22 1118.7 1325.91 1130.73 1291.67 1141.89C1259.55 1152.28 1232.61 1157.53 1196.92 1163.1C1177.29 1166.19 1158.07 1167.57 1139.79 1167.18ZM1127.3 564.73C1111.34 564.393 1094.68 565.353 1077.81 567.584C1035.19 572.419 995.268 581.537 959.171 594.686C900.094 614.602 850.685 647.198 816.295 688.946C787.465 723.575 777.875 758.803 787.797 793.646C797.901 828.93 830.4 866.018 865.674 904.078C897.907 938.621 919.929 965.444 937.079 991.05C942.239 998.757 946.942 1006.31 951.065 1013.5C958.699 1027.18 965.152 1040.49 971.388 1053.36C980.372 1071.91 988.858 1089.43 999.783 1105.77C1025.07 1144 1076.09 1166.69 1139.77 1168.04C1158.12 1168.43 1177.43 1167.05 1197.14 1163.94C1232.89 1158.37 1259.89 1153.1 1292.09 1142.68C1326.38 1131.51 1356.74 1119.45 1384.89 1105.82C1432.61 1083.53 1469.9 1059.81 1502.24 1031.17C1550.89 990.099 1581.15 950.67 1592.2 913.991C1603.89 875.264 1590.66 833.444 1554.93 796.236C1548.95 789.946 1542.33 783.533 1535.25 777.179C1500.58 745.943 1458.09 719.352 1417.55 694.793C1402.09 685.24 1387.31 676.021 1373.02 667.106C1346.31 650.436 1321.07 634.694 1297.37 620.532C1283.93 612.151 1271.49 605.096 1259.34 598.956C1214.16 576.554 1172.2 565.679 1127.3 564.73Z" fill="url(#paint23_linear_157_385)" fill-opacity="0.25"/>
<path d="M1137.89 1157.01C1075.15 1155.68 1025.45 1134.29 1001.52 1098.32C990.049 1081.31 981.495 1063.32 972.436 1044.28C966.961 1032.77 961.299 1020.87 954.689 1008.53C950.803 1001.53 946.36 994.138 941.473 986.554C925.244 961.365 904.513 935.063 874.249 901.268C842.611 865.624 810.954 827.953 801.793 793.598C792.819 759.803 802.24 725.746 829.79 692.372C863.408 651.035 911.661 619.976 969.33 602.552C1003.38 591.044 1042.15 583.127 1084.59 579.012C1100.45 577.079 1116.14 576.259 1131.23 576.578C1174.93 577.502 1216.13 587.668 1260.89 608.57C1272.83 614.286 1285.01 620.845 1298.15 628.62C1334.54 648.955 1374.25 672.899 1416.29 698.25C1453.47 720.077 1496.08 746.673 1530.29 778.449C1537.02 784.667 1543.31 790.952 1549 797.139C1582.67 833.243 1595.09 873.847 1583.96 911.47C1573.36 947.526 1544.47 986.007 1498.12 1025.84C1466.93 1054.37 1430.99 1076.79 1381.58 1098.54C1354.47 1111.05 1325.11 1122.09 1289.17 1133.3C1256.18 1143.5 1230.18 1147.52 1197.25 1152.62L1195.14 1152.95C1175.56 1156.03 1156.3 1157.39 1137.89 1157.01ZM1131.26 575.72C1116.1 575.4 1100.34 576.22 1084.44 578.163C1041.91 582.286 1003.04 590.225 968.921 601.757C911.052 619.236 862.624 650.411 828.882 691.903C801.169 725.47 791.696 759.744 800.733 793.768C809.938 828.283 841.663 866.044 873.366 901.76C903.6 935.521 924.306 961.79 940.511 986.939C945.386 994.512 949.824 1001.89 953.696 1008.87C960.297 1021.18 965.953 1033.07 971.423 1044.58C980.494 1063.65 989.062 1081.66 1000.57 1098.71C1024.68 1134.97 1074.73 1156.53 1137.86 1157.86C1156.36 1158.25 1175.7 1156.89 1195.36 1153.79L1197.47 1153.47C1230.44 1148.36 1256.48 1144.32 1289.57 1134.1C1325.57 1122.87 1354.97 1111.81 1382.12 1099.28C1431.64 1077.49 1467.66 1055.01 1498.92 1026.42C1545.4 986.481 1574.36 947.871 1585.01 911.668C1596.22 873.797 1583.73 832.943 1549.87 796.632C1544.17 790.432 1537.85 784.126 1531.11 777.891C1496.84 746.05 1454.16 719.42 1416.93 697.567C1374.89 672.213 1335.18 648.263 1298.77 627.928C1285.63 620.144 1273.41 613.566 1261.44 607.832C1216.5 586.849 1175.14 576.648 1131.26 575.72Z" fill="url(#paint24_linear_157_385)" fill-opacity="0.25"/>
<path d="M1136.22 1146.09C1074.05 1144.78 1025.33 1124.57 1002.55 1090.65C990.443 1072.94 981.832 1054.49 972.716 1034.97C968.001 1024.87 963.129 1014.43 957.519 1003.53C953.818 996.648 949.752 989.652 945.092 982.133C929.802 957.478 910.362 931.794 882.061 898.864C852.551 864.143 823.045 827.435 814.76 793.902C806.658 761.011 815.964 727.99 842.423 695.766C875.409 654.807 922.704 625.259 979.202 610.315C1011.66 600.293 1048.37 593.763 1091.46 590.347C1106.34 588.7 1121.1 588.022 1135.36 588.323C1178.11 589.227 1218.81 598.703 1263.43 618.146C1275.2 623.443 1287.17 629.506 1300.02 636.672C1332.44 653.441 1368.28 673.432 1416.24 701.499C1464.83 728.979 1499.97 753.737 1526.82 779.422C1533.22 785.504 1539.21 791.667 1544.62 797.745C1576.48 832.858 1588.15 872.392 1577.51 909.072C1567.44 944.061 1539.07 982.667 1495.46 1020.71C1457.19 1056.74 1413.34 1077.42 1379.41 1091.4C1346.21 1105.91 1312.68 1116.46 1287.17 1124.03C1258.59 1132.42 1235.83 1135.8 1209.47 1139.71C1204.43 1140.46 1199.22 1141.23 1193.78 1142.06C1174.2 1145.13 1154.83 1146.48 1136.22 1146.09ZM1135.39 587.465C1121.07 587.162 1106.24 587.845 1091.32 589.495C1048.16 592.92 1011.36 599.468 978.83 609.508C922.121 624.508 874.629 654.176 841.513 695.296C814.9 727.714 805.54 760.948 813.701 794.063C822.024 827.754 851.595 864.544 881.164 899.34C909.437 932.24 928.855 957.888 944.12 982.506C948.773 990.01 952.831 996.993 956.52 1003.86C962.119 1014.73 966.991 1025.17 971.702 1035.26C980.832 1054.82 989.452 1073.29 1001.6 1091.05C1024.56 1125.25 1073.62 1145.62 1136.2 1146.95C1154.89 1147.34 1174.34 1145.98 1193.99 1142.9C1199.43 1142.07 1204.63 1141.3 1209.67 1140.55C1236.08 1136.63 1258.89 1133.25 1287.55 1124.83C1313.1 1117.25 1346.68 1106.69 1379.93 1092.16C1413.93 1078.14 1457.89 1057.41 1496.28 1021.28C1540 983.137 1568.45 944.402 1578.57 909.268C1589.28 872.348 1577.54 832.563 1545.5 797.252C1540.07 791.161 1534.07 784.977 1527.66 778.876C1500.73 753.137 1465.54 728.327 1416.87 700.808C1368.9 672.73 1333.05 652.733 1300.62 635.964C1287.76 628.789 1275.76 622.713 1263.96 617.4C1219.17 597.885 1178.31 588.372 1135.39 587.465Z" fill="url(#paint25_linear_157_385)" fill-opacity="0.25"/>
<path d="M1134.08 1135.16C1073.54 1133.88 1024.68 1114.34 1003.4 1082.88C990.626 1064.42 982.019 1045.49 972.906 1025.46C968.948 1016.76 964.854 1007.76 960.223 998.326C956.769 991.67 952.965 984.855 948.594 977.481C934.455 953.656 915.78 927.803 889.82 896.122C862.465 862.289 835.142 826.509 827.746 793.741C820.523 761.706 829.709 729.681 855.049 698.558C887.37 657.932 933.668 629.852 988.938 617.355C1019.58 608.832 1054.25 603.613 1098.08 600.926C1111.91 599.56 1125.68 599.012 1139.03 599.295C1180.84 600.178 1221.04 608.984 1265.56 626.995C1277.16 631.879 1288.9 637.445 1301.45 644.023C1336.27 660.614 1373.62 680.274 1415.63 704.131C1460.59 728.623 1496.6 754.101 1522.67 779.872C1528.73 785.821 1534.41 791.87 1539.55 797.849C1569.55 832.015 1580.48 870.533 1570.32 906.32C1560.65 940.797 1533.61 978.509 1492.14 1015.38C1455.64 1050.84 1413.29 1070.05 1376.68 1084.16C1346.09 1096.8 1314.39 1106.31 1284.7 1114.7C1259.14 1121.84 1239.42 1124.53 1216.59 1127.66C1208.84 1128.71 1200.83 1129.81 1192.05 1131.15C1172.44 1134.21 1152.94 1135.56 1134.08 1135.16ZM1139.06 598.436C1125.65 598.153 1111.82 598.703 1097.96 600.074C1054.06 602.763 1019.3 607.999 988.608 616.541C933.106 629.082 886.597 657.289 854.136 698.094C828.646 729.4 819.41 761.628 826.682 793.886C834.114 826.808 861.499 862.673 888.912 896.583C914.845 928.232 933.498 954.053 947.616 977.843C951.982 985.201 955.778 992.005 959.22 998.639C963.843 1008.06 967.933 1017.05 971.89 1025.74C981.016 1045.81 989.638 1064.76 1002.45 1083.29C1013.44 1099.52 1030.99 1112.43 1054.62 1121.65C1077.1 1130.43 1104.57 1135.39 1134.06 1136.02C1152.99 1136.42 1172.58 1135.06 1192.26 1131.99C1201.04 1130.65 1209.04 1129.56 1216.78 1128.5C1239.66 1125.37 1259.42 1122.67 1285.07 1115.51C1314.8 1107.11 1346.54 1097.59 1377.17 1084.93C1413.87 1070.78 1456.35 1051.51 1492.96 1015.93C1534.54 978.974 1561.66 941.131 1571.37 906.512C1581.6 870.486 1570.62 831.725 1540.44 797.369C1535.29 791.374 1529.59 785.303 1523.51 779.339C1497.38 753.506 1461.29 727.963 1416.26 703.431C1374.22 679.563 1336.85 659.893 1302.02 643.298C1289.46 636.719 1277.69 631.137 1266.06 626.239C1221.38 608.158 1181.03 599.324 1139.06 598.436Z" fill="url(#paint26_linear_157_385)" fill-opacity="0.25"/>
<path d="M1132.1 1124.23C1072.32 1122.97 1024.6 1104.6 1004.45 1075.11C990.969 1055.86 982.81 1037.36 973.361 1015.94C970.135 1008.63 966.799 1001.06 963.084 993.118C959.866 986.661 956.318 980.028 952.242 972.825C939.04 949.51 921.695 924.266 897.662 893.38C872.433 860.441 847.257 825.601 840.744 793.585C834.395 762.401 843.465 731.374 867.711 701.363C899.396 661.071 944.741 634.463 998.84 624.419C1035.46 615.432 1074.79 612.807 1104.97 611.52C1117.7 610.432 1130.42 610.01 1142.79 610.272C1183.74 611.138 1223.57 619.275 1268.14 635.872C1279.57 640.337 1291.09 645.415 1303.36 651.393C1340.06 667.353 1376.77 685.469 1415.62 706.785C1458.02 728.945 1493.84 754.378 1519.22 780.343C1524.95 786.164 1530.33 792.098 1535.2 797.978C1563.38 831.18 1573.57 868.686 1563.88 903.582C1552.16 946.5 1516.95 985.165 1489.5 1010.05C1454.48 1045.12 1413.54 1062.91 1374.52 1076.92C1345.16 1088.34 1315.57 1096.56 1282.72 1105.37C1259.25 1111.58 1241.68 1113.71 1221.32 1116.17C1211.83 1117.32 1202 1118.52 1190.71 1120.22C1171 1123.29 1151.27 1124.64 1132.1 1124.23ZM1142.82 609.42C1130.39 609.157 1117.63 609.576 1104.88 610.665C1074.67 611.953 1035.25 614.586 998.546 623.593C944.206 633.684 898.632 660.42 866.795 700.902C842.406 731.091 833.282 762.321 839.678 793.718C846.222 825.884 871.453 860.811 896.739 893.824C920.751 924.678 938.074 949.892 951.257 973.17C955.327 980.363 958.866 986.985 962.075 993.417C965.782 1001.35 969.118 1008.91 972.343 1016.22C981.807 1037.68 989.977 1056.2 1003.51 1075.51C1023.84 1105.28 1071.9 1123.81 1132.07 1125.09C1151.33 1125.49 1171.13 1124.14 1190.92 1121.06C1202.19 1119.36 1212 1118.17 1221.49 1117.02C1241.9 1114.55 1259.52 1112.41 1283.07 1106.18C1315.97 1097.36 1345.58 1089.13 1374.98 1077.7C1414.12 1063.65 1455.19 1045.79 1490.33 1010.59C1517.86 985.655 1553.16 946.863 1564.94 903.769C1574.69 868.641 1564.45 830.903 1536.1 797.508C1531.21 791.607 1525.82 785.656 1520.07 779.818C1494.62 753.783 1458.71 728.284 1416.22 706.078C1377.35 684.749 1340.61 666.619 1303.9 650.653C1291.62 644.673 1280.07 639.582 1268.61 635.099C1223.89 618.447 1183.92 610.289 1142.82 609.42Z" fill="url(#paint27_linear_157_385)" fill-opacity="0.25"/>
<path d="M1129.43 1114.04C1070.49 1112.79 1023.95 1095.6 1004.92 1068.06C990.683 1048.02 982.642 1029.11 973.332 1007.22C970.798 1001.26 968.178 995.106 965.315 988.642C962.33 982.399 959.037 975.946 955.246 968.903C942.973 946.114 926.945 921.482 904.804 891.379C881.67 859.35 858.616 825.461 852.984 794.184C847.499 763.855 856.469 733.822 879.638 704.927C910.718 664.978 955.15 639.848 1008.13 632.25C1039.16 625.739 1071.84 623.797 1111.38 622.886C1122.91 622.064 1134.48 621.768 1145.78 622.007C1185.98 622.857 1225.58 630.329 1270.4 645.517C1281.68 649.563 1292.99 654.153 1304.98 659.541C1342.9 674.417 1379.02 690.99 1415.43 710.218C1456.18 730.552 1490.85 755.226 1515.7 781.584C1521.12 787.277 1526.2 793.089 1530.79 798.87C1557.19 831.108 1566.66 867.59 1557.44 901.6C1546.19 943.876 1512.8 981.412 1486.77 1005.46C1454.88 1038.36 1417.89 1055.22 1372.16 1070.42C1343.91 1080.69 1315.15 1087.97 1284.71 1095.69L1280.44 1096.77C1258.48 1102.25 1242.48 1103.9 1223.95 1105.81C1213.28 1106.91 1202.24 1108.04 1188.98 1110.03C1169.07 1113.1 1149.04 1114.45 1129.43 1114.04ZM1145.8 621.153C1134.46 620.913 1122.85 621.208 1111.31 622.032C1071.73 622.942 1038.97 624.89 1007.89 631.413C954.643 639.052 909.962 664.315 878.721 704.47C855.413 733.538 846.39 763.763 851.912 794.298C857.573 825.727 880.682 859.7 903.868 891.804C925.987 921.877 941.996 946.481 954.252 969.235C958.039 976.266 961.322 982.708 964.297 988.929C967.154 995.378 969.777 1001.54 972.307 1007.49C981.636 1029.42 989.69 1048.37 1003.98 1068.47C1023.19 1096.28 1070.08 1113.64 1129.4 1114.89C1149.09 1115.31 1169.21 1113.95 1189.19 1110.87C1202.42 1108.89 1213.43 1107.75 1224.09 1106.66C1242.67 1104.74 1258.72 1103.09 1280.77 1097.59L1285.05 1096.5C1315.52 1088.78 1344.31 1081.49 1372.59 1071.2C1418.47 1055.95 1455.6 1039.03 1487.61 1006C1513.7 981.898 1547.2 944.231 1558.5 901.783C1567.77 867.551 1558.26 830.839 1531.7 798.413C1527.09 792.617 1522 786.781 1516.57 781.074C1491.64 754.634 1456.87 729.886 1416.01 709.498C1379.58 690.258 1343.42 673.668 1305.49 658.784C1293.49 653.398 1282.15 648.798 1270.83 644.733C1225.86 629.501 1186.14 622.006 1145.8 621.153Z" fill="url(#paint28_linear_157_385)" fill-opacity="0.25"/>
<path d="M1126.68 1103.1C1068.88 1101.88 1023.71 1085.86 1005.85 1060.26C990.888 1039.46 983.075 1020.19 974.025 997.89C972.139 993.245 970.187 988.433 968.096 983.411C965.347 977.375 962.319 971.105 958.826 964.229C947.518 941.986 932.841 917.965 912.632 888.634C891.648 857.524 870.761 824.591 866.026 794.034C861.424 764.556 870.271 735.524 892.318 707.749C922.728 668.145 966.152 644.486 1017.9 639.324C1048.22 634.097 1079.84 633.601 1118.03 633.49C1128.2 632.922 1138.43 632.747 1148.47 632.96C1187.92 633.794 1227.35 640.604 1272.55 654.397C1283.66 658.026 1294.75 662.122 1306.43 666.916C1345.08 680.457 1380.53 695.491 1414.82 712.877C1453.44 731.25 1487.79 755.815 1511.54 782.051C1516.63 787.613 1521.39 793.312 1525.7 798.988C1550.26 830.249 1558.97 865.712 1550.24 898.842C1539.5 940.48 1507.98 976.888 1483.44 1000.1C1452.73 1032.81 1415.66 1048.95 1369.44 1063.14C1344.23 1071.68 1318.61 1077.76 1291.49 1084.19C1287.03 1085.25 1282.54 1086.32 1278.01 1087.4C1257.22 1092.3 1241.74 1093.59 1225.35 1094.94C1213.94 1095.89 1202.13 1096.86 1187.3 1099.07C1167.16 1102.17 1146.77 1103.52 1126.68 1103.1ZM1148.49 632.101C1138.42 631.888 1128.15 632.071 1117.98 632.638C1079.76 632.745 1048.09 633.243 1017.71 638.482C965.675 643.672 921.979 667.469 891.401 707.295C869.219 735.238 860.321 764.457 864.952 794.135C869.711 824.837 890.645 857.85 911.682 889.038C931.872 918.339 946.534 942.334 957.825 964.546C961.31 971.41 964.337 977.671 967.074 983.688C969.161 988.694 971.11 993.503 972.995 998.149C982.062 1020.5 989.895 1039.8 1004.91 1060.67C1022.95 1086.54 1068.46 1102.72 1126.65 1103.95C1146.82 1104.38 1167.3 1103.02 1187.5 1099.91C1202.29 1097.71 1214.08 1096.74 1225.47 1095.79C1241.91 1094.43 1257.43 1093.15 1278.32 1088.22C1282.86 1087.14 1287.35 1086.07 1291.8 1085.01C1318.96 1078.57 1344.61 1072.49 1369.85 1063.93C1416.23 1049.7 1453.44 1033.48 1484.28 1000.63C1508.89 977.365 1540.51 940.832 1551.3 899.022C1560.09 865.675 1551.33 829.991 1526.63 798.546C1522.3 792.852 1517.52 787.134 1512.41 781.556C1488.58 755.227 1454.12 730.579 1415.38 712.149C1381.06 694.746 1345.57 679.695 1306.89 666.147C1295.21 661.354 1284.1 657.245 1272.94 653.603C1227.61 639.769 1188.07 632.938 1148.49 632.101Z" fill="url(#paint29_linear_157_385)" fill-opacity="0.25"/>
<path d="M1123.93 1092.16C1066.56 1090.94 1023.93 1076.46 1006.97 1052.43C991.3 1030.94 984.163 1012.34 975.126 988.794C973.813 985.367 972.455 981.836 971.029 978.171C968.51 972.327 965.736 966.239 962.548 959.55C952.2 937.873 938.856 914.467 920.545 885.888C902.505 857.044 882.93 823.76 879.094 793.9C875.369 765.275 884.102 737.247 905.048 710.593C934.813 671.345 977.275 649.165 1027.85 646.438C1055.49 642.796 1085.11 643.364 1116.46 643.971L1124.96 644.132C1133.56 643.8 1142.22 643.722 1150.76 643.903C1189.65 644.726 1229.18 650.892 1275.15 663.315C1286.12 666.523 1296.99 670.128 1308.36 674.335C1348.11 686.551 1381.93 699.651 1414.81 715.578C1452.08 732.386 1485.2 756.167 1508.08 782.546C1512.84 787.977 1517.31 793.554 1521.34 799.137C1544.08 829.413 1552.06 863.847 1543.8 896.101C1533.56 937.1 1503.89 972.368 1480.79 994.732C1447.86 1030.92 1406.67 1044.77 1367.3 1055.84C1344.52 1062.99 1321.42 1068.04 1296.96 1073.39C1290.08 1074.9 1283.12 1076.42 1276.05 1078.02C1256.13 1082.43 1241.67 1083.31 1226.36 1084.24C1214.46 1084.96 1202.15 1085.71 1186 1088.09C1165.8 1091.18 1144.34 1092.59 1123.93 1092.16ZM1150.78 643.048C1142.22 642.867 1133.52 642.943 1124.94 643.279L1116.48 643.116C1085.07 642.512 1055.41 641.94 1027.71 645.591C976.829 648.33 934.075 670.653 904.124 710.146C883.055 736.955 874.27 765.162 878.02 793.98C881.875 823.981 901.493 857.349 919.582 886.269C937.875 914.824 951.206 938.202 961.534 959.847C964.724 966.527 967.492 972.606 969.999 978.429C971.424 982.082 972.78 985.613 974.093 989.038C983.151 1012.63 990.303 1031.28 1006.03 1052.85C1023.18 1077.15 1066.14 1091.79 1123.91 1093.01C1144.39 1093.44 1165.94 1092.03 1186.21 1088.93C1202.29 1086.56 1214.57 1085.81 1226.45 1085.09C1241.82 1084.16 1256.33 1083.28 1276.35 1078.84C1283.42 1077.24 1290.38 1075.72 1297.25 1074.22C1321.74 1068.86 1344.88 1063.8 1367.68 1056.65C1407.19 1045.52 1448.56 1031.62 1481.65 995.255C1504.8 972.835 1534.57 937.444 1544.86 896.273C1553.17 863.814 1545.15 829.164 1522.28 798.707C1518.23 793.111 1513.75 787.509 1508.97 782.065C1486 755.582 1452.75 731.707 1415.35 714.839C1382.43 698.897 1348.56 685.772 1308.78 673.548C1297.41 669.348 1286.52 665.732 1275.51 662.512C1229.42 650.057 1189.79 643.874 1150.78 643.048Z" fill="url(#paint30_linear_157_385)" fill-opacity="0.25"/>
<path d="M1120.53 1081.95C1064.76 1080.77 1023.73 1067.39 1007.95 1045.25C991.651 1023.14 985.266 1005.3 976.431 980.608C975.599 978.285 974.748 975.905 973.864 973.454C971.576 967.783 969.065 961.869 966.181 955.361C956.822 934.254 944.826 911.427 928.423 883.512C908.567 848.797 894.799 820.278 892.167 793.976C889.333 766.144 897.941 739.073 917.759 713.507C946.85 674.548 988.303 653.796 1037.64 653.493C1049.13 652.484 1061.72 652.166 1077.32 652.496C1088.61 652.735 1100.07 653.273 1112.21 653.845C1118.59 654.143 1125.06 654.446 1131.64 654.712C1138.27 654.574 1144.97 654.576 1151.59 654.716C1190.63 655.543 1229.4 660.933 1277.33 672.196C1288 674.944 1298.93 678.154 1309.83 681.732C1349.93 692.342 1383.09 703.964 1414.21 718.319C1450.2 733.672 1482.05 756.71 1503.92 783.197C1508.37 788.519 1512.52 793.994 1516.27 799.463C1537.17 828.794 1544.4 862.259 1536.62 893.706C1526.88 934.153 1499.08 968.336 1477.46 989.89C1445.69 1026.02 1405.95 1038.55 1364.6 1049.19C1343.87 1055.18 1322.87 1059.37 1300.63 1063.81C1291.88 1065.55 1282.83 1067.36 1273.65 1069.31C1254.41 1073.32 1240.8 1073.82 1226.39 1074.36C1214.2 1074.81 1201.59 1075.28 1184.36 1077.81C1163.7 1080.96 1141.63 1082.39 1120.53 1081.95ZM1077.34 651.641C1061.69 651.31 1049.05 651.629 1037.57 652.639C987.893 652.947 946.124 673.836 916.837 713.061C896.902 738.779 888.238 766.025 891.093 794.037C893.74 820.467 907.537 849.061 927.444 883.866C943.835 911.758 955.82 934.561 965.163 955.638C968.044 962.139 970.554 968.047 972.832 973.698C973.709 976.132 974.564 978.516 975.394 980.839C984.252 1005.59 990.653 1023.47 1007.02 1045.68C1022.98 1068.08 1064.35 1081.61 1120.5 1082.8C1141.69 1083.25 1163.84 1081.81 1184.56 1078.65C1201.72 1076.13 1214.29 1075.66 1226.44 1075.21C1240.91 1074.67 1254.58 1074.17 1273.93 1070.13C1283.11 1068.19 1292.15 1066.38 1300.9 1064.64C1323.17 1060.19 1344.2 1056 1364.96 1050C1406.47 1039.32 1446.39 1026.72 1478.33 990.405C1499.99 968.795 1527.9 934.488 1537.68 893.874C1545.5 862.23 1538.24 828.554 1517.21 799.052C1513.46 793.565 1509.29 788.072 1504.82 782.729C1482.85 756.126 1450.86 732.987 1414.72 717.574C1383.56 703.196 1350.34 691.548 1310.2 680.93C1299.32 677.354 1288.36 674.139 1277.64 671.378C1229.61 660.093 1190.75 654.691 1151.61 653.863C1144.98 653.722 1138.26 653.72 1131.64 653.859C1125.11 653.593 1118.64 653.292 1112.26 652.991C1100.12 652.42 1088.65 651.881 1077.34 651.641Z" fill="url(#paint31_linear_157_385)" fill-opacity="0.25"/>
<path d="M1047 661.006C1052.49 660.784 1058.17 660.742 1064.43 660.875C1078.92 661.182 1093.97 662.386 1109.91 663.658C1119.02 664.385 1128.44 665.14 1138.08 665.747C1142.07 665.747 1146.08 665.79 1150.05 665.874C1189.16 666.702 1229.12 671.52 1279.6 681.49C1290.16 683.823 1300.89 686.524 1311.47 689.521C1352.48 698.549 1384.09 708.365 1414.01 721.368C1448.89 735.289 1479.56 757.517 1500.37 783.963C1504.51 789.148 1508.36 794.497 1511.83 799.857C1531.22 828.556 1537.55 860.102 1530.13 891.096C1520.89 930.875 1494.89 963.864 1474.72 984.537C1443.98 1020.53 1405.59 1031.77 1362.24 1041.82C1343.19 1046.82 1323.91 1050.25 1303.5 1053.89C1293.11 1055.74 1282.38 1057.65 1271.39 1059.82C1252.64 1063.46 1239.71 1063.62 1226.02 1063.78C1213.66 1063.92 1200.88 1064.08 1182.66 1066.72C1161.35 1069.95 1138.46 1071.4 1116.48 1070.94C1062.48 1069.79 1023.12 1057.55 1008.49 1037.35C991.619 1014.83 986.025 997.943 977.557 972.388L976.175 968.218C974.107 962.721 971.849 956.998 969.267 950.705C960.777 930.007 950.411 908.476 935.657 880.886C918.27 847.366 906.318 819.771 904.506 794.068C902.546 767.113 911.051 741.077 929.781 716.681C957.476 679.188 996.71 659.899 1043.26 660.884C1044.5 660.911 1045.75 660.948 1047 661.006ZM1064.45 660.02C1058.17 659.886 1052.45 659.931 1046.99 660.152C1045.79 660.101 1044.53 660.058 1043.28 660.031C996.318 659.036 956.751 678.47 928.854 716.238C910.015 740.779 901.457 766.978 903.429 794.109C905.249 819.935 917.23 847.604 934.662 881.211C949.406 908.781 959.76 930.291 968.243 950.963C970.821 957.251 973.077 962.966 975.137 968.444L976.514 972.601C985.004 998.225 990.613 1015.15 1007.56 1037.77C1022.38 1058.24 1062.07 1070.64 1116.46 1071.79C1138.52 1072.26 1161.48 1070.8 1182.87 1067.56C1200.99 1064.93 1213.72 1064.78 1226.04 1064.63C1239.8 1064.47 1252.79 1064.32 1271.65 1060.65C1282.63 1058.48 1293.36 1056.57 1303.74 1054.72C1324.18 1051.08 1343.49 1047.64 1362.57 1042.64C1404.5 1032.92 1444.71 1021.19 1475.59 985.037C1495.82 964.314 1521.91 931.202 1531.19 891.257C1538.66 860.072 1532.29 828.33 1512.79 799.467C1509.31 794.09 1505.44 788.719 1501.29 783.514C1480.37 756.938 1449.55 734.598 1414.5 720.613C1384.53 707.585 1352.84 697.743 1311.79 688.713C1301.22 685.712 1290.47 683.005 1279.87 680.668C1229.29 670.675 1189.27 665.851 1150.07 665.02C1146.1 664.936 1142.08 664.895 1138.12 664.894C1128.53 664.29 1119.11 663.537 1110.01 662.808C1094.05 661.532 1078.98 660.331 1064.45 660.02Z" fill="url(#paint32_linear_157_385)" fill-opacity="0.25"/>
<path d="M1112.44 1060.67C1060.61 1059.57 1023.15 1048.42 1009.68 1030.07C992.368 1007.28 987.603 991.459 979.712 965.255L979.172 963.461C977.32 958.107 975.318 952.56 973.05 946.49C965.587 926.534 956.512 905.579 943.629 878.55C930.727 850.541 918.647 820.943 917.623 794.256C916.554 768.106 924.945 743.049 942.562 719.769C968.05 684.769 1003.75 666.742 1045.81 667.633C1049.48 667.711 1053.24 667.932 1056.99 668.297C1057.82 668.307 1058.58 668.321 1059.35 668.338C1075.29 668.676 1092.14 670.67 1109.97 672.786C1121.25 674.121 1132.9 675.504 1145.08 676.561C1195.62 677.687 1242.79 684.292 1282.27 690.596C1292.74 692.507 1303.24 694.707 1313.48 697.141C1341.25 702.027 1377.75 709.519 1414.07 724.308C1447.4 736.706 1477.62 758.738 1496.99 784.759C1500.81 789.821 1504.36 795.055 1507.54 800.316C1525.1 827.998 1530.71 858.576 1523.77 888.752C1515.02 927.966 1490.86 959.832 1472.13 979.658C1442.46 1015.56 1403.87 1025.99 1360.16 1035.07C1342.57 1039.23 1324.78 1042.01 1305.95 1044.96C1294.2 1046.79 1282.05 1048.69 1269.5 1051.01C1251.15 1054.32 1238.81 1054.14 1225.74 1053.95C1213.33 1053.76 1200.49 1053.57 1181.43 1056.32C1159.59 1059.61 1135.09 1061.15 1112.44 1060.67ZM1045.84 666.78C1003.35 665.879 967.321 684.054 941.633 719.335C923.911 742.744 915.468 767.961 916.544 794.279C917.577 821.084 929.684 850.76 942.616 878.842C955.495 905.856 964.561 926.794 972.017 946.73C974.283 952.79 976.283 958.331 978.125 963.667L978.661 965.447C986.579 991.734 991.357 1007.6 1008.75 1030.5C1022.42 1049.11 1060.2 1060.42 1112.42 1061.52C1135.14 1062 1159.72 1060.46 1181.63 1057.16C1200.58 1054.43 1213.37 1054.62 1225.73 1054.8C1238.86 1054.99 1251.27 1055.18 1269.75 1051.84C1282.29 1049.53 1294.42 1047.63 1306.16 1045.8C1325.02 1042.85 1342.83 1040.06 1360.46 1035.9C1404.37 1026.78 1443.16 1016.28 1473.02 980.152C1491.8 960.273 1516.05 928.285 1524.82 888.906C1531.81 858.551 1526.16 827.787 1508.51 799.942C1505.31 794.668 1501.75 789.409 1497.91 784.325C1478.44 758.159 1448.05 736.006 1414.54 723.544C1378.13 708.716 1341.54 701.205 1313.74 696.315C1303.52 693.884 1293 691.679 1282.5 689.764C1242.95 683.447 1195.72 676.837 1145.15 675.708C1133.03 674.655 1121.39 673.276 1110.12 671.94C1091.39 669.72 1073.75 667.631 1057.06 667.446C1053.33 667.086 1049.54 666.858 1045.84 666.78Z" fill="url(#paint33_linear_157_385)" fill-opacity="0.25"/>
<path d="M1107.12 1049.6C1078.16 1048.99 1027.06 1044.58 1010.19 1021.95C992.584 999.095 988.652 984.487 981.514 957.965C979.847 952.622 978.104 947.257 976.16 941.467C967.979 917.117 958.374 893.383 950.925 875.422C940.16 848.462 930.179 819.893 930.062 793.693C929.889 768.343 938.164 744.269 954.665 722.133C978.155 689.402 1010.69 672.531 1048.76 673.338C1054.46 673.459 1060.36 673.972 1066.3 674.873C1080.35 675.82 1095.12 678.227 1110.77 680.775C1123.7 682.884 1137.08 685.06 1151.37 686.66C1193.57 688.659 1235 693.031 1284.24 698.981C1294.63 700.465 1304.91 702.168 1314.77 704.038C1344.41 707.917 1379.27 713.626 1413.4 726.521C1445.75 737.634 1474.71 758.877 1492.86 784.8C1496.36 789.734 1499.61 794.853 1502.51 800.018C1518.23 826.654 1523.12 856.251 1516.66 885.621C1508.42 924.275 1486.09 954.996 1468.81 973.963C1440.12 1009.83 1402.96 1019.1 1357.37 1027.49C1341.04 1030.92 1324.55 1033.12 1307.08 1035.45C1294.17 1037.18 1280.82 1038.96 1266.9 1041.34C1252.81 1043.7 1242.65 1043.84 1234.57 1043.67C1231.18 1043.6 1227.94 1043.46 1224.52 1043.32C1221.13 1043.17 1217.61 1043.02 1213.97 1042.94C1206.02 1042.78 1194.92 1042.87 1179.5 1045.08C1156.57 1048.5 1130.87 1050.1 1107.12 1049.6ZM1048.78 672.483C1010.29 671.667 977.427 688.685 953.733 721.705C937.371 743.652 928.812 768.546 928.983 793.69C929.101 820.006 939.106 848.648 949.9 875.68C957.348 893.634 966.944 917.349 975.118 941.682C977.061 947.465 978.805 952.826 980.442 958.074C987.62 984.752 991.567 999.412 1009.27 1022.38C1026.4 1045.36 1077.91 1049.83 1107.1 1050.45C1130.92 1050.96 1156.7 1049.35 1179.7 1045.91C1195.02 1043.72 1206.05 1043.63 1213.95 1043.79C1217.58 1043.87 1221.08 1044.03 1224.47 1044.17C1227.75 1044.31 1231.14 1044.46 1234.55 1044.53C1242.69 1044.7 1252.92 1044.56 1267.14 1042.17C1281.03 1039.8 1294.37 1038.02 1307.28 1036.29C1324.75 1033.96 1341.27 1031.75 1357.63 1028.31C1403.46 1019.89 1440.82 1010.56 1469.71 974.444C1487.04 955.426 1509.45 924.58 1517.72 885.769C1524.22 856.23 1519.31 826.454 1503.49 799.666C1500.58 794.484 1497.32 789.344 1493.8 784.387C1475.54 758.301 1446.39 736.925 1413.84 725.75C1379.6 712.807 1344.65 707.087 1314.98 703.202C1305.13 701.33 1294.84 699.633 1284.41 698.14C1235.12 692.183 1193.66 687.811 1151.47 685.809C1137.26 684.22 1123.9 682.043 1110.98 679.939C1095.3 677.386 1080.49 674.971 1066.44 674.027C1060.5 673.129 1054.54 672.605 1048.78 672.483Z" fill="url(#paint34_linear_157_385)" fill-opacity="0.25"/>
<path d="M1101.46 1039.27C1054.42 1038.27 1022.26 1029.46 1010.89 1014.48C993.11 991.743 989.863 977.947 983.968 952.909C982.517 947.66 981.028 942.469 979.415 937.022C972.811 914.708 965.385 892.98 958.341 872.824C950.089 848.164 941.768 819.456 942.598 793.575C943.314 769.34 951.714 745.588 966.89 724.881C988.907 693.749 1017.83 678.344 1052.87 679.087C1060.28 679.244 1068.02 680.155 1075.85 681.794C1087.64 683.314 1099.98 685.947 1113.04 688.735C1127.25 691.766 1141.94 694.899 1158.01 697.114C1182.93 698.999 1207.54 701.088 1233.6 703.301C1250.87 704.77 1268.72 706.284 1286.7 707.738C1297.1 708.787 1307.16 709.989 1316.6 711.307C1347.88 713.984 1381.22 717.993 1413.38 729.131C1444.85 739.004 1472.58 759.475 1489.47 785.287C1492.67 790.104 1495.61 795.111 1498.23 800.175C1512.14 825.761 1516.32 854.411 1510.32 883.022C1502.57 921.172 1482.06 950.768 1466.2 968.878C1438.44 1004.76 1402.66 1012.93 1355.15 1020.55C1339.92 1023.35 1324.55 1025.04 1308.28 1026.83C1294.35 1028.37 1279.94 1029.96 1264.78 1032.34C1255.41 1033.79 1246.93 1034.38 1238.12 1034.19C1233.04 1034.08 1228.42 1033.75 1223.53 1033.39C1218.65 1033.04 1213.59 1032.67 1208.02 1032.55C1198.27 1032.35 1188.72 1032.96 1177.95 1034.5C1153.94 1038.05 1126.06 1039.79 1101.46 1039.27ZM1052.89 678.231C1017.42 677.479 988.174 693.034 965.955 724.459C950.691 745.277 942.243 769.174 941.521 793.549C940.683 819.539 949.027 848.319 957.3 873.046C964.341 893.194 971.766 914.913 978.366 937.212C979.977 942.654 981.464 947.844 982.912 953.071C988.827 978.203 992.087 992.053 1009.97 1014.92C1021.53 1030.16 1054.01 1039.11 1101.43 1040.12C1126.11 1040.64 1154.07 1038.9 1178.15 1035.34C1188.84 1033.82 1198.33 1033.2 1208 1033.41C1213.53 1033.52 1218.57 1033.89 1223.44 1034.24C1228.35 1034.6 1232.98 1034.94 1238.1 1035.04C1246.99 1035.23 1255.54 1034.64 1265 1033.18C1280.12 1030.8 1294.51 1029.21 1308.43 1027.68C1324.73 1025.88 1340.13 1024.19 1355.39 1021.39C1403.15 1013.72 1439.13 1005.5 1467.11 969.346C1483 951.183 1503.6 921.47 1511.38 883.164C1517.41 854.39 1513.21 825.581 1499.22 799.849C1496.6 794.768 1493.64 789.736 1490.43 784.895C1473.41 758.903 1445.48 738.289 1413.79 728.339C1381.51 717.167 1348.07 713.143 1316.74 710.459C1307.32 709.144 1297.24 707.942 1286.81 706.889C1268.82 705.436 1250.97 703.917 1233.71 702.453C1207.64 700.239 1183.03 698.147 1158.15 696.268C1142.16 694.065 1127.5 690.935 1113.32 687.912C1100.23 685.118 1087.87 682.48 1076.07 680.959C1068.21 679.311 1060.39 678.39 1052.89 678.231Z" fill="url(#paint35_linear_157_385)" fill-opacity="0.25"/>
<defs>
<linearGradient id="paint0_linear_157_385" x1="1185.88" y1="1367.48" x2="1206.21" y2="408.28" gradientUnits="userSpaceOnUse">
<stop stop-color="#005CA9"/>
<stop offset="1" stop-color="white"/>
</linearGradient>
<linearGradient id="paint1_linear_157_385" x1="1184.09" y1="1348.26" x2="1203.81" y2="417.511" gradientUnits="userSpaceOnUse">
<stop stop-color="#005CA9"/>
<stop offset="1" stop-color="white"/>
</linearGradient>
<linearGradient id="paint2_linear_157_385" x1="1181.92" y1="1329.01" x2="1201.03" y2="426.761" gradientUnits="userSpaceOnUse">
<stop stop-color="#005CA9"/>
<stop offset="1" stop-color="white"/>
</linearGradient>
<linearGradient id="paint3_linear_157_385" x1="1179.75" y1="1309.77" x2="1198.27" y2="435.239" gradientUnits="userSpaceOnUse">
<stop stop-color="#005CA9"/>
<stop offset="1" stop-color="white"/>
</linearGradient>
<linearGradient id="paint4_linear_157_385" x1="1177.55" y1="1292.01" x2="1195.52" y2="443" gradientUnits="userSpaceOnUse">
<stop stop-color="#005CA9"/>
<stop offset="1" stop-color="white"/>
</linearGradient>
<linearGradient id="paint5_linear_157_385" x1="1175.36" y1="1273.47" x2="1192.77" y2="450.771" gradientUnits="userSpaceOnUse">
<stop stop-color="#005CA9"/>
<stop offset="1" stop-color="white"/>
</linearGradient>
<linearGradient id="paint6_linear_157_385" x1="1172.7" y1="1258.69" x2="1189.64" y2="457.813" gradientUnits="userSpaceOnUse">
<stop stop-color="#005CA9"/>
<stop offset="1" stop-color="white"/>
</linearGradient>
<linearGradient id="paint7_linear_157_385" x1="1172.2" y1="1248.38" x2="1188.79" y2="464.285" gradientUnits="userSpaceOnUse">
<stop stop-color="#005CA9"/>
<stop offset="1" stop-color="white"/>
</linearGradient>
<linearGradient id="paint8_linear_157_385" x1="1172.82" y1="1239.56" x2="1189.07" y2="470.848" gradientUnits="userSpaceOnUse">
<stop stop-color="#005CA9"/>
<stop offset="1" stop-color="white"/>
</linearGradient>
<linearGradient id="paint9_linear_157_385" x1="1172.97" y1="1233.74" x2="1188.98" y2="476.676" gradientUnits="userSpaceOnUse">
<stop stop-color="#005CA9"/>
<stop offset="1" stop-color="white"/>
</linearGradient>
<linearGradient id="paint10_linear_157_385" x1="1173.49" y1="1228.66" x2="1189.26" y2="482.53" gradientUnits="userSpaceOnUse">
<stop stop-color="#005CA9"/>
<stop offset="1" stop-color="white"/>
</linearGradient>
<linearGradient id="paint11_linear_157_385" x1="1173.22" y1="1224.32" x2="1188.78" y2="488.375" gradientUnits="userSpaceOnUse">
<stop stop-color="#005CA9"/>
<stop offset="1" stop-color="white"/>
</linearGradient>
<linearGradient id="paint12_linear_157_385" x1="1173.3" y1="1221.47" x2="1188.69" y2="493.505" gradientUnits="userSpaceOnUse">
<stop stop-color="#005CA9"/>
<stop offset="1" stop-color="white"/>
</linearGradient>
<linearGradient id="paint13_linear_157_385" x1="1173.38" y1="1218.6" x2="1188.6" y2="498.653" gradientUnits="userSpaceOnUse">
<stop stop-color="#005CA9"/>
<stop offset="1" stop-color="white"/>
</linearGradient>
<linearGradient id="paint14_linear_157_385" x1="1173.08" y1="1215.74" x2="1188.13" y2="503.783" gradientUnits="userSpaceOnUse">
<stop stop-color="#005CA9"/>
<stop offset="1" stop-color="white"/>
</linearGradient>
<linearGradient id="paint15_linear_157_385" x1="1172.4" y1="1212.85" x2="1187.28" y2="508.913" gradientUnits="userSpaceOnUse">
<stop stop-color="#005CA9"/>
<stop offset="1" stop-color="white"/>
</linearGradient>
<linearGradient id="paint16_linear_157_385" x1="1172.46" y1="1210.74" x2="1187.19" y2="514.07" gradientUnits="userSpaceOnUse">
<stop stop-color="#005CA9"/>
<stop offset="1" stop-color="white"/>
</linearGradient>
<linearGradient id="paint17_linear_157_385" x1="1171.78" y1="1207.83" x2="1186.35" y2="518.468" gradientUnits="userSpaceOnUse">
<stop stop-color="#005CA9"/>
<stop offset="1" stop-color="white"/>
</linearGradient>
<linearGradient id="paint18_linear_157_385" x1="1171.46" y1="1205.69" x2="1185.88" y2="523.625" gradientUnits="userSpaceOnUse">
<stop stop-color="#005CA9"/>
<stop offset="1" stop-color="white"/>
</linearGradient>
<linearGradient id="paint19_linear_157_385" x1="1171.15" y1="1203.53" x2="1185.42" y2="528.049" gradientUnits="userSpaceOnUse">
<stop stop-color="#005CA9"/>
<stop offset="1" stop-color="white"/>
</linearGradient>
<linearGradient id="paint20_linear_157_385" x1="1170.83" y1="1201.37" x2="1184.97" y2="532.473" gradientUnits="userSpaceOnUse">
<stop stop-color="#005CA9"/>
<stop offset="1" stop-color="white"/>
</linearGradient>
<linearGradient id="paint21_linear_157_385" x1="1174.54" y1="1190.55" x2="1188.21" y2="543.451" gradientUnits="userSpaceOnUse">
<stop stop-color="#005CA9"/>
<stop offset="1" stop-color="white"/>
</linearGradient>
<linearGradient id="paint22_linear_157_385" x1="1177.87" y1="1179.75" x2="1191.07" y2="555.162" gradientUnits="userSpaceOnUse">
<stop stop-color="#005CA9"/>
<stop offset="1" stop-color="white"/>
</linearGradient>
<linearGradient id="paint23_linear_157_385" x1="1181.19" y1="1168.91" x2="1193.93" y2="566.138" gradientUnits="userSpaceOnUse">
<stop stop-color="#005CA9"/>
<stop offset="1" stop-color="white"/>
</linearGradient>
<linearGradient id="paint24_linear_157_385" x1="1184.5" y1="1158.85" x2="1196.8" y2="577.106" gradientUnits="userSpaceOnUse">
<stop stop-color="#005CA9"/>
<stop offset="1" stop-color="white"/>
</linearGradient>
<linearGradient id="paint25_linear_157_385" x1="1188.21" y1="1148.05" x2="1200.03" y2="588.831" gradientUnits="userSpaceOnUse">
<stop stop-color="#005CA9"/>
<stop offset="1" stop-color="white"/>
</linearGradient>
<linearGradient id="paint26_linear_157_385" x1="1191.54" y1="1137.23" x2="1202.9" y2="599.786" gradientUnits="userSpaceOnUse">
<stop stop-color="#005CA9"/>
<stop offset="1" stop-color="white"/>
</linearGradient>
<linearGradient id="paint27_linear_157_385" x1="1195.25" y1="1126.42" x2="1206.15" y2="610.759" gradientUnits="userSpaceOnUse">
<stop stop-color="#005CA9"/>
<stop offset="1" stop-color="white"/>
</linearGradient>
<linearGradient id="paint28_linear_157_385" x1="1198.56" y1="1116.35" x2="1209.01" y2="622.49" gradientUnits="userSpaceOnUse">
<stop stop-color="#005CA9"/>
<stop offset="1" stop-color="white"/>
</linearGradient>
<linearGradient id="paint29_linear_157_385" x1="1201.89" y1="1105.55" x2="1211.88" y2="633.442" gradientUnits="userSpaceOnUse">
<stop stop-color="#005CA9"/>
<stop offset="1" stop-color="white"/>
</linearGradient>
<linearGradient id="paint30_linear_157_385" x1="1205.6" y1="1094.74" x2="1215.13" y2="644.41" gradientUnits="userSpaceOnUse">
<stop stop-color="#005CA9"/>
<stop offset="1" stop-color="white"/>
</linearGradient>
<linearGradient id="paint31_linear_157_385" x1="1208.91" y1="1084.67" x2="1218.01" y2="654.619" gradientUnits="userSpaceOnUse">
<stop stop-color="#005CA9"/>
<stop offset="1" stop-color="white"/>
</linearGradient>
<linearGradient id="paint32_linear_157_385" x1="1212.23" y1="1073.82" x2="1220.93" y2="663.334" gradientUnits="userSpaceOnUse">
<stop stop-color="#005CA9"/>
<stop offset="1" stop-color="white"/>
</linearGradient>
<linearGradient id="paint33_linear_157_385" x1="1215.91" y1="1063.72" x2="1224.25" y2="670.56" gradientUnits="userSpaceOnUse">
<stop stop-color="#005CA9"/>
<stop offset="1" stop-color="white"/>
</linearGradient>
<linearGradient id="paint34_linear_157_385" x1="1218.85" y1="1052.82" x2="1226.84" y2="676.258" gradientUnits="userSpaceOnUse">
<stop stop-color="#005CA9"/>
<stop offset="1" stop-color="white"/>
</linearGradient>
<linearGradient id="paint35_linear_157_385" x1="1222.16" y1="1042.68" x2="1229.81" y2="681.983" gradientUnits="userSpaceOnUse">
<stop stop-color="#005CA9"/>
<stop offset="1" stop-color="white"/>
</linearGradient>
</defs>
</svg>
