<svg width="18" height="18" viewBox="0 0 18 18" fill="none" xmlns="http://www.w3.org/2000/svg">
<path d="M5.98356 6.37853C6.56356 7.58654 7.35422 8.71874 8.35553 9.72006C9.35685 10.7214 10.4891 11.512 11.6971 12.092C11.801 12.1419 11.8529 12.1669 11.9187 12.186C12.1523 12.2541 12.4392 12.2052 12.637 12.0635C12.6927 12.0237 12.7403 11.976 12.8356 11.8808C13.1269 11.5894 13.2726 11.4438 13.4191 11.3485C13.9715 10.9894 14.6837 10.9894 15.2361 11.3485C15.3825 11.4438 15.5282 11.5894 15.8196 11.8808L15.9819 12.0432C16.4248 12.486 16.6462 12.7075 16.7665 12.9453C17.0058 13.4183 17.0058 13.9768 16.7665 14.4498C16.6462 14.6876 16.4248 14.909 15.9819 15.3519L15.8506 15.4833C15.4092 15.9246 15.1886 16.1453 14.8885 16.3138C14.5556 16.5008 14.0385 16.6353 13.6567 16.6342C13.3126 16.6332 13.0774 16.5664 12.607 16.4329C10.0792 15.7154 7.69387 14.3617 5.70388 12.3717C3.7139 10.3817 2.36017 7.99643 1.6427 5.4686C1.50919 4.99822 1.44244 4.76304 1.44141 4.41891C1.44028 4.03706 1.57475 3.51999 1.76176 3.18707C1.9303 2.88704 2.15098 2.66636 2.59233 2.22501L2.72369 2.09365C3.16656 1.65078 3.388 1.42934 3.62581 1.30906C4.09878 1.06983 4.65734 1.06983 5.1303 1.30906C5.36812 1.42934 5.58955 1.65078 6.03242 2.09365L6.19481 2.25604C6.48615 2.54738 6.63182 2.69305 6.72706 2.83953C7.08622 3.39194 7.08622 4.10409 6.72706 4.6565C6.63182 4.80298 6.48615 4.94865 6.19481 5.23999C6.09955 5.33525 6.05192 5.38288 6.01206 5.43855C5.87038 5.63641 5.82146 5.92329 5.88957 6.15692C5.90873 6.22266 5.93367 6.27462 5.98356 6.37853Z" stroke="white" stroke-width="2" stroke-linecap="round" stroke-linejoin="round"/>
</svg>
