<svg width="15" height="20" viewBox="0 0 15 20" fill="none" xmlns="http://www.w3.org/2000/svg">
<path d="M11.9294 12.9593V14.8948C11.93 15.0745 11.9028 15.2523 11.8497 15.417C11.7965 15.5816 11.7186 15.7294 11.6208 15.8509C11.5231 15.9723 11.4077 16.0648 11.282 16.1224C11.1563 16.18 11.0232 16.2013 10.891 16.1852C9.42528 15.9694 8.01731 15.291 6.78027 14.2045C5.62937 13.2139 4.6536 11.8923 3.92227 10.3334C3.11725 8.65032 2.61627 6.73402 2.45992 4.73979C2.44802 4.56138 2.46367 4.38157 2.50589 4.2118C2.5481 4.04203 2.61595 3.88603 2.70512 3.75372C2.79429 3.62142 2.90282 3.51571 3.0238 3.44333C3.14478 3.37095 3.27557 3.33348 3.40783 3.33331H4.83683C5.068 3.33023 5.29211 3.44111 5.46738 3.64528C5.64266 3.84944 5.75714 4.13297 5.7895 4.44301C5.84981 5.06242 5.96167 5.6706 6.12293 6.25595C6.18702 6.48687 6.20089 6.73784 6.1629 6.97911C6.12491 7.22038 6.03665 7.44185 5.90858 7.61726L5.30364 8.43663C5.98172 10.0519 6.96912 11.3892 8.16164 12.3077L8.76659 11.4883C8.8961 11.3148 9.05961 11.1953 9.23774 11.1438C9.41587 11.0924 9.60116 11.1112 9.77165 11.198C10.2038 11.4164 10.6528 11.5679 11.1102 11.6496C11.3415 11.6938 11.5529 11.8517 11.7039 12.0931C11.855 12.3346 11.9352 12.6429 11.9294 12.9593Z" fill="white"/>
</svg>
