<svg width="20" height="20" viewBox="0 0 20 20" fill="none" xmlns="http://www.w3.org/2000/svg">
<path d="M10 17.5C14.1421 17.5 17.5 14.1421 17.5 10C17.5 5.85786 14.1421 2.5 10 2.5C5.85786 2.5 2.5 5.85786 2.5 10C2.5 14.1421 5.85786 17.5 10 17.5Z" stroke="white" stroke-width="2" stroke-linecap="round" stroke-linejoin="round"/>
<path d="M14.347 16.1103C13.2789 14.9174 11.727 14.1667 9.99978 14.1667C8.27257 14.1667 6.72069 14.9174 5.65259 16.1103" stroke="white" stroke-width="2" stroke-linecap="round" stroke-linejoin="round"/>
<path d="M10 11.6667C11.3807 11.6667 12.5 10.5475 12.5 9.16675C12.5 7.78604 11.3807 6.66675 10 6.66675C8.61929 6.66675 7.5 7.78604 7.5 9.16675C7.5 10.5475 8.61929 11.6667 10 11.6667Z" stroke="white" stroke-width="2" stroke-linecap="round" stroke-linejoin="round"/>
</svg>
