<svg width="38" height="38" viewBox="0 0 38 38" fill="none" xmlns="http://www.w3.org/2000/svg">
<g clip-path="url(#clip0_369_1165)">
<path d="M16.0571 22.5625V36.5875C16.0571 36.8153 16.2383 37 16.4619 37H22.1285C22.3521 37 22.5333 36.8153 22.5333 36.5875V22.5625C22.5333 22.3347 22.7145 22.15 22.938 22.15H26.9857C27.2092 22.15 27.3904 21.9653 27.3904 21.7375V16.7875C27.3904 16.5597 27.2092 16.375 26.9857 16.375H22.938C22.7145 16.375 22.5333 16.1906 22.5333 15.9628V12.25C22.5333 10.6 24.5571 9.775 25.3666 9.775H27.7952C28.0187 9.775 28.2 9.59032 28.2 9.3625V4.4125C28.2 4.18468 28.0188 4 27.7952 4H22.5333C18.6476 4 16.0571 8.125 16.0571 10.6V15.9625C16.0571 16.1903 15.8759 16.375 15.6523 16.375H11.6047C11.3812 16.375 11.2 16.5597 11.2 16.7875V21.7375C11.2 21.9653 11.3812 22.15 11.6047 22.15H15.6523C15.8759 22.15 16.0571 22.3347 16.0571 22.5625Z" fill="white"/>
<path d="M0.5 18.2402C0.5 13.9269 0.501062 10.7422 0.82944 8.29974C1.15588 5.87168 1.79753 4.25219 3.02474 3.02498C4.25195 1.79777 5.87144 1.15613 8.29949 0.829684C10.7419 0.501306 13.9266 0.500244 18.24 0.500244H19.76C24.0734 0.500244 27.2581 0.501306 29.7005 0.829684C32.1285 1.15613 33.748 1.79777 34.9753 3.02499C36.2025 4.25219 36.8441 5.87168 37.1706 8.29974C37.4989 10.7422 37.5 13.9269 37.5 18.2402V19.7602C37.5 24.0736 37.4989 27.2583 37.1706 29.7007C36.8441 32.1288 36.2025 33.7483 34.9753 34.9755C33.748 36.2027 32.1285 36.8444 29.7005 37.1708C27.2581 37.4992 24.0734 37.5002 19.76 37.5002H18.24C13.9266 37.5002 10.7419 37.4992 8.29949 37.1708C5.87144 36.8444 4.25195 36.2027 3.02474 34.9755C1.79753 33.7483 1.15588 32.1288 0.82944 29.7007C0.501062 27.2583 0.5 24.0736 0.5 19.7602V18.2402Z" stroke="white"/>
</g>
<defs>
<clipPath id="clip0_369_1165">
<rect width="38" height="38" fill="white"/>
</clipPath>
</defs>
</svg>
