<svg width="38" height="38" viewBox="0 0 38 38" fill="none" xmlns="http://www.w3.org/2000/svg">
<path d="M0.5 18.24C0.5 13.9266 0.501062 10.7419 0.82944 8.29949C1.15588 5.87144 1.79753 4.25195 3.02474 3.02474C4.25195 1.79753 5.87144 1.15588 8.29949 0.82944C10.7419 0.501062 13.9266 0.5 18.24 0.5H19.76C24.0734 0.5 27.2581 0.501062 29.7005 0.82944C32.1285 1.15588 33.748 1.79753 34.9753 3.02474C36.2025 4.25195 36.8441 5.87144 37.1706 8.29949C37.4989 10.7419 37.5 13.9266 37.5 18.24V19.76C37.5 24.0734 37.4989 27.2581 37.1706 29.7005C36.8441 32.1285 36.2025 33.748 34.9753 34.9753C33.748 36.2025 32.1285 36.8441 29.7005 37.1706C27.2581 37.4989 24.0734 37.5 19.76 37.5H18.24C13.9266 37.5 10.7419 37.4989 8.29949 37.1706C5.87144 36.8441 4.25195 36.2025 3.02474 34.9753C1.79753 33.748 1.15588 32.1285 0.82944 29.7005C0.501062 27.2581 0.5 24.0734 0.5 19.76V18.24Z" stroke="white"/>
<path d="M20.154 27.3599C11.3255 27.3599 6.2899 21.3689 6.08008 11.3999H10.5024C10.6477 18.7169 13.9079 21.8162 16.4902 22.4553V11.3999H20.6545V17.7104C23.2046 17.4388 25.8835 14.5631 26.7873 11.3999H30.9515C30.2575 15.298 27.3523 18.1737 25.2864 19.3559C27.3523 20.3145 30.6612 22.8227 31.9201 27.3599H27.3362C26.3516 24.3245 23.8986 21.976 20.6545 21.6565V27.3599H20.154Z" fill="white"/>
</svg>
