<svg width="1549" height="1722" viewBox="0 0 1549 1722" fill="none" xmlns="http://www.w3.org/2000/svg">
<path d="M861.765 1191.49C823.532 1190.7 796.153 1187 772.991 1179.51C684.783 1149.39 621.615 1034.87 612.072 887.76C607.921 814.184 620.553 745.529 648.602 689.224C673.499 640.165 714.542 593.239 777.767 541.545C821.453 506.252 872.002 475.653 936.848 445.247C1002.61 414.706 1054.86 400.71 1106.24 399.869C1108.57 399.852 1110.9 399.866 1113.37 399.918C1171.79 401.135 1264.02 421.785 1360.07 455.159C1457.7 489.079 1540.64 530.022 1581.92 564.682C1694.58 627.072 1678.37 685.483 1653.83 773.899C1642.95 813.119 1630.62 857.571 1626.21 911.504C1623.04 950.425 1620.8 985.192 1618.82 1015.87C1609.34 1163.18 1605.02 1230.42 1525.05 1303.12C1505.61 1319.97 1479.93 1328.19 1448.74 1327.54C1424.15 1327.03 1395.93 1321.01 1364.85 1309.65C1336.66 1299.24 1307.61 1286.38 1276.86 1272.75C1236.42 1254.83 1194.6 1236.3 1148.83 1220.65C1094.36 1202.26 1034.5 1192.63 965.809 1191.2C955.614 1190.99 944.918 1190.95 934.02 1191.09C929.123 1191.15 924.264 1191.22 919.451 1191.29C899.247 1191.59 880.163 1191.88 861.765 1191.49ZM1113.39 399.093C1110.91 399.042 1108.57 399.025 1106.21 399.04C1054.64 399.884 1002.25 413.916 936.314 444.535C871.387 474.977 820.769 505.62 777.015 540.963C713.693 592.739 672.581 639.749 647.63 688.913C619.525 745.333 606.871 814.105 611.03 887.797C620.592 1035.22 684.008 1150.03 772.591 1180.28C795.883 1187.81 823.378 1191.52 861.742 1192.32C880.164 1192.71 899.258 1192.42 919.476 1192.12C924.289 1192.05 929.143 1191.98 934.041 1191.91C944.925 1191.78 955.605 1191.82 965.787 1192.03C1034.34 1193.46 1094.08 1203.07 1148.43 1221.41C1194.13 1237.05 1235.93 1255.56 1276.35 1273.47C1307.12 1287.11 1336.18 1299.98 1364.41 1310.4C1395.63 1321.81 1423.99 1327.85 1448.72 1328.37C1480.22 1329.02 1506.16 1320.71 1525.83 1303.67C1564.71 1268.32 1586.7 1233.83 1599.34 1188.33C1611.61 1144.16 1615.07 1090.37 1619.87 1015.92C1621.84 985.242 1624.08 950.475 1627.26 911.56C1631.66 857.695 1643.98 813.271 1654.86 774.08C1667.52 728.445 1677.52 692.397 1670.49 658.942C1662.89 622.771 1635.79 593.51 1582.6 564.059C1541.3 529.377 1458.24 488.363 1360.49 454.398C1264.31 420.987 1171.94 400.313 1113.39 399.093Z" fill="url(#paint0_linear_153_334)" fill-opacity="0.75"/>
<path d="M1112.54 408.858C1113.92 408.864 1115.3 408.884 1116.71 408.913C1172.53 410.075 1261.35 430.194 1354.29 462.74C1448.89 495.854 1529.54 535.831 1570.04 569.677C1679.43 630.51 1664.95 687.517 1643.02 773.808C1633.54 811.122 1622.8 853.415 1619.29 904.395C1616.62 941.554 1614.8 974.84 1613.19 1004.21C1605.4 1146.66 1601.85 1211.68 1525.37 1282.49C1505.23 1300.79 1477.98 1309.72 1444.37 1309.02C1421.83 1308.55 1396.29 1303.74 1368.47 1294.71C1334.11 1284.9 1298.31 1271.38 1260.4 1257.06C1224.78 1243.6 1187.95 1229.69 1148.59 1217.39C1066.91 1192.38 987.537 1187.53 934.942 1186.06L925.663 1185.97C914.398 1185.85 903.756 1185.75 893.17 1185.52C848.142 1184.59 811.584 1181.63 779.52 1170.26C694.796 1139.8 632.956 1028.8 621.981 887.47C615.88 815.142 626.318 747.954 652.163 693.171C675.357 644.606 714.758 598.29 776.16 547.418C820.908 510.174 873.139 478.884 940.534 448.955C1006.18 420.113 1059.05 407.743 1111.96 408.846L1112.54 408.858ZM1116.73 408.083C1115.31 408.053 1113.93 408.034 1112.55 408.033L1111.98 408.018C1058.88 406.912 1005.84 419.315 940.02 448.234C872.534 478.204 820.224 509.538 775.403 546.841C713.904 597.797 674.431 644.2 651.184 692.876C625.287 747.768 614.828 815.074 620.938 887.518C631.936 1029.15 694.016 1140.43 779.097 1171.01C811.32 1182.44 847.994 1185.41 893.148 1186.35C903.742 1186.58 914.385 1186.68 925.656 1186.8L934.922 1186.89C987.43 1188.36 1066.68 1193.2 1148.22 1218.16C1187.53 1230.45 1224.35 1244.35 1259.96 1257.8C1297.89 1272.13 1333.71 1285.66 1368.09 1295.48C1396.02 1304.54 1421.68 1309.37 1444.35 1309.85C1478.28 1310.55 1505.81 1301.53 1526.15 1283.03C1602.88 1212.01 1606.44 1146.9 1614.24 1004.25C1615.84 974.881 1617.66 941.601 1620.33 904.441C1623.83 853.523 1634.57 811.259 1644.05 773.975C1655.36 729.436 1664.3 694.258 1656.93 661.609C1648.95 626.316 1622.36 597.77 1570.71 569.054C1530.21 535.187 1449.42 495.138 1354.72 461.983C1261.64 429.395 1172.68 409.248 1116.73 408.083Z" fill="url(#paint1_linear_153_334)" fill-opacity="0.75"/>
<path d="M1439.67 1290.46C1419.36 1290.04 1396.69 1286.34 1372.29 1279.48C1330.4 1270.88 1286.13 1256.75 1239.27 1241.79C1210.03 1232.46 1179.78 1222.8 1148.23 1213.87C1070.42 1192.47 996.985 1185.15 935.408 1180.8L931.801 1180.67C875.504 1178.62 826.882 1176.85 785.347 1160.77C703.961 1130 643.347 1022.59 630.923 887.126C622.728 815.079 630.758 751.183 654.796 697.202C676.002 649.835 714.934 602.827 773.81 553.485C819.047 514.841 874.623 481.952 943.72 452.94C1009.27 425.731 1064.32 414.791 1118.6 418.149L1119.82 418.173C1173.11 419.282 1258.65 438.871 1348.65 470.569C1440.35 502.871 1518.85 541.868 1558.65 574.886C1664.98 634.139 1652.22 689.722 1632.9 773.859C1624.78 809.218 1615.58 849.295 1612.95 897.271C1610.78 932.597 1609.38 964.335 1608.14 992.336C1602.05 1129.92 1599.28 1192.71 1526.14 1261.6C1505.22 1281.51 1476.13 1291.22 1439.67 1290.46ZM1106.11 416.808C1055.7 415.759 1003.94 427.008 943.231 452.207C874.026 481.265 818.36 514.207 773.049 552.914C714.07 602.34 675.068 649.446 653.81 696.923C629.722 751.015 621.673 815.032 629.881 887.187C636.01 954.008 653.801 1015.08 681.324 1063.8C708.854 1112.52 744.669 1146.31 784.896 1161.51C826.624 1177.67 875.344 1179.44 931.759 1181.49L935.343 1181.62C996.831 1185.97 1070.19 1193.29 1147.89 1214.65C1179.41 1223.58 1209.65 1233.23 1238.89 1242.56C1285.78 1257.53 1330.08 1271.67 1371.99 1280.27C1396.46 1287.15 1419.23 1290.86 1439.65 1291.29C1476.45 1292.05 1505.82 1282.24 1526.94 1262.13C1600.31 1193.03 1603.09 1130.14 1609.18 992.371C1610.42 964.37 1611.82 932.635 1614 897.312C1616.62 849.392 1625.81 809.343 1633.93 774.012C1643.9 730.585 1651.78 696.289 1644.02 664.463C1635.65 630.052 1609.52 602.236 1559.32 574.263C1519.52 541.225 1440.89 502.158 1349.06 469.814C1258.95 438.071 1173.26 418.457 1119.84 417.345L1118.65 417.322C1114.51 417.068 1110.29 416.895 1106.11 416.808Z" fill="url(#paint2_linear_153_334)" fill-opacity="0.75"/>
<path d="M1433.63 1271.89C1415.9 1271.52 1396.42 1268.85 1375.74 1263.94C1324.72 1257.37 1270 1242.62 1212.06 1227C1191.29 1221.4 1169.81 1215.61 1147.91 1210.04C1068.06 1190.46 991.916 1181.66 936.319 1175.23C883.544 1171.84 833.728 1168.65 791.9 1150.99C753.523 1135.69 719.097 1102.86 692.328 1056.04C665.508 1009.13 647.722 950.515 640.892 886.525C630.682 815.797 636.58 753.375 658.426 700.994C677.904 654.174 715.137 607.832 772.247 559.315C818.491 518.761 875.774 485.196 947.371 456.702C1003.67 434.564 1052.19 424.72 1100.06 425.715C1108.27 425.886 1116.59 426.387 1124.8 427.211C1175.93 428.681 1257.87 447.898 1344.05 478.623C1433.4 510.476 1507.21 547.364 1546.56 579.834C1649.66 637.524 1638.67 691.698 1622.03 773.7C1615.26 807.08 1607.58 844.915 1605.8 889.866C1604.13 923.294 1603.15 953.438 1602.27 980.035C1597.92 1112.8 1595.93 1173.4 1526.24 1240.39C1504.51 1262.12 1473.35 1272.72 1433.63 1271.89ZM1100.08 424.887C1052.04 423.887 1003.36 433.762 946.902 455.958C875.184 484.502 817.803 518.126 771.477 558.755C714.268 607.355 676.962 653.798 657.435 700.73C635.543 753.228 629.628 815.766 639.855 886.601C646.692 950.674 664.509 1009.39 691.38 1056.38C718.249 1103.37 752.842 1136.34 791.423 1151.72C833.431 1169.46 883.353 1172.66 936.207 1176.05C991.736 1182.47 1067.83 1191.27 1147.6 1210.83C1169.48 1216.4 1190.96 1222.19 1211.73 1227.79C1269.71 1243.42 1324.47 1258.18 1375.51 1264.74C1396.22 1269.66 1415.79 1272.35 1433.6 1272.72C1473.67 1273.55 1505.11 1262.85 1527.05 1240.91C1596.96 1173.71 1598.95 1113.02 1603.32 980.06C1604.19 953.465 1605.18 923.326 1606.84 889.9C1608.62 844.998 1616.29 807.193 1623.06 773.836C1631.65 731.515 1638.43 698.086 1630.31 667.072C1621.54 633.542 1595.91 606.444 1547.23 579.214C1507.87 546.719 1433.94 509.763 1344.47 477.867C1258.18 447.105 1176.08 427.86 1124.88 426.387C1116.69 425.567 1108.33 425.058 1100.08 424.887Z" fill="url(#paint3_linear_153_334)" fill-opacity="0.75"/>
<path d="M1426.96 1254.72C1412.18 1254.42 1396.21 1252.64 1379.49 1249.43C1317.17 1245.99 1249.21 1230.41 1177.27 1213.91C1167.5 1211.67 1157.64 1209.41 1147.69 1207.16C1087.04 1194.04 1030.22 1185.18 980.09 1177.36C965.009 1175.01 950.766 1172.79 937.144 1170.57C882.296 1165.4 837.268 1160.03 798.215 1142.08C761.429 1126.58 728.18 1094.51 702.049 1049.36C675.856 1004.09 658.023 947.743 650.481 886.401C638.23 816.88 642.005 755.848 661.706 704.984C679.46 658.663 715.031 612.917 770.454 565.142C817.081 523.19 877.806 487.922 950.951 460.301C1003.24 440.804 1048.71 432.163 1094.05 433.106C1106.31 433.361 1118.77 434.36 1131.09 436.065C1180.35 438.173 1258.68 457.159 1340.68 486.864C1425.97 517.761 1496.8 553.455 1534.99 584.799C1635 641.031 1625.8 693.901 1611.85 773.933C1606.38 805.356 1600.17 840.969 1599.21 882.941C1598.04 914.455 1597.46 942.998 1596.95 968.181C1594.33 1096.43 1593.14 1154.96 1526.82 1220.18C1504.15 1244.01 1470.56 1255.63 1426.96 1254.72ZM1094.07 432.276C1048.56 431.33 1002.94 439.999 950.499 459.555C877.226 487.22 816.389 522.562 769.678 564.587C714.155 612.448 678.508 658.293 660.709 704.74C640.966 755.717 637.174 816.868 649.446 886.493C656.996 947.909 674.862 1004.35 701.103 1049.7C727.332 1095.03 760.738 1127.22 797.713 1142.81C836.922 1160.83 882.058 1166.22 936.983 1171.39C950.563 1173.6 964.809 1175.83 979.894 1178.18C1030.01 1185.99 1086.81 1194.85 1147.42 1207.96C1157.36 1210.21 1167.21 1212.47 1176.98 1214.71C1248.98 1231.22 1316.99 1246.81 1379.34 1250.24C1396.04 1253.46 1412.09 1255.24 1426.94 1255.55C1470.89 1256.47 1504.77 1244.74 1527.64 1220.69C1594.18 1155.26 1595.37 1096.64 1597.98 968.199C1598.5 943.018 1599.08 914.478 1600.25 882.966C1601.22 841.037 1607.41 805.448 1612.89 774.052C1620.08 732.747 1625.76 700.122 1617.25 669.861C1608.04 637.145 1582.89 610.716 1535.67 584.176C1497.46 552.809 1426.52 517.051 1341.12 486.113C1259 456.368 1180.53 437.352 1131.2 435.243C1118.9 433.533 1106.38 432.533 1094.07 432.276Z" fill="url(#paint4_linear_153_334)" fill-opacity="0.75"/>
<path d="M1364.79 1233.68C1299.14 1232.32 1227.6 1219.05 1147.64 1203.17C1114.89 1197.02 1083.81 1191.6 1053.75 1186.36C1011.63 1179.02 971.852 1172.08 937.94 1164.86C888.101 1158.56 843.688 1151.75 804.383 1132.18C769.152 1116.5 737.05 1085.27 711.531 1041.86C685.939 998.328 668.044 944.361 659.774 885.79C645.438 817.62 647.093 758.098 664.689 708.86C680.709 663.14 714.647 618.093 768.441 571.148C816.127 527.319 878.707 491.378 954.454 464.306C1002.34 447.417 1046.12 439.632 1088.26 440.509C1104.49 440.846 1121.04 442.485 1137.46 445.382C1233.52 450.942 1442.08 523.427 1523.86 589.947C1620.9 644.638 1613.5 696.132 1602.31 774.081C1598.09 803.444 1593.31 836.725 1593.13 875.599C1592.45 905.063 1592.27 931.887 1592.11 955.551C1591.29 1079.12 1590.91 1135.52 1527.85 1198.87C1504.16 1225.05 1467.69 1237.81 1419.46 1236.81C1408.1 1236.57 1396.03 1235.54 1383.6 1233.75C1377.42 1233.83 1371.13 1233.81 1364.79 1233.68ZM1088.28 439.681C1045.98 438.801 1002.06 446.611 954.023 463.554C878.135 490.673 815.433 526.689 767.658 570.599C713.76 617.633 679.747 662.785 663.685 708.632C646.045 757.991 644.383 817.632 658.742 885.901C667.02 944.537 684.946 998.592 710.584 1042.2C736.198 1085.78 768.451 1117.14 803.854 1132.89C843.305 1152.53 887.826 1159.36 937.728 1165.67C971.61 1172.89 1011.4 1179.82 1053.53 1187.17C1083.59 1192.41 1114.66 1197.83 1147.39 1203.97C1227.42 1219.87 1299.01 1233.14 1364.77 1234.51C1371.12 1234.64 1377.43 1234.66 1383.52 1234.56C1395.9 1236.36 1408.02 1237.39 1419.44 1237.63C1468.03 1238.64 1504.79 1225.77 1528.69 1199.37C1559.23 1168.69 1575.88 1138.75 1584.34 1099.29C1592.45 1061.52 1592.75 1017.07 1593.16 955.561C1593.31 931.898 1593.49 905.076 1594.17 875.612C1594.36 836.779 1599.13 803.521 1603.35 774.175C1609.12 733.947 1613.69 702.173 1604.75 672.714C1595.09 640.857 1570.35 615.143 1524.53 589.325C1487.44 559.147 1419.44 524.649 1338.01 494.731C1260.01 466.067 1185.09 447.314 1137.6 444.563C1121.2 441.667 1104.58 440.019 1088.28 439.681Z" fill="url(#paint5_linear_153_334)" fill-opacity="0.75"/>
<path d="M1328.45 1220.76C1266.85 1219.48 1202.26 1209.64 1147.2 1200.18C1073.39 1188.35 996.483 1175.51 938.658 1160.11C886.015 1151.58 846.272 1142.43 810.657 1123.2C741.817 1090.69 687.696 999.686 669.394 885.689C652.968 818.75 652.502 760.641 668.006 712.951C682.251 667.759 714.513 623.338 766.633 577.129C814.621 531.986 880.764 494.291 957.913 468.107C1002.34 453.232 1043.14 446.401 1082.66 447.222C1102.92 447.644 1122.84 450.005 1143.53 454.441C1189.09 457.839 1260.23 476.325 1333.9 503.909C1411.12 532.819 1475.99 566.043 1511.89 595.062C1605.88 648.33 1600.34 698.571 1591.97 774.623C1588.96 801.939 1585.55 832.897 1586.09 868.698C1585.88 896.081 1586.09 921.16 1586.29 943.287C1587.25 1058.89 1587.74 1116.92 1528 1178.56C1503.52 1207.08 1462.62 1221.56 1409.73 1220.46C1402.39 1220.31 1394.75 1219.86 1387 1219.11C1368.65 1220.63 1348.99 1221.19 1328.45 1220.76ZM1082.68 446.396C1043.01 445.572 1002.07 452.424 957.5 467.344C880.2 493.581 813.926 531.357 765.845 576.587C713.621 622.885 681.281 667.427 666.995 712.739C651.455 760.553 651.913 818.781 668.364 885.817C686.704 1000.04 741.016 1091.27 810.101 1123.9C849.702 1145.28 895.192 1153.91 938.391 1160.91C996.215 1176.3 1073.15 1189.15 1147 1200.99C1202.09 1210.45 1266.74 1220.3 1328.43 1221.59C1349.01 1222.01 1368.72 1221.46 1387 1219.93C1394.66 1220.68 1402.34 1221.13 1409.71 1221.29C1462.98 1222.4 1504.17 1207.79 1528.85 1179.05C1588.78 1117.2 1588.29 1059.08 1587.32 943.285C1587.14 921.161 1586.93 896.084 1587.13 868.698C1586.59 832.937 1590 801.996 1593 774.7C1597.33 735.447 1600.74 704.446 1591.37 675.713C1581.24 644.649 1556.94 619.585 1512.56 594.436C1476.65 565.397 1411.66 532.11 1334.34 503.161C1260.56 475.541 1189.3 457.022 1143.71 453.631C1123.02 449.189 1103.03 446.819 1082.68 446.396Z" fill="url(#paint6_linear_153_334)" fill-opacity="0.75"/>
<path d="M1289.04 1210.05C1247.64 1209.19 1201.09 1204.93 1146.74 1197.04C1057.34 1185.1 989.452 1171.41 939.175 1155.2C891.442 1145.61 852.372 1134.95 816.625 1114.04C751.164 1081.2 698.282 993.596 678.589 885.405C660.03 819.692 657.446 762.993 670.902 716.849C683.37 672.211 713.983 628.401 764.483 582.917C826.377 523.431 905.606 489.606 961.173 471.705C1002.46 458.588 1040.51 452.584 1077.51 453.353C1101.37 453.849 1124.93 457.105 1149.54 463.308C1238.57 471.557 1424.54 539.312 1500.17 599.991C1591.25 651.888 1587.62 700.931 1582.12 775.163C1580.25 800.374 1578.14 828.949 1579.36 861.629C1579.61 886.832 1580.19 910.083 1580.71 930.597C1583.51 1042.12 1584.91 1098.1 1528.41 1158.09C1502.65 1189.75 1457.7 1205.82 1398.38 1204.59C1395.81 1204.53 1393.17 1204.44 1390.55 1204.33C1359.35 1208.95 1326.19 1210.82 1289.04 1210.05ZM1077.53 452.526C1040.39 451.754 1002.2 457.777 960.778 470.94C905.098 488.877 825.712 522.773 763.691 582.382C713.08 627.96 682.392 671.884 669.887 716.662C656.394 762.923 658.977 819.751 677.563 885.551C697.294 993.945 750.36 1081.77 816.039 1114.73C851.893 1135.69 891.07 1146.38 938.855 1155.99C989.136 1172.2 1057.1 1185.9 1146.56 1197.85C1200.96 1205.75 1247.56 1210.01 1289.02 1210.87C1326.24 1211.65 1359.47 1209.77 1390.62 1205.15C1393.13 1205.27 1395.77 1205.36 1398.36 1205.41C1458.06 1206.65 1503.32 1190.45 1529.26 1158.56C1585.96 1098.37 1584.55 1042.3 1581.75 930.585C1581.23 910.075 1580.65 886.829 1580.39 861.618C1579.18 828.965 1581.29 800.41 1583.16 775.215C1588.68 700.708 1592.32 651.484 1500.84 599.369C1425.14 538.624 1238.85 470.75 1149.75 462.499C1125.15 456.296 1101.5 453.024 1077.53 452.526Z" fill="url(#paint7_linear_153_334)" fill-opacity="0.75"/>
<path d="M1250.22 1200.75C1217.76 1200.08 1183.83 1197.59 1146.49 1193.15C1061.01 1183.98 991.449 1169.33 939.721 1149.61C901.369 1140.28 860.682 1128.35 822.512 1104.27C760.354 1071.13 708.658 987.063 687.567 884.842C666.528 819.548 661.948 765.88 673.562 720.731C684.238 676.716 713.225 633.598 762.173 588.9C811.487 540.639 883.315 500.437 964.437 475.689C1002.9 464.114 1038.44 458.839 1073.1 459.559C1100.34 460.125 1127.36 464.38 1155.72 472.569C1241.14 482.164 1415.07 546.491 1488.93 605.133C1577.26 655.629 1575.6 703.457 1573.08 775.86C1572.27 798.857 1571.37 824.925 1573.19 854.369C1573.88 877.252 1574.81 898.534 1575.63 917.315C1580.36 1024.74 1582.72 1078.67 1529.36 1136.97C1496.71 1179.3 1438.02 1188.52 1394.53 1188.81L1394.4 1188.82C1351.04 1197.96 1303.88 1201.87 1250.22 1200.75ZM1073.12 458.735C1038.33 458.012 1002.65 463.304 964.059 474.914C882.769 499.719 810.787 540.007 761.373 588.367C712.31 633.167 683.251 676.409 672.538 720.564C660.897 765.833 665.478 819.627 686.547 885.006C707.675 987.409 759.542 1071.69 821.897 1104.93C860.172 1129.08 900.967 1141.04 939.347 1150.37C991.102 1170.11 1060.77 1184.79 1146.34 1193.97C1183.72 1198.41 1217.69 1200.9 1250.2 1201.57C1303.93 1202.69 1351.17 1198.79 1394.61 1189.63C1438.36 1189.34 1497.37 1180.03 1530.23 1137.43C1583.78 1078.93 1581.4 1024.91 1576.68 917.29C1575.85 898.515 1574.91 877.232 1574.24 854.346C1572.41 824.918 1573.32 798.871 1574.12 775.885C1576.64 703.221 1578.32 655.216 1489.6 604.506C1415.67 545.807 1241.43 481.367 1155.97 471.771C1127.61 463.575 1100.47 459.303 1073.12 458.735Z" fill="url(#paint8_linear_153_334)" fill-opacity="0.75"/>
<path d="M1214.76 1194.41C1192.59 1193.95 1169.41 1192.6 1145.85 1190.4C1062.54 1183.58 991.402 1167.9 940.115 1145.07C892.459 1131.23 859.065 1116.4 828.381 1095.47C799.439 1078.98 772.011 1050.9 749.029 1014.24C725.909 977.351 707.813 932.594 696.701 884.803C673.433 820.716 666.797 768.39 676.404 724.789C685.263 681.325 712.594 638.799 759.955 594.782C810.241 544.561 883.972 503.562 967.582 479.323C1003.45 469.067 1036.67 464.407 1069.11 465.081C1099.45 465.711 1129.69 471.069 1161.57 481.463C1244.14 492.56 1405.82 554.106 1476.98 610.158C1562.56 659.426 1562.93 706.228 1563.5 777.073C1563.67 797.816 1563.86 821.328 1566.2 847.52C1567.26 867.993 1568.46 886.404 1569.62 904.203C1576.35 1007.96 1579.73 1060.03 1529.51 1116.86C1498.31 1159.73 1440.69 1171.82 1397.85 1174.42L1397.72 1174.44C1343.72 1189.09 1282.16 1195.81 1214.76 1194.41ZM1069.13 464.254C1036.56 463.578 1003.22 468.253 967.222 478.546C883.432 502.835 809.54 543.928 759.149 594.254C711.673 638.379 684.267 681.035 675.376 724.646C665.742 768.37 672.385 820.819 695.685 884.988C706.807 932.815 724.934 977.648 748.099 1014.6C771.154 1051.39 798.695 1079.57 827.741 1096.12C858.491 1117.1 891.979 1131.97 939.684 1145.82C991.02 1168.68 1062.3 1184.38 1145.75 1191.22C1169.32 1193.42 1192.54 1194.77 1214.74 1195.24C1282.23 1196.64 1343.89 1189.91 1398 1175.24C1441.08 1172.61 1499 1160.43 1530.38 1117.3C1580.78 1060.28 1577.4 1008.1 1570.66 904.166C1569.5 886.365 1568.3 867.961 1567.24 847.477C1564.9 821.3 1564.71 797.802 1564.55 777.068C1563.98 705.975 1563.6 659.006 1477.65 609.532C1445.15 583.926 1389.03 554.295 1323.75 528.28C1262.44 503.849 1201.92 486.053 1161.85 480.674C1129.96 470.264 1099.6 464.887 1069.13 464.254Z" fill="url(#paint9_linear_153_334)" fill-opacity="0.75"/>
<path d="M1185.79 1188.92C1172.65 1188.65 1159.2 1188.04 1145.81 1187.13C1062.64 1182.38 991.827 1166.1 941.005 1140.06C898.034 1125.35 865.27 1108.76 834.697 1086.24C778.347 1051.9 730.326 976.519 706.207 884.566C680.661 821.763 671.966 770.838 679.611 728.837C686.639 685.98 712.325 644.101 758.135 600.802C809.402 548.672 885.069 506.923 971.206 483.228C1004.75 474.126 1035.85 470.011 1066.29 470.643C1099.52 471.334 1132.79 477.872 1167.99 490.634C1245.94 503.001 1398.56 562.946 1465.74 615.324C1548.75 663.405 1551.27 709.242 1555.07 778.617C1556.08 796.961 1557.22 817.753 1559.97 840.55C1561.35 858.436 1562.8 874.712 1564.2 890.452C1572.81 987.477 1577.56 1040.92 1530.4 1096.31C1500.66 1139.65 1444.08 1154.6 1401.86 1159.52C1337.57 1180.68 1264.92 1190.56 1185.79 1188.92ZM1066.31 469.816C1035.75 469.181 1004.53 473.313 970.864 482.448C884.537 506.192 808.703 548.038 757.325 600.279C711.394 643.691 685.632 685.709 678.58 728.72C670.91 770.839 679.618 821.889 705.202 884.776C729.357 976.873 777.52 1052.44 834.027 1086.87C864.654 1109.43 897.51 1126.06 940.518 1140.79C991.408 1166.87 1062.4 1183.19 1145.72 1187.95C1159.14 1188.87 1172.62 1189.47 1185.76 1189.75C1265.04 1191.39 1337.83 1181.49 1402.14 1160.31C1444.47 1155.39 1501.37 1140.34 1531.29 1096.74C1578.62 1041.15 1573.87 987.606 1565.24 890.398C1563.84 874.659 1562.4 858.387 1561 840.485C1558.25 817.701 1557.12 796.922 1556.11 778.585C1552.29 708.969 1549.77 662.978 1466.41 614.696C1434.59 589.882 1382.79 562.205 1320.62 536.806C1263.48 513.465 1206.54 495.913 1168.3 489.853C1133.09 477.073 1099.69 470.509 1066.31 469.816Z" fill="url(#paint10_linear_153_334)" fill-opacity="0.75"/>
<path d="M1162.03 1184.26C1156.41 1184.15 1150.7 1183.96 1145.07 1183.72C1061.7 1180.96 991.26 1164.1 941.358 1134.94C903.067 1119.6 871.06 1101.18 840.548 1076.93C787.549 1042.25 740.76 970.268 715.352 884.345C687.112 821.995 676.671 773.907 682.478 732.973C687.651 690.755 711.676 649.544 755.921 606.975C807.374 553.739 886.957 510.142 974.277 487.348C1005.7 479.259 1034.86 475.617 1063.43 476.21C1099.85 476.967 1134.89 484.529 1173.71 500.01C1247.44 513.703 1388.64 570.538 1453.58 620.633C1534.16 667.638 1538.94 712.634 1546.17 780.748C1547.85 796.515 1549.75 814.382 1552.75 833.613C1554.36 848.718 1555.98 862.66 1557.55 876.141C1568.45 969.948 1574.46 1021.62 1530.33 1075.69C1502.07 1119.43 1446.58 1137.26 1404.99 1144.51C1332.76 1172.33 1248.77 1186.06 1162.03 1184.26ZM1063.45 475.383C1034.76 474.787 1005.48 478.443 973.949 486.564C886.433 509.407 806.669 553.112 755.104 606.465C710.735 649.147 686.637 690.502 681.443 732.882C675.617 773.941 686.075 822.147 714.355 884.576C739.797 970.622 786.717 1042.78 839.851 1077.54C870.403 1101.83 902.497 1120.29 940.815 1135.64C990.814 1164.86 1061.46 1181.78 1145.03 1184.54C1150.66 1184.79 1156.38 1184.97 1162.01 1185.09C1248.92 1186.89 1333.06 1173.13 1405.33 1145.29C1447.02 1138.03 1502.82 1120.1 1531.23 1076.1C1575.53 1021.83 1569.51 970.059 1558.59 876.07C1557.02 862.59 1555.39 848.65 1553.78 833.534C1550.78 814.302 1548.88 796.44 1547.21 780.684C1543.47 745.475 1540.52 717.667 1528.32 692.063C1515.14 664.42 1492.3 642.194 1454.25 620.004C1423.61 596.369 1374.74 569.9 1316.68 545.516C1263.75 523.289 1210.44 505.991 1174.06 499.24C1135.21 483.735 1100.03 476.143 1063.45 475.383Z" fill="url(#paint11_linear_153_334)" fill-opacity="0.75"/>
<path d="M1137.9 1181.02C1057.1 1179.34 989.375 1161.89 942.042 1130.54C907.485 1114.43 878.097 1095.23 846.691 1068.25C796.964 1033.14 751.387 964.42 724.73 884.397C694.099 823.261 681.666 776.471 685.577 737.102C688.842 696.037 711.856 654.26 753.983 612.909C806.383 557.708 887.927 513.279 977.718 491.008C1007.23 483.783 1034.64 480.546 1061.53 481.105C1100.52 481.914 1138.13 490.757 1179.88 508.939C1251.85 524.505 1379.18 577.73 1442.02 625.711C1520.48 671.896 1527.31 713.983 1538.62 783.71C1540.83 797.311 1543.11 811.369 1546.15 826.84C1547.85 838.952 1549.54 850.327 1551.16 861.33C1564.64 952.447 1572.07 1002.64 1530.85 1055.67C1504.08 1099.87 1449.63 1120.62 1408.65 1130.25C1328.87 1165.32 1237.65 1182.9 1144.76 1181.12C1142.45 1181.1 1140.17 1181.06 1137.9 1181.02ZM1061.55 480.275C1034.55 479.714 1007.02 482.967 977.406 490.217C887.41 512.54 805.677 557.075 753.162 612.4C710.91 653.872 687.817 695.809 684.54 737.04C680.616 776.533 693.071 823.439 723.743 884.652C750.429 964.777 796.127 1033.65 845.963 1068.84C877.406 1095.85 906.867 1115.1 941.446 1131.22C988.892 1162.64 1056.84 1180.16 1137.88 1181.85C1140.16 1181.89 1142.44 1181.93 1144.74 1181.95C1237.82 1183.73 1329.22 1166.11 1409.06 1131C1450.13 1121.36 1504.86 1100.5 1531.76 1056.07C1573.14 1002.83 1565.7 952.536 1552.2 861.237C1550.57 850.235 1548.89 838.863 1547.18 826.736C1544.14 811.257 1541.86 797.203 1539.65 783.611C1534 748.771 1529.53 721.255 1516.53 696C1502.51 668.763 1479.74 646.893 1442.68 625.08C1413.22 602.58 1367.24 577.272 1313.26 553.858C1264.54 532.722 1214.81 515.644 1180.26 508.179C1138.48 489.968 1100.72 481.089 1061.55 480.275Z" fill="url(#paint12_linear_153_334)" fill-opacity="0.75"/>
<path d="M1126.38 1178.02C1049.98 1176.44 986.437 1158.36 942.621 1125.75C912.465 1109.47 884.726 1088.96 852.618 1059.21C806.039 1023.64 761.615 958.245 733.752 884.254C700.184 823.569 686.16 779.46 688.261 741.172C689.673 700.723 711.018 659.59 751.7 618.897C805.099 561.771 888.693 516.552 981.065 494.828C1008.86 488.372 1034.72 485.493 1060.1 486.02C1101.59 486.882 1141.66 497.055 1186.18 518.033C1253.52 534.892 1370.5 585.349 1430.88 630.863C1507.74 676.469 1517.12 718.371 1532.68 787.792C1534.98 798.024 1537.35 808.613 1540.11 819.956C1541.7 828.748 1543.28 837.206 1544.79 845.343C1561.3 934.175 1570.39 983.106 1531.92 1035.32C1506.64 1079.9 1453.16 1103.57 1412.75 1115.58C1330.41 1156.04 1237.71 1177.64 1144.57 1178.09C1138.47 1178.17 1132.35 1178.15 1126.38 1178.02ZM1060.13 485.194C1034.63 484.664 1008.67 487.556 980.764 494.036C888.181 515.813 804.39 561.136 750.872 618.393C710.059 659.21 688.639 700.515 687.22 741.136C685.114 779.551 699.164 823.776 732.775 884.537C760.668 958.608 805.194 1024.14 851.863 1059.78C883.998 1089.56 911.8 1110.11 941.974 1126.39C985.917 1159.1 1049.7 1177.26 1126.36 1178.85C1132.34 1178.97 1138.48 1178.99 1144.6 1178.91C1237.91 1178.47 1330.8 1156.83 1413.21 1116.32C1453.72 1104.29 1507.44 1080.5 1532.85 1035.7C1571.48 983.276 1562.36 934.242 1545.82 845.227C1544.31 837.089 1542.74 828.634 1541.13 819.822C1538.37 808.465 1536 797.883 1533.71 787.649C1525.92 752.904 1519.78 725.465 1505.8 700.406C1490.75 673.416 1467.85 651.772 1431.55 630.233C1371.11 584.677 1253.94 534.133 1186.6 517.283C1142.02 496.268 1101.8 486.059 1060.13 485.194Z" fill="url(#paint13_linear_153_334)" fill-opacity="0.75"/>
<path d="M1117.36 1175.09C1044.27 1173.57 984.066 1154.8 943.254 1120.8C912.748 1101.77 887.399 1078.76 858.709 1050.05C814.57 1013.39 772.435 952.902 743.072 884.066C718.759 844.088 690.928 792.228 691.301 745.262C690.842 705.458 710.49 664.983 749.699 624.962C803.233 566.798 890.981 519.63 984.435 498.783C1010.65 493.004 1035.05 490.439 1059.03 490.937C1103.47 491.859 1144.56 503.052 1192.29 527.242C1256.05 545.694 1362.42 593.803 1419.25 636.071C1495.1 681.527 1507.41 723.794 1527.81 793.823C1529.62 800.013 1531.48 806.413 1533.45 813.042C1534.61 818.099 1535.77 823.054 1536.88 827.897C1556.42 912.21 1568.21 963.101 1532.39 1014.86C1508.63 1059.74 1456.18 1086.34 1416.37 1100.76C1332.93 1145.97 1236.3 1172.27 1144.22 1174.87C1135.15 1175.2 1126.11 1175.27 1117.36 1175.09ZM1059.05 490.111C1034.96 489.611 1010.46 492.184 984.151 497.984C940.334 507.762 896.402 523.712 857.094 544.12C813.533 566.734 777.12 593.761 748.867 624.46C709.519 664.625 689.798 705.27 690.258 745.256C689.884 792.39 717.771 844.363 742.109 884.376C771.495 953.274 813.718 1013.87 857.924 1050.59C886.631 1079.31 912.026 1102.36 942.558 1121.4C983.509 1155.53 1043.96 1174.39 1117.33 1175.91C1126.11 1176.09 1135.18 1176.02 1144.26 1175.69C1190.18 1174.4 1236.84 1167.42 1282.94 1154.95C1329.66 1142.32 1374.72 1124.33 1416.88 1101.48C1456.79 1087.04 1509.46 1060.31 1533.33 1015.22C1569.3 963.245 1557.49 912.245 1537.91 827.751C1536.79 822.909 1535.64 817.956 1534.47 812.88C1532.49 806.229 1530.63 799.83 1528.83 793.643C1508.38 723.431 1496.03 681.05 1419.92 635.44C1363.03 593.134 1256.51 544.948 1192.74 526.504C1144.95 502.276 1103.69 491.038 1059.05 490.111Z" fill="url(#paint14_linear_153_334)" fill-opacity="0.75"/>
<path d="M1109.69 1172.17C1039.14 1170.7 981.663 1151.19 943.472 1115.73C914.207 1094.66 889.999 1068.5 864.371 1040.8C823.163 1003.38 782.199 946.185 751.957 883.844C724.28 842.351 695.761 793.962 693.905 749.367C691.562 710.236 709.514 670.438 747.267 631.086C801.722 571.063 891.482 523.129 987.382 502.849C1012.14 497.676 1035.21 495.39 1057.91 495.861C1104.63 496.832 1147.83 509.38 1197.97 536.55C1257.8 556.535 1352.38 601.171 1407.22 641.345C1483.31 687.437 1499.17 731.131 1525.45 803.524L1526.41 806.149L1527.03 808.299C1551.24 891.966 1565.86 942.469 1532.46 994.341C1510.23 1039.46 1458.81 1069.01 1419.59 1085.86C1333.99 1136.36 1235.95 1166.77 1143.45 1171.52C1131.99 1172.18 1120.64 1172.4 1109.69 1172.17ZM1057.93 495.034C1035.13 494.561 1011.96 496.858 987.11 502.053C890.984 522.378 801.009 570.431 746.427 630.591C708.535 670.099 690.511 710.07 692.863 749.395C694.726 794.158 723.305 842.65 751.011 884.185C781.269 946.566 822.303 1003.85 863.561 1041.32C889.193 1069.02 913.43 1095.21 942.725 1116.3C981.071 1151.91 1038.82 1171.52 1109.67 1172.99C1120.65 1173.22 1132.04 1173 1143.53 1172.34C1236.22 1167.59 1334.46 1137.12 1420.15 1086.55C1459.46 1069.67 1511.08 1040 1533.41 994.683C1566.96 942.581 1552.31 891.967 1528.04 808.119L1527.41 805.948L1526.45 803.298C1500.11 730.74 1484.22 686.949 1407.89 640.717C1352.99 600.506 1258.28 555.802 1198.46 535.829C1148.24 508.606 1104.87 496.009 1057.93 495.034Z" fill="url(#paint15_linear_153_334)" fill-opacity="0.75"/>
<path d="M1104.04 1170.02C1035.52 1168.6 980.365 1148.28 944.528 1111.27C922.126 1092.62 903.002 1070 882.755 1046.07C878.889 1041.5 874.952 1036.85 870.912 1032.12C832.204 993.39 792.429 939.433 761.772 884.064C732.206 843.507 701.471 796.354 697.473 753.809C693.239 715.328 709.491 676.179 745.784 637.452C801.135 575.523 892.868 526.778 991.17 507.058C1014.58 502.414 1036.41 500.371 1057.92 500.818C1106.85 501.833 1152.03 515.774 1204.4 546.018C1259.67 567.366 1343.14 608.833 1395.86 646.857C1468.4 691.392 1491.13 734.279 1519.96 799.621C1547.42 875.233 1562.75 924.139 1533.12 974.343C1512.43 1019.69 1462.06 1052.22 1423.44 1071.53C1335.82 1127.4 1236.4 1161.93 1143.44 1168.81C1129.99 1169.88 1116.74 1170.28 1104.04 1170.02ZM1057.95 499.992C1036.34 499.544 1014.41 501.592 990.911 506.254C892.372 526.027 800.425 574.889 744.943 636.965C708.5 675.852 692.177 715.188 696.435 753.871C700.448 796.578 731.247 843.836 760.843 884.434C791.511 939.825 831.334 993.847 870.076 1032.61C874.091 1037.3 878.026 1041.96 881.89 1046.53C902.164 1070.49 921.313 1093.13 943.738 1111.81C961.028 1129.67 983.167 1143.82 1009.51 1153.85C1037.24 1164.4 1069.04 1170.12 1104.02 1170.84C1116.76 1171.11 1130.06 1170.7 1143.54 1169.63C1236.7 1162.74 1336.32 1128.14 1424.05 1072.21C1462.75 1052.85 1513.3 1020.19 1534.08 974.664C1563.86 924.226 1548.49 875.194 1520.95 799.375C1492.05 733.866 1469.26 690.881 1396.53 646.224C1343.77 608.169 1260.19 566.647 1204.93 545.314C1152.45 515.003 1107.1 501.013 1057.95 499.992Z" fill="url(#paint16_linear_153_334)" fill-opacity="0.75"/>
<path d="M1098.68 1167.12C1031.71 1165.73 978.48 1144.6 944.745 1106.01C927.134 1089.03 912.04 1069.12 896.057 1048.05C889.81 1039.82 883.35 1031.3 876.505 1022.64C849.448 992.626 809.106 944.147 770.474 883.52C737.345 841.928 705.877 797.903 699.84 757.523C693.688 719.714 708.265 681.225 743.164 643.128C799.481 579.304 893.305 529.769 994.158 510.622C1016.04 506.508 1037.36 504.633 1057.52 505.051C1108.66 506.113 1155.79 521.468 1210.33 554.834C1256.76 575.578 1330.11 613.364 1384.27 651.694C1451.9 693.8 1481.85 733.621 1513.47 792.39C1546.04 863.388 1558.12 907.82 1533.75 953.597C1514.58 999.097 1465.19 1034.63 1427.13 1056.43C1337.45 1117.62 1236.52 1156.27 1142.87 1165.29C1127.71 1166.8 1112.84 1167.42 1098.68 1167.12ZM1057.54 504.226C1037.29 503.806 1015.88 505.688 993.912 509.82C947.128 518.702 899.885 534.856 857.288 556.535C810.986 580.1 771.229 609.88 742.316 642.645C707.26 680.914 692.618 719.598 698.806 757.622C704.869 798.158 736.398 842.28 769.57 883.921C808.207 944.563 848.581 993.08 875.642 1023.1C882.464 1031.73 888.921 1040.24 895.167 1048.47C911.167 1069.57 926.28 1089.5 943.914 1106.5C960.192 1125.12 981.345 1139.87 1006.76 1150.31C1033.54 1161.3 1064.46 1167.24 1098.66 1167.95C1112.87 1168.24 1127.79 1167.62 1143 1166.1C1236.85 1157.07 1337.98 1118.35 1427.77 1057.08C1465.92 1035.23 1515.48 999.568 1534.72 953.891C1546.82 931.183 1550.24 907.617 1545.49 879.761C1540.71 851.778 1527.74 821.09 1514.44 792.092C1482.74 733.176 1452.72 693.263 1384.94 651.064C1330.75 612.708 1257.31 574.88 1210.9 554.152C1156.23 520.7 1108.92 505.293 1057.54 504.226Z" fill="url(#paint17_linear_153_334)" fill-opacity="0.75"/>
<path d="M1094.36 1164.99C1028.74 1163.63 977.285 1141.66 945.54 1101.45C931.515 1085.71 919.462 1067.69 906.701 1048.6C899.177 1037.35 891.397 1025.71 882.784 1013.9C876.473 1006.05 869.84 997.875 862.955 989.389C837.337 957.815 808.304 922.028 780.023 883.727C739.335 836.847 710.704 798.218 703.162 762.014C695.097 724.894 707.974 687.07 741.442 649.6C797.785 584.87 895.967 533.295 997.675 514.995C1018.41 511.3 1038.64 509.626 1057.79 510.023C1111.75 511.144 1159.2 527.421 1216.47 564.447C1237.38 575.315 1310.31 614.053 1372.63 657.312C1432.81 695.445 1471.65 732.701 1506.74 785.92C1534.57 833.475 1557.16 884.29 1534.09 933.592C1520.14 969.68 1484.38 1007.17 1430.68 1042.04C1339.15 1108.56 1236.84 1151.32 1142.59 1162.46C1125.96 1164.45 1109.73 1165.31 1094.36 1164.99ZM1057.82 509.197C1038.58 508.798 1018.27 510.479 997.442 514.194C949.702 522.782 901.391 539.002 857.726 561.104C810.339 585.088 769.835 615.525 740.589 649.125C706.959 686.777 694.022 724.806 702.138 762.148C709.707 798.502 738.398 837.217 779.145 884.168C807.417 922.458 836.457 958.252 862.081 989.833C868.964 998.317 875.595 1006.49 881.894 1014.32C890.485 1026.11 898.261 1037.74 905.781 1048.99C918.562 1068.09 930.63 1086.14 944.675 1101.91C959.993 1121.31 980.227 1136.66 1004.81 1147.52C1030.7 1158.96 1060.82 1165.12 1094.33 1165.81C1109.77 1166.13 1126.06 1165.28 1142.75 1163.27C1237.2 1152.11 1339.7 1109.28 1431.36 1042.67C1485.2 1007.71 1521.08 970.08 1535.08 933.859C1545.21 912.205 1547.41 889.292 1541.78 863.839C1536.93 841.895 1526.09 817.021 1507.67 785.559C1472.5 732.21 1433.58 694.878 1373.3 656.675C1310.95 613.399 1237.96 574.636 1217.08 563.785C1159.67 526.658 1112.02 510.322 1057.82 509.197Z" fill="url(#paint18_linear_153_334)" fill-opacity="0.75"/>
<path d="M1090.46 1162.83C1026.84 1161.51 975.571 1138.05 946.09 1096.78C934.844 1081.99 925.166 1065.35 914.92 1047.73C906.836 1033.83 898.478 1019.45 888.751 1004.95C864.019 970.087 831.277 932.276 796.617 892.244L789.15 883.62C752.729 845.065 716.317 804.24 705.989 766.083C695.987 729.628 707.182 692.438 739.266 655.548C796.531 588.897 896.821 536.473 1001 518.733C1020.7 515.404 1039.93 513.911 1058.16 514.289C1128.69 515.754 1180.88 545.024 1222.64 573.463C1249.58 589.84 1303.38 623.147 1361.19 662.412C1409.55 693.7 1459.87 729.478 1500.35 779.053C1539.71 830.666 1550.66 873.331 1534.8 913.315C1521.87 949.98 1488.12 988.387 1434.49 1027.48C1341.06 1099.37 1237.28 1146.27 1142.27 1159.56C1124.32 1162.07 1106.89 1163.17 1090.46 1162.83ZM1058.18 513.464C1039.87 513.084 1020.55 514.585 1000.78 517.924C896.347 535.711 795.814 588.263 738.407 655.08C706.155 692.161 694.905 729.569 704.969 766.252C715.344 804.573 751.826 845.482 788.303 884.098L795.758 892.71C830.408 932.724 863.133 970.52 887.837 1005.35C897.547 1019.82 905.898 1034.18 913.974 1048.07C924.236 1065.72 933.924 1082.38 945.193 1097.19C959.626 1117.4 979.038 1133.38 1002.89 1144.68C1028.02 1156.59 1057.48 1162.98 1090.44 1163.66C1106.93 1164 1124.43 1162.9 1142.45 1160.37C1237.67 1147.06 1341.64 1100.08 1435.2 1028.08C1488.97 988.89 1522.82 950.354 1535.8 913.555C1551.74 873.341 1540.76 830.46 1501.23 778.618C1460.67 728.936 1410.28 693.101 1361.85 661.78C1304.04 622.511 1250.22 589.193 1223.29 572.826C1181.42 544.302 1129.04 514.936 1058.18 513.464Z" fill="url(#paint19_linear_153_334)" fill-opacity="0.75"/>
<path d="M1087.07 1160.69C1024.36 1159.39 974.536 1135.03 946.78 1092.08C937.777 1078.1 930.032 1062.56 921.832 1046.11C913.694 1029.77 905.277 1012.88 894.878 996C874.701 963.254 845.867 929.615 798.467 883.524C758.283 844.401 721.209 806.293 709.04 770.184C697.098 734.408 706.608 697.858 737.307 661.544C795.473 592.976 897.836 539.713 1004.45 522.537C1023.16 519.539 1041.45 518.205 1058.82 518.565C1131.99 520.084 1185.83 551.759 1228.85 582.541C1235.85 587.557 1243 592.714 1250.33 598.004C1279.53 619.077 1312.64 642.964 1349.74 667.562C1358.53 673.388 1367.67 679.336 1376.51 685.09C1417.82 711.964 1460.53 739.75 1493.91 772.213C1533.25 810.496 1548 853.406 1535.44 893.035C1523.72 929.71 1491.03 970.039 1438.27 1012.9C1343.02 1090.15 1237.81 1141.2 1142.01 1156.63C1122.88 1159.69 1104.4 1161.05 1087.07 1160.69ZM1058.84 517.738C1041.4 517.376 1023.03 518.717 1004.24 521.724C897.366 538.945 794.753 592.341 736.441 661.082C705.568 697.6 696.012 734.377 708.035 770.391C720.259 806.658 757.405 844.849 797.661 884.042C845.008 930.085 873.804 963.674 893.942 996.36C904.323 1013.21 912.733 1030.08 920.866 1046.41C929.073 1062.88 936.827 1078.43 945.856 1092.45C959.447 1113.48 978.088 1130.1 1001.27 1141.85C1025.7 1154.22 1054.56 1160.85 1087.04 1161.52C1104.45 1161.88 1123.02 1160.51 1142.23 1157.44C1189.93 1149.76 1240.14 1133.2 1291.49 1108.23C1342.41 1083.45 1392.05 1051.57 1439.02 1013.48C1491.9 970.513 1524.68 930.058 1536.45 893.242C1549.09 853.354 1534.27 810.183 1494.71 771.691C1461.27 739.167 1418.52 711.35 1377.17 684.45C1368.33 678.7 1359.19 672.754 1350.41 666.928C1313.32 642.345 1280.23 618.465 1251.02 597.394C1243.7 592.108 1236.54 586.946 1229.55 581.929C1186.38 551.04 1132.35 519.264 1058.84 517.738Z" fill="url(#paint20_linear_153_334)" fill-opacity="0.75"/>
<path d="M1085.85 1150.2C1023.44 1148.9 974.384 1125.63 947.733 1084.65C938.284 1070.15 930.396 1054.19 922.047 1037.3C914.614 1022.26 906.929 1006.71 897.56 991.022C893.14 983.68 888.106 976.042 882.601 968.319C864.343 942.712 840.696 915.751 805.931 880.897C767.88 842.628 732.788 805.355 721.462 770.024C710.35 735.077 719.753 699.48 749.407 664.22C783.559 623.556 832.71 589.448 891.543 565.581C929.113 549.994 970.43 538.626 1011.04 532.699C1028.91 529.988 1046.45 528.79 1063.14 529.136C1107.99 530.068 1149.24 541.785 1192.95 566.012C1204.92 572.685 1217.25 580.403 1230.66 589.607C1241.26 596.784 1252.05 604.205 1263.49 612.059C1289.12 629.662 1318.17 649.616 1349.72 670.091C1354.89 673.424 1360.11 676.767 1365.36 680.129C1401.03 702.995 1437.93 726.639 1469.16 753.384C1476.58 759.733 1483.5 766.108 1489.74 772.333C1527.33 809.719 1541.37 851.658 1529.27 890.421C1517.93 926.588 1486.46 966.084 1435.74 1007.81C1401.96 1036.04 1363.79 1061.4 1322.29 1083.2C1293.48 1098.52 1263.41 1111.8 1232.94 1122.67C1202.34 1133.55 1173.04 1141.02 1140.7 1146.18C1121.68 1149.21 1103.22 1150.56 1085.85 1150.2ZM1063.16 528.313C1046.39 527.965 1028.79 529.165 1010.84 531.889C970.136 537.826 928.717 549.227 891.063 564.849C832.076 588.778 782.789 622.981 748.539 663.759C718.716 699.219 709.268 735.039 720.453 770.221C731.83 805.714 766.991 843.065 805.116 881.407C839.847 916.228 863.465 943.156 881.696 968.722C887.189 976.429 892.211 984.049 896.622 991.373C905.974 1007.04 913.652 1022.57 921.077 1037.59C929.437 1054.51 937.334 1070.48 946.81 1085.03C973.644 1126.28 1023.02 1149.72 1085.83 1151.03C1103.28 1151.39 1121.81 1150.03 1140.9 1146.99C1173.32 1141.82 1202.71 1134.33 1233.37 1123.42C1263.9 1112.54 1294.01 1099.24 1322.88 1083.89C1364.43 1062.05 1402.66 1036.65 1436.5 1008.38C1487.34 966.554 1518.89 926.932 1530.28 890.622C1542.46 851.604 1528.35 809.411 1490.55 771.82C1484.3 765.58 1477.36 759.189 1469.92 752.828C1438.64 726.036 1401.72 702.374 1366.01 679.487C1360.76 676.128 1355.54 672.785 1350.38 669.45C1318.84 648.984 1291.05 629.896 1264.17 611.436C1252.73 603.58 1241.94 596.159 1231.34 588.982C1217.9 579.76 1205.54 572.027 1193.55 565.341C1149.66 541.012 1108.23 529.249 1063.16 528.313Z" fill="url(#paint21_linear_153_334)" fill-opacity="0.75"/>
<path d="M1084.23 1139.72C1022.22 1138.43 974.014 1116.26 948.492 1077.31C938.57 1062.25 930.56 1045.88 922.079 1028.55C915.37 1014.85 908.434 1000.67 900.095 986.23C895.912 979.103 891.138 971.652 885.904 964.081C868.548 938.968 846.166 912.597 813.331 878.582C777.445 841.218 744.367 804.824 733.893 770.303C723.627 736.22 732.911 701.617 761.494 667.45C795.015 627.138 843.209 594.482 900.861 573.007C937.209 558.809 976.4 548.904 1017.36 543.572C1034.37 541.146 1051.1 540.086 1067.08 540.418C1110.92 541.328 1151.56 552.378 1194.96 575.191C1206.75 581.459 1218.87 588.696 1232.01 597.315C1247.49 607.198 1263.57 617.71 1280.58 628.84C1302.23 642.999 1324.61 657.638 1349.12 673.176L1351.74 674.819C1390.98 699.377 1431.55 724.773 1465.16 754.296C1472.24 760.502 1478.87 766.761 1484.85 772.889C1520.66 809.338 1533.98 850.255 1522.35 888.106C1511.39 923.728 1481.18 962.346 1432.55 1002.89C1400.33 1030.62 1363.41 1054.65 1319.66 1076.37C1291.51 1090.68 1262.36 1102.92 1230.55 1113.78C1201.69 1123.59 1174.3 1130.16 1139 1135.74C1120.09 1138.74 1101.66 1140.08 1084.23 1139.72ZM1067.1 539.592C1051.05 539.259 1034.25 540.325 1017.18 542.756C976.126 548.104 936.836 558.033 900.407 572.267C842.591 593.799 794.25 626.554 760.624 666.993C731.88 701.356 722.544 736.176 732.882 770.492C743.402 805.165 776.55 841.64 812.507 879.08C845.308 913.061 867.663 939.399 884.993 964.474C890.216 972.03 894.978 979.465 899.152 986.574C907.476 1000.99 914.408 1015.15 921.11 1028.85C929.598 1046.2 937.621 1062.59 947.57 1077.68C960.12 1096.84 978.235 1112.04 1001.41 1122.87C1025.11 1133.95 1052.97 1139.89 1084.21 1140.54C1101.72 1140.9 1120.22 1139.56 1139.21 1136.55C1174.59 1130.95 1202.03 1124.37 1230.97 1114.54C1262.83 1103.66 1292.02 1091.4 1320.22 1077.06C1364.04 1055.31 1401.04 1031.23 1433.31 1003.45C1482.06 962.81 1512.36 924.068 1523.36 888.306C1535.07 850.205 1521.69 809.036 1485.67 772.386C1479.67 766.238 1473.03 759.971 1465.93 753.745C1432.26 724.173 1391.66 698.755 1352.38 674.171L1349.77 672.534C1325.27 657.001 1302.89 642.36 1281.24 628.205C1264.22 617.073 1248.15 606.56 1232.66 596.675C1219.5 588.046 1207.36 580.793 1195.54 574.506C1151.96 551.601 1111.15 540.507 1067.1 539.592Z" fill="url(#paint22_linear_153_334)" fill-opacity="0.75"/>
<path d="M1082.46 1129.2C1021.68 1127.94 973.015 1106.31 948.932 1069.85C938.474 1054.18 930.347 1037.38 921.741 1019.58C915.752 1007.19 909.562 994.392 902.221 981.229C898.257 974.302 893.733 967.027 888.772 959.609C872.289 934.962 851.128 909.157 820.159 875.937C786.369 839.44 755.24 803.887 745.596 770.131C736.154 736.873 745.342 703.224 772.899 670.12C805.85 630.117 853.173 598.876 909.758 579.769C944.362 567.142 982.619 558.388 1023.48 553.734C1039.63 551.59 1055.56 550.668 1070.83 550.985C1113.77 551.877 1153.89 562.274 1197.11 583.704C1208.75 589.584 1220.67 596.346 1233.55 604.38C1256.31 617.986 1280.53 633.107 1306.18 649.113C1319.9 657.68 1334.09 666.535 1348.94 675.715C1387.83 699.283 1428.58 724.793 1461.8 754.747C1468.58 760.837 1474.92 766.98 1480.65 773.013C1514.74 808.561 1527.37 848.506 1516.19 885.485C1505.59 920.603 1476.58 958.385 1429.95 997.785C1398.92 1025.27 1363.16 1048.03 1317.4 1069.43C1290.38 1082.52 1261.27 1094.1 1228.37 1104.83C1197.51 1114.83 1171.63 1119.9 1137.34 1125.26C1118.48 1128.24 1100.01 1129.56 1082.46 1129.2ZM1070.86 550.161C1055.52 549.843 1039.52 550.772 1023.31 552.923C982.368 557.585 944.015 566.364 909.332 579.016C852.571 598.18 805.088 629.527 772.027 669.666C744.311 702.961 735.076 736.824 744.584 770.309C754.267 804.219 785.461 839.854 819.32 876.422C850.26 909.611 871.396 935.384 887.853 959.989C892.805 967.395 897.317 974.653 901.273 981.562C908.598 994.704 914.787 1007.5 920.769 1019.87C929.386 1037.69 937.527 1054.52 948.011 1070.23C972.275 1106.96 1021.27 1128.76 1082.44 1130.03C1100.07 1130.39 1118.61 1129.06 1137.55 1126.07C1171.89 1120.69 1197.83 1115.62 1228.77 1105.6C1261.72 1094.84 1290.89 1083.25 1317.94 1070.13C1363.79 1048.7 1399.62 1025.88 1430.71 998.343C1477.46 958.847 1506.56 920.939 1517.2 885.68C1528.45 848.453 1515.77 808.264 1481.48 772.515C1475.74 766.471 1469.38 760.31 1462.58 754.205C1429.3 724.195 1388.51 698.653 1349.58 675.064C1334.73 665.887 1320.54 657.032 1306.82 648.469C1281.17 632.456 1256.94 617.334 1234.18 603.732C1221.28 595.682 1209.33 588.905 1197.66 583.008C1154.28 561.493 1113.99 551.057 1070.86 550.161Z" fill="url(#paint23_linear_153_334)" fill-opacity="0.75"/>
<path d="M1080.64 1119.43C1020.38 1118.17 972.648 1097.63 949.688 1063.07C938.677 1046.72 930.471 1029.44 921.782 1011.14C916.531 1000.08 911.1 988.641 904.758 976.786C901.03 970.06 896.766 962.956 892.077 955.668C876.504 931.464 856.608 906.191 827.558 873.72C797.191 839.472 766.806 803.276 758.028 770.259C749.431 737.78 758.502 705.043 784.988 672.955C817.307 633.211 863.678 603.341 919.086 586.573C951.797 575.499 989.046 567.875 1029.82 563.904C1045.05 562.04 1060.13 561.246 1074.63 561.547C1116.59 562.419 1156.16 572.175 1199.15 592.248C1210.61 597.738 1222.31 604.038 1234.92 611.505C1269.87 631.037 1308 654.036 1348.36 678.387C1384.06 699.352 1424.98 724.899 1457.82 755.428C1464.28 761.403 1470.32 767.441 1475.78 773.385C1508.1 808.074 1520 847.096 1509.29 883.262C1499.08 917.922 1471.31 954.918 1426.75 993.225C1396.78 1020.65 1362.24 1042.21 1314.76 1063.14C1288.72 1075.17 1260.5 1085.8 1225.98 1096.58C1194.27 1106.4 1169.3 1110.28 1137.67 1115.19L1135.64 1115.5C1116.83 1118.48 1098.32 1119.79 1080.64 1119.43ZM1074.65 560.723C1060.09 560.42 1044.95 561.214 1029.67 563.088C988.818 567.066 951.474 574.711 918.693 585.809C863.095 602.63 816.554 632.612 784.116 672.504C757.473 704.778 748.352 737.724 757.01 770.423C765.83 803.594 796.28 839.876 826.71 874.194C855.731 906.632 875.603 931.872 891.153 956.039C895.831 963.315 900.089 970.403 903.804 977.11C910.136 988.943 915.562 1000.37 920.809 1011.43C929.51 1029.75 937.729 1047.06 948.769 1063.45C971.91 1098.29 1019.97 1118.99 1080.61 1120.25C1098.38 1120.62 1116.96 1119.3 1135.85 1116.31L1137.87 1116C1169.55 1111.08 1194.56 1107.19 1226.36 1097.35C1260.94 1086.55 1289.19 1075.91 1315.28 1063.85C1362.86 1042.89 1397.48 1021.27 1427.53 993.776C1472.2 955.374 1500.04 918.253 1510.3 883.452C1521.09 847.048 1509.12 807.786 1476.62 772.898C1471.14 766.94 1465.08 760.882 1458.61 754.892C1425.71 724.3 1384.73 698.72 1348.98 677.73C1308.62 653.377 1270.48 630.372 1235.52 610.84C1222.9 603.363 1211.18 597.045 1199.68 591.539C1156.53 571.387 1116.8 561.598 1074.65 560.723Z" fill="url(#paint24_linear_153_334)" fill-opacity="0.75"/>
<path d="M1079.05 1108.94C1019.33 1107.7 972.539 1088.29 950.679 1055.7C939.062 1038.68 930.802 1020.96 922.058 1002.19C917.536 992.485 912.862 982.451 907.48 971.98C903.929 965.367 900.028 958.644 895.557 951.419C880.886 927.727 862.228 903.048 835.064 871.407C806.739 838.046 778.42 802.775 770.484 770.547C762.723 738.936 771.683 707.194 797.12 676.212C828.832 636.832 874.283 608.414 928.564 594.029C959.749 584.384 995.019 578.094 1036.41 574.795C1050.7 573.206 1064.89 572.549 1078.59 572.834C1119.65 573.686 1158.74 582.779 1201.59 601.45C1212.89 606.538 1224.38 612.36 1236.72 619.243C1267.85 635.349 1302.27 654.55 1348.32 681.509C1394.98 707.904 1428.71 731.688 1454.49 756.365C1460.64 762.208 1466.38 768.13 1471.58 773.969C1502.15 807.707 1513.35 845.702 1503.1 880.961C1493.4 914.594 1466.12 951.712 1424.21 988.297C1387.43 1022.94 1345.29 1042.83 1312.69 1056.29C1280.79 1070.24 1248.57 1080.39 1224.06 1087.68C1196.61 1095.75 1174.74 1099.01 1149.42 1102.78C1144.57 1103.5 1139.57 1104.24 1134.34 1105.05C1115.53 1108 1096.92 1109.31 1079.05 1108.94ZM1078.61 572.008C1064.85 571.723 1050.61 572.384 1036.28 573.976C994.813 577.284 959.458 583.591 928.208 593.253C873.723 607.692 828.084 636.225 796.246 675.761C770.661 706.93 761.648 738.876 769.466 770.702C777.44 803.081 805.821 838.432 834.202 871.865C861.34 903.477 879.975 928.122 894.623 951.778C899.087 958.988 902.981 965.699 906.52 972.294C911.891 982.745 916.565 992.774 921.083 1002.47C929.841 1021.27 938.109 1039.02 949.764 1056.08C971.801 1088.95 1018.92 1108.51 1079.02 1109.76C1096.98 1110.13 1115.66 1108.82 1134.54 1105.85C1139.77 1105.05 1144.77 1104.31 1149.61 1103.58C1174.98 1099.81 1196.89 1096.55 1224.43 1088.45C1248.97 1081.15 1281.24 1070.99 1313.18 1057.01C1345.85 1043.53 1388.1 1023.59 1425 988.842C1467.02 952.164 1494.38 914.921 1504.11 881.149C1514.43 845.659 1503.18 807.423 1472.43 773.495C1467.21 767.643 1461.45 761.701 1455.29 755.84C1429.45 731.11 1395.66 707.277 1348.93 680.845C1302.87 653.876 1268.44 634.669 1237.3 618.562C1224.95 611.671 1213.43 605.835 1202.09 600.733C1159.08 581.992 1119.84 572.865 1078.61 572.008Z" fill="url(#paint25_linear_153_334)" fill-opacity="0.75"/>
<path d="M1077 1098.44C1018.84 1097.23 971.927 1078.46 951.499 1048.23C939.243 1030.49 930.987 1012.31 922.247 993.054C918.451 984.692 914.523 976.046 910.081 966.98C906.768 960.583 903.118 954.034 898.924 946.948C885.357 924.054 867.435 899.212 842.519 868.77C816.264 836.262 790.04 801.881 782.957 770.388C776.04 739.6 784.885 708.815 809.247 678.891C840.32 639.831 884.812 612.824 937.913 600.792C967.35 592.588 1000.66 587.559 1042.76 584.96C1056.05 583.642 1069.28 583.111 1082.11 583.377C1122.26 584.211 1160.87 592.659 1203.63 609.955C1214.76 614.645 1226.04 619.991 1238.09 626.308C1271.53 642.242 1307.39 661.125 1347.74 684.04C1390.91 707.564 1425.49 732.039 1450.51 756.8C1456.33 762.515 1461.78 768.328 1466.71 774.073C1495.51 806.901 1505.98 843.918 1496.2 878.32C1486.88 911.462 1460.89 947.719 1421.03 983.172C1385.94 1017.27 1345.25 1035.75 1310.07 1049.33C1280.68 1061.49 1250.23 1070.64 1221.7 1078.72C1197.14 1085.58 1178.19 1088.18 1156.26 1091.19C1148.82 1092.21 1141.12 1093.27 1132.69 1094.56C1113.85 1097.51 1095.11 1098.81 1077 1098.44ZM1082.13 582.552C1069.25 582.285 1055.97 582.818 1042.65 584.141C1000.48 586.743 967.088 591.788 937.595 600.009C884.273 612.085 839.578 639.214 808.369 678.445C783.864 708.546 774.97 739.526 781.935 770.528C789.053 802.169 815.335 836.631 841.647 869.214C866.536 899.624 884.438 924.436 897.984 947.296C902.173 954.368 905.815 960.906 909.117 967.281C913.552 976.329 917.475 984.972 921.27 993.329C930.023 1012.61 938.293 1030.83 950.588 1048.62C961.131 1064.23 977.985 1076.63 1000.68 1085.48C1022.26 1093.91 1048.65 1098.67 1076.98 1099.26C1095.17 1099.64 1113.98 1098.33 1132.89 1095.36C1141.32 1094.08 1149.01 1093.02 1156.44 1092C1178.42 1088.99 1197.41 1086.39 1222.05 1079.49C1250.62 1071.41 1281.11 1062.24 1310.54 1050.07C1345.81 1036.45 1386.62 1017.91 1421.82 983.706C1461.78 948.165 1487.86 911.782 1497.21 878.504C1507.06 843.873 1496.53 806.622 1467.56 773.611C1462.62 767.85 1457.15 762.018 1451.31 756.287C1426.23 731.467 1391.58 706.93 1348.34 683.367C1307.97 660.441 1272.09 641.549 1238.64 625.611C1226.58 619.292 1215.27 613.931 1204.11 609.228C1161.2 591.866 1122.44 583.389 1082.13 582.552Z" fill="url(#paint26_linear_153_334)" fill-opacity="0.75"/>
<path d="M1075.1 1087.93C1017.68 1086.74 971.854 1069.11 952.518 1040.77C939.578 1022.27 931.753 1004.49 922.69 983.912C919.596 976.882 916.396 969.61 912.833 961.974C909.746 955.77 906.342 949.395 902.431 942.474C889.765 920.069 873.12 895.812 850.053 866.134C825.84 834.483 801.678 801.005 795.443 770.234C789.364 740.264 798.097 710.437 821.407 681.583C851.87 642.843 895.446 617.252 947.42 607.578C982.6 598.926 1020.39 596.388 1049.38 595.139C1061.61 594.089 1073.82 593.679 1085.71 593.926C1125.05 594.743 1163.3 602.55 1206.11 618.486C1217.08 622.773 1228.14 627.65 1239.92 633.391C1275.17 648.718 1310.42 666.117 1347.72 686.591C1388.45 707.874 1422.84 732.307 1447.19 757.254C1452.7 762.848 1457.86 768.549 1462.53 774.199C1489.58 806.101 1499.35 842.147 1490.02 875.692C1478.73 916.948 1444.89 954.125 1418.5 978.049C1384.84 1011.77 1345.5 1028.89 1308 1042.38C1279.79 1053.36 1251.37 1061.27 1219.8 1069.75C1197.25 1075.72 1180.37 1077.78 1160.82 1080.16C1151.69 1081.27 1142.26 1082.42 1131.41 1084.06C1112.47 1087.01 1093.52 1088.32 1075.1 1087.93ZM1085.73 593.107C1073.8 592.859 1061.54 593.266 1049.29 594.318C1020.27 595.567 982.397 598.113 947.138 606.784C894.932 616.503 851.136 642.218 820.528 681.14C797.08 710.166 788.295 740.186 794.419 770.362C800.684 801.277 824.898 834.839 849.166 866.561C872.212 896.208 888.836 920.436 901.484 942.806C905.389 949.718 908.785 956.081 911.864 962.263C915.419 969.884 918.619 977.153 921.712 984.179C930.79 1004.8 938.626 1022.6 951.611 1041.16C971.119 1069.76 1017.28 1087.56 1075.08 1088.76C1093.58 1089.14 1112.6 1087.83 1131.61 1084.87C1142.44 1083.23 1151.86 1082.08 1160.98 1080.97C1180.58 1078.59 1197.51 1076.53 1220.14 1070.53C1251.74 1062.04 1280.2 1054.11 1308.45 1043.12C1346.05 1029.6 1385.51 1012.42 1419.3 978.577C1445.75 954.596 1479.69 917.296 1491.04 875.871C1500.42 842.104 1490.61 805.835 1463.4 773.747C1458.71 768.077 1453.53 762.359 1448.01 756.75C1423.59 731.735 1389.11 707.239 1348.3 685.911C1310.98 665.424 1275.7 648.012 1240.44 632.68C1228.66 626.936 1217.56 622.047 1206.55 617.743C1163.61 601.754 1125.22 593.927 1085.73 593.107Z" fill="url(#paint27_linear_153_334)" fill-opacity="0.75"/>
<path d="M1072.54 1078.14C1015.93 1076.96 971.232 1060.46 952.974 1033.99C939.309 1014.74 931.597 996.566 922.668 975.529C920.238 969.804 917.725 963.886 914.979 957.673C912.116 951.673 908.957 945.472 905.32 938.704C893.545 916.804 878.164 893.134 856.914 864.209C834.713 833.431 812.589 800.866 807.199 770.805C801.95 741.655 810.586 712.785 832.861 685.003C862.743 646.594 905.441 622.422 956.342 615.099C986.149 608.829 1017.54 606.951 1055.53 606.061C1066.61 605.266 1077.72 604.977 1088.57 605.203C1127.19 606.005 1165.22 613.172 1208.27 627.754C1219.1 631.639 1229.97 636.046 1241.48 641.221C1277.89 655.505 1312.58 671.421 1347.54 689.889C1386.68 709.419 1419.97 733.123 1443.82 758.448C1449.02 763.918 1453.89 769.502 1458.3 775.058C1483.64 806.035 1492.71 841.097 1483.83 873.791C1473 914.429 1440.9 950.521 1415.88 973.644C1385.23 1005.28 1349.68 1021.5 1305.74 1036.12C1278.6 1046.01 1250.97 1053.02 1221.72 1060.45L1217.62 1061.49C1196.52 1066.76 1181.15 1068.36 1163.35 1070.19C1153.1 1071.26 1142.5 1072.35 1129.75 1074.26C1110.63 1077.23 1091.38 1078.53 1072.54 1078.14ZM1088.6 604.382C1077.7 604.156 1066.55 604.444 1055.46 605.24C1017.44 606.129 985.973 608.013 956.113 614.295C904.955 621.657 862.017 645.956 831.981 684.564C809.572 712.512 800.885 741.568 806.169 770.915C811.587 801.122 833.763 833.768 856.015 864.617C877.244 893.514 892.606 917.157 904.365 939.023C907.998 945.78 911.147 951.971 914.001 957.949C916.741 964.147 919.257 970.065 921.683 975.787C930.63 996.865 938.355 1015.07 952.065 1034.39C970.5 1061.11 1015.53 1077.78 1072.52 1078.96C1091.44 1079.35 1110.76 1078.04 1129.95 1075.07C1142.66 1073.16 1153.25 1072.07 1163.48 1071.01C1181.33 1069.17 1196.76 1067.57 1217.94 1062.27L1222.05 1061.23C1251.33 1053.79 1278.98 1046.77 1306.16 1036.87C1350.24 1022.2 1385.92 1005.92 1416.69 974.164C1441.77 950.987 1473.97 914.77 1484.85 873.966C1493.78 841.059 1484.67 805.776 1459.18 774.618C1454.76 769.049 1449.87 763.441 1444.65 757.958C1420.72 732.553 1387.34 708.779 1348.11 689.197C1313.12 670.718 1278.39 654.785 1241.96 640.493C1230.45 635.32 1219.55 630.904 1208.68 627C1165.5 612.376 1127.35 605.187 1088.6 604.382Z" fill="url(#paint28_linear_153_334)" fill-opacity="0.75"/>
<path d="M1069.91 1067.63C1014.39 1066.48 971.007 1051.1 953.871 1026.5C939.512 1006.51 932.018 987.996 923.34 966.561C921.531 962.097 919.659 957.473 917.653 952.646C915.017 946.846 912.112 940.82 908.761 934.212C897.912 912.837 883.83 889.753 864.436 861.568C844.299 831.673 824.255 800.026 819.727 770.656C815.326 742.324 823.842 714.416 845.04 687.711C874.277 649.632 916.007 626.875 965.722 621.895C994.851 616.859 1025.22 616.37 1061.91 616.25C1071.68 615.7 1081.5 615.528 1091.15 615.729C1129.05 616.516 1166.92 623.047 1210.33 636.288C1221 639.772 1231.65 643.705 1242.86 648.308C1279.99 661.31 1314.03 675.747 1346.95 692.445C1384.05 710.092 1417.02 733.69 1439.82 758.899C1444.71 764.243 1449.28 769.719 1453.42 775.173C1476.99 805.212 1485.33 839.295 1476.93 871.143C1466.58 911.169 1436.28 946.176 1412.69 968.495C1383.17 999.947 1347.54 1015.48 1303.14 1029.13C1278.91 1037.35 1254.3 1043.2 1228.24 1049.4C1223.96 1050.42 1219.65 1051.44 1215.29 1052.49C1195.32 1057.21 1180.45 1058.44 1164.71 1059.75C1153.74 1060.67 1142.4 1061.61 1128.14 1063.73C1108.8 1066.72 1089.21 1068.03 1069.91 1067.63ZM1091.17 614.903C1081.5 614.702 1071.63 614.882 1061.86 615.43C1025.15 615.548 994.725 616.038 965.542 621.085C915.549 626.093 873.558 648.982 844.159 687.274C822.832 714.142 814.265 742.229 818.695 770.754C823.247 800.262 843.335 831.987 863.523 861.957C882.898 890.113 896.968 913.172 907.8 934.517C911.143 941.113 914.047 947.13 916.671 952.913C918.674 957.724 920.542 962.345 922.35 966.81C931.046 988.288 938.557 1006.84 952.963 1026.89C970.28 1051.75 1013.99 1067.29 1069.89 1068.45C1089.26 1068.86 1108.93 1067.54 1128.34 1064.54C1142.55 1062.43 1153.87 1061.48 1164.82 1060.57C1180.61 1059.26 1195.52 1058.01 1215.59 1053.27C1219.95 1052.23 1224.26 1051.2 1228.55 1050.18C1254.63 1043.98 1279.28 1038.13 1303.53 1029.89C1348.09 1016.19 1383.85 1000.6 1413.5 969.004C1437.15 946.634 1467.55 911.507 1477.94 871.315C1486.41 839.259 1478.01 804.964 1454.31 774.748C1450.16 769.276 1445.57 763.783 1440.66 758.422C1417.79 733.125 1384.7 709.446 1347.5 691.746C1314.54 675.031 1280.46 660.577 1243.31 647.569C1232.1 642.966 1221.42 639.021 1210.71 635.525C1167.17 622.244 1129.19 615.693 1091.17 614.903Z" fill="url(#paint29_linear_153_334)" fill-opacity="0.75"/>
<path d="M1067.28 1057.12C1012.17 1055.97 971.227 1042.07 954.952 1018.98C939.913 998.323 933.068 980.45 924.403 957.82C923.144 954.527 921.842 951.133 920.474 947.611C918.058 941.995 915.397 936.143 912.339 929.715C902.413 908.883 889.61 886.391 872.038 858.927C854.727 831.209 835.945 799.224 832.279 770.523C828.719 743.011 837.127 716.067 857.265 690.439C885.884 652.703 926.688 631.368 975.271 628.728C1001.83 625.218 1030.28 625.752 1060.4 626.324L1068.56 626.476C1076.82 626.153 1085.14 626.075 1093.34 626.245C1130.71 627.022 1168.67 632.935 1212.83 644.859C1223.36 647.938 1233.8 651.399 1244.72 655.439C1282.9 667.166 1315.37 679.745 1346.95 695.041C1382.74 711.183 1414.54 734.03 1436.5 759.377C1441.08 764.595 1445.36 769.954 1449.24 775.319C1471.06 804.412 1478.7 837.507 1470.75 868.513C1460.88 907.924 1432.35 941.835 1410.15 963.34C1378.49 998.138 1338.91 1011.46 1301.09 1022.12C1279.21 1029 1257.01 1033.87 1233.51 1039.02C1226.9 1040.47 1220.21 1041.93 1213.42 1043.47C1194.28 1047.72 1180.39 1048.57 1165.68 1049.47C1154.25 1050.17 1142.42 1050.89 1126.91 1053.18C1107.5 1056.16 1086.88 1057.52 1067.28 1057.12ZM1093.37 625.424C1085.14 625.253 1076.79 625.329 1068.54 625.655L1060.42 625.502C1030.25 624.933 1001.75 624.394 975.143 627.914C926.26 630.565 885.175 652.039 856.378 690.01C836.121 715.787 827.664 742.902 831.248 770.601C834.931 799.437 853.755 831.502 871.112 859.294C888.667 886.734 901.457 909.2 911.365 930.001C914.425 936.421 917.081 942.263 919.485 947.86C920.852 951.37 922.151 954.763 923.41 958.055C932.096 980.733 938.955 998.648 954.049 1019.38C970.508 1042.73 1011.77 1056.78 1067.26 1057.94C1086.94 1058.35 1107.63 1056.98 1127.11 1053.99C1142.56 1051.71 1154.36 1050.98 1165.77 1050.29C1180.53 1049.39 1194.47 1048.53 1213.71 1044.26C1220.5 1042.72 1227.19 1041.26 1233.79 1039.81C1257.32 1034.65 1279.55 1029.78 1301.45 1022.89C1339.42 1012.19 1379.16 998.811 1410.98 963.842C1433.23 942.284 1461.86 908.255 1471.76 868.678C1479.77 837.474 1472.08 804.173 1450.13 774.906C1446.24 769.528 1441.95 764.145 1437.36 758.914C1415.31 733.467 1383.39 710.531 1347.47 694.332C1315.86 679.02 1283.33 666.417 1245.13 654.682C1234.2 650.649 1223.74 647.177 1213.17 644.087C1168.9 632.132 1130.84 626.203 1093.37 625.424Z" fill="url(#paint30_linear_153_334)" fill-opacity="0.75"/>
<path d="M1064.02 1047.31C1010.45 1046.19 971.039 1033.35 955.9 1012.08C940.254 990.828 934.133 973.684 925.662 949.953C924.864 947.721 924.048 945.433 923.2 943.078C921.006 937.627 918.598 931.944 915.831 925.689C906.855 905.405 895.346 883.467 879.607 856.642C860.555 823.28 847.348 795.873 844.836 770.593C842.132 743.841 850.419 717.817 869.474 693.235C897.444 655.777 937.279 635.815 984.674 635.505C995.71 634.531 1007.8 634.22 1022.79 634.532C1033.64 634.758 1044.65 635.27 1056.31 635.816C1062.43 636.1 1068.65 636.388 1074.97 636.642C1081.34 636.507 1087.78 636.506 1094.14 636.638C1131.64 637.418 1168.88 642.585 1214.91 653.393C1225.16 656.031 1235.66 659.112 1246.13 662.547C1284.65 672.731 1316.49 683.89 1346.37 697.677C1380.94 712.421 1411.52 734.553 1432.52 760.004C1436.79 765.119 1440.77 770.379 1444.36 775.635C1464.42 803.82 1471.34 835.984 1463.85 866.214C1454.47 905.096 1427.74 937.964 1406.96 958.689C1376.41 993.426 1338.23 1005.49 1298.5 1015.73C1278.59 1021.49 1258.41 1025.53 1237.04 1029.8C1228.64 1031.49 1219.94 1033.22 1211.12 1035.1C1192.64 1038.96 1179.56 1039.45 1165.72 1039.97C1154 1040.41 1141.9 1040.87 1125.34 1043.31C1105.49 1046.35 1084.29 1047.73 1064.02 1047.31ZM1022.81 633.71C1007.78 633.397 995.639 633.709 984.606 634.685C936.886 634.998 896.747 655.093 868.588 692.807C849.421 717.535 841.08 743.727 843.805 770.651C846.331 796.055 859.566 823.535 878.666 856.982C894.393 883.786 905.892 905.701 914.853 925.956C917.616 932.204 920.025 937.882 922.209 943.312C923.049 945.652 923.869 947.943 924.666 950.175C933.158 973.963 939.296 991.15 955.004 1012.49C970.323 1034.01 1010.05 1047.01 1064 1048.13C1084.34 1048.55 1105.62 1047.16 1125.53 1044.12C1142.02 1041.69 1154.09 1041.23 1165.77 1040.79C1179.67 1040.27 1192.8 1039.78 1211.39 1035.89C1220.21 1034.02 1228.9 1032.28 1237.3 1030.6C1258.69 1026.32 1278.9 1022.28 1298.84 1016.5C1338.73 1006.23 1377.09 994.106 1407.8 959.183C1428.62 938.404 1455.45 905.417 1464.87 866.375C1472.4 835.957 1465.45 803.59 1445.27 775.239C1441.67 769.967 1437.67 764.688 1433.38 759.554C1412.29 733.991 1381.57 711.762 1346.87 696.96C1316.94 683.152 1285.04 671.968 1246.49 661.777C1236.03 658.344 1225.51 655.257 1215.22 652.607C1169.09 641.778 1131.75 636.6 1094.16 635.818C1087.78 635.685 1081.33 635.686 1074.98 635.822C1068.7 635.569 1062.49 635.282 1056.36 634.995C1044.7 634.451 1033.68 633.936 1022.81 633.71Z" fill="url(#paint31_linear_153_334)" fill-opacity="0.75"/>
<path d="M993.655 642.723C998.931 642.508 1004.39 642.465 1010.4 642.591C1024.32 642.88 1038.78 644.032 1054.09 645.249C1062.84 645.944 1071.89 646.667 1081.16 647.247C1084.99 647.245 1088.84 647.285 1092.65 647.364C1130.22 648.146 1168.6 652.762 1217.09 662.327C1227.24 664.565 1237.54 667.157 1247.7 670.034C1287.09 678.697 1317.45 688.12 1346.18 700.608C1379.69 713.976 1409.13 735.33 1429.11 760.744C1433.08 765.726 1436.78 770.865 1440.1 776.017C1458.71 803.595 1464.77 833.916 1457.62 863.71C1448.72 901.95 1423.73 933.669 1404.33 953.547C1374.78 988.152 1337.9 998.978 1296.25 1008.66C1277.94 1013.47 1259.41 1016.77 1239.8 1020.27C1229.83 1022.05 1219.52 1023.9 1208.96 1025.99C1190.95 1029.5 1178.52 1029.65 1165.37 1029.81C1153.5 1029.95 1141.22 1030.1 1123.72 1032.66C1103.24 1035.76 1081.26 1037.17 1060.14 1036.73C1008.27 1035.65 970.466 1023.9 956.425 1004.48C940.228 982.842 934.865 966.616 926.748 942.054L925.423 938.046C923.44 932.764 921.275 927.264 918.798 921.216C910.656 901.324 900.712 880.631 886.557 854.117C869.876 821.904 858.412 795.383 856.689 770.677C854.824 744.769 863.011 719.74 881.018 696.282C907.648 660.233 945.35 641.677 990.063 642.608C991.256 642.633 992.457 642.668 993.655 642.723ZM1010.43 641.769C1004.39 641.643 998.9 641.688 993.652 641.902C992.496 641.854 991.288 641.812 990.085 641.787C944.974 640.849 906.952 659.543 880.128 695.857C862.015 719.454 853.777 744.639 855.653 770.717C857.386 795.541 868.877 822.132 885.601 854.43C899.746 880.924 909.679 901.597 917.814 921.464C920.287 927.507 922.45 933 924.426 938.265L925.746 942.26C933.885 966.887 939.262 983.158 955.531 1004.89C969.751 1024.56 1007.87 1036.46 1060.12 1037.55C1081.31 1037.99 1103.37 1036.58 1123.91 1033.46C1141.33 1030.92 1153.56 1030.77 1165.39 1030.63C1178.61 1030.47 1191.09 1030.31 1209.21 1026.79C1219.76 1024.69 1230.06 1022.85 1240.04 1021.07C1259.68 1017.57 1278.23 1014.26 1296.56 1009.44C1336.84 1000.08 1375.48 988.793 1405.17 954.028C1424.61 934.102 1449.7 902.264 1458.65 863.864C1465.83 833.886 1459.74 803.377 1441.02 775.641C1437.69 770.474 1433.97 765.313 1429.99 760.311C1409.91 734.773 1380.32 713.311 1346.66 699.882C1317.87 687.37 1287.44 677.922 1248.01 669.257C1237.86 666.376 1227.53 663.779 1217.35 661.536C1168.77 651.95 1130.32 647.327 1092.67 646.544C1088.85 646.464 1084.99 646.426 1081.19 646.427C1071.97 645.849 1062.93 645.129 1054.19 644.432C1038.86 643.211 1024.38 642.063 1010.43 641.769Z" fill="url(#paint32_linear_153_334)" fill-opacity="0.75"/>
<path d="M1056.26 1026.86C1006.47 1025.83 970.498 1015.12 957.568 997.488C940.953 975.59 936.385 960.385 928.822 935.2L928.304 933.475C926.528 928.329 924.609 922.998 922.435 917.165C915.278 897.985 906.573 877.847 894.215 851.87C881.84 824.952 870.254 796.507 869.287 770.854C868.278 745.719 876.355 721.631 893.294 699.247C917.801 665.595 952.108 648.253 992.516 649.094C996.038 649.167 999.651 649.379 1003.25 649.728C1004.05 649.737 1004.78 649.751 1005.52 649.766C1020.83 650.085 1037.01 651.996 1054.14 654.023C1064.97 655.303 1076.17 656.627 1087.87 657.638C1136.41 658.702 1181.73 665.034 1219.65 671.079C1229.7 672.912 1239.79 675.022 1249.62 677.358C1276.3 682.044 1311.36 689.233 1346.24 703.435C1378.25 715.34 1407.26 736.506 1425.86 761.51C1429.52 766.375 1432.93 771.404 1435.98 776.46C1452.83 803.062 1458.2 832.452 1451.51 861.461C1443.09 899.157 1419.85 929.797 1401.85 948.861C1373.33 983.382 1336.25 993.425 1294.25 1002.17C1277.35 1006.18 1260.26 1008.85 1242.17 1011.69C1230.88 1013.46 1219.21 1015.29 1207.15 1017.52C1189.52 1020.71 1177.66 1020.54 1165.11 1020.36C1153.19 1020.19 1140.86 1020.01 1122.54 1022.66C1101.55 1025.82 1078.02 1027.32 1056.26 1026.86ZM992.538 648.274C951.728 647.424 917.102 664.908 892.402 698.83C875.362 721.338 867.234 745.58 868.251 770.877C869.226 796.643 880.837 825.163 893.242 852.151C905.597 878.113 914.292 898.235 921.441 917.395C923.615 923.22 925.532 928.546 927.298 933.673L927.812 935.384C935.401 960.649 939.981 975.899 956.679 997.901C969.79 1015.78 1006.08 1026.64 1056.24 1027.68C1078.07 1028.14 1101.68 1026.64 1122.73 1023.47C1140.94 1020.83 1153.22 1021.01 1165.09 1021.18C1177.72 1021.36 1189.63 1021.53 1207.39 1018.32C1219.43 1016.09 1231.09 1014.26 1242.37 1012.5C1260.49 1009.65 1277.6 1006.97 1294.54 1002.96C1336.72 994.176 1373.99 984.075 1402.7 949.335C1420.75 930.221 1444.07 899.464 1452.53 861.609C1459.26 832.429 1453.85 802.859 1436.91 776.101C1433.85 771.033 1430.43 765.978 1426.74 761.094C1408.05 735.949 1378.87 714.666 1346.69 702.699C1311.73 688.46 1276.58 681.254 1249.88 676.564C1240.07 674.232 1229.96 672.116 1219.87 670.279C1181.89 664.222 1136.52 657.885 1087.93 656.819C1076.3 655.811 1065.11 654.49 1054.29 653.211C1036.3 651.083 1019.35 649.081 1003.32 648.91C999.739 648.565 996.093 648.348 992.538 648.274Z" fill="url(#paint33_linear_153_334)" fill-opacity="0.75"/>
<path d="M1051.16 1016.23C1023.34 1015.65 974.255 1011.43 958.065 989.687C941.163 967.726 937.396 953.686 930.556 928.195C928.958 923.059 927.287 917.903 925.424 912.338C917.58 888.936 908.368 866.126 901.225 848.864C890.9 822.953 881.331 795.495 881.236 770.311C881.086 745.944 889.051 722.8 904.917 701.517C927.504 670.045 958.77 653.817 995.339 654.578C1000.82 654.693 1006.49 655.184 1012.19 656.047C1025.68 656.952 1039.88 659.26 1054.9 661.704C1067.33 663.726 1080.18 665.814 1093.91 667.346C1134.44 669.251 1174.23 673.438 1221.53 679.14C1231.52 680.563 1241.39 682.196 1250.86 683.99C1279.33 687.707 1312.81 693.181 1345.59 705.564C1376.67 716.235 1404.47 736.643 1421.89 761.554C1425.25 766.296 1428.37 771.215 1431.15 776.179C1446.24 801.776 1450.92 830.223 1444.69 858.458C1436.75 895.615 1415.28 925.154 1398.66 943.392C1371.08 977.88 1335.38 986.801 1291.57 994.882C1275.88 998.184 1260.04 1000.31 1243.26 1002.56C1230.86 1004.22 1218.03 1005.94 1204.66 1008.23C1191.12 1010.51 1181.36 1010.65 1173.6 1010.49C1170.34 1010.42 1167.23 1010.29 1163.94 1010.15C1160.69 1010.01 1157.31 1009.87 1153.81 1009.79C1146.17 1009.63 1135.51 1009.72 1120.69 1011.85C1098.67 1015.15 1073.97 1016.7 1051.16 1016.23ZM995.361 653.757C958.387 652.987 926.805 669.357 904.022 701.105C888.289 722.208 880.051 746.14 880.199 770.309C880.295 795.605 889.888 823.132 900.239 849.112C907.383 866.367 916.586 889.159 924.422 912.545C926.285 918.103 927.957 923.256 929.526 928.3C936.405 953.941 940.186 968.031 957.177 990.105C973.619 1012.19 1023.1 1016.47 1051.14 1017.05C1074.02 1017.53 1098.79 1015.97 1120.89 1012.66C1135.61 1010.54 1146.2 1010.45 1153.78 1010.61C1157.28 1010.68 1160.64 1010.83 1163.89 1010.97C1167.04 1011.1 1170.3 1011.24 1173.58 1011.31C1181.4 1011.47 1191.23 1011.33 1204.88 1009.03C1218.23 1006.74 1231.05 1005.03 1243.45 1003.37C1260.24 1001.12 1276.11 998.988 1291.82 995.676C1335.85 987.559 1371.75 978.58 1399.53 943.854C1416.19 925.567 1437.74 895.908 1445.71 858.599C1451.97 830.203 1447.27 801.584 1432.09 775.839C1429.3 770.86 1426.17 765.921 1422.8 761.157C1405.27 736.088 1377.28 715.552 1346.02 704.823C1313.13 692.394 1279.56 686.909 1251.06 683.186C1241.6 681.39 1231.71 679.762 1221.7 678.332C1174.36 672.624 1134.53 668.436 1094 666.528C1080.35 665.005 1067.52 662.918 1055.11 660.9C1040.05 658.452 1025.82 656.137 1012.32 655.235C1006.62 654.373 1000.9 653.872 995.361 653.757Z" fill="url(#paint34_linear_153_334)" fill-opacity="0.75"/>
<path d="M1045.72 1006.3C1000.54 1005.36 969.647 996.91 958.737 982.507C941.672 960.662 938.562 947.402 932.915 923.337C931.525 918.291 930.097 913.302 928.552 908.067C922.223 886.621 915.102 865.738 908.349 846.365C900.438 822.665 892.463 795.072 893.277 770.195C893.981 746.899 902.066 724.064 916.658 704.154C937.828 674.221 965.626 659.402 999.282 660.104C1006.41 660.252 1013.83 661.125 1021.36 662.697C1032.69 664.154 1044.54 666.68 1057.08 669.355C1070.73 672.264 1084.84 675.27 1100.28 677.393C1124.21 679.196 1147.85 681.194 1172.89 683.312C1189.47 684.717 1206.62 686.166 1223.89 687.558C1233.88 688.562 1243.54 689.714 1252.61 690.977C1282.66 693.539 1314.68 697.38 1345.57 708.074C1375.8 717.553 1402.42 737.219 1418.64 762.025C1421.7 766.654 1424.53 771.466 1427.04 776.333C1440.38 800.921 1444.38 828.459 1438.6 855.964C1431.13 892.637 1411.4 921.093 1396.16 938.507C1369.47 973.009 1335.09 980.873 1289.45 988.219C1274.82 990.912 1260.05 992.545 1244.42 994.274C1231.03 995.755 1217.19 997.286 1202.63 999.584C1193.62 1000.98 1185.48 1001.55 1177.01 1001.37C1172.13 1001.27 1167.7 1000.95 1163 1000.61C1158.31 1000.27 1153.45 999.921 1148.1 999.81C1138.74 999.615 1129.55 1000.21 1119.21 1001.69C1096.14 1005.11 1069.36 1006.79 1045.72 1006.3ZM999.304 659.281C965.232 658.571 937.125 673.534 915.76 703.75C901.083 723.766 892.951 746.739 892.242 770.17C891.421 795.153 899.417 822.814 907.348 846.58C914.1 865.944 921.219 886.818 927.544 908.25C929.088 913.481 930.513 918.468 931.901 923.492C937.566 947.649 940.689 960.96 957.854 982.931C968.947 997.58 1000.15 1006.17 1045.7 1007.12C1069.4 1007.62 1096.27 1005.93 1119.4 1002.5C1129.67 1001.03 1138.79 1000.44 1148.08 1000.63C1153.39 1000.74 1158.23 1001.09 1162.91 1001.43C1167.62 1001.77 1172.08 1002.09 1176.99 1002.19C1185.53 1002.37 1193.75 1001.8 1202.83 1000.39C1217.36 998.096 1231.19 996.566 1244.56 995.087C1260.22 993.355 1275.01 991.719 1289.67 989.023C1335.56 981.637 1370.13 973.722 1397.03 938.957C1412.31 921.493 1432.12 892.923 1439.62 856.1C1445.43 828.439 1441.41 800.748 1427.99 776.018C1425.48 771.135 1422.64 766.3 1419.56 761.648C1403.23 736.67 1376.41 716.865 1345.97 707.313C1314.97 696.586 1282.85 692.73 1252.75 690.162C1243.7 688.901 1234.02 687.749 1224 686.741C1206.72 685.351 1189.57 683.898 1172.99 682.497C1147.95 680.379 1124.31 678.377 1100.41 676.58C1085.05 674.468 1070.97 671.465 1057.35 668.565C1044.77 665.884 1032.9 663.352 1021.57 661.895C1014.02 660.313 1006.51 659.431 999.304 659.281Z" fill="url(#paint35_linear_153_334)" fill-opacity="0.75"/>
<defs>
<linearGradient id="paint0_linear_153_334" x1="1126.62" y1="1321.66" x2="1145.82" y2="399.769" gradientUnits="userSpaceOnUse">
<stop stop-color="#005CA9"/>
<stop offset="1" stop-color="#51AF3D"/>
</linearGradient>
<linearGradient id="paint1_linear_153_334" x1="1124.91" y1="1303.19" x2="1143.53" y2="408.641" gradientUnits="userSpaceOnUse">
<stop stop-color="#005CA9"/>
<stop offset="1" stop-color="#51AF3D"/>
</linearGradient>
<linearGradient id="paint2_linear_153_334" x1="1122.83" y1="1284.7" x2="1140.88" y2="417.531" gradientUnits="userSpaceOnUse">
<stop stop-color="#005CA9"/>
<stop offset="1" stop-color="#51AF3D"/>
</linearGradient>
<linearGradient id="paint3_linear_153_334" x1="1120.76" y1="1266.21" x2="1138.24" y2="425.681" gradientUnits="userSpaceOnUse">
<stop stop-color="#005CA9"/>
<stop offset="1" stop-color="#51AF3D"/>
</linearGradient>
<linearGradient id="paint4_linear_153_334" x1="1118.64" y1="1249.14" x2="1135.61" y2="433.14" gradientUnits="userSpaceOnUse">
<stop stop-color="#005CA9"/>
<stop offset="1" stop-color="#51AF3D"/>
</linearGradient>
<linearGradient id="paint5_linear_153_334" x1="1116.55" y1="1231.33" x2="1132.99" y2="440.61" gradientUnits="userSpaceOnUse">
<stop stop-color="#005CA9"/>
<stop offset="1" stop-color="#51AF3D"/>
</linearGradient>
<linearGradient id="paint6_linear_153_334" x1="1114" y1="1217.13" x2="1130" y2="447.38" gradientUnits="userSpaceOnUse">
<stop stop-color="#005CA9"/>
<stop offset="1" stop-color="#51AF3D"/>
</linearGradient>
<linearGradient id="paint7_linear_153_334" x1="1113.53" y1="1207.23" x2="1129.19" y2="453.6" gradientUnits="userSpaceOnUse">
<stop stop-color="#005CA9"/>
<stop offset="1" stop-color="#51AF3D"/>
</linearGradient>
<linearGradient id="paint8_linear_153_334" x1="1114.12" y1="1198.75" x2="1129.47" y2="459.906" gradientUnits="userSpaceOnUse">
<stop stop-color="#005CA9"/>
<stop offset="1" stop-color="#51AF3D"/>
</linearGradient>
<linearGradient id="paint9_linear_153_334" x1="1114.28" y1="1193.15" x2="1129.39" y2="465.506" gradientUnits="userSpaceOnUse">
<stop stop-color="#005CA9"/>
<stop offset="1" stop-color="#51AF3D"/>
</linearGradient>
<linearGradient id="paint10_linear_153_334" x1="1114.78" y1="1188.27" x2="1129.67" y2="471.132" gradientUnits="userSpaceOnUse">
<stop stop-color="#005CA9"/>
<stop offset="1" stop-color="#51AF3D"/>
</linearGradient>
<linearGradient id="paint11_linear_153_334" x1="1114.53" y1="1184.1" x2="1129.22" y2="476.749" gradientUnits="userSpaceOnUse">
<stop stop-color="#005CA9"/>
<stop offset="1" stop-color="#51AF3D"/>
</linearGradient>
<linearGradient id="paint12_linear_153_334" x1="1114.61" y1="1181.36" x2="1129.14" y2="481.679" gradientUnits="userSpaceOnUse">
<stop stop-color="#005CA9"/>
<stop offset="1" stop-color="#51AF3D"/>
</linearGradient>
<linearGradient id="paint13_linear_153_334" x1="1114.68" y1="1178.61" x2="1129.06" y2="486.626" gradientUnits="userSpaceOnUse">
<stop stop-color="#005CA9"/>
<stop offset="1" stop-color="#51AF3D"/>
</linearGradient>
<linearGradient id="paint14_linear_153_334" x1="1114.4" y1="1175.85" x2="1128.61" y2="491.555" gradientUnits="userSpaceOnUse">
<stop stop-color="#005CA9"/>
<stop offset="1" stop-color="#51AF3D"/>
</linearGradient>
<linearGradient id="paint15_linear_153_334" x1="1113.75" y1="1173.08" x2="1127.8" y2="496.485" gradientUnits="userSpaceOnUse">
<stop stop-color="#005CA9"/>
<stop offset="1" stop-color="#51AF3D"/>
</linearGradient>
<linearGradient id="paint16_linear_153_334" x1="1113.81" y1="1171.05" x2="1127.71" y2="501.441" gradientUnits="userSpaceOnUse">
<stop stop-color="#005CA9"/>
<stop offset="1" stop-color="#51AF3D"/>
</linearGradient>
<linearGradient id="paint17_linear_153_334" x1="1113.16" y1="1168.25" x2="1126.92" y2="505.667" gradientUnits="userSpaceOnUse">
<stop stop-color="#005CA9"/>
<stop offset="1" stop-color="#51AF3D"/>
</linearGradient>
<linearGradient id="paint18_linear_153_334" x1="1112.85" y1="1166.2" x2="1126.47" y2="510.622" gradientUnits="userSpaceOnUse">
<stop stop-color="#005CA9"/>
<stop offset="1" stop-color="#51AF3D"/>
</linearGradient>
<linearGradient id="paint19_linear_153_334" x1="1112.55" y1="1164.12" x2="1126.03" y2="514.873" gradientUnits="userSpaceOnUse">
<stop stop-color="#005CA9"/>
<stop offset="1" stop-color="#51AF3D"/>
</linearGradient>
<linearGradient id="paint20_linear_153_334" x1="1112.25" y1="1162.04" x2="1125.6" y2="519.124" gradientUnits="userSpaceOnUse">
<stop stop-color="#005CA9"/>
<stop offset="1" stop-color="#51AF3D"/>
</linearGradient>
<linearGradient id="paint21_linear_153_334" x1="1115.82" y1="1151.65" x2="1128.73" y2="529.674" gradientUnits="userSpaceOnUse">
<stop stop-color="#005CA9"/>
<stop offset="1" stop-color="#51AF3D"/>
</linearGradient>
<linearGradient id="paint22_linear_153_334" x1="1119.02" y1="1141.26" x2="1131.49" y2="540.929" gradientUnits="userSpaceOnUse">
<stop stop-color="#005CA9"/>
<stop offset="1" stop-color="#51AF3D"/>
</linearGradient>
<linearGradient id="paint23_linear_153_334" x1="1122.23" y1="1130.85" x2="1134.26" y2="551.478" gradientUnits="userSpaceOnUse">
<stop stop-color="#005CA9"/>
<stop offset="1" stop-color="#51AF3D"/>
</linearGradient>
<linearGradient id="paint24_linear_153_334" x1="1125.42" y1="1121.18" x2="1137.02" y2="562.018" gradientUnits="userSpaceOnUse">
<stop stop-color="#005CA9"/>
<stop offset="1" stop-color="#51AF3D"/>
</linearGradient>
<linearGradient id="paint25_linear_153_334" x1="1128.99" y1="1110.8" x2="1140.15" y2="573.286" gradientUnits="userSpaceOnUse">
<stop stop-color="#005CA9"/>
<stop offset="1" stop-color="#51AF3D"/>
</linearGradient>
<linearGradient id="paint26_linear_153_334" x1="1132.19" y1="1100.41" x2="1142.92" y2="583.815" gradientUnits="userSpaceOnUse">
<stop stop-color="#005CA9"/>
<stop offset="1" stop-color="#51AF3D"/>
</linearGradient>
<linearGradient id="paint27_linear_153_334" x1="1135.76" y1="1090.02" x2="1146.06" y2="594.36" gradientUnits="userSpaceOnUse">
<stop stop-color="#005CA9"/>
<stop offset="1" stop-color="#51AF3D"/>
</linearGradient>
<linearGradient id="paint28_linear_153_334" x1="1138.95" y1="1080.34" x2="1148.82" y2="605.633" gradientUnits="userSpaceOnUse">
<stop stop-color="#005CA9"/>
<stop offset="1" stop-color="#51AF3D"/>
</linearGradient>
<linearGradient id="paint29_linear_153_334" x1="1142.16" y1="1069.95" x2="1151.59" y2="616.159" gradientUnits="userSpaceOnUse">
<stop stop-color="#005CA9"/>
<stop offset="1" stop-color="#51AF3D"/>
</linearGradient>
<linearGradient id="paint30_linear_153_334" x1="1145.73" y1="1059.57" x2="1154.73" y2="626.7" gradientUnits="userSpaceOnUse">
<stop stop-color="#005CA9"/>
<stop offset="1" stop-color="#51AF3D"/>
</linearGradient>
<linearGradient id="paint31_linear_153_334" x1="1148.92" y1="1049.89" x2="1157.51" y2="636.512" gradientUnits="userSpaceOnUse">
<stop stop-color="#005CA9"/>
<stop offset="1" stop-color="#51AF3D"/>
</linearGradient>
<linearGradient id="paint32_linear_153_334" x1="1152.12" y1="1039.47" x2="1160.33" y2="644.888" gradientUnits="userSpaceOnUse">
<stop stop-color="#005CA9"/>
<stop offset="1" stop-color="#51AF3D"/>
</linearGradient>
<linearGradient id="paint33_linear_153_334" x1="1155.66" y1="1029.75" x2="1163.53" y2="651.834" gradientUnits="userSpaceOnUse">
<stop stop-color="#005CA9"/>
<stop offset="1" stop-color="#51AF3D"/>
</linearGradient>
<linearGradient id="paint34_linear_153_334" x1="1158.49" y1="1019.29" x2="1166.03" y2="657.311" gradientUnits="userSpaceOnUse">
<stop stop-color="#005CA9"/>
<stop offset="1" stop-color="#51AF3D"/>
</linearGradient>
<linearGradient id="paint35_linear_153_334" x1="1161.67" y1="1009.54" x2="1168.9" y2="662.815" gradientUnits="userSpaceOnUse">
<stop stop-color="#005CA9"/>
<stop offset="1" stop-color="#51AF3D"/>
</linearGradient>
</defs>
</svg>
