<svg width="164" height="45" viewBox="0 0 164 45" fill="none" xmlns="http://www.w3.org/2000/svg">
<path fill-rule="evenodd" clip-rule="evenodd" d="M148.428 0.155696C147.369 0.49011 146.692 1.00547 146.121 1.91143C145.6 2.74065 145.576 3.03175 145.576 8.71852C145.576 14.5214 145.59 14.681 146.16 15.5934C147.232 17.3101 147.559 17.3821 154.278 17.3821C161.15 17.3821 161.525 17.287 162.546 15.2818C163.075 14.2409 163.105 13.8949 163.105 8.71852C163.105 3.54216 163.075 3.19611 162.546 2.15524C161.541 0.18267 161.1 0.0623747 154.651 0.00593774C151.575 -0.0210431 148.774 0.0465355 148.428 0.155696ZM156.968 3.36567C158.031 3.97558 158.63 5.1214 158.63 6.54718C158.63 7.90365 158.068 8.95218 156.442 10.6369L155.545 11.5651H157.087H158.63V12.9265V14.288H154.012H149.394L150.096 13.4558C150.482 12.9983 151.833 11.4369 153.097 9.98637C154.845 7.98236 155.397 7.17887 155.397 6.64074C155.397 5.15754 153.536 4.92635 153.245 6.37366C153.1 7.09744 153.072 7.10957 151.512 7.10957C150.085 7.10957 149.927 7.05956 149.927 6.60658C149.927 5.09541 151.546 3.19166 153.088 2.88992C154.327 2.64758 156.094 2.86417 156.968 3.36567Z" fill="white"/>
<path fill-rule="evenodd" clip-rule="evenodd" d="M148.428 0.155696C147.369 0.49011 146.692 1.00547 146.121 1.91143C145.6 2.74065 145.576 3.03175 145.576 8.71852C145.576 14.5214 145.59 14.681 146.16 15.5934C147.232 17.3101 147.559 17.3821 154.278 17.3821C161.15 17.3821 161.525 17.287 162.546 15.2818C163.075 14.2409 163.105 13.8949 163.105 8.71852C163.105 3.54216 163.075 3.19611 162.546 2.15524C161.541 0.18267 161.1 0.0623747 154.651 0.00593774C151.575 -0.0210431 148.774 0.0465355 148.428 0.155696ZM156.968 3.36567C158.031 3.97558 158.63 5.1214 158.63 6.54718C158.63 7.90365 158.068 8.95218 156.442 10.6369L155.545 11.5651H157.087H158.63V12.9265V14.288H154.012H149.394L150.096 13.4558C150.482 12.9983 151.833 11.4369 153.097 9.98637C154.845 7.98236 155.397 7.17887 155.397 6.64074C155.397 5.15754 153.536 4.92635 153.245 6.37366C153.1 7.09744 153.072 7.10957 151.512 7.10957C150.085 7.10957 149.927 7.05956 149.927 6.60658C149.927 5.09541 151.546 3.19166 153.088 2.88992C154.327 2.64758 156.094 2.86417 156.968 3.36567Z" fill="#51AF3D"/>
<path d="M0 19.9812V29.8824H3.10795H6.21589L6.21738 25.86C6.21888 22.0792 6.242 21.8822 6.60227 22.5802C6.81337 22.9887 8.46132 24.7986 10.2647 26.6026L13.5437 29.8824H17.8975H22.2514L17.3423 24.9951L12.4333 20.1079L17.4652 15.0939L22.4971 10.0799H18.1449H13.7928L10.2826 13.6072C8.35217 15.5471 6.65076 17.3573 6.50182 17.6296C6.29695 18.0041 6.22907 17.1442 6.22335 14.1023L6.21589 10.0799H3.10795H0V19.9812Z" fill="white"/>
<path d="M68.2505 10.5478C67.0469 11.1008 66.2893 11.8844 65.7761 13.1077C65.4558 13.8704 65.3912 15.3568 65.3912 21.9535V29.8824H68.4944H71.5976L71.6645 24.2671L71.7314 18.6519L75.4609 23.6109C77.5119 26.3385 79.4622 28.7742 79.7947 29.0239C80.7109 29.7121 82.7316 29.7801 83.7291 29.1566C84.1814 28.8739 86.2097 26.4229 88.3288 23.5986L92.1195 18.546L92.1862 24.2142L92.2531 29.8824H95.369H98.4849L98.4103 21.7758C98.3252 12.5577 98.2912 12.3884 96.2407 10.9463C95.3431 10.3151 94.9545 10.2037 93.6521 10.2037C90.8008 10.2037 90.2742 10.6324 85.8619 16.5482C83.7428 19.3893 81.9643 21.7139 81.9098 21.7139C81.8551 21.7139 80.1353 19.4955 78.0875 16.7843C76.04 14.0731 73.996 11.5824 73.5452 11.2493C71.8816 10.019 69.9561 9.76409 68.2505 10.5478Z" fill="white"/>
<path d="M28.9235 10.5448C25.2248 11.9102 22.7517 15.0546 22.2534 19.0242C21.7579 22.9728 24.2606 27.3566 27.9772 29.0504C32.034 30.8995 36.088 30.1715 39.5604 26.9707L41.0562 25.5922L38.9948 23.5293C37.861 22.3946 36.813 21.4663 36.6658 21.4663C36.5186 21.4663 36.0129 21.8656 35.5415 22.3537C34.3838 23.553 33.5604 23.9416 32.1779 23.9416C30.7831 23.9416 29.5824 23.2783 28.8542 22.1055C28.246 21.1255 28.1764 19.2901 28.7085 18.2655C29.5578 16.6303 31.3609 15.787 33.255 16.1387C34.0502 16.2865 35.0845 17.1962 40.279 22.3151C46.9081 28.8479 47.5921 29.3438 50.756 29.9099C55.4428 30.7485 60.5898 27.535 61.9123 22.9443L62.1241 22.2089H59.0358H55.9473L54.8073 23.0753C53.8575 23.7971 53.4609 23.9416 52.4308 23.9416C50.8346 23.9416 50.1988 23.5874 48.2425 21.6087L46.6336 19.9812L48.2425 18.3452C50.0031 16.5551 50.9584 16.0202 52.392 16.0217C53.3381 16.0224 54.9022 16.7776 55.2717 17.412C55.4251 17.6754 56.2327 17.7534 58.8036 17.7534H62.1368L61.7668 16.7095C60.8504 14.1228 59.0584 12.153 56.4711 10.8876C55.2014 10.2666 54.8214 10.2037 52.3378 10.2037C49.7843 10.2037 49.4957 10.2549 47.9867 10.978C46.4514 11.7136 45.7502 12.2589 43.3382 14.5929L42.2952 15.6023L40.2303 13.6666C37.3861 11.0005 35.7429 10.2448 32.5713 10.1445C30.7187 10.0861 29.932 10.1723 28.9235 10.5448Z" fill="white"/>
<path d="M108.487 10.5448C104.957 11.848 102.594 14.6439 101.913 18.3225C100.911 23.7352 104.68 28.9234 110.332 29.9113C112.255 30.2472 114.407 29.9185 116.291 29.0009C117.674 28.3269 120.34 26.0761 120.34 25.5818C120.34 25.2253 116.575 21.4663 116.218 21.4663C116.077 21.4663 115.576 21.8656 115.105 22.3537C113.941 23.5595 113.123 23.9416 111.708 23.9416C110.308 23.9416 108.882 23.1191 108.284 21.9666C107.743 20.925 107.8 18.7873 108.393 17.8915C109.423 16.337 111.568 15.6338 113.3 16.2833C113.684 16.4276 116.685 19.1952 119.967 22.4337C126.429 28.8101 127.216 29.3829 130.232 29.9118C134.333 30.6312 138.848 28.3519 140.723 24.6149C141.952 22.1664 141.995 22.2089 138.301 22.2089C135.488 22.2089 135.096 22.2607 134.843 22.6654C134.091 23.8624 131.294 24.3275 129.912 23.4852C128.931 22.8872 126.307 20.4057 126.307 20.0757C126.307 19.9336 127.125 19.0277 128.124 18.0628C129.469 16.7647 130.181 16.2637 130.859 16.137C132.2 15.8865 133.415 16.1939 134.364 17.0229C135.198 17.7524 135.204 17.7534 138.46 17.7534H141.72L141.236 16.484C140.278 13.9751 138.549 12.1183 136.013 10.8775C134.768 10.2681 134.375 10.2037 131.901 10.2037C129.36 10.2037 129.051 10.2579 127.55 10.9673C126.502 11.4624 125.222 12.3986 123.91 13.6283C122.797 14.6719 121.816 15.5256 121.731 15.5256C121.645 15.5256 120.748 14.7023 119.737 13.6959C118.487 12.4518 117.361 11.6022 116.218 11.0418C114.725 10.3104 114.269 10.2094 112.154 10.1438C110.284 10.0859 109.497 10.172 108.487 10.5448Z" fill="white"/>
<path d="M39.5331 40.8975V44.5196L40.2168 44.4411L40.9006 44.3629V40.8975V37.4321L40.2168 37.3538L39.5331 37.2754V40.8975Z" fill="white"/>
<path d="M42.0194 38.0425C42.0194 38.7536 42.0722 38.7935 43.014 38.7935H44.0085V41.6564V44.5196L44.6923 44.4411L45.376 44.3629L45.4464 41.5782L45.5168 38.7935H46.5195C47.467 38.7935 47.518 38.7559 47.4437 38.1128L47.3651 37.4321L44.6923 37.3618L42.0194 37.2915V38.0425Z" fill="white"/>
<path d="M47.6553 41.1864C47.564 41.2769 47.4894 41.6111 47.4894 41.9289C47.4894 42.4859 47.5605 42.5064 49.4785 42.5064H51.4676V41.7638V41.0213H49.6444C48.6414 41.0213 47.7463 41.0955 47.6553 41.1864Z" fill="white"/>
<path fill-rule="evenodd" clip-rule="evenodd" d="M52.9594 40.8868V44.5196L53.6432 44.4411C54.2692 44.3696 54.3334 44.2639 54.4027 43.1871C54.4778 42.0233 54.4873 42.0114 55.3473 42.0114C56.363 42.0114 57.5572 41.4586 57.7777 40.8864C58.1507 39.9185 57.9329 38.6331 57.2949 38.0363C56.7655 37.5412 56.3438 37.4244 54.8085 37.3472L52.9594 37.2541V40.8868ZM55.0253 40.7737C55.8918 40.7737 56.5007 40.22 56.4018 39.5222C56.3307 39.0205 56.1569 38.9041 55.3836 38.8405L54.4512 38.7635V39.7687C54.4512 40.6534 54.5198 40.7737 55.0253 40.7737Z" fill="white"/>
<path d="M59.1753 40.8975V44.4867H61.5373H63.8994V43.7441V43.0015H62.2832H60.6671V42.2589V41.5163H62.1589C63.5844 41.5163 63.6507 41.4888 63.6507 40.8975C63.6507 40.3061 63.5844 40.2787 62.1589 40.2787H60.6671V39.5361V38.7935H62.2832H63.8994V38.0509V37.3083H61.5373H59.1753V40.8975Z" fill="white"/>
<path d="M65.3912 40.8812V44.4867H69.7423H74.0935V40.8812V37.2754L73.4097 37.3538L72.726 37.4321L72.6556 40.2168L72.5852 43.0015H71.6071H70.629L70.5586 40.2168L70.4882 37.4321H69.7423H68.9964L68.926 40.2168L68.8557 43.0015H67.8776H66.8994L66.8291 40.2168L66.7587 37.4321L66.0749 37.3538L65.3912 37.2754V40.8812Z" fill="white"/>
<path d="M75.8339 40.8975V44.4867H78.1959H80.558V43.7441V43.0015H78.9418H77.3257V42.2589V41.5163H78.8175C80.243 41.5163 80.3093 41.4888 80.3093 40.8975C80.3093 40.3061 80.243 40.2787 78.8175 40.2787H77.3257V39.5361V38.7935H78.9418H80.558V38.0509V37.3083H78.1959H75.8339V40.8975Z" fill="white"/>
<path d="M82.0498 40.8975V44.5196L82.7335 44.4411C83.3807 44.3671 83.4213 44.2869 83.4919 42.9396L83.5665 41.5163H84.9215H86.2766V43.0015V44.4867H87.0225H87.7684V40.8975V37.3083H87.0225C86.284 37.3083 86.2766 37.3222 86.2766 38.6697V40.0311H84.922H83.5677L83.4924 38.7316C83.4223 37.5194 83.3713 37.4269 82.7335 37.3538L82.0498 37.2754V40.8975Z" fill="white"/>
<path d="M89.5089 40.8812C89.5089 43.8988 89.5688 44.4867 89.8766 44.4867C90.079 44.4867 91.0022 43.5431 91.9278 42.3901L93.6114 40.2935L93.7357 42.3282C93.858 44.329 93.8714 44.3641 94.5437 44.4411L95.2275 44.5196V40.9138C95.2275 37.8628 95.1698 37.3083 94.852 37.3083C94.6454 37.3083 93.7222 38.2645 92.8008 39.4333L91.125 41.5584L91.0007 39.4952C90.8783 37.4635 90.8659 37.4308 90.1926 37.3538L89.5089 37.2754V40.8812Z" fill="white"/>
<path fill-rule="evenodd" clip-rule="evenodd" d="M98.0808 37.6484C96.5386 38.3286 96.2812 40.6457 97.6375 41.6421C97.9142 41.8453 97.8377 42.1104 97.2238 43.074C96.8096 43.7243 96.4707 44.3082 96.4707 44.3716C96.4707 44.4349 96.7889 44.4867 97.178 44.4867C97.9466 44.4867 98.4232 44.0629 99.0577 42.8158C99.3113 42.3176 99.654 42.0114 99.958 42.0114C100.382 42.0114 100.449 42.1819 100.449 43.2654C100.449 44.4874 100.466 44.5176 101.133 44.4411L101.816 44.3629V40.8975V37.4321L100.325 37.3744C99.4876 37.342 98.5025 37.4623 98.0808 37.6484ZM99.6283 40.7737C100.42 40.7737 100.449 40.7388 100.449 39.7836C100.449 38.8284 100.42 38.7935 99.6283 38.7935C98.7367 38.7935 98.2111 39.1606 98.2111 39.7836C98.2111 40.4066 98.7367 40.7737 99.6283 40.7737Z" fill="white"/>
</svg>
